G04 #@! TF.FileFunction,Soldermask,Top*
%FSLAX46Y46*%
G04 Gerber Fmt 4.6, Leading zero omitted, Abs format (unit mm)*
G04 Created by KiCad (PCBNEW 4.0.7) date 04/19/20 14:30:36*
%MOMM*%
%LPD*%
G01*
G04 APERTURE LIST*
%ADD10C,0.100000*%
%ADD11C,3.400000*%
%ADD12R,1.900000X1.650000*%
%ADD13R,2.400000X2.900000*%
%ADD14R,2.900000X2.400000*%
%ADD15R,1.650000X1.900000*%
%ADD16R,1.400000X1.400000*%
%ADD17R,1.700000X1.900000*%
%ADD18R,1.300000X1.200000*%
%ADD19R,1.200000X1.300000*%
%ADD20R,1.900000X1.700000*%
%ADD21C,2.900000*%
%ADD22O,4.900000X1.400000*%
%ADD23O,1.400000X4.900000*%
%ADD24O,1.400000X2.900000*%
%ADD25O,1.400000X1.900000*%
%ADD26R,1.000000X0.850000*%
%ADD27R,2.600000X1.600000*%
%ADD28R,6.800000X6.200000*%
%ADD29O,4.900000X2.400000*%
%ADD30C,0.500000*%
G04 APERTURE END LIST*
D10*
D11*
X91100000Y-109850000D03*
X91100000Y-106040000D03*
X91100000Y-102230000D03*
X86274000Y-109850000D03*
X86274000Y-106040000D03*
X86274000Y-102230000D03*
D12*
X104414000Y-92456000D03*
X106914000Y-92456000D03*
D13*
X106204000Y-87122000D03*
X110204000Y-87122000D03*
D12*
X99390000Y-92730000D03*
X101890000Y-92730000D03*
D14*
X94100000Y-93330000D03*
X94100000Y-97330000D03*
D12*
X87850000Y-86890000D03*
X90350000Y-86890000D03*
X81554000Y-86868000D03*
X84054000Y-86868000D03*
D14*
X78400000Y-93400000D03*
X78400000Y-97400000D03*
D12*
X62250000Y-92456000D03*
X64750000Y-92456000D03*
D15*
X107950000Y-95016000D03*
X107950000Y-97516000D03*
D12*
X48494000Y-103632000D03*
X45994000Y-103632000D03*
D16*
X110490000Y-92182000D03*
X110490000Y-89682000D03*
X110490000Y-97770000D03*
X110490000Y-95270000D03*
X64750000Y-94996000D03*
X62250000Y-94996000D03*
D17*
X58500000Y-92750000D03*
X58500000Y-95450000D03*
D16*
X62250000Y-97282000D03*
X64750000Y-97282000D03*
D18*
X103616000Y-88326000D03*
X103616000Y-86426000D03*
X101616000Y-87376000D03*
X98230000Y-88290000D03*
X98230000Y-86390000D03*
X96230000Y-87340000D03*
D19*
X88260000Y-89670000D03*
X86360000Y-89670000D03*
X87310000Y-91670000D03*
D18*
X66278000Y-89342000D03*
X66278000Y-87442000D03*
X64278000Y-88392000D03*
X60436000Y-90612000D03*
X60436000Y-88712000D03*
X58436000Y-89662000D03*
X52086000Y-107254000D03*
X52086000Y-109154000D03*
X54086000Y-108204000D03*
D20*
X106850000Y-90270000D03*
X104150000Y-90270000D03*
D17*
X104394000Y-97616000D03*
X104394000Y-94916000D03*
X101950000Y-97690000D03*
X101950000Y-94990000D03*
D20*
X95150000Y-90400000D03*
X97850000Y-90400000D03*
D17*
X97430000Y-97630000D03*
X97430000Y-94930000D03*
X92820000Y-89640000D03*
X92820000Y-86940000D03*
X88392000Y-96854000D03*
X88392000Y-94154000D03*
X83312000Y-89582000D03*
X83312000Y-92282000D03*
X67800000Y-97850000D03*
X67800000Y-95150000D03*
X78486000Y-89488000D03*
X78486000Y-86788000D03*
X72390000Y-97870000D03*
X72390000Y-95170000D03*
X69850000Y-97870000D03*
X69850000Y-95170000D03*
X56400000Y-98750000D03*
X56400000Y-96050000D03*
D20*
X61040000Y-103632000D03*
X58340000Y-103632000D03*
D17*
X57150000Y-106854000D03*
X57150000Y-109554000D03*
D21*
X73700000Y-92440000D03*
X71200000Y-87400000D03*
X76200000Y-87400000D03*
D12*
X61950000Y-100000000D03*
X59450000Y-100000000D03*
D15*
X74930000Y-95270000D03*
X74930000Y-97770000D03*
X86106000Y-96754000D03*
X86106000Y-94254000D03*
D21*
X138938000Y-98044000D03*
D22*
X136860000Y-101230000D03*
X130760000Y-101270000D03*
X124714000Y-101346000D03*
X118618000Y-101346000D03*
D23*
X114554000Y-103378000D03*
X114554000Y-109220000D03*
D24*
X114554000Y-113792000D03*
D23*
X114554000Y-92964000D03*
D22*
X118618000Y-94488000D03*
X124968000Y-94488000D03*
X130810000Y-94488000D03*
X136906000Y-94488000D03*
D23*
X114554000Y-87122000D03*
D25*
X114554000Y-82804000D03*
D21*
X44750000Y-84600000D03*
D12*
X65766000Y-103632000D03*
X63266000Y-103632000D03*
D20*
X75000000Y-102200000D03*
X77700000Y-102200000D03*
X71750000Y-102200000D03*
X69050000Y-102200000D03*
D26*
X56422000Y-103632000D03*
X54322000Y-103632000D03*
X52866000Y-103632000D03*
X50766000Y-103632000D03*
D21*
X95800000Y-104600000D03*
X95650000Y-109825000D03*
D18*
X47514000Y-107508000D03*
X47514000Y-109408000D03*
X49514000Y-108458000D03*
D17*
X45466000Y-105838000D03*
X45466000Y-108538000D03*
D11*
X53850000Y-93450000D03*
X53850000Y-89640000D03*
X53850000Y-85830000D03*
X49024000Y-93450000D03*
X49024000Y-89640000D03*
X49024000Y-85830000D03*
D27*
X82700000Y-110230000D03*
X82700000Y-107950000D03*
X82700000Y-105670000D03*
D28*
X76400000Y-107950000D03*
D13*
X64992000Y-108712000D03*
X60992000Y-108712000D03*
D29*
X108204000Y-109982000D03*
X102025000Y-110025000D03*
X108200000Y-84350000D03*
X102100000Y-84400000D03*
D21*
X69088000Y-109982000D03*
X69088000Y-105918000D03*
D30*
G36*
X113300000Y-83450000D02*
X113100000Y-83450000D01*
X113002736Y-83469696D01*
X112920798Y-83525682D01*
X112867097Y-83609136D01*
X112850000Y-83700000D01*
X112850000Y-95650000D01*
X112869696Y-95747264D01*
X112925682Y-95829202D01*
X113009136Y-95882903D01*
X113100000Y-95900000D01*
X135900000Y-95900000D01*
X135900000Y-96950000D01*
X111808949Y-96950000D01*
X111816736Y-96914262D01*
X111879011Y-95824449D01*
X111879202Y-95824318D01*
X111932903Y-95740864D01*
X111950000Y-95650000D01*
X111950000Y-83700000D01*
X111930304Y-83602736D01*
X111874318Y-83520798D01*
X111790864Y-83467097D01*
X111700000Y-83450000D01*
X44100000Y-83450000D01*
X44002736Y-83469696D01*
X43920798Y-83525682D01*
X43867097Y-83609136D01*
X43850000Y-83700000D01*
X43850000Y-111400000D01*
X43869696Y-111497264D01*
X43925682Y-111579202D01*
X44009136Y-111632903D01*
X44100000Y-111650000D01*
X111550000Y-111650000D01*
X111647264Y-111630304D01*
X111729202Y-111574318D01*
X111782903Y-111490864D01*
X111800000Y-111400000D01*
X111800000Y-100300000D01*
X111780304Y-100202736D01*
X111750000Y-100158385D01*
X111750000Y-98900000D01*
X113258003Y-98900000D01*
X113309136Y-98932903D01*
X113400000Y-98950000D01*
X135750000Y-98950000D01*
X135750000Y-100050000D01*
X113400000Y-100050000D01*
X113302736Y-100069696D01*
X113220798Y-100125682D01*
X113167097Y-100209136D01*
X113150000Y-100300000D01*
X113150000Y-115300000D01*
X111691997Y-115300000D01*
X111640864Y-115267097D01*
X111550000Y-115250000D01*
X44100000Y-115250000D01*
X44002736Y-115269696D01*
X43920798Y-115325682D01*
X43867546Y-115408438D01*
X41395364Y-115500000D01*
X41300000Y-115500000D01*
X41300000Y-81644271D01*
X41329202Y-81624318D01*
X41377024Y-81550000D01*
X113300000Y-81550000D01*
X113300000Y-83450000D01*
X113300000Y-83450000D01*
G37*
X113300000Y-83450000D02*
X113100000Y-83450000D01*
X113002736Y-83469696D01*
X112920798Y-83525682D01*
X112867097Y-83609136D01*
X112850000Y-83700000D01*
X112850000Y-95650000D01*
X112869696Y-95747264D01*
X112925682Y-95829202D01*
X113009136Y-95882903D01*
X113100000Y-95900000D01*
X135900000Y-95900000D01*
X135900000Y-96950000D01*
X111808949Y-96950000D01*
X111816736Y-96914262D01*
X111879011Y-95824449D01*
X111879202Y-95824318D01*
X111932903Y-95740864D01*
X111950000Y-95650000D01*
X111950000Y-83700000D01*
X111930304Y-83602736D01*
X111874318Y-83520798D01*
X111790864Y-83467097D01*
X111700000Y-83450000D01*
X44100000Y-83450000D01*
X44002736Y-83469696D01*
X43920798Y-83525682D01*
X43867097Y-83609136D01*
X43850000Y-83700000D01*
X43850000Y-111400000D01*
X43869696Y-111497264D01*
X43925682Y-111579202D01*
X44009136Y-111632903D01*
X44100000Y-111650000D01*
X111550000Y-111650000D01*
X111647264Y-111630304D01*
X111729202Y-111574318D01*
X111782903Y-111490864D01*
X111800000Y-111400000D01*
X111800000Y-100300000D01*
X111780304Y-100202736D01*
X111750000Y-100158385D01*
X111750000Y-98900000D01*
X113258003Y-98900000D01*
X113309136Y-98932903D01*
X113400000Y-98950000D01*
X135750000Y-98950000D01*
X135750000Y-100050000D01*
X113400000Y-100050000D01*
X113302736Y-100069696D01*
X113220798Y-100125682D01*
X113167097Y-100209136D01*
X113150000Y-100300000D01*
X113150000Y-115300000D01*
X111691997Y-115300000D01*
X111640864Y-115267097D01*
X111550000Y-115250000D01*
X44100000Y-115250000D01*
X44002736Y-115269696D01*
X43920798Y-115325682D01*
X43867546Y-115408438D01*
X41395364Y-115500000D01*
X41300000Y-115500000D01*
X41300000Y-81644271D01*
X41329202Y-81624318D01*
X41377024Y-81550000D01*
X113300000Y-81550000D01*
X113300000Y-83450000D01*
M02*
