M48
;DRILL file {KiCad 4.0.7} date 04/19/20 01:47:35
;FORMAT={-:-/ absolute / metric / decimal}
FMAT,2
METRIC,TZ
T1C0.400
T2C1.000
T3C1.200
T4C1.500
T5C1.520
T6C2.000
%
G90
G05
M71
T1
X38.8Y-86.5
X38.85Y-85.1
X38.85Y-88.15
X38.85Y-89.8
X38.862Y-115.062
X38.9Y-92.65
X38.9Y-93.85
X39.05Y-91.65
X39.05Y-98.65
X39.1Y-95.4
X39.116Y-103.124
X39.116Y-112.522
X39.15Y-96.9
X39.2Y-99.95
X39.3Y-90.95
X39.37Y-102.362
X39.37Y-105.918
X39.37Y-108.204
X39.55Y-83.85
X39.624Y-109.728
X39.75Y-100.75
X39.878Y-118.872
X39.878Y-120.142
X39.878Y-121.412
X39.878Y-122.936
X39.878Y-124.46
X40.386Y-125.73
X40.4Y-83.1
X41.3Y-100.87
X42.6Y-83.05
X42.672Y-125.984
X42.73Y-101.24
X44.4Y-83.3
X44.49Y-101.32
X45.212Y-125.73
X45.67Y-101.53
X46.65Y-83.3
X46.91Y-101.61
X47.498Y-125.73
X48.4Y-83.25
X48.46Y-101.62
X50.45Y-83.2
X50.546Y-125.73
X51.07Y-102.47
X52.07Y-98.806
X52.25Y-102.65
X52.324Y-125.73
X52.35Y-83.15
X53.594Y-125.222
X53.97Y-83.84
X54.04Y-85.3
X54.04Y-98.07
X54.2Y-102.2
X54.22Y-92.81
X54.25Y-83.15
X54.27Y-90.5
X54.28Y-91.77
X54.3Y-86.75
X54.5Y-89.61
X54.65Y-95.65
X54.7Y-88.5
X54.8Y-94.45
X54.85Y-93.5
X55.45Y-101.9
X55.626Y-125.222
X56.75Y-83.1
X57.7Y-102.
X58.42Y-125.222
X58.45Y-82.9
X59.55Y-102.1
X59.944Y-125.476
X60.5Y-83.
X61.184Y-97.85
X61.334Y-100.05
X61.8Y-102.1
X61.9Y-101.05
X62.2Y-83.1
X62.23Y-125.73
X62.4Y-97.
X62.45Y-95.3
X63.65Y-83.1
X63.875Y-101.825
X64.5Y-93.
X64.77Y-125.73
X65.Y-84.
X65.Y-85.
X65.Y-86.5
X65.Y-88.
X65.Y-89.5
X65.Y-91.5
X65.3Y-83.1
X65.875Y-101.85
X66.294Y-88.9
X67.1Y-83.15
X67.564Y-89.154
X68.072Y-125.73
X68.15Y-101.975
X68.95Y-83.25
X69.088Y-89.662
X70.45Y-102.
X70.612Y-90.678
X71.25Y-83.3
X71.628Y-125.984
X72.13Y-101.803
X72.136Y-92.456
X73.15Y-83.25
X74.05Y-102.025
X74.65Y-83.35
X74.676Y-125.984
X75.65Y-102.25
X75.692Y-94.488
X76.7Y-83.25
X77.25Y-101.9
X78.03Y-97.23
X78.07Y-95.55
X78.232Y-125.984
X78.35Y-101.35
X78.56Y-83.59
X78.62Y-92.01
X78.67Y-93.82
X79.04Y-91.05
X79.25Y-83.1
X79.41Y-87.66
X79.41Y-89.81
X79.51Y-86.36
X79.63Y-99.14
X79.88Y-84.55
X79.96Y-102.71
X79.97Y-101.35
X80.9Y-83.05
X80.96Y-98.26
X81.25Y-102.05
X82.042Y-125.73
X82.4Y-83.
X83.3Y-102.35
X83.95Y-83.
X85.2Y-83.15
X85.598Y-125.73
X85.6Y-102.55
X86.55Y-83.1
X87.5Y-101.95
X87.75Y-83.05
X88.646Y-125.476
X88.85Y-100.75
X89.4Y-83.
X91.Y-83.1
X91.05Y-99.838
X92.05Y-83.05
X92.71Y-99.822
X93.218Y-125.73
X93.5Y-83.
X94.488Y-87.884
X94.488Y-89.408
X94.525Y-90.3
X94.675Y-96.025
X94.7Y-91.675
X94.742Y-86.614
X94.75Y-97.225
X94.75Y-98.225
X94.996Y-83.82
X94.996Y-85.09
X95.Y-83.05
X95.25Y-100.092
X95.504Y-93.472
X96.266Y-125.984
X96.35Y-83.
X96.774Y-93.472
X96.774Y-100.076
X97.536Y-93.98
X97.6Y-83.1
X98.044Y-95.25
X98.044Y-97.028
X98.044Y-98.298
X99.35Y-83.1
X99.822Y-100.33
X99.822Y-125.984
X101.1Y-83.15
X101.346Y-100.838
X102.6Y-83.15
X102.616Y-125.73
X103.124Y-101.854
X104.4Y-83.25
X104.902Y-103.378
X105.625Y-91.675
X105.918Y-125.73
X106.45Y-83.45
X106.975Y-91.675
X107.188Y-105.41
X108.15Y-91.675
X108.458Y-83.566
X109.474Y-107.188
X109.474Y-125.476
X110.236Y-83.82
X110.744Y-108.966
X110.744Y-123.698
X111.252Y-121.412
X111.506Y-115.062
X111.506Y-119.38
X111.76Y-112.522
X111.76Y-116.84
X112.014Y-84.074
X112.014Y-107.442
X112.014Y-109.728
X112.76Y-85.736
X112.95Y-87.834
X113.03Y-90.932
X113.03Y-92.964
X113.03Y-94.996
X113.03Y-97.028
X113.03Y-101.346
X113.06Y-89.634
X113.14Y-99.548
X113.55Y-102.23
X114.44Y-105.64
X114.54Y-105.64
X116.009Y-102.322
X116.59Y-105.48
X118.47Y-105.5
X118.8Y-102.37
X120.69Y-105.55
X120.75Y-102.42
X122.48Y-105.51
X122.51Y-102.42
X124.19Y-105.49
X124.21Y-102.42
X125.79Y-105.37
X126.37Y-102.44
X127.63Y-105.47
X128.22Y-102.44
X129.81Y-102.47
X130.048Y-105.41
X132.59Y-105.42
X132.66Y-102.46
T2
X42.418Y-88.392
X42.418Y-90.932
X52.578Y-89.408
X52.578Y-91.948
X52.578Y-94.488
T3
X67.056Y-86.614
X67.056Y-91.614
X72.096Y-89.114
T4
X51.054Y-112.776
X71.544Y-112.776
X81.28Y-112.776
X101.77Y-112.776
X135.43Y-104.16
T5
X44.45Y-103.886
X44.45Y-108.966
T6
X42.672Y-117.602
X42.672Y-122.428
X46.482Y-117.602
X46.482Y-122.428
X50.292Y-117.602
X50.292Y-122.428
X81.28Y-121.158
T0
M30
