G04 #@! TF.FileFunction,Copper,L1,Top,Signal*
%FSLAX46Y46*%
G04 Gerber Fmt 4.6, Leading zero omitted, Abs format (unit mm)*
G04 Created by KiCad (PCBNEW 4.0.7) date 04/21/20 22:48:00*
%MOMM*%
%LPD*%
G01*
G04 APERTURE LIST*
%ADD10C,0.100000*%
%ADD11C,3.000000*%
%ADD12R,1.500000X1.250000*%
%ADD13R,1.250000X1.500000*%
%ADD14R,1.000000X1.000000*%
%ADD15R,1.300000X1.500000*%
%ADD16R,0.900000X0.800000*%
%ADD17R,0.800000X0.900000*%
%ADD18R,1.500000X1.300000*%
%ADD19C,2.500000*%
%ADD20R,0.600000X0.450000*%
%ADD21R,2.200000X1.200000*%
%ADD22R,6.400000X5.800000*%
%ADD23R,3.050000X2.750000*%
%ADD24R,2.000000X2.000000*%
%ADD25C,0.600000*%
%ADD26C,0.350000*%
%ADD27C,0.500000*%
G04 APERTURE END LIST*
D10*
D11*
X91100000Y-109850000D03*
X91100000Y-106040000D03*
X91100000Y-102230000D03*
X86274000Y-109850000D03*
X86274000Y-106040000D03*
X86274000Y-102230000D03*
D12*
X104414000Y-92456000D03*
X106914000Y-92456000D03*
X99390000Y-92730000D03*
X101890000Y-92730000D03*
X87850000Y-86890000D03*
X90350000Y-86890000D03*
X81554000Y-86868000D03*
X84054000Y-86868000D03*
X62250000Y-92456000D03*
X64750000Y-92456000D03*
D13*
X107950000Y-95016000D03*
X107950000Y-97516000D03*
D12*
X48494000Y-103632000D03*
X45994000Y-103632000D03*
D14*
X110490000Y-92182000D03*
X110490000Y-89682000D03*
X110490000Y-97770000D03*
X110490000Y-95270000D03*
X64750000Y-94996000D03*
X62250000Y-94996000D03*
D15*
X58500000Y-92750000D03*
X58500000Y-95450000D03*
D14*
X62250000Y-97282000D03*
X64750000Y-97282000D03*
D16*
X103616000Y-88326000D03*
X103616000Y-86426000D03*
X101616000Y-87376000D03*
X98230000Y-88290000D03*
X98230000Y-86390000D03*
X96230000Y-87340000D03*
D17*
X88260000Y-89670000D03*
X86360000Y-89670000D03*
X87310000Y-91670000D03*
D16*
X66278000Y-89342000D03*
X66278000Y-87442000D03*
X64278000Y-88392000D03*
X60436000Y-90612000D03*
X60436000Y-88712000D03*
X58436000Y-89662000D03*
X52086000Y-107254000D03*
X52086000Y-109154000D03*
X54086000Y-108204000D03*
D18*
X106850000Y-90270000D03*
X104150000Y-90270000D03*
D15*
X104394000Y-97616000D03*
X104394000Y-94916000D03*
X101950000Y-97690000D03*
X101950000Y-94990000D03*
D18*
X95150000Y-90400000D03*
X97850000Y-90400000D03*
D15*
X97430000Y-97630000D03*
X97430000Y-94930000D03*
X92820000Y-89640000D03*
X92820000Y-86940000D03*
X88392000Y-96854000D03*
X88392000Y-94154000D03*
X83312000Y-89582000D03*
X83312000Y-92282000D03*
X67800000Y-97850000D03*
X67800000Y-95150000D03*
X78486000Y-89488000D03*
X78486000Y-86788000D03*
X72390000Y-97870000D03*
X72390000Y-95170000D03*
X69850000Y-97870000D03*
X69850000Y-95170000D03*
X56400000Y-98750000D03*
X56400000Y-96050000D03*
D18*
X61040000Y-103632000D03*
X58340000Y-103632000D03*
D15*
X57150000Y-106854000D03*
X57150000Y-109554000D03*
D19*
X73700000Y-92440000D03*
X71200000Y-87400000D03*
X76200000Y-87400000D03*
D12*
X61950000Y-100000000D03*
X59450000Y-100000000D03*
D13*
X74930000Y-95270000D03*
X74930000Y-97770000D03*
X86106000Y-96754000D03*
X86106000Y-94254000D03*
D12*
X65766000Y-103632000D03*
X63266000Y-103632000D03*
D18*
X75000000Y-102200000D03*
X77700000Y-102200000D03*
X71750000Y-102200000D03*
X69050000Y-102200000D03*
D20*
X56422000Y-103632000D03*
X54322000Y-103632000D03*
X52866000Y-103632000D03*
X50766000Y-103632000D03*
D16*
X47514000Y-107508000D03*
X47514000Y-109408000D03*
X49514000Y-108458000D03*
D15*
X45466000Y-105838000D03*
X45466000Y-108538000D03*
D11*
X53850000Y-93450000D03*
X53850000Y-89640000D03*
X53850000Y-85830000D03*
X49024000Y-93450000D03*
X49024000Y-89640000D03*
X49024000Y-85830000D03*
D21*
X82700000Y-110230000D03*
X82700000Y-107950000D03*
X82700000Y-105670000D03*
D22*
X76400000Y-107950000D03*
D23*
X74725000Y-106425000D03*
X78075000Y-109475000D03*
X74725000Y-109475000D03*
X78075000Y-106425000D03*
D12*
X106954000Y-87122000D03*
X109454000Y-87122000D03*
D13*
X94100000Y-94080000D03*
X94100000Y-96580000D03*
X78400000Y-94150000D03*
X78400000Y-96650000D03*
D12*
X64242000Y-108712000D03*
X61742000Y-108712000D03*
D24*
X138938000Y-98044000D03*
D19*
X44750000Y-84600000D03*
X69088000Y-105918000D03*
X95800000Y-104600000D03*
X95650000Y-109825000D03*
X69088000Y-109982000D03*
D25*
X66110000Y-104870000D03*
X63550000Y-97100000D03*
X72100000Y-106200000D03*
X71950000Y-104950000D03*
X73100000Y-103400000D03*
X73900000Y-103450000D03*
X73250000Y-101400000D03*
X71600000Y-108900000D03*
X70950000Y-109600000D03*
X49550000Y-107100000D03*
X71100000Y-98450000D03*
X71100000Y-97500000D03*
X71050000Y-95250000D03*
X71200000Y-93750000D03*
X71700000Y-92650000D03*
X71950000Y-91200000D03*
X71150000Y-90350000D03*
X72750000Y-88550000D03*
X73250000Y-86500000D03*
X73150000Y-84250000D03*
X56900000Y-101450000D03*
X58250000Y-101600000D03*
X59950000Y-101600000D03*
X61750000Y-101500000D03*
X62900000Y-101300000D03*
X50200000Y-98850000D03*
X48850000Y-98300000D03*
X47500000Y-97700000D03*
X96875000Y-85300000D03*
X96300000Y-83525000D03*
X72300000Y-107750000D03*
X80300000Y-109450000D03*
X114350000Y-99000000D03*
X115900000Y-98900000D03*
X118400000Y-99000000D03*
X120150000Y-99150000D03*
X122400000Y-99050000D03*
X124650000Y-99050000D03*
X126700000Y-99150000D03*
X128850000Y-99150000D03*
X130700000Y-99200000D03*
X132500000Y-99250000D03*
X134200000Y-99100000D03*
X135800000Y-99050000D03*
X135800000Y-96500000D03*
X133650000Y-96450000D03*
X132300000Y-96450000D03*
X130650000Y-96450000D03*
X128800000Y-96500000D03*
X126700000Y-96500000D03*
X124850000Y-96500000D03*
X123050000Y-96600000D03*
X120950000Y-96550000D03*
X119050000Y-96600000D03*
X116900000Y-96500000D03*
X115250000Y-96550000D03*
X113600000Y-96550000D03*
X105918000Y-96774000D03*
X102100000Y-86200000D03*
X108458000Y-90170000D03*
X108966000Y-93726000D03*
X91948000Y-97790000D03*
X106172000Y-99060000D03*
X46228000Y-96520000D03*
X45212000Y-95758000D03*
X43942000Y-95504000D03*
X60550000Y-85050000D03*
X60550000Y-84200000D03*
X63450000Y-93500000D03*
X63450000Y-91150000D03*
X62350000Y-89900000D03*
X63250000Y-99400000D03*
X63500000Y-95050000D03*
X62000000Y-88000000D03*
X63000000Y-87000000D03*
X64400000Y-86900000D03*
X65400000Y-86500000D03*
X66900000Y-86500000D03*
X68400000Y-86400000D03*
X80700000Y-90200000D03*
X79900000Y-87900000D03*
X79900000Y-86400000D03*
X77750000Y-84350000D03*
X81300000Y-97200000D03*
X81000000Y-95100000D03*
X80500000Y-93500000D03*
X80500000Y-91700000D03*
X90200000Y-97800000D03*
X90100000Y-95700000D03*
X90100000Y-93600000D03*
X90200000Y-91500000D03*
X90200000Y-89800000D03*
X90100000Y-88400000D03*
X90400000Y-85200000D03*
X90500000Y-83900000D03*
X99300000Y-97900000D03*
X98900000Y-96300000D03*
X100000000Y-94800000D03*
X100600000Y-93900000D03*
X100600000Y-90900000D03*
X100300000Y-89000000D03*
X102700000Y-100300000D03*
X67100000Y-99900000D03*
X68400000Y-99900000D03*
X69900000Y-100000000D03*
X70900000Y-100700000D03*
X72300000Y-100700000D03*
X73800000Y-100700000D03*
X75500000Y-100700000D03*
X77000000Y-100700000D03*
X78400000Y-100700000D03*
X80600000Y-100700000D03*
X81600000Y-99900000D03*
X83475000Y-100075000D03*
X84650000Y-100100000D03*
X85900000Y-100100000D03*
X87600000Y-100000000D03*
X89000000Y-99600000D03*
X90800000Y-99600000D03*
X92700000Y-99700000D03*
X94400000Y-99700000D03*
X96000000Y-99700000D03*
X97900000Y-99800000D03*
X99800000Y-99900000D03*
X104400000Y-100800000D03*
X106000000Y-100800000D03*
X107700000Y-100600000D03*
X108900000Y-100500000D03*
X110800000Y-100400000D03*
X51500000Y-98900000D03*
X53340000Y-100076000D03*
X54610000Y-100330000D03*
X55550000Y-100950000D03*
X63700000Y-100500000D03*
X64500000Y-99900000D03*
X66000000Y-100000000D03*
X112500000Y-107000000D03*
X112500000Y-109000000D03*
X112500000Y-111000000D03*
X112000000Y-113000000D03*
X110500000Y-112500000D03*
X108000000Y-112500000D03*
X106500000Y-112500000D03*
X104000000Y-112500000D03*
X101500000Y-112500000D03*
X98000000Y-112500000D03*
X95500000Y-112500000D03*
X92500000Y-112500000D03*
X89500000Y-112500000D03*
X87000000Y-112500000D03*
X83500000Y-112500000D03*
X80000000Y-112500000D03*
X76500000Y-112500000D03*
X74500000Y-112500000D03*
X71500000Y-112500000D03*
X68000000Y-112500000D03*
X65000000Y-112500000D03*
X61500000Y-112500000D03*
X57500000Y-112500000D03*
X53500000Y-112500000D03*
X50500000Y-113000000D03*
X47500000Y-112500000D03*
X43500000Y-113000000D03*
X42000000Y-111000000D03*
X42500000Y-108000000D03*
X42000000Y-105500000D03*
X42500000Y-103000000D03*
X43000000Y-100000000D03*
X112500000Y-105000000D03*
X43000000Y-97000000D03*
X43000000Y-95000000D03*
X43000000Y-93000000D03*
X43000000Y-91000000D03*
X42500000Y-89000000D03*
X43000000Y-87000000D03*
X42500000Y-85000000D03*
X42500000Y-83500000D03*
X43500000Y-82500000D03*
X46000000Y-82500000D03*
X48000000Y-82500000D03*
X51500000Y-82500000D03*
X55000000Y-82500000D03*
X58000000Y-83000000D03*
X60500000Y-83000000D03*
X63350000Y-82250000D03*
X65900000Y-82250000D03*
X68900000Y-82250000D03*
X71000000Y-82200000D03*
X74500000Y-82200000D03*
X77000000Y-82500000D03*
X79000000Y-82250000D03*
X81000000Y-82250000D03*
X83000000Y-82200000D03*
X85000000Y-82200000D03*
X86750000Y-82450000D03*
X89000000Y-81992000D03*
X93000000Y-81992000D03*
X95500000Y-81992000D03*
X98000000Y-81992000D03*
X100584000Y-81788000D03*
X103000000Y-81992000D03*
X105500000Y-81992000D03*
X107254000Y-81992000D03*
X109508000Y-81738000D03*
X112014000Y-82042000D03*
X112500000Y-84500000D03*
X112500000Y-87000000D03*
X112500000Y-89000000D03*
X112500000Y-90500000D03*
X112500000Y-92500000D03*
X112500000Y-94500000D03*
X112500000Y-96000000D03*
X112500000Y-99000000D03*
X112500000Y-100500000D03*
X112500000Y-102000000D03*
X112500000Y-103500000D03*
D26*
X112500000Y-96000000D02*
X113050000Y-96000000D01*
X113050000Y-96000000D02*
X113600000Y-96550000D01*
X65766000Y-103632000D02*
X65766000Y-104526000D01*
X65766000Y-104526000D02*
X66110000Y-104870000D01*
X63550000Y-97100000D02*
X64568000Y-97100000D01*
X64568000Y-97100000D02*
X64750000Y-97282000D01*
X72100000Y-106200000D02*
X71950000Y-106050000D01*
X71950000Y-106050000D02*
X71950000Y-104950000D01*
X73100000Y-103400000D02*
X73150000Y-103350000D01*
X73150000Y-103350000D02*
X73800000Y-103350000D01*
X73800000Y-103350000D02*
X73900000Y-103450000D01*
X73250000Y-101400000D02*
X73800000Y-100850000D01*
X73800000Y-100850000D02*
X73800000Y-100700000D01*
X71600000Y-108950000D02*
X71600000Y-108900000D01*
X70950000Y-109600000D02*
X71600000Y-108950000D01*
X49514000Y-108458000D02*
X49514000Y-107136000D01*
X49514000Y-107136000D02*
X49550000Y-107100000D01*
X71100000Y-98450000D02*
X71100000Y-97500000D01*
X71050000Y-95250000D02*
X71200000Y-95100000D01*
X71200000Y-95100000D02*
X71200000Y-93750000D01*
X71700000Y-92650000D02*
X71910000Y-92440000D01*
X71910000Y-92440000D02*
X73700000Y-92440000D01*
X71950000Y-91200000D02*
X71150000Y-90400000D01*
X71150000Y-90400000D02*
X71150000Y-90350000D01*
X72750000Y-88550000D02*
X73250000Y-88050000D01*
X73250000Y-88050000D02*
X73250000Y-86500000D01*
X73150000Y-84250000D02*
X74500000Y-82900000D01*
X74500000Y-82900000D02*
X74500000Y-82200000D01*
X55550000Y-100950000D02*
X56300000Y-100850000D01*
X56300000Y-100850000D02*
X56900000Y-101450000D01*
X58250000Y-101600000D02*
X59950000Y-101600000D01*
X61750000Y-101500000D02*
X61950000Y-101300000D01*
X61950000Y-101300000D02*
X62900000Y-101300000D01*
X50200000Y-98850000D02*
X49650000Y-98300000D01*
X49650000Y-98300000D02*
X48850000Y-98300000D01*
X47500000Y-97700000D02*
X46320000Y-96520000D01*
X46320000Y-96520000D02*
X46228000Y-96520000D01*
X96875000Y-85300000D02*
X96300000Y-84725000D01*
X96300000Y-84725000D02*
X96300000Y-83525000D01*
X76400000Y-107950000D02*
X72500000Y-107950000D01*
X72500000Y-107950000D02*
X72300000Y-107750000D01*
X76400000Y-107950000D02*
X78800000Y-107950000D01*
X78800000Y-107950000D02*
X80300000Y-109450000D01*
X76400000Y-107950000D02*
X79050000Y-107950000D01*
X82700000Y-107950000D02*
X76400000Y-107950000D01*
X76400000Y-107950000D02*
X74520000Y-107950000D01*
X107700000Y-100600000D02*
X107700000Y-101096000D01*
X115800000Y-99000000D02*
X114350000Y-99000000D01*
X115900000Y-98900000D02*
X115800000Y-99000000D01*
X120000000Y-99000000D02*
X118400000Y-99000000D01*
X120150000Y-99150000D02*
X120000000Y-99000000D01*
X124650000Y-99050000D02*
X122400000Y-99050000D01*
X128850000Y-99150000D02*
X126700000Y-99150000D01*
X132450000Y-99200000D02*
X130700000Y-99200000D01*
X132500000Y-99250000D02*
X132450000Y-99200000D01*
X135750000Y-99100000D02*
X134200000Y-99100000D01*
X135800000Y-99050000D02*
X135750000Y-99100000D01*
X134900000Y-96500000D02*
X135800000Y-96500000D01*
X134850000Y-96450000D02*
X134900000Y-96500000D01*
X133650000Y-96450000D02*
X134850000Y-96450000D01*
X130650000Y-96450000D02*
X132300000Y-96450000D01*
X126700000Y-96500000D02*
X128800000Y-96500000D01*
X123150000Y-96500000D02*
X124850000Y-96500000D01*
X123050000Y-96600000D02*
X123150000Y-96500000D01*
X119100000Y-96550000D02*
X120950000Y-96550000D01*
X119050000Y-96600000D02*
X119100000Y-96550000D01*
X115300000Y-96500000D02*
X116900000Y-96500000D01*
X115250000Y-96550000D02*
X115300000Y-96500000D01*
X107950000Y-95016000D02*
X107676000Y-95016000D01*
X107676000Y-95016000D02*
X105918000Y-96774000D01*
X103616000Y-86426000D02*
X102680000Y-86170000D01*
X102680000Y-86170000D02*
X102100000Y-86200000D01*
X110490000Y-89682000D02*
X108946000Y-89682000D01*
X108946000Y-89682000D02*
X108458000Y-90170000D01*
X107950000Y-95016000D02*
X107950000Y-94742000D01*
X107950000Y-94742000D02*
X108966000Y-93726000D01*
X91948000Y-97790000D02*
X92202000Y-97536000D01*
X92202000Y-97536000D02*
X92408000Y-97330000D01*
X92408000Y-97330000D02*
X94100000Y-97330000D01*
X106000000Y-100800000D02*
X106000000Y-99232000D01*
X106000000Y-99232000D02*
X106172000Y-99060000D01*
X45212000Y-95758000D02*
X44958000Y-95504000D01*
X44958000Y-95504000D02*
X43942000Y-95504000D01*
X110490000Y-97770000D02*
X111270000Y-97770000D01*
X111270000Y-97770000D02*
X112500000Y-99000000D01*
X110490000Y-97770000D02*
X110490000Y-100090000D01*
X110490000Y-100090000D02*
X110800000Y-100400000D01*
X107950000Y-95016000D02*
X107950000Y-95230000D01*
X107950000Y-95230000D02*
X110490000Y-97770000D01*
X60550000Y-85050000D02*
X60400000Y-84900000D01*
X60400000Y-84900000D02*
X60550000Y-84200000D01*
X63450000Y-93500000D02*
X63450000Y-91150000D01*
X62350000Y-89900000D02*
X62000000Y-89550000D01*
X62000000Y-89550000D02*
X62000000Y-88000000D01*
X63700000Y-100500000D02*
X63700000Y-99850000D01*
X63700000Y-99850000D02*
X63250000Y-99400000D01*
X60436000Y-88712000D02*
X61288000Y-88712000D01*
X61288000Y-88712000D02*
X62000000Y-88000000D01*
X63000000Y-87000000D02*
X63100000Y-86900000D01*
X63100000Y-86900000D02*
X64400000Y-86900000D01*
X65400000Y-86500000D02*
X66278000Y-87378000D01*
X66278000Y-87378000D02*
X66278000Y-87442000D01*
X66278000Y-87442000D02*
X66278000Y-87122000D01*
X66278000Y-87122000D02*
X66900000Y-86500000D01*
X68400000Y-86400000D02*
X70138000Y-87400000D01*
X70138000Y-87400000D02*
X71200000Y-87400000D01*
X71200000Y-87400000D02*
X66344000Y-87376000D01*
X66344000Y-87376000D02*
X66278000Y-87442000D01*
X80500000Y-91700000D02*
X80500000Y-90400000D01*
X80500000Y-90400000D02*
X80700000Y-90200000D01*
X79900000Y-87900000D02*
X79900000Y-86400000D01*
X77750000Y-84350000D02*
X77650000Y-83050000D01*
X77650000Y-83050000D02*
X79000000Y-82250000D01*
D27*
X81300000Y-97200000D02*
X81000000Y-96900000D01*
X81000000Y-96900000D02*
X81000000Y-95100000D01*
X80500000Y-93500000D02*
X80500000Y-91700000D01*
X90200000Y-97800000D02*
X90100000Y-97700000D01*
X90100000Y-97700000D02*
X90100000Y-95700000D01*
X90100000Y-93600000D02*
X90200000Y-93500000D01*
X90200000Y-93500000D02*
X90200000Y-91500000D01*
X90200000Y-89800000D02*
X90100000Y-89700000D01*
X90100000Y-89700000D02*
X90100000Y-88400000D01*
X90400000Y-85200000D02*
X90500000Y-85100000D01*
X90500000Y-85100000D02*
X90500000Y-83900000D01*
X99300000Y-97900000D02*
X98900000Y-97500000D01*
X98900000Y-97500000D02*
X98900000Y-96300000D01*
X100000000Y-94800000D02*
X100600000Y-94200000D01*
X100600000Y-94200000D02*
X100600000Y-93900000D01*
X100600000Y-90900000D02*
X100300000Y-90600000D01*
X100300000Y-90600000D02*
X100300000Y-89000000D01*
X101100000Y-99900000D02*
X102300000Y-99900000D01*
X102300000Y-99900000D02*
X102700000Y-100300000D01*
X66000000Y-100000000D02*
X67000000Y-100000000D01*
X67000000Y-100000000D02*
X67100000Y-99900000D01*
X68400000Y-99900000D02*
X68500000Y-100000000D01*
X68500000Y-100000000D02*
X69900000Y-100000000D01*
X70900000Y-100700000D02*
X72300000Y-100700000D01*
X73800000Y-100700000D02*
X75500000Y-100700000D01*
X77000000Y-100700000D02*
X78400000Y-100700000D01*
X80600000Y-100700000D02*
X81400000Y-99900000D01*
X81400000Y-99900000D02*
X81600000Y-99900000D01*
X83475000Y-100075000D02*
X84650000Y-100100000D01*
X85900000Y-100100000D02*
X86000000Y-100000000D01*
X86000000Y-100000000D02*
X87600000Y-100000000D01*
X89000000Y-99600000D02*
X90800000Y-99600000D01*
X92700000Y-99700000D02*
X94400000Y-99700000D01*
X96000000Y-99700000D02*
X96200000Y-99900000D01*
X96200000Y-99900000D02*
X97800000Y-99900000D01*
X97800000Y-99900000D02*
X97900000Y-99800000D01*
X99800000Y-99900000D02*
X101100000Y-99900000D01*
X104400000Y-100800000D02*
X106000000Y-100800000D01*
X107700000Y-100600000D02*
X107800000Y-100500000D01*
X107800000Y-100500000D02*
X108900000Y-100500000D01*
X110800000Y-100400000D02*
X110900000Y-100500000D01*
X110900000Y-100500000D02*
X112500000Y-100500000D01*
X53340000Y-100076000D02*
X53300000Y-100200000D01*
X53300000Y-100200000D02*
X54610000Y-100330000D01*
X63700000Y-100500000D02*
X64300000Y-99900000D01*
X64300000Y-99900000D02*
X64500000Y-99900000D01*
X112500000Y-105000000D02*
X112500000Y-107000000D01*
X112500000Y-109000000D02*
X112500000Y-111000000D01*
X112000000Y-113000000D02*
X111500000Y-112500000D01*
X111500000Y-112500000D02*
X110500000Y-112500000D01*
X108000000Y-112500000D02*
X106500000Y-112500000D01*
X104000000Y-112500000D02*
X101500000Y-112500000D01*
X98000000Y-112500000D02*
X95500000Y-112500000D01*
X92500000Y-112500000D02*
X89500000Y-112500000D01*
X87000000Y-112500000D02*
X83500000Y-112500000D01*
X80000000Y-112500000D02*
X79000000Y-112500000D01*
X79000000Y-112500000D02*
X76500000Y-112500000D01*
X74500000Y-112500000D02*
X71500000Y-112500000D01*
X68000000Y-112500000D02*
X65000000Y-112500000D01*
X61500000Y-112500000D02*
X57500000Y-112500000D01*
X53500000Y-112500000D02*
X53000000Y-113000000D01*
X53000000Y-113000000D02*
X50500000Y-113000000D01*
X47500000Y-112500000D02*
X47000000Y-113000000D01*
X47000000Y-113000000D02*
X43500000Y-113000000D01*
X42000000Y-111000000D02*
X42500000Y-110500000D01*
X42500000Y-110500000D02*
X42500000Y-108000000D01*
X42000000Y-105500000D02*
X42500000Y-105000000D01*
X42500000Y-105000000D02*
X42500000Y-103000000D01*
X43000000Y-100000000D02*
X43000000Y-98500000D01*
X43000000Y-98500000D02*
X43000000Y-97000000D01*
X43000000Y-95000000D02*
X43000000Y-93000000D01*
X43000000Y-91000000D02*
X42500000Y-90500000D01*
X42500000Y-90500000D02*
X42500000Y-89000000D01*
X43000000Y-87000000D02*
X42500000Y-86500000D01*
X42500000Y-86500000D02*
X42500000Y-85000000D01*
X42500000Y-83500000D02*
X43500000Y-82500000D01*
X46000000Y-82500000D02*
X48000000Y-82500000D01*
X51500000Y-82500000D02*
X55000000Y-82500000D01*
X58000000Y-83000000D02*
X60500000Y-83000000D01*
X63350000Y-82250000D02*
X65900000Y-82250000D01*
X68900000Y-82250000D02*
X71000000Y-82200000D01*
X74500000Y-82200000D02*
X77000000Y-82500000D01*
X79000000Y-82250000D02*
X81000000Y-82250000D01*
X83000000Y-82200000D02*
X85000000Y-82200000D01*
X86750000Y-82450000D02*
X87500000Y-82500000D01*
X87500000Y-82500000D02*
X89000000Y-81992000D01*
X93000000Y-81992000D02*
X95500000Y-81992000D01*
X98000000Y-81992000D02*
X100584000Y-81788000D01*
X103000000Y-81992000D02*
X105500000Y-81992000D01*
X107254000Y-81992000D02*
X109508000Y-81738000D01*
X112014000Y-82042000D02*
X112500000Y-84500000D01*
X112500000Y-87000000D02*
X112500000Y-89000000D01*
X112500000Y-90500000D02*
X112500000Y-92500000D01*
X112500000Y-94500000D02*
X112500000Y-96000000D01*
X112500000Y-99000000D02*
X112500000Y-100500000D01*
X112500000Y-102000000D02*
X112500000Y-103500000D01*
D26*
X49514000Y-108458000D02*
X49530000Y-108458000D01*
X104150000Y-90270000D02*
X104150000Y-88510000D01*
X104150000Y-88510000D02*
X103616000Y-88326000D01*
X104414000Y-92456000D02*
X104414000Y-90534000D01*
X104414000Y-90534000D02*
X104150000Y-90270000D01*
D27*
X138938000Y-98044000D02*
X113220000Y-98000000D01*
X113220000Y-98000000D02*
X110490000Y-95270000D01*
D26*
X110490000Y-95270000D02*
X110490000Y-92182000D01*
X110490000Y-92182000D02*
X107188000Y-92182000D01*
X107188000Y-92182000D02*
X106914000Y-92456000D01*
X104394000Y-94916000D02*
X104394000Y-95246000D01*
X104394000Y-95246000D02*
X101950000Y-97690000D01*
X106850000Y-90270000D02*
X105818000Y-90270000D01*
X105664000Y-93646000D02*
X104394000Y-94916000D01*
X105664000Y-90424000D02*
X105664000Y-93646000D01*
X105818000Y-90270000D02*
X105664000Y-90424000D01*
X106204000Y-87122000D02*
X106070000Y-89490000D01*
X106070000Y-89490000D02*
X106850000Y-90270000D01*
X98230000Y-88290000D02*
X98230000Y-90020000D01*
X98230000Y-90020000D02*
X97850000Y-90400000D01*
X97850000Y-90400000D02*
X97850000Y-91190000D01*
X97850000Y-91190000D02*
X99390000Y-92730000D01*
X101616000Y-87376000D02*
X101710000Y-92550000D01*
X101710000Y-92550000D02*
X101890000Y-92730000D01*
X101950000Y-94990000D02*
X101950000Y-92790000D01*
X101950000Y-92790000D02*
X101890000Y-92730000D01*
X94100000Y-93330000D02*
X95830000Y-93330000D01*
X95830000Y-93330000D02*
X97430000Y-94930000D01*
X95150000Y-90400000D02*
X95150000Y-92280000D01*
X95150000Y-92280000D02*
X94100000Y-93330000D01*
X92820000Y-89640000D02*
X94390000Y-89640000D01*
X94390000Y-89640000D02*
X95150000Y-90400000D01*
X88392000Y-94154000D02*
X88392000Y-93558000D01*
X88392000Y-93558000D02*
X88900000Y-93050000D01*
X88900000Y-93050000D02*
X88900000Y-90310000D01*
X88900000Y-90310000D02*
X88260000Y-89670000D01*
X87850000Y-86890000D02*
X87850000Y-89260000D01*
X87850000Y-89260000D02*
X88260000Y-89670000D01*
X92820000Y-86940000D02*
X90400000Y-86940000D01*
X90400000Y-86940000D02*
X90350000Y-86890000D01*
X92820000Y-86940000D02*
X95830000Y-86940000D01*
X95830000Y-86940000D02*
X96230000Y-87340000D01*
X81554000Y-86868000D02*
X81554000Y-87646000D01*
X81554000Y-87646000D02*
X79712000Y-89488000D01*
X79712000Y-89488000D02*
X78486000Y-89488000D01*
X67800000Y-95150000D02*
X67800000Y-90864000D01*
X67800000Y-90864000D02*
X66278000Y-89342000D01*
X78486000Y-89488000D02*
X66424000Y-89488000D01*
X66424000Y-89488000D02*
X66278000Y-89342000D01*
X79200000Y-85300000D02*
X85200000Y-85300000D01*
X85200000Y-85300000D02*
X86360000Y-86460000D01*
X86360000Y-86460000D02*
X86360000Y-89670000D01*
X53850000Y-85830000D02*
X60750000Y-85850000D01*
X63000000Y-85300000D02*
X79200000Y-85300000D01*
X60750000Y-85850000D02*
X63000000Y-85300000D01*
X82730000Y-89000000D02*
X83312000Y-89582000D01*
X83312000Y-89582000D02*
X86272000Y-89582000D01*
X86272000Y-89582000D02*
X86360000Y-89670000D01*
X84054000Y-86868000D02*
X84054000Y-88840000D01*
X84054000Y-88840000D02*
X83312000Y-89582000D01*
X78400000Y-93400000D02*
X77600000Y-93400000D01*
X77600000Y-93400000D02*
X77000000Y-94000000D01*
X77000000Y-94000000D02*
X74200000Y-94000000D01*
X74200000Y-94000000D02*
X73600000Y-94600000D01*
X73600000Y-94600000D02*
X72960000Y-94600000D01*
X72960000Y-94600000D02*
X72390000Y-95170000D01*
X67800000Y-97850000D02*
X69830000Y-97850000D01*
X69830000Y-97850000D02*
X69850000Y-97870000D01*
X69850000Y-97870000D02*
X69850000Y-97710000D01*
X69850000Y-97710000D02*
X72390000Y-95170000D01*
X72390000Y-95170000D02*
X72724000Y-95170000D01*
X62250000Y-92456000D02*
X61794000Y-92456000D01*
X61794000Y-92456000D02*
X60100000Y-94150000D01*
X60100000Y-94150000D02*
X54550000Y-94150000D01*
X54550000Y-94150000D02*
X53850000Y-93450000D01*
X62250000Y-94996000D02*
X62196000Y-94996000D01*
X53934000Y-93366000D02*
X53850000Y-93450000D01*
X60436000Y-90612000D02*
X60436000Y-90642000D01*
X60436000Y-90642000D02*
X62250000Y-92456000D01*
X62250000Y-92456000D02*
X62250000Y-94996000D01*
X62250000Y-97282000D02*
X62250000Y-95150000D01*
X62250000Y-95150000D02*
X62800000Y-94600000D01*
X64278000Y-88392000D02*
X64278000Y-91984000D01*
X64278000Y-91984000D02*
X64750000Y-92456000D01*
X69850000Y-95170000D02*
X69850000Y-95250000D01*
X69850000Y-95250000D02*
X68500000Y-96600000D01*
X68500000Y-96600000D02*
X66400000Y-96600000D01*
X66400000Y-96600000D02*
X66100000Y-96300000D01*
X66100000Y-96300000D02*
X66100000Y-93806000D01*
X66100000Y-93806000D02*
X64750000Y-92456000D01*
X50766000Y-103632000D02*
X51308000Y-103632000D01*
X51308000Y-103632000D02*
X52324000Y-102616000D01*
X50766000Y-103632000D02*
X48494000Y-103632000D01*
X48494000Y-103632000D02*
X49022000Y-103632000D01*
X52324000Y-102616000D02*
X55406000Y-102616000D01*
X55406000Y-102616000D02*
X56422000Y-103632000D01*
X53850000Y-89640000D02*
X52834000Y-89640000D01*
X52834000Y-89640000D02*
X51554000Y-91694000D01*
X51554000Y-91694000D02*
X51554000Y-96012000D01*
X51554000Y-96012000D02*
X52578000Y-97536000D01*
X52578000Y-97536000D02*
X52578000Y-99568000D01*
X52578000Y-99568000D02*
X50546000Y-101600000D01*
X50546000Y-101600000D02*
X48026000Y-101600000D01*
X48026000Y-101600000D02*
X45994000Y-103632000D01*
X52536000Y-89640000D02*
X53850000Y-89640000D01*
X53474000Y-89640000D02*
X53850000Y-89640000D01*
X58500000Y-92750000D02*
X58500000Y-89726000D01*
X58500000Y-89726000D02*
X58436000Y-89662000D01*
X58262000Y-92512000D02*
X58500000Y-92750000D01*
X58500000Y-95450000D02*
X57500000Y-95450000D01*
X57500000Y-95450000D02*
X56900000Y-96050000D01*
X56900000Y-96050000D02*
X56400000Y-96050000D01*
X56400000Y-96050000D02*
X56400000Y-96464000D01*
X82400000Y-98150000D02*
X82400000Y-105370000D01*
X82400000Y-105370000D02*
X82700000Y-105670000D01*
X82564000Y-105534000D02*
X82700000Y-105670000D01*
X56400000Y-98750000D02*
X58200000Y-98750000D01*
X58200000Y-98750000D02*
X59450000Y-100000000D01*
X104394000Y-97616000D02*
X104394000Y-97696000D01*
X104394000Y-97696000D02*
X103180000Y-98910000D01*
X98710000Y-98910000D02*
X97430000Y-97630000D01*
X103180000Y-98910000D02*
X98710000Y-98910000D01*
X107950000Y-97516000D02*
X104494000Y-97516000D01*
X104494000Y-97516000D02*
X104394000Y-97616000D01*
X97430000Y-97630000D02*
X97430000Y-97870000D01*
X97430000Y-97870000D02*
X96450000Y-98850000D01*
X96450000Y-98850000D02*
X89270000Y-98850000D01*
X89270000Y-98850000D02*
X88205000Y-97785000D01*
X88392000Y-96854000D02*
X88392000Y-97598000D01*
X88392000Y-97598000D02*
X88205000Y-97785000D01*
X88205000Y-97785000D02*
X87840000Y-98150000D01*
X71690000Y-99210000D02*
X71690000Y-99220000D01*
X80190000Y-99210000D02*
X79890000Y-99210000D01*
X79890000Y-99210000D02*
X80000000Y-99210000D01*
X80000000Y-99210000D02*
X79510000Y-99210000D01*
X79510000Y-99210000D02*
X71690000Y-99210000D01*
X81250000Y-98150000D02*
X80190000Y-99210000D01*
X87840000Y-98150000D02*
X85090000Y-98150000D01*
X85090000Y-98150000D02*
X82400000Y-98150000D01*
X82400000Y-98150000D02*
X81250000Y-98150000D01*
X59450000Y-100000000D02*
X59450000Y-99480000D01*
X59450000Y-99480000D02*
X60340000Y-98590000D01*
X72390000Y-98790000D02*
X72390000Y-97870000D01*
X71960000Y-99220000D02*
X72390000Y-98790000D01*
X64250000Y-99220000D02*
X71690000Y-99220000D01*
X71690000Y-99220000D02*
X71960000Y-99220000D01*
X63620000Y-98590000D02*
X64250000Y-99220000D01*
X60340000Y-98590000D02*
X63620000Y-98590000D01*
X74930000Y-97770000D02*
X72490000Y-97770000D01*
X72490000Y-97770000D02*
X72390000Y-97870000D01*
X86106000Y-94254000D02*
X86106000Y-94568000D01*
X86106000Y-94568000D02*
X88392000Y-96854000D01*
X87310000Y-91670000D02*
X87310000Y-93050000D01*
X87310000Y-93050000D02*
X86106000Y-94254000D01*
X78486000Y-86788000D02*
X76788000Y-86812000D01*
X76788000Y-86812000D02*
X76200000Y-87400000D01*
X64992000Y-108712000D02*
X66294000Y-108712000D01*
X66294000Y-108712000D02*
X69088000Y-105918000D01*
X57150000Y-106854000D02*
X59134000Y-106854000D01*
X59134000Y-106854000D02*
X60992000Y-108712000D01*
X86274000Y-109850000D02*
X85750000Y-109850000D01*
X85750000Y-109850000D02*
X84300000Y-108400000D01*
X84300000Y-108400000D02*
X84300000Y-106950000D01*
X84300000Y-106950000D02*
X84150000Y-106800000D01*
X84150000Y-106800000D02*
X80900000Y-106800000D01*
X80900000Y-106800000D02*
X80600000Y-106500000D01*
X80600000Y-106500000D02*
X80600000Y-104950000D01*
X80600000Y-104950000D02*
X79800000Y-104150000D01*
X79800000Y-104150000D02*
X69900000Y-104150000D01*
X69900000Y-104150000D02*
X69300000Y-103550000D01*
X69300000Y-103550000D02*
X69300000Y-102450000D01*
X69300000Y-102450000D02*
X69050000Y-102200000D01*
X86274000Y-109850000D02*
X84300000Y-109850000D01*
X84300000Y-109850000D02*
X83080000Y-109850000D01*
X83080000Y-109850000D02*
X82700000Y-110230000D01*
X82700000Y-110230000D02*
X83726000Y-109976000D01*
X63266000Y-103632000D02*
X63266000Y-103184000D01*
X63266000Y-103184000D02*
X64250000Y-102200000D01*
X64250000Y-102200000D02*
X69050000Y-102200000D01*
X54086000Y-108204000D02*
X54086000Y-106696000D01*
X54086000Y-106696000D02*
X55372000Y-105410000D01*
X55372000Y-105410000D02*
X59262000Y-105410000D01*
X59262000Y-105410000D02*
X61040000Y-103632000D01*
X63266000Y-103632000D02*
X61040000Y-103632000D01*
X75000000Y-102200000D02*
X71750000Y-102200000D01*
X54322000Y-104106000D02*
X53964000Y-104106000D01*
X53964000Y-104106000D02*
X52086000Y-107254000D01*
X54322000Y-103632000D02*
X54322000Y-104106000D01*
X54322000Y-104106000D02*
X54864000Y-104648000D01*
X54864000Y-104648000D02*
X57324000Y-104648000D01*
X57324000Y-104648000D02*
X58340000Y-103632000D01*
X47514000Y-107508000D02*
X47514000Y-107426000D01*
X47514000Y-107426000D02*
X49276000Y-105664000D01*
X49276000Y-105664000D02*
X50834000Y-105664000D01*
X50834000Y-105664000D02*
X52866000Y-103632000D01*
X45466000Y-105838000D02*
X45844000Y-105838000D01*
X45844000Y-105838000D02*
X47514000Y-107508000D01*
X47514000Y-107508000D02*
X47514000Y-107172000D01*
X86274000Y-106040000D02*
X86274000Y-105901000D01*
X86274000Y-105901000D02*
X88025000Y-104150000D01*
X88025000Y-104150000D02*
X95350000Y-104150000D01*
X95350000Y-104150000D02*
X95800000Y-104600000D01*
X52086000Y-109154000D02*
X56750000Y-109154000D01*
X56750000Y-109154000D02*
X57150000Y-109554000D01*
X47514000Y-109408000D02*
X47686000Y-109408000D01*
X47686000Y-109408000D02*
X48006000Y-109728000D01*
X48006000Y-109728000D02*
X51512000Y-109728000D01*
X51512000Y-109728000D02*
X52086000Y-109154000D01*
X52086000Y-109154000D02*
X52086000Y-109490000D01*
X47514000Y-109408000D02*
X47514000Y-109490000D01*
D27*
G36*
X113399151Y-82046259D02*
X113304000Y-82524613D01*
X113304000Y-83083387D01*
X113399151Y-83561741D01*
X113670117Y-83967270D01*
X114015888Y-84198307D01*
X113670117Y-84429344D01*
X113399151Y-84834873D01*
X113304000Y-85313227D01*
X113304000Y-88930773D01*
X113399151Y-89409127D01*
X113670117Y-89814656D01*
X114011858Y-90043000D01*
X113670117Y-90271344D01*
X113399151Y-90676873D01*
X113304000Y-91155227D01*
X113304000Y-94772773D01*
X113399151Y-95251127D01*
X113670117Y-95656656D01*
X114075646Y-95927622D01*
X114554000Y-96022773D01*
X115032354Y-95927622D01*
X115437883Y-95656656D01*
X115708849Y-95251127D01*
X115740004Y-95094502D01*
X115925344Y-95371883D01*
X116330873Y-95642849D01*
X116809227Y-95738000D01*
X120426773Y-95738000D01*
X120905127Y-95642849D01*
X121310656Y-95371883D01*
X121581622Y-94966354D01*
X121676773Y-94488000D01*
X121909227Y-94488000D01*
X122004378Y-94966354D01*
X122275344Y-95371883D01*
X122680873Y-95642849D01*
X123159227Y-95738000D01*
X126776773Y-95738000D01*
X127255127Y-95642849D01*
X127660656Y-95371883D01*
X127889000Y-95030142D01*
X128117344Y-95371883D01*
X128522873Y-95642849D01*
X129001227Y-95738000D01*
X132618773Y-95738000D01*
X133097127Y-95642849D01*
X133502656Y-95371883D01*
X133773622Y-94966354D01*
X133858000Y-94542159D01*
X133942378Y-94966354D01*
X134213344Y-95371883D01*
X134618873Y-95642849D01*
X135097227Y-95738000D01*
X138714773Y-95738000D01*
X139193127Y-95642849D01*
X139598656Y-95371883D01*
X139869622Y-94966354D01*
X139964773Y-94488000D01*
X139869622Y-94009646D01*
X139598656Y-93604117D01*
X139193127Y-93333151D01*
X138714773Y-93238000D01*
X135097227Y-93238000D01*
X134618873Y-93333151D01*
X134213344Y-93604117D01*
X133942378Y-94009646D01*
X133858000Y-94433841D01*
X133773622Y-94009646D01*
X133502656Y-93604117D01*
X133097127Y-93333151D01*
X132618773Y-93238000D01*
X129001227Y-93238000D01*
X128522873Y-93333151D01*
X128117344Y-93604117D01*
X127889000Y-93945858D01*
X127660656Y-93604117D01*
X127255127Y-93333151D01*
X126776773Y-93238000D01*
X123159227Y-93238000D01*
X122680873Y-93333151D01*
X122275344Y-93604117D01*
X122004378Y-94009646D01*
X121909227Y-94488000D01*
X121676773Y-94488000D01*
X121581622Y-94009646D01*
X121310656Y-93604117D01*
X120905127Y-93333151D01*
X120426773Y-93238000D01*
X116809227Y-93238000D01*
X116330873Y-93333151D01*
X115925344Y-93604117D01*
X115804000Y-93785721D01*
X115804000Y-91155227D01*
X115708849Y-90676873D01*
X115437883Y-90271344D01*
X115096142Y-90043000D01*
X115437883Y-89814656D01*
X115708849Y-89409127D01*
X115804000Y-88930773D01*
X115804000Y-85313227D01*
X115708849Y-84834873D01*
X115437883Y-84429344D01*
X115092112Y-84198307D01*
X115437883Y-83967270D01*
X115708849Y-83561741D01*
X115804000Y-83083387D01*
X115804000Y-82524613D01*
X115708849Y-82046259D01*
X115561008Y-81825000D01*
X140175000Y-81825000D01*
X140175000Y-96327301D01*
X139938000Y-96279307D01*
X137938000Y-96279307D01*
X137660067Y-96331604D01*
X137404802Y-96495862D01*
X137233554Y-96746492D01*
X137173919Y-97040980D01*
X113634922Y-97000708D01*
X111754693Y-95120479D01*
X111754693Y-94770000D01*
X111702396Y-94492067D01*
X111538138Y-94236802D01*
X111415000Y-94152665D01*
X111415000Y-93299761D01*
X111523198Y-93230138D01*
X111694446Y-92979508D01*
X111754693Y-92682000D01*
X111754693Y-91682000D01*
X111702396Y-91404067D01*
X111538138Y-91148802D01*
X111287508Y-90977554D01*
X111102061Y-90940000D01*
X111740002Y-90940000D01*
X111740002Y-90352085D01*
X111748000Y-90332776D01*
X111748000Y-90121500D01*
X111558500Y-89932000D01*
X110740000Y-89932000D01*
X110740000Y-90182000D01*
X110240000Y-90182000D01*
X110240000Y-89932000D01*
X109421500Y-89932000D01*
X109232000Y-90121500D01*
X109232000Y-90332776D01*
X109239998Y-90352085D01*
X109239998Y-90940000D01*
X109869398Y-90940000D01*
X109712067Y-90969604D01*
X109456802Y-91133862D01*
X109372665Y-91257000D01*
X108277462Y-91257000D01*
X108304446Y-91217508D01*
X108364693Y-90920000D01*
X108364693Y-89620000D01*
X108312396Y-89342067D01*
X108148138Y-89086802D01*
X108066797Y-89031224D01*
X109232000Y-89031224D01*
X109232000Y-89242500D01*
X109421500Y-89432000D01*
X110240000Y-89432000D01*
X110240000Y-89182000D01*
X110740000Y-89182000D01*
X110740000Y-89432000D01*
X111558500Y-89432000D01*
X111748000Y-89242500D01*
X111748000Y-89031224D01*
X111740002Y-89011915D01*
X111740002Y-88424000D01*
X110550327Y-88424000D01*
X110633373Y-88389601D01*
X110846602Y-88176372D01*
X110962000Y-87897775D01*
X110962000Y-87624000D01*
X110772500Y-87434500D01*
X109829000Y-87434500D01*
X109829000Y-88315500D01*
X109937500Y-88424000D01*
X109239998Y-88424000D01*
X109239998Y-89011915D01*
X109232000Y-89031224D01*
X108066797Y-89031224D01*
X107897508Y-88915554D01*
X107600000Y-88855307D01*
X107032396Y-88855307D01*
X107051841Y-88511693D01*
X107704000Y-88511693D01*
X107981933Y-88459396D01*
X108117748Y-88372002D01*
X108257028Y-88372002D01*
X108274627Y-88389601D01*
X108553224Y-88505000D01*
X108889500Y-88505000D01*
X109079000Y-88315500D01*
X109079000Y-87434500D01*
X108704000Y-87434500D01*
X108704000Y-86809500D01*
X109079000Y-86809500D01*
X109079000Y-86497000D01*
X109829000Y-86497000D01*
X109829000Y-86809500D01*
X110772500Y-86809500D01*
X110962000Y-86620000D01*
X110962000Y-86346225D01*
X110846602Y-86067628D01*
X110704002Y-85925028D01*
X110704002Y-85739000D01*
X110519379Y-85739000D01*
X110746210Y-85587437D01*
X111125562Y-85019696D01*
X111258773Y-84350000D01*
X111125562Y-83680304D01*
X110746210Y-83112563D01*
X110178469Y-82733211D01*
X109508773Y-82600000D01*
X106891227Y-82600000D01*
X106221531Y-82733211D01*
X105653790Y-83112563D01*
X105274438Y-83680304D01*
X105145027Y-84330895D01*
X105025562Y-83730304D01*
X104646210Y-83162563D01*
X104078469Y-82783211D01*
X103408773Y-82650000D01*
X100791227Y-82650000D01*
X100121531Y-82783211D01*
X99553790Y-83162563D01*
X99174438Y-83730304D01*
X99041227Y-84400000D01*
X99174438Y-85069696D01*
X99553790Y-85637437D01*
X100121531Y-86016789D01*
X100791227Y-86150000D01*
X102408000Y-86150000D01*
X102408000Y-86301954D01*
X102363508Y-86271554D01*
X102066000Y-86211307D01*
X101166000Y-86211307D01*
X100888067Y-86263604D01*
X100632802Y-86427862D01*
X100461554Y-86678492D01*
X100401307Y-86976000D01*
X100401307Y-87776000D01*
X100453604Y-88053933D01*
X100617862Y-88309198D01*
X100708932Y-88371424D01*
X100764956Y-91455093D01*
X100637429Y-91537154D01*
X100437508Y-91400554D01*
X100140000Y-91340307D01*
X99308455Y-91340307D01*
X99306334Y-91338186D01*
X99364693Y-91050000D01*
X99364693Y-89750000D01*
X99312396Y-89472067D01*
X99176898Y-89261496D01*
X99213198Y-89238138D01*
X99384446Y-88987508D01*
X99444693Y-88690000D01*
X99444693Y-87890000D01*
X99392396Y-87612067D01*
X99351170Y-87548000D01*
X99480002Y-87548000D01*
X99480002Y-86790000D01*
X99438000Y-86790000D01*
X99438000Y-86779500D01*
X99248500Y-86590000D01*
X98455000Y-86590000D01*
X98455000Y-86790000D01*
X98005000Y-86790000D01*
X98005000Y-86590000D01*
X97780000Y-86590000D01*
X97780000Y-86190000D01*
X98005000Y-86190000D01*
X98005000Y-85421500D01*
X98455000Y-85421500D01*
X98455000Y-86190000D01*
X99248500Y-86190000D01*
X99438000Y-86000500D01*
X99438000Y-85839225D01*
X99322602Y-85560628D01*
X99109373Y-85347399D01*
X98830776Y-85232000D01*
X98644500Y-85232000D01*
X98455000Y-85421500D01*
X98005000Y-85421500D01*
X97815500Y-85232000D01*
X97780000Y-85232000D01*
X97780000Y-85139998D01*
X97022000Y-85139998D01*
X97022000Y-86265954D01*
X96977508Y-86235554D01*
X96680000Y-86175307D01*
X96318521Y-86175307D01*
X96183983Y-86085411D01*
X95830000Y-86015000D01*
X94201764Y-86015000D01*
X94182396Y-85912067D01*
X94018138Y-85656802D01*
X93767508Y-85485554D01*
X93470000Y-85425307D01*
X92170000Y-85425307D01*
X91892067Y-85477604D01*
X91636802Y-85641862D01*
X91598515Y-85697896D01*
X91397508Y-85560554D01*
X91100000Y-85500307D01*
X89600000Y-85500307D01*
X89322067Y-85552604D01*
X89097429Y-85697154D01*
X88897508Y-85560554D01*
X88600000Y-85500307D01*
X87100000Y-85500307D01*
X86822067Y-85552604D01*
X86784759Y-85576611D01*
X85854074Y-84645926D01*
X85553983Y-84445411D01*
X85200000Y-84375000D01*
X63000000Y-84375000D01*
X62891191Y-84396643D01*
X62780356Y-84401456D01*
X60639906Y-84924677D01*
X55904761Y-84910952D01*
X55758569Y-84557142D01*
X55126187Y-83923655D01*
X54299516Y-83580392D01*
X53404411Y-83579610D01*
X52577142Y-83921431D01*
X51943655Y-84553813D01*
X51600392Y-85380484D01*
X51599610Y-86275589D01*
X51941431Y-87102858D01*
X52573018Y-87735548D01*
X51943655Y-88363813D01*
X51600392Y-89190484D01*
X51599797Y-89871545D01*
X50768958Y-91204782D01*
X50741931Y-91276383D01*
X50699411Y-91340018D01*
X50678803Y-91443619D01*
X50641500Y-91542444D01*
X50643931Y-91618939D01*
X50629000Y-91694000D01*
X50629000Y-91873043D01*
X50300982Y-91544452D01*
X50930345Y-90916187D01*
X51273608Y-90089516D01*
X51274390Y-89194411D01*
X50932569Y-88367142D01*
X50300982Y-87734452D01*
X50930345Y-87106187D01*
X51273608Y-86279516D01*
X51274390Y-85384411D01*
X50932569Y-84557142D01*
X50300187Y-83923655D01*
X49473516Y-83580392D01*
X48578411Y-83579610D01*
X47751142Y-83921431D01*
X47117655Y-84553813D01*
X46774392Y-85380484D01*
X46773610Y-86275589D01*
X47115431Y-87102858D01*
X47747018Y-87735548D01*
X47117655Y-88363813D01*
X46774392Y-89190484D01*
X46773610Y-90085589D01*
X47115431Y-90912858D01*
X47747018Y-91545548D01*
X47117655Y-92173813D01*
X46774392Y-93000484D01*
X46773610Y-93895589D01*
X47115431Y-94722858D01*
X47747813Y-95356345D01*
X48574484Y-95699608D01*
X49469589Y-95700390D01*
X50296858Y-95358569D01*
X50629000Y-95027006D01*
X50629000Y-96012000D01*
X50647004Y-96102512D01*
X50647242Y-96194798D01*
X50681868Y-96277786D01*
X50699411Y-96365982D01*
X50750683Y-96442717D01*
X50786219Y-96527885D01*
X51653000Y-97817899D01*
X51653000Y-99184852D01*
X50162852Y-100675000D01*
X48026000Y-100675000D01*
X47672017Y-100745411D01*
X47371926Y-100945926D01*
X46075545Y-102242307D01*
X45244000Y-102242307D01*
X44966067Y-102294604D01*
X44710802Y-102458862D01*
X44539554Y-102709492D01*
X44479307Y-103007000D01*
X44479307Y-104257000D01*
X44505560Y-104396522D01*
X44282802Y-104539862D01*
X44111554Y-104790492D01*
X44051307Y-105088000D01*
X44051307Y-106588000D01*
X44103604Y-106865933D01*
X44215998Y-107040599D01*
X44215998Y-107316028D01*
X44173399Y-107358627D01*
X44058000Y-107637224D01*
X44058000Y-107973500D01*
X44247500Y-108163000D01*
X45141000Y-108163000D01*
X45141000Y-107788000D01*
X45791000Y-107788000D01*
X45791000Y-108163000D01*
X46116000Y-108163000D01*
X46116000Y-108913000D01*
X45791000Y-108913000D01*
X45791000Y-109856500D01*
X45980500Y-110046000D01*
X46266775Y-110046000D01*
X46338500Y-110016291D01*
X46351604Y-110085933D01*
X46515862Y-110341198D01*
X46766492Y-110512446D01*
X47064000Y-110572693D01*
X47637207Y-110572693D01*
X47652017Y-110582589D01*
X48006000Y-110653000D01*
X51512000Y-110653000D01*
X51865983Y-110582589D01*
X52129851Y-110406278D01*
X52439982Y-110344589D01*
X52478738Y-110318693D01*
X52536000Y-110318693D01*
X52813933Y-110266396D01*
X53069198Y-110102138D01*
X53085008Y-110079000D01*
X55735307Y-110079000D01*
X55735307Y-110304000D01*
X55787604Y-110581933D01*
X55951862Y-110837198D01*
X56202492Y-111008446D01*
X56500000Y-111068693D01*
X57800000Y-111068693D01*
X58077933Y-111016396D01*
X58333198Y-110852138D01*
X58504446Y-110601508D01*
X58564693Y-110304000D01*
X58564693Y-108804000D01*
X58512396Y-108526067D01*
X58348138Y-108270802D01*
X58251452Y-108204740D01*
X58333198Y-108152138D01*
X58504446Y-107901508D01*
X58529255Y-107779000D01*
X58750852Y-107779000D01*
X60227307Y-109255455D01*
X60227307Y-109337000D01*
X60279604Y-109614933D01*
X60443862Y-109870198D01*
X60694492Y-110041446D01*
X60992000Y-110101693D01*
X62492000Y-110101693D01*
X62769933Y-110049396D01*
X62994571Y-109904846D01*
X63194492Y-110041446D01*
X63492000Y-110101693D01*
X64992000Y-110101693D01*
X65269933Y-110049396D01*
X65525198Y-109885138D01*
X65694743Y-109637000D01*
X66294000Y-109637000D01*
X66647983Y-109566589D01*
X66801945Y-109463715D01*
X67092847Y-109754616D01*
X67046356Y-110134604D01*
X67143368Y-110622316D01*
X67408937Y-110777180D01*
X68204117Y-109982000D01*
X69971883Y-109982000D01*
X70767063Y-110777180D01*
X71032632Y-110622316D01*
X71129644Y-109829396D01*
X71042144Y-109389500D01*
X72442000Y-109389500D01*
X72442000Y-111000775D01*
X72557398Y-111279372D01*
X72770627Y-111492601D01*
X73049224Y-111608000D01*
X74960500Y-111608000D01*
X75150000Y-111418500D01*
X75150000Y-110162500D01*
X75487500Y-110162500D01*
X75487500Y-111418500D01*
X75677000Y-111608000D01*
X77123000Y-111608000D01*
X77312500Y-111418500D01*
X77312500Y-110162500D01*
X75487500Y-110162500D01*
X75150000Y-110162500D01*
X75150000Y-109200000D01*
X77650000Y-109200000D01*
X77650000Y-111418500D01*
X77839500Y-111608000D01*
X79750776Y-111608000D01*
X80029373Y-111492601D01*
X80242602Y-111279372D01*
X80358000Y-111000775D01*
X80358000Y-109389500D01*
X80168500Y-109200000D01*
X77650000Y-109200000D01*
X75150000Y-109200000D01*
X72631500Y-109200000D01*
X72442000Y-109389500D01*
X71042144Y-109389500D01*
X71032632Y-109341684D01*
X70767063Y-109186820D01*
X69971883Y-109982000D01*
X68204117Y-109982000D01*
X67762175Y-109540058D01*
X68646058Y-108656175D01*
X69088000Y-109098117D01*
X69883180Y-108302937D01*
X69728316Y-108037368D01*
X68935396Y-107940356D01*
X68834246Y-107960476D01*
X68791511Y-107917742D01*
X69484079Y-107918346D01*
X70219429Y-107614506D01*
X70532480Y-107302000D01*
X72442000Y-107302000D01*
X72442000Y-108598000D01*
X72631500Y-108787500D01*
X73962500Y-108787500D01*
X73962500Y-107112500D01*
X75487500Y-107112500D01*
X75487500Y-108787500D01*
X77312500Y-108787500D01*
X77312500Y-107112500D01*
X75487500Y-107112500D01*
X73962500Y-107112500D01*
X72631500Y-107112500D01*
X72442000Y-107302000D01*
X70532480Y-107302000D01*
X70782529Y-107052388D01*
X71087652Y-106317570D01*
X71088346Y-105521921D01*
X70903682Y-105075000D01*
X72442000Y-105075000D01*
X72442000Y-106510500D01*
X72631500Y-106700000D01*
X75150000Y-106700000D01*
X75150000Y-106680000D01*
X77650000Y-106680000D01*
X77650000Y-106700000D01*
X79345000Y-106700000D01*
X79345000Y-107112500D01*
X78837500Y-107112500D01*
X78837500Y-108787500D01*
X80168500Y-108787500D01*
X80358000Y-108598000D01*
X80358000Y-107528960D01*
X80546017Y-107654589D01*
X80900000Y-107725000D01*
X83375000Y-107725000D01*
X83375000Y-108250000D01*
X83250000Y-108250000D01*
X83250000Y-108550000D01*
X82150000Y-108550000D01*
X82150000Y-108250000D01*
X81031500Y-108250000D01*
X80842000Y-108439500D01*
X80842000Y-108700775D01*
X80957398Y-108979372D01*
X81063995Y-109085969D01*
X80895554Y-109332492D01*
X80835307Y-109630000D01*
X80835307Y-110830000D01*
X80887604Y-111107933D01*
X81051862Y-111363198D01*
X81302492Y-111534446D01*
X81600000Y-111594693D01*
X83800000Y-111594693D01*
X84077933Y-111542396D01*
X84333198Y-111378138D01*
X84449845Y-111207419D01*
X84997813Y-111756345D01*
X85824484Y-112099608D01*
X86719589Y-112100390D01*
X87546858Y-111758569D01*
X88180345Y-111126187D01*
X88523608Y-110299516D01*
X88524390Y-109404411D01*
X88182569Y-108577142D01*
X87550982Y-107944452D01*
X88180345Y-107316187D01*
X88523608Y-106489516D01*
X88524390Y-105594411D01*
X88338536Y-105144612D01*
X88408148Y-105075000D01*
X89064439Y-105075000D01*
X88850392Y-105590484D01*
X88849610Y-106485589D01*
X89191431Y-107312858D01*
X89823018Y-107945548D01*
X89193655Y-108573813D01*
X88850392Y-109400484D01*
X88849610Y-110295589D01*
X89191431Y-111122858D01*
X89823813Y-111756345D01*
X90650484Y-112099608D01*
X91545589Y-112100390D01*
X92372858Y-111758569D01*
X92627808Y-111504063D01*
X94854820Y-111504063D01*
X95009684Y-111769632D01*
X95802604Y-111866644D01*
X96290316Y-111769632D01*
X96445180Y-111504063D01*
X95650000Y-110708883D01*
X94854820Y-111504063D01*
X92627808Y-111504063D01*
X93006345Y-111126187D01*
X93349608Y-110299516D01*
X93349889Y-109977604D01*
X93608356Y-109977604D01*
X93705368Y-110465316D01*
X93970937Y-110620180D01*
X94766117Y-109825000D01*
X96533883Y-109825000D01*
X97329063Y-110620180D01*
X97594632Y-110465316D01*
X97648503Y-110025000D01*
X98966227Y-110025000D01*
X99099438Y-110694696D01*
X99478790Y-111262437D01*
X100046531Y-111641789D01*
X100716227Y-111775000D01*
X103333773Y-111775000D01*
X104003469Y-111641789D01*
X104571210Y-111262437D01*
X104950562Y-110694696D01*
X105083773Y-110025000D01*
X105075220Y-109982000D01*
X105145227Y-109982000D01*
X105278438Y-110651696D01*
X105657790Y-111219437D01*
X106225531Y-111598789D01*
X106895227Y-111732000D01*
X109512773Y-111732000D01*
X110182469Y-111598789D01*
X110750210Y-111219437D01*
X111129562Y-110651696D01*
X111262773Y-109982000D01*
X111129562Y-109312304D01*
X110750210Y-108744563D01*
X110182469Y-108365211D01*
X109512773Y-108232000D01*
X106895227Y-108232000D01*
X106225531Y-108365211D01*
X105657790Y-108744563D01*
X105278438Y-109312304D01*
X105145227Y-109982000D01*
X105075220Y-109982000D01*
X104950562Y-109355304D01*
X104571210Y-108787563D01*
X104003469Y-108408211D01*
X103333773Y-108275000D01*
X100716227Y-108275000D01*
X100046531Y-108408211D01*
X99478790Y-108787563D01*
X99099438Y-109355304D01*
X98966227Y-110025000D01*
X97648503Y-110025000D01*
X97691644Y-109672396D01*
X97594632Y-109184684D01*
X97329063Y-109029820D01*
X96533883Y-109825000D01*
X94766117Y-109825000D01*
X93970937Y-109029820D01*
X93705368Y-109184684D01*
X93608356Y-109977604D01*
X93349889Y-109977604D01*
X93350390Y-109404411D01*
X93008569Y-108577142D01*
X92578116Y-108145937D01*
X94854820Y-108145937D01*
X95650000Y-108941117D01*
X96445180Y-108145937D01*
X96290316Y-107880368D01*
X95497396Y-107783356D01*
X95009684Y-107880368D01*
X94854820Y-108145937D01*
X92578116Y-108145937D01*
X92376982Y-107944452D01*
X93006345Y-107316187D01*
X93349608Y-106489516D01*
X93350390Y-105594411D01*
X93135773Y-105075000D01*
X93832263Y-105075000D01*
X94103494Y-105731429D01*
X94665612Y-106294529D01*
X95400430Y-106599652D01*
X96196079Y-106600346D01*
X96931429Y-106296506D01*
X97494529Y-105734388D01*
X97799652Y-104999570D01*
X97800346Y-104203921D01*
X97496506Y-103468571D01*
X96934388Y-102905471D01*
X96199570Y-102600348D01*
X95403921Y-102599654D01*
X94668571Y-102903494D01*
X94346503Y-103225000D01*
X93123104Y-103225000D01*
X93349608Y-102679516D01*
X93350390Y-101784411D01*
X93008569Y-100957142D01*
X92376187Y-100323655D01*
X91549516Y-99980392D01*
X90654411Y-99979610D01*
X89827142Y-100321431D01*
X89193655Y-100953813D01*
X88850392Y-101780484D01*
X88849610Y-102675589D01*
X89076622Y-103225000D01*
X88297104Y-103225000D01*
X88523608Y-102679516D01*
X88524390Y-101784411D01*
X88182569Y-100957142D01*
X87550187Y-100323655D01*
X86723516Y-99980392D01*
X85828411Y-99979610D01*
X85001142Y-100321431D01*
X84367655Y-100953813D01*
X84024392Y-101780484D01*
X84023610Y-102675589D01*
X84365431Y-103502858D01*
X84997018Y-104135548D01*
X84444715Y-104686887D01*
X84348138Y-104536802D01*
X84097508Y-104365554D01*
X83800000Y-104305307D01*
X83325000Y-104305307D01*
X83325000Y-99075000D01*
X87840000Y-99075000D01*
X88129306Y-99017454D01*
X88615924Y-99504071D01*
X88615926Y-99504074D01*
X88916018Y-99704589D01*
X89270000Y-99775000D01*
X96450000Y-99775000D01*
X96803983Y-99704589D01*
X97104074Y-99504074D01*
X97463455Y-99144693D01*
X97636545Y-99144693D01*
X98055926Y-99564074D01*
X98356018Y-99764589D01*
X98710000Y-99835000D01*
X103180000Y-99835000D01*
X103533983Y-99764589D01*
X103834074Y-99564074D01*
X104267455Y-99130693D01*
X105044000Y-99130693D01*
X105321933Y-99078396D01*
X105577198Y-98914138D01*
X105748446Y-98663508D01*
X105793505Y-98441000D01*
X106593236Y-98441000D01*
X106612604Y-98543933D01*
X106776862Y-98799198D01*
X107027492Y-98970446D01*
X107325000Y-99030693D01*
X108575000Y-99030693D01*
X108852933Y-98978396D01*
X109108198Y-98814138D01*
X109232000Y-98632948D01*
X109232000Y-99020002D01*
X109819916Y-99020002D01*
X109839225Y-99028000D01*
X110050500Y-99028000D01*
X110240000Y-98838500D01*
X110240000Y-98020000D01*
X109990000Y-98020000D01*
X109990000Y-97520000D01*
X110240000Y-97520000D01*
X110240000Y-97270000D01*
X110740000Y-97270000D01*
X110740000Y-97520000D01*
X110990000Y-97520000D01*
X110990000Y-98020000D01*
X110740000Y-98020000D01*
X110740000Y-98838500D01*
X110929500Y-99028000D01*
X111140775Y-99028000D01*
X111160084Y-99020002D01*
X111748000Y-99020002D01*
X111748000Y-97942214D01*
X112512893Y-98707107D01*
X112674541Y-98815117D01*
X112835737Y-98923224D01*
X112836591Y-98923395D01*
X112837316Y-98923880D01*
X113027738Y-98961757D01*
X113218289Y-98999999D01*
X137173307Y-99040983D01*
X137173307Y-99044000D01*
X137225604Y-99321933D01*
X137389862Y-99577198D01*
X137640492Y-99748446D01*
X137938000Y-99808693D01*
X139938000Y-99808693D01*
X140175000Y-99764098D01*
X140175000Y-114175000D01*
X115044431Y-114175000D01*
X115389623Y-113944350D01*
X115660589Y-113538821D01*
X115755740Y-113060467D01*
X115755740Y-112501693D01*
X115660589Y-112023339D01*
X115512258Y-111801346D01*
X115708849Y-111507127D01*
X115804000Y-111028773D01*
X115804000Y-107411227D01*
X115708849Y-106932873D01*
X115437883Y-106527344D01*
X115096142Y-106299000D01*
X115437883Y-106070656D01*
X115708849Y-105665127D01*
X115804000Y-105186773D01*
X115804000Y-102048279D01*
X115925344Y-102229883D01*
X116330873Y-102500849D01*
X116809227Y-102596000D01*
X120426773Y-102596000D01*
X120905127Y-102500849D01*
X121310656Y-102229883D01*
X121581622Y-101824354D01*
X121666000Y-101400159D01*
X121750378Y-101824354D01*
X122021344Y-102229883D01*
X122426873Y-102500849D01*
X122905227Y-102596000D01*
X126522773Y-102596000D01*
X127001127Y-102500849D01*
X127406656Y-102229883D01*
X127677622Y-101824354D01*
X127744559Y-101487842D01*
X127796378Y-101748354D01*
X128067344Y-102153883D01*
X128472873Y-102424849D01*
X128951227Y-102520000D01*
X132568773Y-102520000D01*
X133047127Y-102424849D01*
X133452656Y-102153883D01*
X133723622Y-101748354D01*
X133813978Y-101294105D01*
X133896378Y-101708354D01*
X134167344Y-102113883D01*
X134572873Y-102384849D01*
X135051227Y-102480000D01*
X138668773Y-102480000D01*
X139147127Y-102384849D01*
X139552656Y-102113883D01*
X139823622Y-101708354D01*
X139918773Y-101230000D01*
X139823622Y-100751646D01*
X139552656Y-100346117D01*
X139147127Y-100075151D01*
X138668773Y-99980000D01*
X135051227Y-99980000D01*
X134572873Y-100075151D01*
X134167344Y-100346117D01*
X133896378Y-100751646D01*
X133806022Y-101205895D01*
X133723622Y-100791646D01*
X133452656Y-100386117D01*
X133047127Y-100115151D01*
X132568773Y-100020000D01*
X128951227Y-100020000D01*
X128472873Y-100115151D01*
X128067344Y-100386117D01*
X127796378Y-100791646D01*
X127729441Y-101128158D01*
X127677622Y-100867646D01*
X127406656Y-100462117D01*
X127001127Y-100191151D01*
X126522773Y-100096000D01*
X122905227Y-100096000D01*
X122426873Y-100191151D01*
X122021344Y-100462117D01*
X121750378Y-100867646D01*
X121666000Y-101291841D01*
X121581622Y-100867646D01*
X121310656Y-100462117D01*
X120905127Y-100191151D01*
X120426773Y-100096000D01*
X116809227Y-100096000D01*
X116330873Y-100191151D01*
X115925344Y-100462117D01*
X115654378Y-100867646D01*
X115632657Y-100976844D01*
X115437883Y-100685344D01*
X115032354Y-100414378D01*
X114554000Y-100319227D01*
X114075646Y-100414378D01*
X113670117Y-100685344D01*
X113399151Y-101090873D01*
X113304000Y-101569227D01*
X113304000Y-105186773D01*
X113399151Y-105665127D01*
X113670117Y-106070656D01*
X114011858Y-106299000D01*
X113670117Y-106527344D01*
X113399151Y-106932873D01*
X113304000Y-107411227D01*
X113304000Y-111028773D01*
X113399151Y-111507127D01*
X113547482Y-111729120D01*
X113350891Y-112023339D01*
X113255740Y-112501693D01*
X113255740Y-113060467D01*
X113350891Y-113538821D01*
X113621857Y-113944350D01*
X113967049Y-114175000D01*
X41825000Y-114175000D01*
X41825000Y-111661063D01*
X68292820Y-111661063D01*
X68447684Y-111926632D01*
X69240604Y-112023644D01*
X69728316Y-111926632D01*
X69883180Y-111661063D01*
X69088000Y-110865883D01*
X68292820Y-111661063D01*
X41825000Y-111661063D01*
X41825000Y-109102500D01*
X44058000Y-109102500D01*
X44058000Y-109438776D01*
X44173399Y-109717373D01*
X44386628Y-109930602D01*
X44665225Y-110046000D01*
X44951500Y-110046000D01*
X45141000Y-109856500D01*
X45141000Y-108913000D01*
X44247500Y-108913000D01*
X44058000Y-109102500D01*
X41825000Y-109102500D01*
X41825000Y-86279063D01*
X43954820Y-86279063D01*
X44109684Y-86544632D01*
X44902604Y-86641644D01*
X45390316Y-86544632D01*
X45545180Y-86279063D01*
X44750000Y-85483883D01*
X43954820Y-86279063D01*
X41825000Y-86279063D01*
X41825000Y-84752604D01*
X42708356Y-84752604D01*
X42805368Y-85240316D01*
X43070937Y-85395180D01*
X43866117Y-84600000D01*
X45633883Y-84600000D01*
X46429063Y-85395180D01*
X46694632Y-85240316D01*
X46791644Y-84447396D01*
X46694632Y-83959684D01*
X46429063Y-83804820D01*
X45633883Y-84600000D01*
X43866117Y-84600000D01*
X43070937Y-83804820D01*
X42805368Y-83959684D01*
X42708356Y-84752604D01*
X41825000Y-84752604D01*
X41825000Y-82920937D01*
X43954820Y-82920937D01*
X44750000Y-83716117D01*
X45545180Y-82920937D01*
X45390316Y-82655368D01*
X44597396Y-82558356D01*
X44109684Y-82655368D01*
X43954820Y-82920937D01*
X41825000Y-82920937D01*
X41825000Y-81825000D01*
X113546992Y-81825000D01*
X113399151Y-82046259D01*
X113399151Y-82046259D01*
G37*
X113399151Y-82046259D02*
X113304000Y-82524613D01*
X113304000Y-83083387D01*
X113399151Y-83561741D01*
X113670117Y-83967270D01*
X114015888Y-84198307D01*
X113670117Y-84429344D01*
X113399151Y-84834873D01*
X113304000Y-85313227D01*
X113304000Y-88930773D01*
X113399151Y-89409127D01*
X113670117Y-89814656D01*
X114011858Y-90043000D01*
X113670117Y-90271344D01*
X113399151Y-90676873D01*
X113304000Y-91155227D01*
X113304000Y-94772773D01*
X113399151Y-95251127D01*
X113670117Y-95656656D01*
X114075646Y-95927622D01*
X114554000Y-96022773D01*
X115032354Y-95927622D01*
X115437883Y-95656656D01*
X115708849Y-95251127D01*
X115740004Y-95094502D01*
X115925344Y-95371883D01*
X116330873Y-95642849D01*
X116809227Y-95738000D01*
X120426773Y-95738000D01*
X120905127Y-95642849D01*
X121310656Y-95371883D01*
X121581622Y-94966354D01*
X121676773Y-94488000D01*
X121909227Y-94488000D01*
X122004378Y-94966354D01*
X122275344Y-95371883D01*
X122680873Y-95642849D01*
X123159227Y-95738000D01*
X126776773Y-95738000D01*
X127255127Y-95642849D01*
X127660656Y-95371883D01*
X127889000Y-95030142D01*
X128117344Y-95371883D01*
X128522873Y-95642849D01*
X129001227Y-95738000D01*
X132618773Y-95738000D01*
X133097127Y-95642849D01*
X133502656Y-95371883D01*
X133773622Y-94966354D01*
X133858000Y-94542159D01*
X133942378Y-94966354D01*
X134213344Y-95371883D01*
X134618873Y-95642849D01*
X135097227Y-95738000D01*
X138714773Y-95738000D01*
X139193127Y-95642849D01*
X139598656Y-95371883D01*
X139869622Y-94966354D01*
X139964773Y-94488000D01*
X139869622Y-94009646D01*
X139598656Y-93604117D01*
X139193127Y-93333151D01*
X138714773Y-93238000D01*
X135097227Y-93238000D01*
X134618873Y-93333151D01*
X134213344Y-93604117D01*
X133942378Y-94009646D01*
X133858000Y-94433841D01*
X133773622Y-94009646D01*
X133502656Y-93604117D01*
X133097127Y-93333151D01*
X132618773Y-93238000D01*
X129001227Y-93238000D01*
X128522873Y-93333151D01*
X128117344Y-93604117D01*
X127889000Y-93945858D01*
X127660656Y-93604117D01*
X127255127Y-93333151D01*
X126776773Y-93238000D01*
X123159227Y-93238000D01*
X122680873Y-93333151D01*
X122275344Y-93604117D01*
X122004378Y-94009646D01*
X121909227Y-94488000D01*
X121676773Y-94488000D01*
X121581622Y-94009646D01*
X121310656Y-93604117D01*
X120905127Y-93333151D01*
X120426773Y-93238000D01*
X116809227Y-93238000D01*
X116330873Y-93333151D01*
X115925344Y-93604117D01*
X115804000Y-93785721D01*
X115804000Y-91155227D01*
X115708849Y-90676873D01*
X115437883Y-90271344D01*
X115096142Y-90043000D01*
X115437883Y-89814656D01*
X115708849Y-89409127D01*
X115804000Y-88930773D01*
X115804000Y-85313227D01*
X115708849Y-84834873D01*
X115437883Y-84429344D01*
X115092112Y-84198307D01*
X115437883Y-83967270D01*
X115708849Y-83561741D01*
X115804000Y-83083387D01*
X115804000Y-82524613D01*
X115708849Y-82046259D01*
X115561008Y-81825000D01*
X140175000Y-81825000D01*
X140175000Y-96327301D01*
X139938000Y-96279307D01*
X137938000Y-96279307D01*
X137660067Y-96331604D01*
X137404802Y-96495862D01*
X137233554Y-96746492D01*
X137173919Y-97040980D01*
X113634922Y-97000708D01*
X111754693Y-95120479D01*
X111754693Y-94770000D01*
X111702396Y-94492067D01*
X111538138Y-94236802D01*
X111415000Y-94152665D01*
X111415000Y-93299761D01*
X111523198Y-93230138D01*
X111694446Y-92979508D01*
X111754693Y-92682000D01*
X111754693Y-91682000D01*
X111702396Y-91404067D01*
X111538138Y-91148802D01*
X111287508Y-90977554D01*
X111102061Y-90940000D01*
X111740002Y-90940000D01*
X111740002Y-90352085D01*
X111748000Y-90332776D01*
X111748000Y-90121500D01*
X111558500Y-89932000D01*
X110740000Y-89932000D01*
X110740000Y-90182000D01*
X110240000Y-90182000D01*
X110240000Y-89932000D01*
X109421500Y-89932000D01*
X109232000Y-90121500D01*
X109232000Y-90332776D01*
X109239998Y-90352085D01*
X109239998Y-90940000D01*
X109869398Y-90940000D01*
X109712067Y-90969604D01*
X109456802Y-91133862D01*
X109372665Y-91257000D01*
X108277462Y-91257000D01*
X108304446Y-91217508D01*
X108364693Y-90920000D01*
X108364693Y-89620000D01*
X108312396Y-89342067D01*
X108148138Y-89086802D01*
X108066797Y-89031224D01*
X109232000Y-89031224D01*
X109232000Y-89242500D01*
X109421500Y-89432000D01*
X110240000Y-89432000D01*
X110240000Y-89182000D01*
X110740000Y-89182000D01*
X110740000Y-89432000D01*
X111558500Y-89432000D01*
X111748000Y-89242500D01*
X111748000Y-89031224D01*
X111740002Y-89011915D01*
X111740002Y-88424000D01*
X110550327Y-88424000D01*
X110633373Y-88389601D01*
X110846602Y-88176372D01*
X110962000Y-87897775D01*
X110962000Y-87624000D01*
X110772500Y-87434500D01*
X109829000Y-87434500D01*
X109829000Y-88315500D01*
X109937500Y-88424000D01*
X109239998Y-88424000D01*
X109239998Y-89011915D01*
X109232000Y-89031224D01*
X108066797Y-89031224D01*
X107897508Y-88915554D01*
X107600000Y-88855307D01*
X107032396Y-88855307D01*
X107051841Y-88511693D01*
X107704000Y-88511693D01*
X107981933Y-88459396D01*
X108117748Y-88372002D01*
X108257028Y-88372002D01*
X108274627Y-88389601D01*
X108553224Y-88505000D01*
X108889500Y-88505000D01*
X109079000Y-88315500D01*
X109079000Y-87434500D01*
X108704000Y-87434500D01*
X108704000Y-86809500D01*
X109079000Y-86809500D01*
X109079000Y-86497000D01*
X109829000Y-86497000D01*
X109829000Y-86809500D01*
X110772500Y-86809500D01*
X110962000Y-86620000D01*
X110962000Y-86346225D01*
X110846602Y-86067628D01*
X110704002Y-85925028D01*
X110704002Y-85739000D01*
X110519379Y-85739000D01*
X110746210Y-85587437D01*
X111125562Y-85019696D01*
X111258773Y-84350000D01*
X111125562Y-83680304D01*
X110746210Y-83112563D01*
X110178469Y-82733211D01*
X109508773Y-82600000D01*
X106891227Y-82600000D01*
X106221531Y-82733211D01*
X105653790Y-83112563D01*
X105274438Y-83680304D01*
X105145027Y-84330895D01*
X105025562Y-83730304D01*
X104646210Y-83162563D01*
X104078469Y-82783211D01*
X103408773Y-82650000D01*
X100791227Y-82650000D01*
X100121531Y-82783211D01*
X99553790Y-83162563D01*
X99174438Y-83730304D01*
X99041227Y-84400000D01*
X99174438Y-85069696D01*
X99553790Y-85637437D01*
X100121531Y-86016789D01*
X100791227Y-86150000D01*
X102408000Y-86150000D01*
X102408000Y-86301954D01*
X102363508Y-86271554D01*
X102066000Y-86211307D01*
X101166000Y-86211307D01*
X100888067Y-86263604D01*
X100632802Y-86427862D01*
X100461554Y-86678492D01*
X100401307Y-86976000D01*
X100401307Y-87776000D01*
X100453604Y-88053933D01*
X100617862Y-88309198D01*
X100708932Y-88371424D01*
X100764956Y-91455093D01*
X100637429Y-91537154D01*
X100437508Y-91400554D01*
X100140000Y-91340307D01*
X99308455Y-91340307D01*
X99306334Y-91338186D01*
X99364693Y-91050000D01*
X99364693Y-89750000D01*
X99312396Y-89472067D01*
X99176898Y-89261496D01*
X99213198Y-89238138D01*
X99384446Y-88987508D01*
X99444693Y-88690000D01*
X99444693Y-87890000D01*
X99392396Y-87612067D01*
X99351170Y-87548000D01*
X99480002Y-87548000D01*
X99480002Y-86790000D01*
X99438000Y-86790000D01*
X99438000Y-86779500D01*
X99248500Y-86590000D01*
X98455000Y-86590000D01*
X98455000Y-86790000D01*
X98005000Y-86790000D01*
X98005000Y-86590000D01*
X97780000Y-86590000D01*
X97780000Y-86190000D01*
X98005000Y-86190000D01*
X98005000Y-85421500D01*
X98455000Y-85421500D01*
X98455000Y-86190000D01*
X99248500Y-86190000D01*
X99438000Y-86000500D01*
X99438000Y-85839225D01*
X99322602Y-85560628D01*
X99109373Y-85347399D01*
X98830776Y-85232000D01*
X98644500Y-85232000D01*
X98455000Y-85421500D01*
X98005000Y-85421500D01*
X97815500Y-85232000D01*
X97780000Y-85232000D01*
X97780000Y-85139998D01*
X97022000Y-85139998D01*
X97022000Y-86265954D01*
X96977508Y-86235554D01*
X96680000Y-86175307D01*
X96318521Y-86175307D01*
X96183983Y-86085411D01*
X95830000Y-86015000D01*
X94201764Y-86015000D01*
X94182396Y-85912067D01*
X94018138Y-85656802D01*
X93767508Y-85485554D01*
X93470000Y-85425307D01*
X92170000Y-85425307D01*
X91892067Y-85477604D01*
X91636802Y-85641862D01*
X91598515Y-85697896D01*
X91397508Y-85560554D01*
X91100000Y-85500307D01*
X89600000Y-85500307D01*
X89322067Y-85552604D01*
X89097429Y-85697154D01*
X88897508Y-85560554D01*
X88600000Y-85500307D01*
X87100000Y-85500307D01*
X86822067Y-85552604D01*
X86784759Y-85576611D01*
X85854074Y-84645926D01*
X85553983Y-84445411D01*
X85200000Y-84375000D01*
X63000000Y-84375000D01*
X62891191Y-84396643D01*
X62780356Y-84401456D01*
X60639906Y-84924677D01*
X55904761Y-84910952D01*
X55758569Y-84557142D01*
X55126187Y-83923655D01*
X54299516Y-83580392D01*
X53404411Y-83579610D01*
X52577142Y-83921431D01*
X51943655Y-84553813D01*
X51600392Y-85380484D01*
X51599610Y-86275589D01*
X51941431Y-87102858D01*
X52573018Y-87735548D01*
X51943655Y-88363813D01*
X51600392Y-89190484D01*
X51599797Y-89871545D01*
X50768958Y-91204782D01*
X50741931Y-91276383D01*
X50699411Y-91340018D01*
X50678803Y-91443619D01*
X50641500Y-91542444D01*
X50643931Y-91618939D01*
X50629000Y-91694000D01*
X50629000Y-91873043D01*
X50300982Y-91544452D01*
X50930345Y-90916187D01*
X51273608Y-90089516D01*
X51274390Y-89194411D01*
X50932569Y-88367142D01*
X50300982Y-87734452D01*
X50930345Y-87106187D01*
X51273608Y-86279516D01*
X51274390Y-85384411D01*
X50932569Y-84557142D01*
X50300187Y-83923655D01*
X49473516Y-83580392D01*
X48578411Y-83579610D01*
X47751142Y-83921431D01*
X47117655Y-84553813D01*
X46774392Y-85380484D01*
X46773610Y-86275589D01*
X47115431Y-87102858D01*
X47747018Y-87735548D01*
X47117655Y-88363813D01*
X46774392Y-89190484D01*
X46773610Y-90085589D01*
X47115431Y-90912858D01*
X47747018Y-91545548D01*
X47117655Y-92173813D01*
X46774392Y-93000484D01*
X46773610Y-93895589D01*
X47115431Y-94722858D01*
X47747813Y-95356345D01*
X48574484Y-95699608D01*
X49469589Y-95700390D01*
X50296858Y-95358569D01*
X50629000Y-95027006D01*
X50629000Y-96012000D01*
X50647004Y-96102512D01*
X50647242Y-96194798D01*
X50681868Y-96277786D01*
X50699411Y-96365982D01*
X50750683Y-96442717D01*
X50786219Y-96527885D01*
X51653000Y-97817899D01*
X51653000Y-99184852D01*
X50162852Y-100675000D01*
X48026000Y-100675000D01*
X47672017Y-100745411D01*
X47371926Y-100945926D01*
X46075545Y-102242307D01*
X45244000Y-102242307D01*
X44966067Y-102294604D01*
X44710802Y-102458862D01*
X44539554Y-102709492D01*
X44479307Y-103007000D01*
X44479307Y-104257000D01*
X44505560Y-104396522D01*
X44282802Y-104539862D01*
X44111554Y-104790492D01*
X44051307Y-105088000D01*
X44051307Y-106588000D01*
X44103604Y-106865933D01*
X44215998Y-107040599D01*
X44215998Y-107316028D01*
X44173399Y-107358627D01*
X44058000Y-107637224D01*
X44058000Y-107973500D01*
X44247500Y-108163000D01*
X45141000Y-108163000D01*
X45141000Y-107788000D01*
X45791000Y-107788000D01*
X45791000Y-108163000D01*
X46116000Y-108163000D01*
X46116000Y-108913000D01*
X45791000Y-108913000D01*
X45791000Y-109856500D01*
X45980500Y-110046000D01*
X46266775Y-110046000D01*
X46338500Y-110016291D01*
X46351604Y-110085933D01*
X46515862Y-110341198D01*
X46766492Y-110512446D01*
X47064000Y-110572693D01*
X47637207Y-110572693D01*
X47652017Y-110582589D01*
X48006000Y-110653000D01*
X51512000Y-110653000D01*
X51865983Y-110582589D01*
X52129851Y-110406278D01*
X52439982Y-110344589D01*
X52478738Y-110318693D01*
X52536000Y-110318693D01*
X52813933Y-110266396D01*
X53069198Y-110102138D01*
X53085008Y-110079000D01*
X55735307Y-110079000D01*
X55735307Y-110304000D01*
X55787604Y-110581933D01*
X55951862Y-110837198D01*
X56202492Y-111008446D01*
X56500000Y-111068693D01*
X57800000Y-111068693D01*
X58077933Y-111016396D01*
X58333198Y-110852138D01*
X58504446Y-110601508D01*
X58564693Y-110304000D01*
X58564693Y-108804000D01*
X58512396Y-108526067D01*
X58348138Y-108270802D01*
X58251452Y-108204740D01*
X58333198Y-108152138D01*
X58504446Y-107901508D01*
X58529255Y-107779000D01*
X58750852Y-107779000D01*
X60227307Y-109255455D01*
X60227307Y-109337000D01*
X60279604Y-109614933D01*
X60443862Y-109870198D01*
X60694492Y-110041446D01*
X60992000Y-110101693D01*
X62492000Y-110101693D01*
X62769933Y-110049396D01*
X62994571Y-109904846D01*
X63194492Y-110041446D01*
X63492000Y-110101693D01*
X64992000Y-110101693D01*
X65269933Y-110049396D01*
X65525198Y-109885138D01*
X65694743Y-109637000D01*
X66294000Y-109637000D01*
X66647983Y-109566589D01*
X66801945Y-109463715D01*
X67092847Y-109754616D01*
X67046356Y-110134604D01*
X67143368Y-110622316D01*
X67408937Y-110777180D01*
X68204117Y-109982000D01*
X69971883Y-109982000D01*
X70767063Y-110777180D01*
X71032632Y-110622316D01*
X71129644Y-109829396D01*
X71042144Y-109389500D01*
X72442000Y-109389500D01*
X72442000Y-111000775D01*
X72557398Y-111279372D01*
X72770627Y-111492601D01*
X73049224Y-111608000D01*
X74960500Y-111608000D01*
X75150000Y-111418500D01*
X75150000Y-110162500D01*
X75487500Y-110162500D01*
X75487500Y-111418500D01*
X75677000Y-111608000D01*
X77123000Y-111608000D01*
X77312500Y-111418500D01*
X77312500Y-110162500D01*
X75487500Y-110162500D01*
X75150000Y-110162500D01*
X75150000Y-109200000D01*
X77650000Y-109200000D01*
X77650000Y-111418500D01*
X77839500Y-111608000D01*
X79750776Y-111608000D01*
X80029373Y-111492601D01*
X80242602Y-111279372D01*
X80358000Y-111000775D01*
X80358000Y-109389500D01*
X80168500Y-109200000D01*
X77650000Y-109200000D01*
X75150000Y-109200000D01*
X72631500Y-109200000D01*
X72442000Y-109389500D01*
X71042144Y-109389500D01*
X71032632Y-109341684D01*
X70767063Y-109186820D01*
X69971883Y-109982000D01*
X68204117Y-109982000D01*
X67762175Y-109540058D01*
X68646058Y-108656175D01*
X69088000Y-109098117D01*
X69883180Y-108302937D01*
X69728316Y-108037368D01*
X68935396Y-107940356D01*
X68834246Y-107960476D01*
X68791511Y-107917742D01*
X69484079Y-107918346D01*
X70219429Y-107614506D01*
X70532480Y-107302000D01*
X72442000Y-107302000D01*
X72442000Y-108598000D01*
X72631500Y-108787500D01*
X73962500Y-108787500D01*
X73962500Y-107112500D01*
X75487500Y-107112500D01*
X75487500Y-108787500D01*
X77312500Y-108787500D01*
X77312500Y-107112500D01*
X75487500Y-107112500D01*
X73962500Y-107112500D01*
X72631500Y-107112500D01*
X72442000Y-107302000D01*
X70532480Y-107302000D01*
X70782529Y-107052388D01*
X71087652Y-106317570D01*
X71088346Y-105521921D01*
X70903682Y-105075000D01*
X72442000Y-105075000D01*
X72442000Y-106510500D01*
X72631500Y-106700000D01*
X75150000Y-106700000D01*
X75150000Y-106680000D01*
X77650000Y-106680000D01*
X77650000Y-106700000D01*
X79345000Y-106700000D01*
X79345000Y-107112500D01*
X78837500Y-107112500D01*
X78837500Y-108787500D01*
X80168500Y-108787500D01*
X80358000Y-108598000D01*
X80358000Y-107528960D01*
X80546017Y-107654589D01*
X80900000Y-107725000D01*
X83375000Y-107725000D01*
X83375000Y-108250000D01*
X83250000Y-108250000D01*
X83250000Y-108550000D01*
X82150000Y-108550000D01*
X82150000Y-108250000D01*
X81031500Y-108250000D01*
X80842000Y-108439500D01*
X80842000Y-108700775D01*
X80957398Y-108979372D01*
X81063995Y-109085969D01*
X80895554Y-109332492D01*
X80835307Y-109630000D01*
X80835307Y-110830000D01*
X80887604Y-111107933D01*
X81051862Y-111363198D01*
X81302492Y-111534446D01*
X81600000Y-111594693D01*
X83800000Y-111594693D01*
X84077933Y-111542396D01*
X84333198Y-111378138D01*
X84449845Y-111207419D01*
X84997813Y-111756345D01*
X85824484Y-112099608D01*
X86719589Y-112100390D01*
X87546858Y-111758569D01*
X88180345Y-111126187D01*
X88523608Y-110299516D01*
X88524390Y-109404411D01*
X88182569Y-108577142D01*
X87550982Y-107944452D01*
X88180345Y-107316187D01*
X88523608Y-106489516D01*
X88524390Y-105594411D01*
X88338536Y-105144612D01*
X88408148Y-105075000D01*
X89064439Y-105075000D01*
X88850392Y-105590484D01*
X88849610Y-106485589D01*
X89191431Y-107312858D01*
X89823018Y-107945548D01*
X89193655Y-108573813D01*
X88850392Y-109400484D01*
X88849610Y-110295589D01*
X89191431Y-111122858D01*
X89823813Y-111756345D01*
X90650484Y-112099608D01*
X91545589Y-112100390D01*
X92372858Y-111758569D01*
X92627808Y-111504063D01*
X94854820Y-111504063D01*
X95009684Y-111769632D01*
X95802604Y-111866644D01*
X96290316Y-111769632D01*
X96445180Y-111504063D01*
X95650000Y-110708883D01*
X94854820Y-111504063D01*
X92627808Y-111504063D01*
X93006345Y-111126187D01*
X93349608Y-110299516D01*
X93349889Y-109977604D01*
X93608356Y-109977604D01*
X93705368Y-110465316D01*
X93970937Y-110620180D01*
X94766117Y-109825000D01*
X96533883Y-109825000D01*
X97329063Y-110620180D01*
X97594632Y-110465316D01*
X97648503Y-110025000D01*
X98966227Y-110025000D01*
X99099438Y-110694696D01*
X99478790Y-111262437D01*
X100046531Y-111641789D01*
X100716227Y-111775000D01*
X103333773Y-111775000D01*
X104003469Y-111641789D01*
X104571210Y-111262437D01*
X104950562Y-110694696D01*
X105083773Y-110025000D01*
X105075220Y-109982000D01*
X105145227Y-109982000D01*
X105278438Y-110651696D01*
X105657790Y-111219437D01*
X106225531Y-111598789D01*
X106895227Y-111732000D01*
X109512773Y-111732000D01*
X110182469Y-111598789D01*
X110750210Y-111219437D01*
X111129562Y-110651696D01*
X111262773Y-109982000D01*
X111129562Y-109312304D01*
X110750210Y-108744563D01*
X110182469Y-108365211D01*
X109512773Y-108232000D01*
X106895227Y-108232000D01*
X106225531Y-108365211D01*
X105657790Y-108744563D01*
X105278438Y-109312304D01*
X105145227Y-109982000D01*
X105075220Y-109982000D01*
X104950562Y-109355304D01*
X104571210Y-108787563D01*
X104003469Y-108408211D01*
X103333773Y-108275000D01*
X100716227Y-108275000D01*
X100046531Y-108408211D01*
X99478790Y-108787563D01*
X99099438Y-109355304D01*
X98966227Y-110025000D01*
X97648503Y-110025000D01*
X97691644Y-109672396D01*
X97594632Y-109184684D01*
X97329063Y-109029820D01*
X96533883Y-109825000D01*
X94766117Y-109825000D01*
X93970937Y-109029820D01*
X93705368Y-109184684D01*
X93608356Y-109977604D01*
X93349889Y-109977604D01*
X93350390Y-109404411D01*
X93008569Y-108577142D01*
X92578116Y-108145937D01*
X94854820Y-108145937D01*
X95650000Y-108941117D01*
X96445180Y-108145937D01*
X96290316Y-107880368D01*
X95497396Y-107783356D01*
X95009684Y-107880368D01*
X94854820Y-108145937D01*
X92578116Y-108145937D01*
X92376982Y-107944452D01*
X93006345Y-107316187D01*
X93349608Y-106489516D01*
X93350390Y-105594411D01*
X93135773Y-105075000D01*
X93832263Y-105075000D01*
X94103494Y-105731429D01*
X94665612Y-106294529D01*
X95400430Y-106599652D01*
X96196079Y-106600346D01*
X96931429Y-106296506D01*
X97494529Y-105734388D01*
X97799652Y-104999570D01*
X97800346Y-104203921D01*
X97496506Y-103468571D01*
X96934388Y-102905471D01*
X96199570Y-102600348D01*
X95403921Y-102599654D01*
X94668571Y-102903494D01*
X94346503Y-103225000D01*
X93123104Y-103225000D01*
X93349608Y-102679516D01*
X93350390Y-101784411D01*
X93008569Y-100957142D01*
X92376187Y-100323655D01*
X91549516Y-99980392D01*
X90654411Y-99979610D01*
X89827142Y-100321431D01*
X89193655Y-100953813D01*
X88850392Y-101780484D01*
X88849610Y-102675589D01*
X89076622Y-103225000D01*
X88297104Y-103225000D01*
X88523608Y-102679516D01*
X88524390Y-101784411D01*
X88182569Y-100957142D01*
X87550187Y-100323655D01*
X86723516Y-99980392D01*
X85828411Y-99979610D01*
X85001142Y-100321431D01*
X84367655Y-100953813D01*
X84024392Y-101780484D01*
X84023610Y-102675589D01*
X84365431Y-103502858D01*
X84997018Y-104135548D01*
X84444715Y-104686887D01*
X84348138Y-104536802D01*
X84097508Y-104365554D01*
X83800000Y-104305307D01*
X83325000Y-104305307D01*
X83325000Y-99075000D01*
X87840000Y-99075000D01*
X88129306Y-99017454D01*
X88615924Y-99504071D01*
X88615926Y-99504074D01*
X88916018Y-99704589D01*
X89270000Y-99775000D01*
X96450000Y-99775000D01*
X96803983Y-99704589D01*
X97104074Y-99504074D01*
X97463455Y-99144693D01*
X97636545Y-99144693D01*
X98055926Y-99564074D01*
X98356018Y-99764589D01*
X98710000Y-99835000D01*
X103180000Y-99835000D01*
X103533983Y-99764589D01*
X103834074Y-99564074D01*
X104267455Y-99130693D01*
X105044000Y-99130693D01*
X105321933Y-99078396D01*
X105577198Y-98914138D01*
X105748446Y-98663508D01*
X105793505Y-98441000D01*
X106593236Y-98441000D01*
X106612604Y-98543933D01*
X106776862Y-98799198D01*
X107027492Y-98970446D01*
X107325000Y-99030693D01*
X108575000Y-99030693D01*
X108852933Y-98978396D01*
X109108198Y-98814138D01*
X109232000Y-98632948D01*
X109232000Y-99020002D01*
X109819916Y-99020002D01*
X109839225Y-99028000D01*
X110050500Y-99028000D01*
X110240000Y-98838500D01*
X110240000Y-98020000D01*
X109990000Y-98020000D01*
X109990000Y-97520000D01*
X110240000Y-97520000D01*
X110240000Y-97270000D01*
X110740000Y-97270000D01*
X110740000Y-97520000D01*
X110990000Y-97520000D01*
X110990000Y-98020000D01*
X110740000Y-98020000D01*
X110740000Y-98838500D01*
X110929500Y-99028000D01*
X111140775Y-99028000D01*
X111160084Y-99020002D01*
X111748000Y-99020002D01*
X111748000Y-97942214D01*
X112512893Y-98707107D01*
X112674541Y-98815117D01*
X112835737Y-98923224D01*
X112836591Y-98923395D01*
X112837316Y-98923880D01*
X113027738Y-98961757D01*
X113218289Y-98999999D01*
X137173307Y-99040983D01*
X137173307Y-99044000D01*
X137225604Y-99321933D01*
X137389862Y-99577198D01*
X137640492Y-99748446D01*
X137938000Y-99808693D01*
X139938000Y-99808693D01*
X140175000Y-99764098D01*
X140175000Y-114175000D01*
X115044431Y-114175000D01*
X115389623Y-113944350D01*
X115660589Y-113538821D01*
X115755740Y-113060467D01*
X115755740Y-112501693D01*
X115660589Y-112023339D01*
X115512258Y-111801346D01*
X115708849Y-111507127D01*
X115804000Y-111028773D01*
X115804000Y-107411227D01*
X115708849Y-106932873D01*
X115437883Y-106527344D01*
X115096142Y-106299000D01*
X115437883Y-106070656D01*
X115708849Y-105665127D01*
X115804000Y-105186773D01*
X115804000Y-102048279D01*
X115925344Y-102229883D01*
X116330873Y-102500849D01*
X116809227Y-102596000D01*
X120426773Y-102596000D01*
X120905127Y-102500849D01*
X121310656Y-102229883D01*
X121581622Y-101824354D01*
X121666000Y-101400159D01*
X121750378Y-101824354D01*
X122021344Y-102229883D01*
X122426873Y-102500849D01*
X122905227Y-102596000D01*
X126522773Y-102596000D01*
X127001127Y-102500849D01*
X127406656Y-102229883D01*
X127677622Y-101824354D01*
X127744559Y-101487842D01*
X127796378Y-101748354D01*
X128067344Y-102153883D01*
X128472873Y-102424849D01*
X128951227Y-102520000D01*
X132568773Y-102520000D01*
X133047127Y-102424849D01*
X133452656Y-102153883D01*
X133723622Y-101748354D01*
X133813978Y-101294105D01*
X133896378Y-101708354D01*
X134167344Y-102113883D01*
X134572873Y-102384849D01*
X135051227Y-102480000D01*
X138668773Y-102480000D01*
X139147127Y-102384849D01*
X139552656Y-102113883D01*
X139823622Y-101708354D01*
X139918773Y-101230000D01*
X139823622Y-100751646D01*
X139552656Y-100346117D01*
X139147127Y-100075151D01*
X138668773Y-99980000D01*
X135051227Y-99980000D01*
X134572873Y-100075151D01*
X134167344Y-100346117D01*
X133896378Y-100751646D01*
X133806022Y-101205895D01*
X133723622Y-100791646D01*
X133452656Y-100386117D01*
X133047127Y-100115151D01*
X132568773Y-100020000D01*
X128951227Y-100020000D01*
X128472873Y-100115151D01*
X128067344Y-100386117D01*
X127796378Y-100791646D01*
X127729441Y-101128158D01*
X127677622Y-100867646D01*
X127406656Y-100462117D01*
X127001127Y-100191151D01*
X126522773Y-100096000D01*
X122905227Y-100096000D01*
X122426873Y-100191151D01*
X122021344Y-100462117D01*
X121750378Y-100867646D01*
X121666000Y-101291841D01*
X121581622Y-100867646D01*
X121310656Y-100462117D01*
X120905127Y-100191151D01*
X120426773Y-100096000D01*
X116809227Y-100096000D01*
X116330873Y-100191151D01*
X115925344Y-100462117D01*
X115654378Y-100867646D01*
X115632657Y-100976844D01*
X115437883Y-100685344D01*
X115032354Y-100414378D01*
X114554000Y-100319227D01*
X114075646Y-100414378D01*
X113670117Y-100685344D01*
X113399151Y-101090873D01*
X113304000Y-101569227D01*
X113304000Y-105186773D01*
X113399151Y-105665127D01*
X113670117Y-106070656D01*
X114011858Y-106299000D01*
X113670117Y-106527344D01*
X113399151Y-106932873D01*
X113304000Y-107411227D01*
X113304000Y-111028773D01*
X113399151Y-111507127D01*
X113547482Y-111729120D01*
X113350891Y-112023339D01*
X113255740Y-112501693D01*
X113255740Y-113060467D01*
X113350891Y-113538821D01*
X113621857Y-113944350D01*
X113967049Y-114175000D01*
X41825000Y-114175000D01*
X41825000Y-111661063D01*
X68292820Y-111661063D01*
X68447684Y-111926632D01*
X69240604Y-112023644D01*
X69728316Y-111926632D01*
X69883180Y-111661063D01*
X69088000Y-110865883D01*
X68292820Y-111661063D01*
X41825000Y-111661063D01*
X41825000Y-109102500D01*
X44058000Y-109102500D01*
X44058000Y-109438776D01*
X44173399Y-109717373D01*
X44386628Y-109930602D01*
X44665225Y-110046000D01*
X44951500Y-110046000D01*
X45141000Y-109856500D01*
X45141000Y-108913000D01*
X44247500Y-108913000D01*
X44058000Y-109102500D01*
X41825000Y-109102500D01*
X41825000Y-86279063D01*
X43954820Y-86279063D01*
X44109684Y-86544632D01*
X44902604Y-86641644D01*
X45390316Y-86544632D01*
X45545180Y-86279063D01*
X44750000Y-85483883D01*
X43954820Y-86279063D01*
X41825000Y-86279063D01*
X41825000Y-84752604D01*
X42708356Y-84752604D01*
X42805368Y-85240316D01*
X43070937Y-85395180D01*
X43866117Y-84600000D01*
X45633883Y-84600000D01*
X46429063Y-85395180D01*
X46694632Y-85240316D01*
X46791644Y-84447396D01*
X46694632Y-83959684D01*
X46429063Y-83804820D01*
X45633883Y-84600000D01*
X43866117Y-84600000D01*
X43070937Y-83804820D01*
X42805368Y-83959684D01*
X42708356Y-84752604D01*
X41825000Y-84752604D01*
X41825000Y-82920937D01*
X43954820Y-82920937D01*
X44750000Y-83716117D01*
X45545180Y-82920937D01*
X45390316Y-82655368D01*
X44597396Y-82558356D01*
X44109684Y-82655368D01*
X43954820Y-82920937D01*
X41825000Y-82920937D01*
X41825000Y-81825000D01*
X113546992Y-81825000D01*
X113399151Y-82046259D01*
G36*
X50871307Y-106854000D02*
X50871307Y-107654000D01*
X50923604Y-107931933D01*
X51087862Y-108187198D01*
X51109175Y-108201761D01*
X51102802Y-108205862D01*
X50931554Y-108456492D01*
X50871307Y-108754000D01*
X50871307Y-108803000D01*
X50677500Y-108803000D01*
X50532500Y-108658000D01*
X49739000Y-108658000D01*
X49739000Y-108803000D01*
X49289000Y-108803000D01*
X49289000Y-108658000D01*
X49064000Y-108658000D01*
X49064000Y-108258000D01*
X49289000Y-108258000D01*
X49289000Y-107489500D01*
X49739000Y-107489500D01*
X49739000Y-108258000D01*
X50532500Y-108258000D01*
X50722000Y-108068500D01*
X50722000Y-107907225D01*
X50606602Y-107628628D01*
X50393373Y-107415399D01*
X50114776Y-107300000D01*
X49928500Y-107300000D01*
X49739000Y-107489500D01*
X49289000Y-107489500D01*
X49099500Y-107300000D01*
X49064000Y-107300000D01*
X49064000Y-107207998D01*
X49040150Y-107207998D01*
X49659148Y-106589000D01*
X50834000Y-106589000D01*
X50928789Y-106570145D01*
X50871307Y-106854000D01*
X50871307Y-106854000D01*
G37*
X50871307Y-106854000D02*
X50871307Y-107654000D01*
X50923604Y-107931933D01*
X51087862Y-108187198D01*
X51109175Y-108201761D01*
X51102802Y-108205862D01*
X50931554Y-108456492D01*
X50871307Y-108754000D01*
X50871307Y-108803000D01*
X50677500Y-108803000D01*
X50532500Y-108658000D01*
X49739000Y-108658000D01*
X49739000Y-108803000D01*
X49289000Y-108803000D01*
X49289000Y-108658000D01*
X49064000Y-108658000D01*
X49064000Y-108258000D01*
X49289000Y-108258000D01*
X49289000Y-107489500D01*
X49739000Y-107489500D01*
X49739000Y-108258000D01*
X50532500Y-108258000D01*
X50722000Y-108068500D01*
X50722000Y-107907225D01*
X50606602Y-107628628D01*
X50393373Y-107415399D01*
X50114776Y-107300000D01*
X49928500Y-107300000D01*
X49739000Y-107489500D01*
X49289000Y-107489500D01*
X49099500Y-107300000D01*
X49064000Y-107300000D01*
X49064000Y-107207998D01*
X49040150Y-107207998D01*
X49659148Y-106589000D01*
X50834000Y-106589000D01*
X50928789Y-106570145D01*
X50871307Y-106854000D01*
G36*
X66141000Y-103319500D02*
X67084500Y-103319500D01*
X67274000Y-103130000D01*
X67274000Y-103125000D01*
X67587052Y-103125000D01*
X67587604Y-103127933D01*
X67751862Y-103383198D01*
X68002492Y-103554446D01*
X68300000Y-103614693D01*
X68387868Y-103614693D01*
X68445411Y-103903983D01*
X68505903Y-103994515D01*
X67956571Y-104221494D01*
X67393471Y-104783612D01*
X67088348Y-105518430D01*
X67087654Y-106314079D01*
X67174234Y-106523618D01*
X65910852Y-107787000D01*
X65690196Y-107787000D01*
X65540138Y-107553802D01*
X65289508Y-107382554D01*
X64992000Y-107322307D01*
X63492000Y-107322307D01*
X63214067Y-107374604D01*
X62989429Y-107519154D01*
X62789508Y-107382554D01*
X62492000Y-107322307D01*
X60992000Y-107322307D01*
X60923369Y-107335221D01*
X59788074Y-106199926D01*
X59750416Y-106174764D01*
X59916074Y-106064074D01*
X60933455Y-105046693D01*
X61790000Y-105046693D01*
X62067933Y-104994396D01*
X62170305Y-104928521D01*
X62218492Y-104961446D01*
X62516000Y-105021693D01*
X64016000Y-105021693D01*
X64293933Y-104969396D01*
X64429748Y-104882002D01*
X64569028Y-104882002D01*
X64586627Y-104899601D01*
X64865224Y-105015000D01*
X65201500Y-105015000D01*
X65391000Y-104825500D01*
X65391000Y-103944500D01*
X66141000Y-103944500D01*
X66141000Y-104825500D01*
X66330500Y-105015000D01*
X66666776Y-105015000D01*
X66945373Y-104899601D01*
X67158602Y-104686372D01*
X67274000Y-104407775D01*
X67274000Y-104134000D01*
X67084500Y-103944500D01*
X66141000Y-103944500D01*
X65391000Y-103944500D01*
X65016000Y-103944500D01*
X65016000Y-103319500D01*
X65391000Y-103319500D01*
X65391000Y-103125000D01*
X66141000Y-103125000D01*
X66141000Y-103319500D01*
X66141000Y-103319500D01*
G37*
X66141000Y-103319500D02*
X67084500Y-103319500D01*
X67274000Y-103130000D01*
X67274000Y-103125000D01*
X67587052Y-103125000D01*
X67587604Y-103127933D01*
X67751862Y-103383198D01*
X68002492Y-103554446D01*
X68300000Y-103614693D01*
X68387868Y-103614693D01*
X68445411Y-103903983D01*
X68505903Y-103994515D01*
X67956571Y-104221494D01*
X67393471Y-104783612D01*
X67088348Y-105518430D01*
X67087654Y-106314079D01*
X67174234Y-106523618D01*
X65910852Y-107787000D01*
X65690196Y-107787000D01*
X65540138Y-107553802D01*
X65289508Y-107382554D01*
X64992000Y-107322307D01*
X63492000Y-107322307D01*
X63214067Y-107374604D01*
X62989429Y-107519154D01*
X62789508Y-107382554D01*
X62492000Y-107322307D01*
X60992000Y-107322307D01*
X60923369Y-107335221D01*
X59788074Y-106199926D01*
X59750416Y-106174764D01*
X59916074Y-106064074D01*
X60933455Y-105046693D01*
X61790000Y-105046693D01*
X62067933Y-104994396D01*
X62170305Y-104928521D01*
X62218492Y-104961446D01*
X62516000Y-105021693D01*
X64016000Y-105021693D01*
X64293933Y-104969396D01*
X64429748Y-104882002D01*
X64569028Y-104882002D01*
X64586627Y-104899601D01*
X64865224Y-105015000D01*
X65201500Y-105015000D01*
X65391000Y-104825500D01*
X65391000Y-103944500D01*
X66141000Y-103944500D01*
X66141000Y-104825500D01*
X66330500Y-105015000D01*
X66666776Y-105015000D01*
X66945373Y-104899601D01*
X67158602Y-104686372D01*
X67274000Y-104407775D01*
X67274000Y-104134000D01*
X67084500Y-103944500D01*
X66141000Y-103944500D01*
X65391000Y-103944500D01*
X65016000Y-103944500D01*
X65016000Y-103319500D01*
X65391000Y-103319500D01*
X65391000Y-103125000D01*
X66141000Y-103125000D01*
X66141000Y-103319500D01*
G36*
X52573813Y-95356345D02*
X53400484Y-95699608D01*
X54295589Y-95700390D01*
X54985307Y-95415404D01*
X54985307Y-96800000D01*
X55037604Y-97077933D01*
X55201862Y-97333198D01*
X55298548Y-97399260D01*
X55216802Y-97451862D01*
X55045554Y-97702492D01*
X54985307Y-98000000D01*
X54985307Y-99500000D01*
X55037604Y-99777933D01*
X55201862Y-100033198D01*
X55452492Y-100204446D01*
X55750000Y-100264693D01*
X57050000Y-100264693D01*
X57327933Y-100212396D01*
X57583198Y-100048138D01*
X57754446Y-99797508D01*
X57779255Y-99675000D01*
X57816852Y-99675000D01*
X57935307Y-99793455D01*
X57935307Y-100625000D01*
X57987604Y-100902933D01*
X58151862Y-101158198D01*
X58402492Y-101329446D01*
X58700000Y-101389693D01*
X60200000Y-101389693D01*
X60477933Y-101337396D01*
X60613748Y-101250002D01*
X60753028Y-101250002D01*
X60770627Y-101267601D01*
X61049224Y-101383000D01*
X61385500Y-101383000D01*
X61575000Y-101193500D01*
X61575000Y-100312500D01*
X62325000Y-100312500D01*
X62325000Y-101193500D01*
X62514500Y-101383000D01*
X62850776Y-101383000D01*
X63129373Y-101267601D01*
X63342602Y-101054372D01*
X63458000Y-100775775D01*
X63458000Y-100502000D01*
X63268500Y-100312500D01*
X62325000Y-100312500D01*
X61575000Y-100312500D01*
X61200000Y-100312500D01*
X61200000Y-99687500D01*
X61575000Y-99687500D01*
X61575000Y-99515000D01*
X62325000Y-99515000D01*
X62325000Y-99687500D01*
X63268500Y-99687500D01*
X63338926Y-99617074D01*
X63595924Y-99874071D01*
X63595926Y-99874074D01*
X63784388Y-100000000D01*
X63896018Y-100074589D01*
X64250000Y-100145001D01*
X64250005Y-100145000D01*
X71960000Y-100145000D01*
X72010274Y-100135000D01*
X80190000Y-100135000D01*
X80543983Y-100064589D01*
X80844074Y-99864074D01*
X81475000Y-99233148D01*
X81475000Y-104328828D01*
X81322067Y-104357604D01*
X81303338Y-104369655D01*
X81254074Y-104295926D01*
X80454074Y-103495926D01*
X80153983Y-103295411D01*
X79800000Y-103225000D01*
X79115123Y-103225000D01*
X79208000Y-103000775D01*
X79208000Y-102714500D01*
X79018500Y-102525000D01*
X78075000Y-102525000D01*
X78075000Y-102850000D01*
X77325000Y-102850000D01*
X77325000Y-102525000D01*
X76950000Y-102525000D01*
X76950000Y-101875000D01*
X77325000Y-101875000D01*
X77325000Y-100981500D01*
X78075000Y-100981500D01*
X78075000Y-101875000D01*
X79018500Y-101875000D01*
X79208000Y-101685500D01*
X79208000Y-101399225D01*
X79092602Y-101120628D01*
X78879373Y-100907399D01*
X78600776Y-100792000D01*
X78264500Y-100792000D01*
X78075000Y-100981500D01*
X77325000Y-100981500D01*
X77135500Y-100792000D01*
X76799224Y-100792000D01*
X76520627Y-100907399D01*
X76478028Y-100949998D01*
X76200367Y-100949998D01*
X76047508Y-100845554D01*
X75750000Y-100785307D01*
X74250000Y-100785307D01*
X73972067Y-100837604D01*
X73716802Y-101001862D01*
X73545554Y-101252492D01*
X73540996Y-101275000D01*
X73212948Y-101275000D01*
X73212396Y-101272067D01*
X73048138Y-101016802D01*
X72797508Y-100845554D01*
X72500000Y-100785307D01*
X71000000Y-100785307D01*
X70722067Y-100837604D01*
X70466802Y-101001862D01*
X70400740Y-101098548D01*
X70348138Y-101016802D01*
X70097508Y-100845554D01*
X69800000Y-100785307D01*
X68300000Y-100785307D01*
X68022067Y-100837604D01*
X67766802Y-101001862D01*
X67595554Y-101252492D01*
X67590996Y-101275000D01*
X64250000Y-101275000D01*
X63896017Y-101345411D01*
X63595926Y-101545926D01*
X62899545Y-102242307D01*
X62516000Y-102242307D01*
X62238067Y-102294604D01*
X62173381Y-102336228D01*
X62087508Y-102277554D01*
X61790000Y-102217307D01*
X60290000Y-102217307D01*
X60012067Y-102269604D01*
X59756802Y-102433862D01*
X59690740Y-102530548D01*
X59638138Y-102448802D01*
X59387508Y-102277554D01*
X59090000Y-102217307D01*
X57590000Y-102217307D01*
X57312067Y-102269604D01*
X57056802Y-102433862D01*
X56890995Y-102676529D01*
X56745141Y-102646993D01*
X56060074Y-101961926D01*
X55759983Y-101761411D01*
X55406000Y-101691000D01*
X52324000Y-101691000D01*
X51970017Y-101761411D01*
X51669926Y-101961926D01*
X50989545Y-102642307D01*
X50466000Y-102642307D01*
X50188067Y-102694604D01*
X50168803Y-102707000D01*
X49942196Y-102707000D01*
X49825083Y-102525000D01*
X50546000Y-102525000D01*
X50899983Y-102454589D01*
X51200074Y-102254074D01*
X53232074Y-100222074D01*
X53432589Y-99921983D01*
X53503000Y-99568000D01*
X53503000Y-97536000D01*
X53484996Y-97445488D01*
X53484758Y-97353202D01*
X53450132Y-97270215D01*
X53432589Y-97182018D01*
X53381316Y-97105282D01*
X53345781Y-97020116D01*
X52479000Y-95730101D01*
X52479000Y-95261366D01*
X52573813Y-95356345D01*
X52573813Y-95356345D01*
G37*
X52573813Y-95356345D02*
X53400484Y-95699608D01*
X54295589Y-95700390D01*
X54985307Y-95415404D01*
X54985307Y-96800000D01*
X55037604Y-97077933D01*
X55201862Y-97333198D01*
X55298548Y-97399260D01*
X55216802Y-97451862D01*
X55045554Y-97702492D01*
X54985307Y-98000000D01*
X54985307Y-99500000D01*
X55037604Y-99777933D01*
X55201862Y-100033198D01*
X55452492Y-100204446D01*
X55750000Y-100264693D01*
X57050000Y-100264693D01*
X57327933Y-100212396D01*
X57583198Y-100048138D01*
X57754446Y-99797508D01*
X57779255Y-99675000D01*
X57816852Y-99675000D01*
X57935307Y-99793455D01*
X57935307Y-100625000D01*
X57987604Y-100902933D01*
X58151862Y-101158198D01*
X58402492Y-101329446D01*
X58700000Y-101389693D01*
X60200000Y-101389693D01*
X60477933Y-101337396D01*
X60613748Y-101250002D01*
X60753028Y-101250002D01*
X60770627Y-101267601D01*
X61049224Y-101383000D01*
X61385500Y-101383000D01*
X61575000Y-101193500D01*
X61575000Y-100312500D01*
X62325000Y-100312500D01*
X62325000Y-101193500D01*
X62514500Y-101383000D01*
X62850776Y-101383000D01*
X63129373Y-101267601D01*
X63342602Y-101054372D01*
X63458000Y-100775775D01*
X63458000Y-100502000D01*
X63268500Y-100312500D01*
X62325000Y-100312500D01*
X61575000Y-100312500D01*
X61200000Y-100312500D01*
X61200000Y-99687500D01*
X61575000Y-99687500D01*
X61575000Y-99515000D01*
X62325000Y-99515000D01*
X62325000Y-99687500D01*
X63268500Y-99687500D01*
X63338926Y-99617074D01*
X63595924Y-99874071D01*
X63595926Y-99874074D01*
X63784388Y-100000000D01*
X63896018Y-100074589D01*
X64250000Y-100145001D01*
X64250005Y-100145000D01*
X71960000Y-100145000D01*
X72010274Y-100135000D01*
X80190000Y-100135000D01*
X80543983Y-100064589D01*
X80844074Y-99864074D01*
X81475000Y-99233148D01*
X81475000Y-104328828D01*
X81322067Y-104357604D01*
X81303338Y-104369655D01*
X81254074Y-104295926D01*
X80454074Y-103495926D01*
X80153983Y-103295411D01*
X79800000Y-103225000D01*
X79115123Y-103225000D01*
X79208000Y-103000775D01*
X79208000Y-102714500D01*
X79018500Y-102525000D01*
X78075000Y-102525000D01*
X78075000Y-102850000D01*
X77325000Y-102850000D01*
X77325000Y-102525000D01*
X76950000Y-102525000D01*
X76950000Y-101875000D01*
X77325000Y-101875000D01*
X77325000Y-100981500D01*
X78075000Y-100981500D01*
X78075000Y-101875000D01*
X79018500Y-101875000D01*
X79208000Y-101685500D01*
X79208000Y-101399225D01*
X79092602Y-101120628D01*
X78879373Y-100907399D01*
X78600776Y-100792000D01*
X78264500Y-100792000D01*
X78075000Y-100981500D01*
X77325000Y-100981500D01*
X77135500Y-100792000D01*
X76799224Y-100792000D01*
X76520627Y-100907399D01*
X76478028Y-100949998D01*
X76200367Y-100949998D01*
X76047508Y-100845554D01*
X75750000Y-100785307D01*
X74250000Y-100785307D01*
X73972067Y-100837604D01*
X73716802Y-101001862D01*
X73545554Y-101252492D01*
X73540996Y-101275000D01*
X73212948Y-101275000D01*
X73212396Y-101272067D01*
X73048138Y-101016802D01*
X72797508Y-100845554D01*
X72500000Y-100785307D01*
X71000000Y-100785307D01*
X70722067Y-100837604D01*
X70466802Y-101001862D01*
X70400740Y-101098548D01*
X70348138Y-101016802D01*
X70097508Y-100845554D01*
X69800000Y-100785307D01*
X68300000Y-100785307D01*
X68022067Y-100837604D01*
X67766802Y-101001862D01*
X67595554Y-101252492D01*
X67590996Y-101275000D01*
X64250000Y-101275000D01*
X63896017Y-101345411D01*
X63595926Y-101545926D01*
X62899545Y-102242307D01*
X62516000Y-102242307D01*
X62238067Y-102294604D01*
X62173381Y-102336228D01*
X62087508Y-102277554D01*
X61790000Y-102217307D01*
X60290000Y-102217307D01*
X60012067Y-102269604D01*
X59756802Y-102433862D01*
X59690740Y-102530548D01*
X59638138Y-102448802D01*
X59387508Y-102277554D01*
X59090000Y-102217307D01*
X57590000Y-102217307D01*
X57312067Y-102269604D01*
X57056802Y-102433862D01*
X56890995Y-102676529D01*
X56745141Y-102646993D01*
X56060074Y-101961926D01*
X55759983Y-101761411D01*
X55406000Y-101691000D01*
X52324000Y-101691000D01*
X51970017Y-101761411D01*
X51669926Y-101961926D01*
X50989545Y-102642307D01*
X50466000Y-102642307D01*
X50188067Y-102694604D01*
X50168803Y-102707000D01*
X49942196Y-102707000D01*
X49825083Y-102525000D01*
X50546000Y-102525000D01*
X50899983Y-102454589D01*
X51200074Y-102254074D01*
X53232074Y-100222074D01*
X53432589Y-99921983D01*
X53503000Y-99568000D01*
X53503000Y-97536000D01*
X53484996Y-97445488D01*
X53484758Y-97353202D01*
X53450132Y-97270215D01*
X53432589Y-97182018D01*
X53381316Y-97105282D01*
X53345781Y-97020116D01*
X52479000Y-95730101D01*
X52479000Y-95261366D01*
X52573813Y-95356345D01*
G36*
X81875411Y-88646017D02*
X81805000Y-89000000D01*
X81875411Y-89353983D01*
X81897307Y-89386753D01*
X81897307Y-90332000D01*
X81949604Y-90609933D01*
X82061998Y-90784599D01*
X82061998Y-91060028D01*
X82019399Y-91102627D01*
X81904000Y-91381224D01*
X81904000Y-91717500D01*
X82093500Y-91907000D01*
X82987000Y-91907000D01*
X82987000Y-91532000D01*
X83637000Y-91532000D01*
X83637000Y-91907000D01*
X84530500Y-91907000D01*
X84720000Y-91717500D01*
X84720000Y-91381224D01*
X84604601Y-91102627D01*
X84562002Y-91060028D01*
X84562002Y-90782367D01*
X84666446Y-90629508D01*
X84691255Y-90507000D01*
X85317786Y-90507000D01*
X85411862Y-90653198D01*
X85662492Y-90824446D01*
X85960000Y-90884693D01*
X86231381Y-90884693D01*
X86205554Y-90922492D01*
X86145307Y-91220000D01*
X86145307Y-92120000D01*
X86197604Y-92397933D01*
X86361862Y-92653198D01*
X86383719Y-92668133D01*
X86312545Y-92739307D01*
X85481000Y-92739307D01*
X85203067Y-92791604D01*
X84947802Y-92955862D01*
X84776554Y-93206492D01*
X84716307Y-93504000D01*
X84716307Y-95004000D01*
X84768604Y-95281933D01*
X84855998Y-95417748D01*
X84855998Y-95557028D01*
X84838399Y-95574627D01*
X84723000Y-95853224D01*
X84723000Y-96189500D01*
X84912500Y-96379000D01*
X85793500Y-96379000D01*
X85793500Y-96004000D01*
X86233852Y-96004000D01*
X86418500Y-96188648D01*
X86418500Y-96379000D01*
X86608852Y-96379000D01*
X86731000Y-96501148D01*
X86731000Y-97129000D01*
X86418500Y-97129000D01*
X86418500Y-97225000D01*
X85793500Y-97225000D01*
X85793500Y-97129000D01*
X84912500Y-97129000D01*
X84816500Y-97225000D01*
X81250000Y-97225000D01*
X80896018Y-97295411D01*
X80657791Y-97454589D01*
X80595926Y-97495926D01*
X79806852Y-98285000D01*
X76319693Y-98285000D01*
X76319693Y-97214500D01*
X77017000Y-97214500D01*
X77017000Y-97550776D01*
X77132399Y-97829373D01*
X77345628Y-98042602D01*
X77624225Y-98158000D01*
X77898000Y-98158000D01*
X78087500Y-97968500D01*
X78087500Y-97025000D01*
X78712500Y-97025000D01*
X78712500Y-97968500D01*
X78902000Y-98158000D01*
X79175775Y-98158000D01*
X79454372Y-98042602D01*
X79667601Y-97829373D01*
X79783000Y-97550776D01*
X79783000Y-97214500D01*
X79593500Y-97025000D01*
X78712500Y-97025000D01*
X78087500Y-97025000D01*
X77206500Y-97025000D01*
X77017000Y-97214500D01*
X76319693Y-97214500D01*
X76319693Y-97020000D01*
X76267396Y-96742067D01*
X76180002Y-96606252D01*
X76180002Y-96466972D01*
X76197601Y-96449373D01*
X76313000Y-96170776D01*
X76313000Y-95834500D01*
X76123500Y-95645000D01*
X75242500Y-95645000D01*
X75242500Y-96020000D01*
X74617500Y-96020000D01*
X74617500Y-95645000D01*
X74305000Y-95645000D01*
X74305000Y-95203148D01*
X74583148Y-94925000D01*
X77000000Y-94925000D01*
X77014470Y-94922122D01*
X77062604Y-95177933D01*
X77149998Y-95313748D01*
X77149998Y-95453028D01*
X77132399Y-95470627D01*
X77017000Y-95749224D01*
X77017000Y-96085500D01*
X77206500Y-96275000D01*
X78087500Y-96275000D01*
X78087500Y-95900000D01*
X78712500Y-95900000D01*
X78712500Y-96275000D01*
X79593500Y-96275000D01*
X79783000Y-96085500D01*
X79783000Y-95749224D01*
X79667601Y-95470627D01*
X79650002Y-95453028D01*
X79650002Y-95313778D01*
X79729446Y-95197508D01*
X79789693Y-94900000D01*
X79789693Y-93400000D01*
X79737396Y-93122067D01*
X79573138Y-92866802D01*
X79543426Y-92846500D01*
X81904000Y-92846500D01*
X81904000Y-93182776D01*
X82019399Y-93461373D01*
X82232628Y-93674602D01*
X82511225Y-93790000D01*
X82797500Y-93790000D01*
X82987000Y-93600500D01*
X82987000Y-92657000D01*
X83637000Y-92657000D01*
X83637000Y-93600500D01*
X83826500Y-93790000D01*
X84112775Y-93790000D01*
X84391372Y-93674602D01*
X84604601Y-93461373D01*
X84720000Y-93182776D01*
X84720000Y-92846500D01*
X84530500Y-92657000D01*
X83637000Y-92657000D01*
X82987000Y-92657000D01*
X82093500Y-92657000D01*
X81904000Y-92846500D01*
X79543426Y-92846500D01*
X79322508Y-92695554D01*
X79025000Y-92635307D01*
X78888521Y-92635307D01*
X78753982Y-92545411D01*
X78400000Y-92475000D01*
X77600000Y-92475000D01*
X77246017Y-92545411D01*
X76945926Y-92745926D01*
X76616852Y-93075000D01*
X75953448Y-93075000D01*
X76028109Y-93000339D01*
X75695153Y-92667384D01*
X75741644Y-92287396D01*
X75644632Y-91799684D01*
X75379063Y-91644820D01*
X74583883Y-92440000D01*
X75025825Y-92881942D01*
X74832767Y-93075000D01*
X74200000Y-93075000D01*
X73846017Y-93145411D01*
X73545926Y-93345926D01*
X73216852Y-93675000D01*
X73167233Y-93675000D01*
X72374175Y-92881942D01*
X72816117Y-92440000D01*
X72020937Y-91644820D01*
X71755368Y-91799684D01*
X71658356Y-92592604D01*
X71678476Y-92693754D01*
X71371891Y-93000339D01*
X72026859Y-93655307D01*
X71740000Y-93655307D01*
X71462067Y-93707604D01*
X71206802Y-93871862D01*
X71120140Y-93998696D01*
X71048138Y-93886802D01*
X70797508Y-93715554D01*
X70500000Y-93655307D01*
X69200000Y-93655307D01*
X68922067Y-93707604D01*
X68841252Y-93759607D01*
X68747508Y-93695554D01*
X68725000Y-93690996D01*
X68725000Y-90864000D01*
X68677258Y-90623982D01*
X68654589Y-90510017D01*
X68589764Y-90413000D01*
X73473776Y-90413000D01*
X73059684Y-90495368D01*
X72904820Y-90760937D01*
X73700000Y-91556117D01*
X74495180Y-90760937D01*
X74340316Y-90495368D01*
X73667088Y-90413000D01*
X77104236Y-90413000D01*
X77123604Y-90515933D01*
X77287862Y-90771198D01*
X77538492Y-90942446D01*
X77836000Y-91002693D01*
X79136000Y-91002693D01*
X79413933Y-90950396D01*
X79669198Y-90786138D01*
X79840446Y-90535508D01*
X79871687Y-90381237D01*
X80065983Y-90342589D01*
X80366074Y-90142074D01*
X81902153Y-88605995D01*
X81875411Y-88646017D01*
X81875411Y-88646017D01*
G37*
X81875411Y-88646017D02*
X81805000Y-89000000D01*
X81875411Y-89353983D01*
X81897307Y-89386753D01*
X81897307Y-90332000D01*
X81949604Y-90609933D01*
X82061998Y-90784599D01*
X82061998Y-91060028D01*
X82019399Y-91102627D01*
X81904000Y-91381224D01*
X81904000Y-91717500D01*
X82093500Y-91907000D01*
X82987000Y-91907000D01*
X82987000Y-91532000D01*
X83637000Y-91532000D01*
X83637000Y-91907000D01*
X84530500Y-91907000D01*
X84720000Y-91717500D01*
X84720000Y-91381224D01*
X84604601Y-91102627D01*
X84562002Y-91060028D01*
X84562002Y-90782367D01*
X84666446Y-90629508D01*
X84691255Y-90507000D01*
X85317786Y-90507000D01*
X85411862Y-90653198D01*
X85662492Y-90824446D01*
X85960000Y-90884693D01*
X86231381Y-90884693D01*
X86205554Y-90922492D01*
X86145307Y-91220000D01*
X86145307Y-92120000D01*
X86197604Y-92397933D01*
X86361862Y-92653198D01*
X86383719Y-92668133D01*
X86312545Y-92739307D01*
X85481000Y-92739307D01*
X85203067Y-92791604D01*
X84947802Y-92955862D01*
X84776554Y-93206492D01*
X84716307Y-93504000D01*
X84716307Y-95004000D01*
X84768604Y-95281933D01*
X84855998Y-95417748D01*
X84855998Y-95557028D01*
X84838399Y-95574627D01*
X84723000Y-95853224D01*
X84723000Y-96189500D01*
X84912500Y-96379000D01*
X85793500Y-96379000D01*
X85793500Y-96004000D01*
X86233852Y-96004000D01*
X86418500Y-96188648D01*
X86418500Y-96379000D01*
X86608852Y-96379000D01*
X86731000Y-96501148D01*
X86731000Y-97129000D01*
X86418500Y-97129000D01*
X86418500Y-97225000D01*
X85793500Y-97225000D01*
X85793500Y-97129000D01*
X84912500Y-97129000D01*
X84816500Y-97225000D01*
X81250000Y-97225000D01*
X80896018Y-97295411D01*
X80657791Y-97454589D01*
X80595926Y-97495926D01*
X79806852Y-98285000D01*
X76319693Y-98285000D01*
X76319693Y-97214500D01*
X77017000Y-97214500D01*
X77017000Y-97550776D01*
X77132399Y-97829373D01*
X77345628Y-98042602D01*
X77624225Y-98158000D01*
X77898000Y-98158000D01*
X78087500Y-97968500D01*
X78087500Y-97025000D01*
X78712500Y-97025000D01*
X78712500Y-97968500D01*
X78902000Y-98158000D01*
X79175775Y-98158000D01*
X79454372Y-98042602D01*
X79667601Y-97829373D01*
X79783000Y-97550776D01*
X79783000Y-97214500D01*
X79593500Y-97025000D01*
X78712500Y-97025000D01*
X78087500Y-97025000D01*
X77206500Y-97025000D01*
X77017000Y-97214500D01*
X76319693Y-97214500D01*
X76319693Y-97020000D01*
X76267396Y-96742067D01*
X76180002Y-96606252D01*
X76180002Y-96466972D01*
X76197601Y-96449373D01*
X76313000Y-96170776D01*
X76313000Y-95834500D01*
X76123500Y-95645000D01*
X75242500Y-95645000D01*
X75242500Y-96020000D01*
X74617500Y-96020000D01*
X74617500Y-95645000D01*
X74305000Y-95645000D01*
X74305000Y-95203148D01*
X74583148Y-94925000D01*
X77000000Y-94925000D01*
X77014470Y-94922122D01*
X77062604Y-95177933D01*
X77149998Y-95313748D01*
X77149998Y-95453028D01*
X77132399Y-95470627D01*
X77017000Y-95749224D01*
X77017000Y-96085500D01*
X77206500Y-96275000D01*
X78087500Y-96275000D01*
X78087500Y-95900000D01*
X78712500Y-95900000D01*
X78712500Y-96275000D01*
X79593500Y-96275000D01*
X79783000Y-96085500D01*
X79783000Y-95749224D01*
X79667601Y-95470627D01*
X79650002Y-95453028D01*
X79650002Y-95313778D01*
X79729446Y-95197508D01*
X79789693Y-94900000D01*
X79789693Y-93400000D01*
X79737396Y-93122067D01*
X79573138Y-92866802D01*
X79543426Y-92846500D01*
X81904000Y-92846500D01*
X81904000Y-93182776D01*
X82019399Y-93461373D01*
X82232628Y-93674602D01*
X82511225Y-93790000D01*
X82797500Y-93790000D01*
X82987000Y-93600500D01*
X82987000Y-92657000D01*
X83637000Y-92657000D01*
X83637000Y-93600500D01*
X83826500Y-93790000D01*
X84112775Y-93790000D01*
X84391372Y-93674602D01*
X84604601Y-93461373D01*
X84720000Y-93182776D01*
X84720000Y-92846500D01*
X84530500Y-92657000D01*
X83637000Y-92657000D01*
X82987000Y-92657000D01*
X82093500Y-92657000D01*
X81904000Y-92846500D01*
X79543426Y-92846500D01*
X79322508Y-92695554D01*
X79025000Y-92635307D01*
X78888521Y-92635307D01*
X78753982Y-92545411D01*
X78400000Y-92475000D01*
X77600000Y-92475000D01*
X77246017Y-92545411D01*
X76945926Y-92745926D01*
X76616852Y-93075000D01*
X75953448Y-93075000D01*
X76028109Y-93000339D01*
X75695153Y-92667384D01*
X75741644Y-92287396D01*
X75644632Y-91799684D01*
X75379063Y-91644820D01*
X74583883Y-92440000D01*
X75025825Y-92881942D01*
X74832767Y-93075000D01*
X74200000Y-93075000D01*
X73846017Y-93145411D01*
X73545926Y-93345926D01*
X73216852Y-93675000D01*
X73167233Y-93675000D01*
X72374175Y-92881942D01*
X72816117Y-92440000D01*
X72020937Y-91644820D01*
X71755368Y-91799684D01*
X71658356Y-92592604D01*
X71678476Y-92693754D01*
X71371891Y-93000339D01*
X72026859Y-93655307D01*
X71740000Y-93655307D01*
X71462067Y-93707604D01*
X71206802Y-93871862D01*
X71120140Y-93998696D01*
X71048138Y-93886802D01*
X70797508Y-93715554D01*
X70500000Y-93655307D01*
X69200000Y-93655307D01*
X68922067Y-93707604D01*
X68841252Y-93759607D01*
X68747508Y-93695554D01*
X68725000Y-93690996D01*
X68725000Y-90864000D01*
X68677258Y-90623982D01*
X68654589Y-90510017D01*
X68589764Y-90413000D01*
X73473776Y-90413000D01*
X73059684Y-90495368D01*
X72904820Y-90760937D01*
X73700000Y-91556117D01*
X74495180Y-90760937D01*
X74340316Y-90495368D01*
X73667088Y-90413000D01*
X77104236Y-90413000D01*
X77123604Y-90515933D01*
X77287862Y-90771198D01*
X77538492Y-90942446D01*
X77836000Y-91002693D01*
X79136000Y-91002693D01*
X79413933Y-90950396D01*
X79669198Y-90786138D01*
X79840446Y-90535508D01*
X79871687Y-90381237D01*
X80065983Y-90342589D01*
X80366074Y-90142074D01*
X81902153Y-88605995D01*
X81875411Y-88646017D01*
G36*
X100535307Y-94240000D02*
X100535307Y-95740000D01*
X100587604Y-96017933D01*
X100751862Y-96273198D01*
X100848548Y-96339260D01*
X100766802Y-96391862D01*
X100595554Y-96642492D01*
X100535307Y-96940000D01*
X100535307Y-97985000D01*
X99093148Y-97985000D01*
X98844693Y-97736545D01*
X98844693Y-96880000D01*
X98792396Y-96602067D01*
X98628138Y-96346802D01*
X98531452Y-96280740D01*
X98613198Y-96228138D01*
X98784446Y-95977508D01*
X98844693Y-95680000D01*
X98844693Y-94180000D01*
X98833345Y-94119693D01*
X100140000Y-94119693D01*
X100417933Y-94067396D01*
X100593084Y-93954690D01*
X100535307Y-94240000D01*
X100535307Y-94240000D01*
G37*
X100535307Y-94240000D02*
X100535307Y-95740000D01*
X100587604Y-96017933D01*
X100751862Y-96273198D01*
X100848548Y-96339260D01*
X100766802Y-96391862D01*
X100595554Y-96642492D01*
X100535307Y-96940000D01*
X100535307Y-97985000D01*
X99093148Y-97985000D01*
X98844693Y-97736545D01*
X98844693Y-96880000D01*
X98792396Y-96602067D01*
X98628138Y-96346802D01*
X98531452Y-96280740D01*
X98613198Y-96228138D01*
X98784446Y-95977508D01*
X98844693Y-95680000D01*
X98844693Y-94180000D01*
X98833345Y-94119693D01*
X100140000Y-94119693D01*
X100417933Y-94067396D01*
X100593084Y-93954690D01*
X100535307Y-94240000D01*
G36*
X89302492Y-88219446D02*
X89600000Y-88279693D01*
X91100000Y-88279693D01*
X91377933Y-88227396D01*
X91552345Y-88115165D01*
X91621862Y-88223198D01*
X91718548Y-88289260D01*
X91636802Y-88341862D01*
X91465554Y-88592492D01*
X91405307Y-88890000D01*
X91405307Y-90390000D01*
X91457604Y-90667933D01*
X91621862Y-90923198D01*
X91872492Y-91094446D01*
X92170000Y-91154693D01*
X93470000Y-91154693D01*
X93648680Y-91121072D01*
X93687604Y-91327933D01*
X93851862Y-91583198D01*
X94102492Y-91754446D01*
X94225000Y-91779255D01*
X94225000Y-91896852D01*
X93556545Y-92565307D01*
X93475000Y-92565307D01*
X93197067Y-92617604D01*
X92941802Y-92781862D01*
X92770554Y-93032492D01*
X92710307Y-93330000D01*
X92710307Y-94830000D01*
X92762604Y-95107933D01*
X92849998Y-95243748D01*
X92849998Y-95383028D01*
X92832399Y-95400627D01*
X92717000Y-95679224D01*
X92717000Y-96015500D01*
X92906500Y-96205000D01*
X93787500Y-96205000D01*
X93787500Y-95830000D01*
X94412500Y-95830000D01*
X94412500Y-96205000D01*
X95293500Y-96205000D01*
X95483000Y-96015500D01*
X95483000Y-95679224D01*
X95367601Y-95400627D01*
X95350002Y-95383028D01*
X95350002Y-95243778D01*
X95429446Y-95127508D01*
X95489693Y-94830000D01*
X95489693Y-94297841D01*
X96015307Y-94823455D01*
X96015307Y-95680000D01*
X96067604Y-95957933D01*
X96231862Y-96213198D01*
X96328548Y-96279260D01*
X96246802Y-96331862D01*
X96075554Y-96582492D01*
X96015307Y-96880000D01*
X96015307Y-97925000D01*
X95350002Y-97925000D01*
X95350002Y-97776972D01*
X95367601Y-97759373D01*
X95483000Y-97480776D01*
X95483000Y-97144500D01*
X95293500Y-96955000D01*
X94412500Y-96955000D01*
X94412500Y-97330000D01*
X93787500Y-97330000D01*
X93787500Y-96955000D01*
X92906500Y-96955000D01*
X92717000Y-97144500D01*
X92717000Y-97480776D01*
X92832399Y-97759373D01*
X92849998Y-97776972D01*
X92849998Y-97925000D01*
X89730395Y-97925000D01*
X89746446Y-97901508D01*
X89806693Y-97604000D01*
X89806693Y-96104000D01*
X89754396Y-95826067D01*
X89590138Y-95570802D01*
X89493452Y-95504740D01*
X89575198Y-95452138D01*
X89746446Y-95201508D01*
X89806693Y-94904000D01*
X89806693Y-93404000D01*
X89781363Y-93269381D01*
X89825000Y-93050000D01*
X89825000Y-90310005D01*
X89825001Y-90310000D01*
X89754589Y-89956018D01*
X89554074Y-89655926D01*
X89424693Y-89526545D01*
X89424693Y-89220000D01*
X89372396Y-88942067D01*
X89208138Y-88686802D01*
X88957508Y-88515554D01*
X88775000Y-88478595D01*
X88775000Y-88246764D01*
X88877933Y-88227396D01*
X89102571Y-88082846D01*
X89302492Y-88219446D01*
X89302492Y-88219446D01*
G37*
X89302492Y-88219446D02*
X89600000Y-88279693D01*
X91100000Y-88279693D01*
X91377933Y-88227396D01*
X91552345Y-88115165D01*
X91621862Y-88223198D01*
X91718548Y-88289260D01*
X91636802Y-88341862D01*
X91465554Y-88592492D01*
X91405307Y-88890000D01*
X91405307Y-90390000D01*
X91457604Y-90667933D01*
X91621862Y-90923198D01*
X91872492Y-91094446D01*
X92170000Y-91154693D01*
X93470000Y-91154693D01*
X93648680Y-91121072D01*
X93687604Y-91327933D01*
X93851862Y-91583198D01*
X94102492Y-91754446D01*
X94225000Y-91779255D01*
X94225000Y-91896852D01*
X93556545Y-92565307D01*
X93475000Y-92565307D01*
X93197067Y-92617604D01*
X92941802Y-92781862D01*
X92770554Y-93032492D01*
X92710307Y-93330000D01*
X92710307Y-94830000D01*
X92762604Y-95107933D01*
X92849998Y-95243748D01*
X92849998Y-95383028D01*
X92832399Y-95400627D01*
X92717000Y-95679224D01*
X92717000Y-96015500D01*
X92906500Y-96205000D01*
X93787500Y-96205000D01*
X93787500Y-95830000D01*
X94412500Y-95830000D01*
X94412500Y-96205000D01*
X95293500Y-96205000D01*
X95483000Y-96015500D01*
X95483000Y-95679224D01*
X95367601Y-95400627D01*
X95350002Y-95383028D01*
X95350002Y-95243778D01*
X95429446Y-95127508D01*
X95489693Y-94830000D01*
X95489693Y-94297841D01*
X96015307Y-94823455D01*
X96015307Y-95680000D01*
X96067604Y-95957933D01*
X96231862Y-96213198D01*
X96328548Y-96279260D01*
X96246802Y-96331862D01*
X96075554Y-96582492D01*
X96015307Y-96880000D01*
X96015307Y-97925000D01*
X95350002Y-97925000D01*
X95350002Y-97776972D01*
X95367601Y-97759373D01*
X95483000Y-97480776D01*
X95483000Y-97144500D01*
X95293500Y-96955000D01*
X94412500Y-96955000D01*
X94412500Y-97330000D01*
X93787500Y-97330000D01*
X93787500Y-96955000D01*
X92906500Y-96955000D01*
X92717000Y-97144500D01*
X92717000Y-97480776D01*
X92832399Y-97759373D01*
X92849998Y-97776972D01*
X92849998Y-97925000D01*
X89730395Y-97925000D01*
X89746446Y-97901508D01*
X89806693Y-97604000D01*
X89806693Y-96104000D01*
X89754396Y-95826067D01*
X89590138Y-95570802D01*
X89493452Y-95504740D01*
X89575198Y-95452138D01*
X89746446Y-95201508D01*
X89806693Y-94904000D01*
X89806693Y-93404000D01*
X89781363Y-93269381D01*
X89825000Y-93050000D01*
X89825000Y-90310005D01*
X89825001Y-90310000D01*
X89754589Y-89956018D01*
X89554074Y-89655926D01*
X89424693Y-89526545D01*
X89424693Y-89220000D01*
X89372396Y-88942067D01*
X89208138Y-88686802D01*
X88957508Y-88515554D01*
X88775000Y-88478595D01*
X88775000Y-88246764D01*
X88877933Y-88227396D01*
X89102571Y-88082846D01*
X89302492Y-88219446D01*
G36*
X65000000Y-94746000D02*
X65175000Y-94746000D01*
X65175000Y-95246000D01*
X65000000Y-95246000D01*
X65000000Y-96064500D01*
X65074500Y-96139000D01*
X65000000Y-96213500D01*
X65000000Y-97032000D01*
X65250000Y-97032000D01*
X65250000Y-97532000D01*
X65000000Y-97532000D01*
X65000000Y-97782000D01*
X64500000Y-97782000D01*
X64500000Y-97532000D01*
X64250000Y-97532000D01*
X64250000Y-97032000D01*
X64500000Y-97032000D01*
X64500000Y-96213500D01*
X64425500Y-96139000D01*
X64500000Y-96064500D01*
X64500000Y-95246000D01*
X64250000Y-95246000D01*
X64250000Y-94746000D01*
X64500000Y-94746000D01*
X64500000Y-94496000D01*
X65000000Y-94496000D01*
X65000000Y-94746000D01*
X65000000Y-94746000D01*
G37*
X65000000Y-94746000D02*
X65175000Y-94746000D01*
X65175000Y-95246000D01*
X65000000Y-95246000D01*
X65000000Y-96064500D01*
X65074500Y-96139000D01*
X65000000Y-96213500D01*
X65000000Y-97032000D01*
X65250000Y-97032000D01*
X65250000Y-97532000D01*
X65000000Y-97532000D01*
X65000000Y-97782000D01*
X64500000Y-97782000D01*
X64500000Y-97532000D01*
X64250000Y-97532000D01*
X64250000Y-97032000D01*
X64500000Y-97032000D01*
X64500000Y-96213500D01*
X64425500Y-96139000D01*
X64500000Y-96064500D01*
X64500000Y-95246000D01*
X64250000Y-95246000D01*
X64250000Y-94746000D01*
X64500000Y-94746000D01*
X64500000Y-94496000D01*
X65000000Y-94496000D01*
X65000000Y-94746000D01*
G36*
X106567000Y-94115224D02*
X106567000Y-94451500D01*
X106756500Y-94641000D01*
X107637500Y-94641000D01*
X107637500Y-94266000D01*
X108262500Y-94266000D01*
X108262500Y-94641000D01*
X108575000Y-94641000D01*
X108575000Y-95391000D01*
X108262500Y-95391000D01*
X108262500Y-95766000D01*
X107637500Y-95766000D01*
X107637500Y-95391000D01*
X106756500Y-95391000D01*
X106567000Y-95580500D01*
X106567000Y-95916776D01*
X106682399Y-96195373D01*
X106699998Y-96212972D01*
X106699998Y-96352222D01*
X106620554Y-96468492D01*
X106595745Y-96591000D01*
X105756948Y-96591000D01*
X105756396Y-96588067D01*
X105592138Y-96332802D01*
X105495452Y-96266740D01*
X105577198Y-96214138D01*
X105748446Y-95963508D01*
X105808693Y-95666000D01*
X105808693Y-94809455D01*
X106318074Y-94300074D01*
X106518589Y-93999983D01*
X106549279Y-93845693D01*
X106678644Y-93845693D01*
X106567000Y-94115224D01*
X106567000Y-94115224D01*
G37*
X106567000Y-94115224D02*
X106567000Y-94451500D01*
X106756500Y-94641000D01*
X107637500Y-94641000D01*
X107637500Y-94266000D01*
X108262500Y-94266000D01*
X108262500Y-94641000D01*
X108575000Y-94641000D01*
X108575000Y-95391000D01*
X108262500Y-95391000D01*
X108262500Y-95766000D01*
X107637500Y-95766000D01*
X107637500Y-95391000D01*
X106756500Y-95391000D01*
X106567000Y-95580500D01*
X106567000Y-95916776D01*
X106682399Y-96195373D01*
X106699998Y-96212972D01*
X106699998Y-96352222D01*
X106620554Y-96468492D01*
X106595745Y-96591000D01*
X105756948Y-96591000D01*
X105756396Y-96588067D01*
X105592138Y-96332802D01*
X105495452Y-96266740D01*
X105577198Y-96214138D01*
X105748446Y-95963508D01*
X105808693Y-95666000D01*
X105808693Y-94809455D01*
X106318074Y-94300074D01*
X106518589Y-93999983D01*
X106549279Y-93845693D01*
X106678644Y-93845693D01*
X106567000Y-94115224D01*
G36*
X65070000Y-87317954D02*
X65025508Y-87287554D01*
X64728000Y-87227307D01*
X63828000Y-87227307D01*
X63550067Y-87279604D01*
X63294802Y-87443862D01*
X63123554Y-87694492D01*
X63063307Y-87992000D01*
X63063307Y-88792000D01*
X63115604Y-89069933D01*
X63279862Y-89325198D01*
X63353000Y-89375171D01*
X63353000Y-91164470D01*
X63297508Y-91126554D01*
X63000000Y-91066307D01*
X62168454Y-91066307D01*
X61650693Y-90548545D01*
X61650693Y-90212000D01*
X61598396Y-89934067D01*
X61557170Y-89870000D01*
X61686002Y-89870000D01*
X61686002Y-89112000D01*
X61644000Y-89112000D01*
X61644000Y-89101500D01*
X61454500Y-88912000D01*
X60661000Y-88912000D01*
X60661000Y-89112000D01*
X60211000Y-89112000D01*
X60211000Y-88912000D01*
X59986000Y-88912000D01*
X59986000Y-88512000D01*
X60211000Y-88512000D01*
X60211000Y-87743500D01*
X60661000Y-87743500D01*
X60661000Y-88512000D01*
X61454500Y-88512000D01*
X61644000Y-88322500D01*
X61644000Y-88161225D01*
X61528602Y-87882628D01*
X61315373Y-87669399D01*
X61036776Y-87554000D01*
X60850500Y-87554000D01*
X60661000Y-87743500D01*
X60211000Y-87743500D01*
X60021500Y-87554000D01*
X59986000Y-87554000D01*
X59986000Y-87461998D01*
X59228000Y-87461998D01*
X59228000Y-88587954D01*
X59183508Y-88557554D01*
X58886000Y-88497307D01*
X57986000Y-88497307D01*
X57708067Y-88549604D01*
X57452802Y-88713862D01*
X57281554Y-88964492D01*
X57221307Y-89262000D01*
X57221307Y-90062000D01*
X57273604Y-90339933D01*
X57437862Y-90595198D01*
X57575000Y-90688900D01*
X57575000Y-91287052D01*
X57572067Y-91287604D01*
X57316802Y-91451862D01*
X57145554Y-91702492D01*
X57085307Y-92000000D01*
X57085307Y-93225000D01*
X56100197Y-93225000D01*
X56100390Y-93004411D01*
X55758569Y-92177142D01*
X55126982Y-91544452D01*
X55756345Y-90916187D01*
X56099608Y-90089516D01*
X56100390Y-89194411D01*
X55758569Y-88367142D01*
X55126982Y-87734452D01*
X55756345Y-87106187D01*
X55899702Y-86760945D01*
X60747319Y-86774996D01*
X60857486Y-86753414D01*
X60969644Y-86748544D01*
X63111415Y-86225000D01*
X65070000Y-86225000D01*
X65070000Y-87317954D01*
X65070000Y-87317954D01*
G37*
X65070000Y-87317954D02*
X65025508Y-87287554D01*
X64728000Y-87227307D01*
X63828000Y-87227307D01*
X63550067Y-87279604D01*
X63294802Y-87443862D01*
X63123554Y-87694492D01*
X63063307Y-87992000D01*
X63063307Y-88792000D01*
X63115604Y-89069933D01*
X63279862Y-89325198D01*
X63353000Y-89375171D01*
X63353000Y-91164470D01*
X63297508Y-91126554D01*
X63000000Y-91066307D01*
X62168454Y-91066307D01*
X61650693Y-90548545D01*
X61650693Y-90212000D01*
X61598396Y-89934067D01*
X61557170Y-89870000D01*
X61686002Y-89870000D01*
X61686002Y-89112000D01*
X61644000Y-89112000D01*
X61644000Y-89101500D01*
X61454500Y-88912000D01*
X60661000Y-88912000D01*
X60661000Y-89112000D01*
X60211000Y-89112000D01*
X60211000Y-88912000D01*
X59986000Y-88912000D01*
X59986000Y-88512000D01*
X60211000Y-88512000D01*
X60211000Y-87743500D01*
X60661000Y-87743500D01*
X60661000Y-88512000D01*
X61454500Y-88512000D01*
X61644000Y-88322500D01*
X61644000Y-88161225D01*
X61528602Y-87882628D01*
X61315373Y-87669399D01*
X61036776Y-87554000D01*
X60850500Y-87554000D01*
X60661000Y-87743500D01*
X60211000Y-87743500D01*
X60021500Y-87554000D01*
X59986000Y-87554000D01*
X59986000Y-87461998D01*
X59228000Y-87461998D01*
X59228000Y-88587954D01*
X59183508Y-88557554D01*
X58886000Y-88497307D01*
X57986000Y-88497307D01*
X57708067Y-88549604D01*
X57452802Y-88713862D01*
X57281554Y-88964492D01*
X57221307Y-89262000D01*
X57221307Y-90062000D01*
X57273604Y-90339933D01*
X57437862Y-90595198D01*
X57575000Y-90688900D01*
X57575000Y-91287052D01*
X57572067Y-91287604D01*
X57316802Y-91451862D01*
X57145554Y-91702492D01*
X57085307Y-92000000D01*
X57085307Y-93225000D01*
X56100197Y-93225000D01*
X56100390Y-93004411D01*
X55758569Y-92177142D01*
X55126982Y-91544452D01*
X55756345Y-90916187D01*
X56099608Y-90089516D01*
X56100390Y-89194411D01*
X55758569Y-88367142D01*
X55126982Y-87734452D01*
X55756345Y-87106187D01*
X55899702Y-86760945D01*
X60747319Y-86774996D01*
X60857486Y-86753414D01*
X60969644Y-86748544D01*
X63111415Y-86225000D01*
X65070000Y-86225000D01*
X65070000Y-87317954D01*
G36*
X105274438Y-85019696D02*
X105653790Y-85587437D01*
X105943861Y-85781256D01*
X105926067Y-85784604D01*
X105670802Y-85948862D01*
X105499554Y-86199492D01*
X105439307Y-86497000D01*
X105439307Y-86629320D01*
X105370775Y-86720302D01*
X105280477Y-87069740D01*
X105176270Y-88911253D01*
X105075000Y-88890745D01*
X105075000Y-88510000D01*
X105069432Y-88482008D01*
X105073287Y-88453730D01*
X105034407Y-88305923D01*
X105004589Y-88156018D01*
X104988732Y-88132287D01*
X104981472Y-88104686D01*
X104888988Y-87983009D01*
X104822774Y-87883912D01*
X104778396Y-87648067D01*
X104737170Y-87584000D01*
X104866002Y-87584000D01*
X104866002Y-86826000D01*
X104824000Y-86826000D01*
X104824000Y-86815500D01*
X104634500Y-86626000D01*
X103841000Y-86626000D01*
X103841000Y-86826000D01*
X103391000Y-86826000D01*
X103391000Y-86626000D01*
X103166000Y-86626000D01*
X103166000Y-86226000D01*
X103391000Y-86226000D01*
X103391000Y-86150000D01*
X103408773Y-86150000D01*
X103841000Y-86064025D01*
X103841000Y-86226000D01*
X104634500Y-86226000D01*
X104824000Y-86036500D01*
X104824000Y-86026000D01*
X104866002Y-86026000D01*
X104866002Y-85308494D01*
X105025562Y-85069696D01*
X105154973Y-84419105D01*
X105274438Y-85019696D01*
X105274438Y-85019696D01*
G37*
X105274438Y-85019696D02*
X105653790Y-85587437D01*
X105943861Y-85781256D01*
X105926067Y-85784604D01*
X105670802Y-85948862D01*
X105499554Y-86199492D01*
X105439307Y-86497000D01*
X105439307Y-86629320D01*
X105370775Y-86720302D01*
X105280477Y-87069740D01*
X105176270Y-88911253D01*
X105075000Y-88890745D01*
X105075000Y-88510000D01*
X105069432Y-88482008D01*
X105073287Y-88453730D01*
X105034407Y-88305923D01*
X105004589Y-88156018D01*
X104988732Y-88132287D01*
X104981472Y-88104686D01*
X104888988Y-87983009D01*
X104822774Y-87883912D01*
X104778396Y-87648067D01*
X104737170Y-87584000D01*
X104866002Y-87584000D01*
X104866002Y-86826000D01*
X104824000Y-86826000D01*
X104824000Y-86815500D01*
X104634500Y-86626000D01*
X103841000Y-86626000D01*
X103841000Y-86826000D01*
X103391000Y-86826000D01*
X103391000Y-86626000D01*
X103166000Y-86626000D01*
X103166000Y-86226000D01*
X103391000Y-86226000D01*
X103391000Y-86150000D01*
X103408773Y-86150000D01*
X103841000Y-86064025D01*
X103841000Y-86226000D01*
X104634500Y-86226000D01*
X104824000Y-86036500D01*
X104824000Y-86026000D01*
X104866002Y-86026000D01*
X104866002Y-85308494D01*
X105025562Y-85069696D01*
X105154973Y-84419105D01*
X105274438Y-85019696D01*
G36*
X71200000Y-86516117D02*
X71491117Y-86225000D01*
X71792767Y-86225000D01*
X72525825Y-86958058D01*
X72083883Y-87400000D01*
X72525825Y-87841942D01*
X71804767Y-88563000D01*
X71479117Y-88563000D01*
X71200000Y-88283883D01*
X70920883Y-88563000D01*
X70595233Y-88563000D01*
X69874175Y-87841942D01*
X70316117Y-87400000D01*
X69874175Y-86958058D01*
X70607233Y-86225000D01*
X70908883Y-86225000D01*
X71200000Y-86516117D01*
X71200000Y-86516117D01*
G37*
X71200000Y-86516117D02*
X71491117Y-86225000D01*
X71792767Y-86225000D01*
X72525825Y-86958058D01*
X72083883Y-87400000D01*
X72525825Y-87841942D01*
X71804767Y-88563000D01*
X71479117Y-88563000D01*
X71200000Y-88283883D01*
X70920883Y-88563000D01*
X70595233Y-88563000D01*
X69874175Y-87841942D01*
X70316117Y-87400000D01*
X69874175Y-86958058D01*
X70607233Y-86225000D01*
X70908883Y-86225000D01*
X71200000Y-86516117D01*
G36*
X68871891Y-86839661D02*
X69204847Y-87172616D01*
X69158356Y-87552604D01*
X69178476Y-87653754D01*
X68871891Y-87960339D01*
X69474552Y-88563000D01*
X67528002Y-88563000D01*
X67528002Y-87842000D01*
X67486000Y-87842000D01*
X67486000Y-87831500D01*
X67296500Y-87642000D01*
X66503000Y-87642000D01*
X66503000Y-87842000D01*
X66053000Y-87842000D01*
X66053000Y-87642000D01*
X65828000Y-87642000D01*
X65828000Y-87242000D01*
X66053000Y-87242000D01*
X66053000Y-86473500D01*
X66503000Y-86473500D01*
X66503000Y-87242000D01*
X67296500Y-87242000D01*
X67486000Y-87052500D01*
X67486000Y-86891225D01*
X67370602Y-86612628D01*
X67157373Y-86399399D01*
X66878776Y-86284000D01*
X66692500Y-86284000D01*
X66503000Y-86473500D01*
X66053000Y-86473500D01*
X65863500Y-86284000D01*
X65828000Y-86284000D01*
X65828000Y-86225000D01*
X69486552Y-86225000D01*
X68871891Y-86839661D01*
X68871891Y-86839661D01*
G37*
X68871891Y-86839661D02*
X69204847Y-87172616D01*
X69158356Y-87552604D01*
X69178476Y-87653754D01*
X68871891Y-87960339D01*
X69474552Y-88563000D01*
X67528002Y-88563000D01*
X67528002Y-87842000D01*
X67486000Y-87842000D01*
X67486000Y-87831500D01*
X67296500Y-87642000D01*
X66503000Y-87642000D01*
X66503000Y-87842000D01*
X66053000Y-87842000D01*
X66053000Y-87642000D01*
X65828000Y-87642000D01*
X65828000Y-87242000D01*
X66053000Y-87242000D01*
X66053000Y-86473500D01*
X66503000Y-86473500D01*
X66503000Y-87242000D01*
X67296500Y-87242000D01*
X67486000Y-87052500D01*
X67486000Y-86891225D01*
X67370602Y-86612628D01*
X67157373Y-86399399D01*
X66878776Y-86284000D01*
X66692500Y-86284000D01*
X66503000Y-86473500D01*
X66053000Y-86473500D01*
X65863500Y-86284000D01*
X65828000Y-86284000D01*
X65828000Y-86225000D01*
X69486552Y-86225000D01*
X68871891Y-86839661D01*
G36*
X74505471Y-86265612D02*
X74200348Y-87000430D01*
X74199654Y-87796079D01*
X74503494Y-88531429D01*
X74535010Y-88563000D01*
X72925448Y-88563000D01*
X73528109Y-87960339D01*
X73195153Y-87627384D01*
X73241644Y-87247396D01*
X73221524Y-87146246D01*
X73528109Y-86839661D01*
X72913448Y-86225000D01*
X74546154Y-86225000D01*
X74505471Y-86265612D01*
X74505471Y-86265612D01*
G37*
X74505471Y-86265612D02*
X74200348Y-87000430D01*
X74199654Y-87796079D01*
X74503494Y-88531429D01*
X74535010Y-88563000D01*
X72925448Y-88563000D01*
X73528109Y-87960339D01*
X73195153Y-87627384D01*
X73241644Y-87247396D01*
X73221524Y-87146246D01*
X73528109Y-86839661D01*
X72913448Y-86225000D01*
X74546154Y-86225000D01*
X74505471Y-86265612D01*
G36*
X80039307Y-86243000D02*
X80039307Y-87493000D01*
X80091604Y-87770933D01*
X80103082Y-87788770D01*
X79685278Y-88206574D01*
X79684138Y-88204802D01*
X79587452Y-88138740D01*
X79669198Y-88086138D01*
X79840446Y-87835508D01*
X79900693Y-87538000D01*
X79900693Y-86225000D01*
X80042952Y-86225000D01*
X80039307Y-86243000D01*
X80039307Y-86243000D01*
G37*
X80039307Y-86243000D02*
X80039307Y-87493000D01*
X80091604Y-87770933D01*
X80103082Y-87788770D01*
X79685278Y-88206574D01*
X79684138Y-88204802D01*
X79587452Y-88138740D01*
X79669198Y-88086138D01*
X79840446Y-87835508D01*
X79900693Y-87538000D01*
X79900693Y-86225000D01*
X80042952Y-86225000D01*
X80039307Y-86243000D01*
M02*
