M48
;DRILL file {KiCad 4.0.7} date 04/21/20 22:48:01
;FORMAT={-:-/ absolute / metric / decimal}
FMAT,2
METRIC,TZ
T1C0.400
T2C1.200
T3C1.500
T4C2.000
%
G90
G05
M71
T1
X42.Y-105.5
X42.Y-111.
X42.5Y-83.5
X42.5Y-85.
X42.5Y-89.
X42.5Y-103.
X42.5Y-108.
X43.Y-87.
X43.Y-91.
X43.Y-93.
X43.Y-95.
X43.Y-97.
X43.Y-100.
X43.5Y-82.5
X43.5Y-113.
X43.942Y-95.504
X45.212Y-95.758
X46.Y-82.5
X46.228Y-96.52
X47.5Y-97.7
X47.5Y-112.5
X48.Y-82.5
X48.85Y-98.3
X49.55Y-107.1
X50.2Y-98.85
X50.5Y-113.
X51.5Y-82.5
X51.5Y-98.9
X53.34Y-100.076
X53.5Y-112.5
X54.61Y-100.33
X55.Y-82.5
X55.55Y-100.95
X56.9Y-101.45
X57.5Y-112.5
X58.Y-83.
X58.25Y-101.6
X59.95Y-101.6
X60.5Y-83.
X60.55Y-84.2
X60.55Y-85.05
X61.5Y-112.5
X61.75Y-101.5
X62.Y-88.
X62.35Y-89.9
X62.9Y-101.3
X63.Y-87.
X63.25Y-99.4
X63.35Y-82.25
X63.45Y-91.15
X63.45Y-93.5
X63.5Y-95.05
X63.55Y-97.1
X63.7Y-100.5
X64.4Y-86.9
X64.5Y-99.9
X65.Y-112.5
X65.4Y-86.5
X65.9Y-82.25
X66.Y-100.
X66.11Y-104.87
X66.9Y-86.5
X67.1Y-99.9
X68.Y-112.5
X68.4Y-86.4
X68.4Y-99.9
X68.9Y-82.25
X69.9Y-100.
X70.9Y-100.7
X70.95Y-109.6
X71.Y-82.2
X71.05Y-95.25
X71.1Y-97.5
X71.1Y-98.45
X71.15Y-90.35
X71.2Y-93.75
X71.5Y-112.5
X71.6Y-108.9
X71.7Y-92.65
X71.95Y-91.2
X71.95Y-104.95
X72.1Y-106.2
X72.3Y-100.7
X72.3Y-107.75
X72.75Y-88.55
X73.1Y-103.4
X73.15Y-84.25
X73.25Y-86.5
X73.25Y-101.4
X73.8Y-100.7
X73.9Y-103.45
X74.5Y-82.2
X74.5Y-112.5
X75.5Y-100.7
X76.5Y-112.5
X77.Y-82.5
X77.Y-100.7
X77.75Y-84.35
X78.4Y-100.7
X79.Y-82.25
X79.9Y-86.4
X79.9Y-87.9
X80.Y-112.5
X80.3Y-109.45
X80.5Y-91.7
X80.5Y-93.5
X80.6Y-100.7
X80.7Y-90.2
X81.Y-82.25
X81.Y-95.1
X81.3Y-97.2
X81.6Y-99.9
X83.Y-82.2
X83.475Y-100.075
X83.5Y-112.5
X84.65Y-100.1
X85.Y-82.2
X85.9Y-100.1
X86.75Y-82.45
X87.Y-112.5
X87.6Y-100.
X89.Y-81.992
X89.Y-99.6
X89.5Y-112.5
X90.1Y-88.4
X90.1Y-93.6
X90.1Y-95.7
X90.2Y-89.8
X90.2Y-91.5
X90.2Y-97.8
X90.4Y-85.2
X90.5Y-83.9
X90.8Y-99.6
X91.948Y-97.79
X92.5Y-112.5
X92.7Y-99.7
X93.Y-81.992
X94.4Y-99.7
X95.5Y-81.992
X95.5Y-112.5
X96.Y-99.7
X96.3Y-83.525
X96.875Y-85.3
X97.9Y-99.8
X98.Y-81.992
X98.Y-112.5
X98.9Y-96.3
X99.3Y-97.9
X99.8Y-99.9
X100.Y-94.8
X100.3Y-89.
X100.584Y-81.788
X100.6Y-90.9
X100.6Y-93.9
X101.5Y-112.5
X102.1Y-86.2
X102.7Y-100.3
X103.Y-81.992
X104.Y-112.5
X104.4Y-100.8
X105.5Y-81.992
X105.918Y-96.774
X106.Y-100.8
X106.172Y-99.06
X106.5Y-112.5
X107.254Y-81.992
X107.7Y-100.6
X108.Y-112.5
X108.458Y-90.17
X108.9Y-100.5
X108.966Y-93.726
X109.508Y-81.738
X110.5Y-112.5
X110.8Y-100.4
X112.Y-113.
X112.014Y-82.042
X112.5Y-84.5
X112.5Y-87.
X112.5Y-89.
X112.5Y-90.5
X112.5Y-92.5
X112.5Y-94.5
X112.5Y-96.
X112.5Y-99.
X112.5Y-100.5
X112.5Y-102.
X112.5Y-103.5
X112.5Y-105.
X112.5Y-107.
X112.5Y-109.
X112.5Y-111.
X113.6Y-96.55
X114.35Y-99.
X115.25Y-96.55
X115.9Y-98.9
X116.9Y-96.5
X118.4Y-99.
X119.05Y-96.6
X120.15Y-99.15
X120.95Y-96.55
X122.4Y-99.05
X123.05Y-96.6
X124.65Y-99.05
X124.85Y-96.5
X126.7Y-96.5
X126.7Y-99.15
X128.8Y-96.5
X128.85Y-99.15
X130.65Y-96.45
X130.7Y-99.2
X132.3Y-96.45
X132.5Y-99.25
X133.65Y-96.45
X134.2Y-99.1
X135.8Y-96.5
X135.8Y-99.05
T2
X71.2Y-87.4
X73.7Y-92.44
X76.2Y-87.4
T3
X44.75Y-84.6
X69.088Y-105.918
X69.088Y-109.982
X95.65Y-109.825
X95.8Y-104.6
T4
X49.024Y-85.83
X49.024Y-89.64
X49.024Y-93.45
X53.85Y-85.83
X53.85Y-89.64
X53.85Y-93.45
X86.274Y-102.23
X86.274Y-106.04
X86.274Y-109.85
X91.1Y-102.23
X91.1Y-106.04
X91.1Y-109.85
T0
M30
