G04 #@! TF.FileFunction,Soldermask,Top*
%FSLAX46Y46*%
G04 Gerber Fmt 4.6, Leading zero omitted, Abs format (unit mm)*
G04 Created by KiCad (PCBNEW 4.0.7) date 04/18/20 23:37:37*
%MOMM*%
%LPD*%
G01*
G04 APERTURE LIST*
%ADD10C,0.100000*%
%ADD11C,3.400000*%
%ADD12R,3.400000X3.400000*%
%ADD13R,1.900000X1.650000*%
%ADD14R,2.400000X2.900000*%
%ADD15R,1.650000X1.900000*%
%ADD16R,2.900000X2.400000*%
%ADD17R,1.400000X1.400000*%
%ADD18R,1.700000X1.900000*%
%ADD19R,2.100000X2.100000*%
%ADD20O,2.100000X2.100000*%
%ADD21R,1.300000X1.200000*%
%ADD22R,1.200000X1.300000*%
%ADD23R,1.900000X1.700000*%
%ADD24C,2.900000*%
%ADD25O,4.900000X1.400000*%
%ADD26O,1.400000X4.900000*%
%ADD27C,4.400000*%
%ADD28R,2.000000X3.400000*%
%ADD29C,0.500000*%
G04 APERTURE END LIST*
D10*
D11*
X71560000Y-113100000D03*
D12*
X51070000Y-113100000D03*
D11*
X101740000Y-113025000D03*
D12*
X81250000Y-113025000D03*
D13*
X97048000Y-85344000D03*
X99548000Y-85344000D03*
D14*
X102394000Y-90678000D03*
X106394000Y-90678000D03*
D15*
X93472000Y-89174000D03*
X93472000Y-91674000D03*
D14*
X89186000Y-96266000D03*
X93186000Y-96266000D03*
D15*
X85344000Y-93198000D03*
X85344000Y-90698000D03*
D13*
X80284000Y-88900000D03*
X82784000Y-88900000D03*
D16*
X75946000Y-92234000D03*
X75946000Y-96234000D03*
D15*
X60706000Y-93746000D03*
X60706000Y-96246000D03*
D13*
X105390000Y-97790000D03*
X102890000Y-97790000D03*
D15*
X49410000Y-94790000D03*
X49410000Y-92290000D03*
D17*
X105410000Y-85364000D03*
X105410000Y-87864000D03*
X103124000Y-87864000D03*
X103124000Y-85364000D03*
X56270000Y-85070000D03*
X58770000Y-85070000D03*
D18*
X58166000Y-88820000D03*
X58166000Y-91520000D03*
D17*
X60290000Y-85100000D03*
X62790000Y-85100000D03*
D19*
X41250000Y-88400000D03*
D20*
X41250000Y-90940000D03*
D21*
X97044000Y-89728000D03*
X97044000Y-91628000D03*
X99044000Y-90678000D03*
X91170000Y-87056000D03*
X91170000Y-85156000D03*
X89170000Y-86106000D03*
X83042000Y-94168000D03*
X83042000Y-92268000D03*
X81042000Y-93218000D03*
D22*
X65720000Y-94250000D03*
X63820000Y-94250000D03*
X64770000Y-96250000D03*
D21*
X62214000Y-91120000D03*
X62214000Y-89220000D03*
X60214000Y-90170000D03*
D22*
X48448000Y-87392000D03*
X46548000Y-87392000D03*
X47498000Y-89392000D03*
D23*
X99648000Y-87630000D03*
X96948000Y-87630000D03*
X105236000Y-93726000D03*
X102536000Y-93726000D03*
X100156000Y-93726000D03*
X97456000Y-93726000D03*
D18*
X91186000Y-91774000D03*
X91186000Y-89074000D03*
D23*
X100925000Y-96275000D03*
X98225000Y-96275000D03*
D18*
X88900000Y-91774000D03*
X88900000Y-89074000D03*
D23*
X82216000Y-96520000D03*
X84916000Y-96520000D03*
D18*
X85344000Y-87964000D03*
X85344000Y-85264000D03*
X68072000Y-96092000D03*
X68072000Y-93392000D03*
X76708000Y-88726000D03*
X76708000Y-86026000D03*
X73100000Y-99250000D03*
X73100000Y-96550000D03*
X70358000Y-93392000D03*
X70358000Y-96092000D03*
X56134000Y-98378000D03*
X56134000Y-95678000D03*
X47170000Y-95050000D03*
X47170000Y-92350000D03*
X44000000Y-90500000D03*
X44000000Y-87800000D03*
D24*
X72350000Y-88352000D03*
X67310000Y-90852000D03*
X67310000Y-85852000D03*
D19*
X52578000Y-89408000D03*
D20*
X52578000Y-91948000D03*
X52578000Y-94488000D03*
D11*
X50525000Y-119750000D03*
X46715000Y-119750000D03*
X42905000Y-119750000D03*
X50525000Y-124576000D03*
X46715000Y-124576000D03*
X42905000Y-124576000D03*
D13*
X50370000Y-99900000D03*
X47870000Y-99900000D03*
X69300000Y-100400000D03*
X66800000Y-100400000D03*
X83525000Y-99700000D03*
X86025000Y-99700000D03*
D24*
X135430000Y-104160000D03*
D25*
X134620000Y-100076000D03*
X129200000Y-100200000D03*
X123800000Y-100200000D03*
X118200000Y-100200000D03*
D26*
X114554000Y-97028000D03*
X114554000Y-91440000D03*
X114554000Y-85598000D03*
X114554000Y-112268000D03*
D25*
X118200000Y-107700000D03*
X123950000Y-107725000D03*
X129300000Y-107750000D03*
X134620000Y-107696000D03*
D26*
X114554000Y-118110000D03*
X114554000Y-123698000D03*
D27*
X80970000Y-122320000D03*
D13*
X57892000Y-123444000D03*
X55392000Y-123444000D03*
X40660000Y-116332000D03*
X43160000Y-116332000D03*
D12*
X42590000Y-103350000D03*
D11*
X42590000Y-108430000D03*
D28*
X43540000Y-94300000D03*
X43540000Y-98700000D03*
D18*
X47630000Y-103080000D03*
X47630000Y-105780000D03*
D29*
G36*
X113288000Y-101092000D02*
X113307696Y-101189264D01*
X113363682Y-101271202D01*
X113447136Y-101324903D01*
X113538000Y-101342000D01*
X132846000Y-101342000D01*
X132846000Y-102620000D01*
X113641554Y-102620000D01*
X111248000Y-100226446D01*
X111248000Y-84582000D01*
X111228304Y-84484736D01*
X111172318Y-84402798D01*
X111088864Y-84349097D01*
X110998000Y-84332000D01*
X106422000Y-84332000D01*
X106422000Y-82800000D01*
X113288000Y-82800000D01*
X113288000Y-101092000D01*
X113288000Y-101092000D01*
G37*
X113288000Y-101092000D02*
X113307696Y-101189264D01*
X113363682Y-101271202D01*
X113447136Y-101324903D01*
X113538000Y-101342000D01*
X132846000Y-101342000D01*
X132846000Y-102620000D01*
X113641554Y-102620000D01*
X111248000Y-100226446D01*
X111248000Y-84582000D01*
X111228304Y-84484736D01*
X111172318Y-84402798D01*
X111088864Y-84349097D01*
X110998000Y-84332000D01*
X106422000Y-84332000D01*
X106422000Y-82800000D01*
X113288000Y-82800000D01*
X113288000Y-101092000D01*
G36*
X109224000Y-87225554D02*
X109224000Y-101092000D01*
X109243696Y-101189264D01*
X109297223Y-101268777D01*
X113107223Y-105078777D01*
X113189927Y-105133625D01*
X113284000Y-105152000D01*
X132846000Y-105152000D01*
X132846000Y-106430000D01*
X111863554Y-106430000D01*
X107946000Y-102512446D01*
X107946000Y-88900000D01*
X107926304Y-88802736D01*
X107870318Y-88720798D01*
X107786864Y-88667097D01*
X107696000Y-88650000D01*
X106676000Y-88650000D01*
X106676000Y-86356000D01*
X108354446Y-86356000D01*
X109224000Y-87225554D01*
X109224000Y-87225554D01*
G37*
X109224000Y-87225554D02*
X109224000Y-101092000D01*
X109243696Y-101189264D01*
X109297223Y-101268777D01*
X113107223Y-105078777D01*
X113189927Y-105133625D01*
X113284000Y-105152000D01*
X132846000Y-105152000D01*
X132846000Y-106430000D01*
X111863554Y-106430000D01*
X107946000Y-102512446D01*
X107946000Y-88900000D01*
X107926304Y-88802736D01*
X107870318Y-88720798D01*
X107786864Y-88667097D01*
X107696000Y-88650000D01*
X106676000Y-88650000D01*
X106676000Y-86356000D01*
X108354446Y-86356000D01*
X109224000Y-87225554D01*
M02*
