G04 #@! TF.FileFunction,Copper,L1,Top,Signal*
%FSLAX46Y46*%
G04 Gerber Fmt 4.6, Leading zero omitted, Abs format (unit mm)*
G04 Created by KiCad (PCBNEW 4.0.7) date 04/18/20 23:37:37*
%MOMM*%
%LPD*%
G01*
G04 APERTURE LIST*
%ADD10C,0.100000*%
%ADD11C,3.000000*%
%ADD12R,3.000000X3.000000*%
%ADD13R,1.500000X1.250000*%
%ADD14R,2.000000X2.500000*%
%ADD15R,1.250000X1.500000*%
%ADD16R,2.500000X2.000000*%
%ADD17R,1.000000X1.000000*%
%ADD18R,1.300000X1.500000*%
%ADD19R,1.700000X1.700000*%
%ADD20O,1.700000X1.700000*%
%ADD21R,0.900000X0.800000*%
%ADD22R,0.800000X0.900000*%
%ADD23R,1.500000X1.300000*%
%ADD24C,2.500000*%
%ADD25C,4.000000*%
%ADD26R,1.600000X3.000000*%
%ADD27C,0.600000*%
%ADD28C,0.350000*%
%ADD29C,0.500000*%
%ADD30C,0.250000*%
G04 APERTURE END LIST*
D10*
D11*
X71560000Y-113100000D03*
D12*
X51070000Y-113100000D03*
D11*
X101740000Y-113025000D03*
D12*
X81250000Y-113025000D03*
D13*
X97048000Y-85344000D03*
X99548000Y-85344000D03*
D14*
X102394000Y-90678000D03*
X106394000Y-90678000D03*
D15*
X93472000Y-89174000D03*
X93472000Y-91674000D03*
D14*
X89186000Y-96266000D03*
X93186000Y-96266000D03*
D15*
X85344000Y-93198000D03*
X85344000Y-90698000D03*
D13*
X80284000Y-88900000D03*
X82784000Y-88900000D03*
D16*
X75946000Y-92234000D03*
X75946000Y-96234000D03*
D15*
X60706000Y-93746000D03*
X60706000Y-96246000D03*
D13*
X105390000Y-97790000D03*
X102890000Y-97790000D03*
D15*
X49410000Y-94790000D03*
X49410000Y-92290000D03*
D17*
X105410000Y-85364000D03*
X105410000Y-87864000D03*
X103124000Y-87864000D03*
X103124000Y-85364000D03*
X56270000Y-85070000D03*
X58770000Y-85070000D03*
D18*
X58166000Y-88820000D03*
X58166000Y-91520000D03*
D17*
X60290000Y-85100000D03*
X62790000Y-85100000D03*
D19*
X41250000Y-88400000D03*
D20*
X41250000Y-90940000D03*
D21*
X97044000Y-89728000D03*
X97044000Y-91628000D03*
X99044000Y-90678000D03*
X91170000Y-87056000D03*
X91170000Y-85156000D03*
X89170000Y-86106000D03*
X83042000Y-94168000D03*
X83042000Y-92268000D03*
X81042000Y-93218000D03*
D22*
X65720000Y-94250000D03*
X63820000Y-94250000D03*
X64770000Y-96250000D03*
D21*
X62214000Y-91120000D03*
X62214000Y-89220000D03*
X60214000Y-90170000D03*
D22*
X48448000Y-87392000D03*
X46548000Y-87392000D03*
X47498000Y-89392000D03*
D23*
X99648000Y-87630000D03*
X96948000Y-87630000D03*
X105236000Y-93726000D03*
X102536000Y-93726000D03*
X100156000Y-93726000D03*
X97456000Y-93726000D03*
D18*
X91186000Y-91774000D03*
X91186000Y-89074000D03*
D23*
X100925000Y-96275000D03*
X98225000Y-96275000D03*
D18*
X88900000Y-91774000D03*
X88900000Y-89074000D03*
D23*
X82216000Y-96520000D03*
X84916000Y-96520000D03*
D18*
X85344000Y-87964000D03*
X85344000Y-85264000D03*
X68072000Y-96092000D03*
X68072000Y-93392000D03*
X76708000Y-88726000D03*
X76708000Y-86026000D03*
X73100000Y-99250000D03*
X73100000Y-96550000D03*
X70358000Y-93392000D03*
X70358000Y-96092000D03*
X56134000Y-98378000D03*
X56134000Y-95678000D03*
X47170000Y-95050000D03*
X47170000Y-92350000D03*
X44000000Y-90500000D03*
X44000000Y-87800000D03*
D24*
X72350000Y-88352000D03*
X67310000Y-90852000D03*
X67310000Y-85852000D03*
D19*
X52578000Y-89408000D03*
D20*
X52578000Y-91948000D03*
X52578000Y-94488000D03*
D11*
X50525000Y-119750000D03*
X46715000Y-119750000D03*
X42905000Y-119750000D03*
X50525000Y-124576000D03*
X46715000Y-124576000D03*
X42905000Y-124576000D03*
D13*
X50370000Y-99900000D03*
X47870000Y-99900000D03*
X69300000Y-100400000D03*
X66800000Y-100400000D03*
X83525000Y-99700000D03*
X86025000Y-99700000D03*
D24*
X135430000Y-104160000D03*
D25*
X80970000Y-122320000D03*
D13*
X57892000Y-123444000D03*
X55392000Y-123444000D03*
X40660000Y-116332000D03*
X43160000Y-116332000D03*
D12*
X42590000Y-103350000D03*
D11*
X42590000Y-108430000D03*
D26*
X43540000Y-94300000D03*
X43540000Y-98700000D03*
D18*
X47630000Y-103080000D03*
X47630000Y-105780000D03*
D27*
X57090000Y-94220000D03*
X58250000Y-94800000D03*
X41300000Y-100870000D03*
X42730000Y-101240000D03*
X44490000Y-101320000D03*
X45670000Y-101530000D03*
X46910000Y-101610000D03*
X48460000Y-101620000D03*
X51070000Y-102470000D03*
X40110000Y-110300000D03*
X42250000Y-110930000D03*
X44090000Y-110830000D03*
X45600000Y-109990000D03*
X46470000Y-108710000D03*
X47770000Y-107640000D03*
X48850000Y-106840000D03*
X49130000Y-105440000D03*
X51470000Y-104750000D03*
X52320000Y-103840000D03*
X56250000Y-87970000D03*
X57360000Y-87420000D03*
X58950000Y-87480000D03*
X60460000Y-87550000D03*
X62010000Y-87770000D03*
X53970000Y-83840000D03*
X54040000Y-85300000D03*
X54300000Y-86750000D03*
X54700000Y-88500000D03*
X54500000Y-89610000D03*
X54270000Y-90500000D03*
X54280000Y-91770000D03*
X54220000Y-92810000D03*
X112014000Y-105664000D03*
X112014000Y-107442000D03*
X112014000Y-109728000D03*
X111760000Y-112522000D03*
X111506000Y-115062000D03*
X111760000Y-116840000D03*
X111506000Y-119380000D03*
X111252000Y-121412000D03*
X110744000Y-123698000D03*
X109474000Y-125476000D03*
X105918000Y-125730000D03*
X102616000Y-125730000D03*
X99822000Y-125984000D03*
X96266000Y-125984000D03*
X93218000Y-125730000D03*
X88646000Y-125476000D03*
X85598000Y-125730000D03*
X82042000Y-125730000D03*
X78232000Y-125984000D03*
X74676000Y-125984000D03*
X71628000Y-125984000D03*
X68072000Y-125730000D03*
X64770000Y-125730000D03*
X62230000Y-125730000D03*
X59944000Y-125476000D03*
X58420000Y-125222000D03*
X55626000Y-125222000D03*
X53594000Y-124714000D03*
X51308000Y-122174000D03*
X49022000Y-122174000D03*
X45974000Y-122174000D03*
X43688000Y-122428000D03*
X41148000Y-121666000D03*
X39878000Y-120904000D03*
X39116000Y-118872000D03*
X39116000Y-117348000D03*
X38862000Y-115062000D03*
X39116000Y-112522000D03*
X39624000Y-109728000D03*
X39370000Y-102362000D03*
X39116000Y-103124000D03*
X39370000Y-105918000D03*
X39370000Y-108204000D03*
X39750000Y-100750000D03*
X39200000Y-99950000D03*
X39050000Y-98650000D03*
X39150000Y-96900000D03*
X39100000Y-95400000D03*
X38900000Y-93850000D03*
X38900000Y-92650000D03*
X39050000Y-91650000D03*
X108204000Y-99822000D03*
X106426000Y-100584000D03*
X74850000Y-90350000D03*
X71775000Y-90300000D03*
X69850000Y-90100000D03*
X68525000Y-88700000D03*
X66525000Y-88200000D03*
X94925000Y-97100000D03*
X95450000Y-99100000D03*
X96750000Y-97550000D03*
X98150000Y-95100000D03*
X96850000Y-95000000D03*
X95350000Y-91900000D03*
X95150000Y-89000000D03*
X93450000Y-86900000D03*
X93600000Y-85200000D03*
X94200000Y-84150000D03*
X87850000Y-99450000D03*
X87100000Y-97450000D03*
X87050000Y-96350000D03*
X87000000Y-95000000D03*
X87000000Y-93700000D03*
X86800000Y-92100000D03*
X86850000Y-90350000D03*
X86950000Y-88300000D03*
X86600000Y-87400000D03*
X86650000Y-85400000D03*
X87250000Y-84400000D03*
X61900000Y-101050000D03*
X62350000Y-100050000D03*
X62200000Y-97850000D03*
X62400000Y-97000000D03*
X62450000Y-95300000D03*
X54850000Y-93500000D03*
X54800000Y-94450000D03*
X54650000Y-95650000D03*
X54200000Y-102200000D03*
X55450000Y-101900000D03*
X57700000Y-102000000D03*
X59550000Y-102100000D03*
X61800000Y-102100000D03*
X63875000Y-101825000D03*
X65875000Y-101850000D03*
X68150000Y-101975000D03*
X70450000Y-102000000D03*
X72350000Y-102225000D03*
X74050000Y-102025000D03*
X75650000Y-102250000D03*
X77250000Y-101900000D03*
X78350000Y-101350000D03*
X104950000Y-100600000D03*
X103100000Y-100650000D03*
X101450000Y-100700000D03*
X99500000Y-100700000D03*
X97150000Y-100600000D03*
X95250000Y-100600000D03*
X93150000Y-100600000D03*
X91050000Y-100600000D03*
X88850000Y-100750000D03*
X87500000Y-101950000D03*
X85600000Y-102550000D03*
X83300000Y-102350000D03*
X81250000Y-102050000D03*
X132590000Y-105420000D03*
X132660000Y-102460000D03*
X107200000Y-86450000D03*
X108950000Y-86900000D03*
X109120000Y-89230000D03*
X109190000Y-90660000D03*
X109010000Y-92460000D03*
X109070000Y-94370000D03*
X109040000Y-95840000D03*
X109070000Y-97320000D03*
X109120000Y-99120000D03*
X109058673Y-100839565D03*
X109940000Y-102500000D03*
X111200000Y-103480000D03*
X112050000Y-104250000D03*
X114440000Y-105640000D03*
X114540000Y-105640000D03*
X130048000Y-105410000D03*
X127630000Y-105470000D03*
X125790000Y-105370000D03*
X124190000Y-105490000D03*
X122480000Y-105510000D03*
X120690000Y-105550000D03*
X118470000Y-105500000D03*
X116590000Y-105480000D03*
X129810000Y-102470000D03*
X128220000Y-102440000D03*
X126370000Y-102440000D03*
X124210000Y-102420000D03*
X122510000Y-102420000D03*
X120750000Y-102420000D03*
X118800000Y-102370000D03*
X116008911Y-102321919D03*
X113550000Y-102230000D03*
X112640000Y-101090000D03*
X111870000Y-100310000D03*
X111567052Y-98261616D03*
X112127052Y-95861616D03*
X111830000Y-93530000D03*
X111750000Y-91300000D03*
X111790000Y-89380000D03*
X111680000Y-87580000D03*
X111490000Y-85990000D03*
X111314994Y-84628668D03*
X109600000Y-84400000D03*
X78560000Y-83590000D03*
X76920000Y-90190000D03*
X78370000Y-87820000D03*
X78870000Y-86490000D03*
X78790000Y-84960000D03*
X58450000Y-82900000D03*
X60500000Y-83000000D03*
X62200000Y-83100000D03*
X63650000Y-83100000D03*
X65300000Y-83100000D03*
X67100000Y-83150000D03*
X68950000Y-83250000D03*
X71250000Y-83300000D03*
X73150000Y-83250000D03*
X74650000Y-83350000D03*
X76700000Y-83250000D03*
X56750000Y-83100000D03*
X54250000Y-83150000D03*
X52350000Y-83150000D03*
X50450000Y-83200000D03*
X48400000Y-83250000D03*
X46650000Y-83300000D03*
X44400000Y-83300000D03*
X42600000Y-83050000D03*
X40400000Y-83100000D03*
X39550000Y-83850000D03*
X38850000Y-85100000D03*
X38800000Y-86500000D03*
X38850000Y-88150000D03*
X38850000Y-89800000D03*
X39300000Y-90950000D03*
X80960000Y-98260000D03*
X79630000Y-99140000D03*
X78030000Y-97230000D03*
X78070000Y-95550000D03*
X77760000Y-94100000D03*
X78120000Y-92400000D03*
X78400000Y-90020000D03*
X104400000Y-83250000D03*
X102600000Y-83150000D03*
X101100000Y-83150000D03*
X99350000Y-83100000D03*
X97600000Y-83100000D03*
X96350000Y-83000000D03*
X95000000Y-83050000D03*
X93500000Y-83000000D03*
X92050000Y-83050000D03*
X91000000Y-83100000D03*
X89400000Y-83000000D03*
X87750000Y-83050000D03*
X86550000Y-83100000D03*
X85200000Y-83150000D03*
X83950000Y-83000000D03*
X82400000Y-83000000D03*
X80900000Y-83050000D03*
X79250000Y-83100000D03*
X106450000Y-83450000D03*
X107600000Y-83600000D03*
X94875000Y-95800000D03*
X65000000Y-84000000D03*
X65000000Y-85000000D03*
X65000000Y-86500000D03*
X65000000Y-88000000D03*
X65000000Y-89500000D03*
X65000000Y-91500000D03*
X64500000Y-93000000D03*
X79960000Y-102710000D03*
X79970000Y-101350000D03*
X54040000Y-98070000D03*
X52250000Y-102650000D03*
X52340000Y-101510000D03*
X52500000Y-98040000D03*
X59510000Y-92310000D03*
X60660000Y-92340000D03*
X61080000Y-91140000D03*
D28*
X58420000Y-96246000D02*
X58420000Y-94970000D01*
X58420000Y-94970000D02*
X58250000Y-94800000D01*
D29*
X71560000Y-113100000D02*
X83180000Y-113100000D01*
X83105000Y-113025000D02*
X81250000Y-113025000D01*
X83180000Y-113100000D02*
X83105000Y-113025000D01*
X50525000Y-119750000D02*
X53710000Y-119750000D01*
X55392000Y-121432000D02*
X55392000Y-123444000D01*
X53710000Y-119750000D02*
X55392000Y-121432000D01*
X51070000Y-113100000D02*
X51070000Y-119205000D01*
X51070000Y-119205000D02*
X50525000Y-119750000D01*
X52250000Y-102650000D02*
X51250000Y-102650000D01*
X42360000Y-100870000D02*
X41300000Y-100870000D01*
X42730000Y-101240000D02*
X42360000Y-100870000D01*
X45460000Y-101320000D02*
X44490000Y-101320000D01*
X45670000Y-101530000D02*
X45460000Y-101320000D01*
X48450000Y-101610000D02*
X46910000Y-101610000D01*
X48460000Y-101620000D02*
X48450000Y-101610000D01*
X51250000Y-102650000D02*
X51070000Y-102470000D01*
X47630000Y-105780000D02*
X48790000Y-105780000D01*
X48790000Y-105780000D02*
X49130000Y-105440000D01*
X41090000Y-110740000D02*
X40110000Y-110300000D01*
X42250000Y-110930000D02*
X41090000Y-110740000D01*
X44760000Y-110830000D02*
X44090000Y-110830000D01*
X45600000Y-109990000D02*
X44760000Y-110830000D01*
X46700000Y-108710000D02*
X46470000Y-108710000D01*
X47770000Y-107640000D02*
X46700000Y-108710000D01*
X48850000Y-105720000D02*
X48850000Y-106840000D01*
X49130000Y-105440000D02*
X48850000Y-105720000D01*
X51470000Y-104690000D02*
X51470000Y-104750000D01*
X52320000Y-103840000D02*
X51470000Y-104690000D01*
D28*
X62214000Y-89220000D02*
X62214000Y-87974000D01*
X56810000Y-87970000D02*
X56250000Y-87970000D01*
X57360000Y-87420000D02*
X56810000Y-87970000D01*
X60390000Y-87480000D02*
X58950000Y-87480000D01*
X60460000Y-87550000D02*
X60390000Y-87480000D01*
X62214000Y-87974000D02*
X62010000Y-87770000D01*
D29*
X54850000Y-93500000D02*
X54850000Y-93440000D01*
X54250000Y-83560000D02*
X54250000Y-83150000D01*
X53970000Y-83840000D02*
X54250000Y-83560000D01*
X54040000Y-86490000D02*
X54040000Y-85300000D01*
X54300000Y-86750000D02*
X54040000Y-86490000D01*
X54700000Y-89410000D02*
X54700000Y-88500000D01*
X54500000Y-89610000D02*
X54700000Y-89410000D01*
X54270000Y-91760000D02*
X54270000Y-90500000D01*
X54280000Y-91770000D02*
X54270000Y-91760000D01*
X54850000Y-93440000D02*
X54220000Y-92810000D01*
D28*
X112050000Y-104250000D02*
X112560000Y-105118000D01*
X112560000Y-105118000D02*
X112014000Y-105664000D01*
X112014000Y-107442000D02*
X112014000Y-109728000D01*
X111760000Y-112522000D02*
X111506000Y-112776000D01*
X111506000Y-112776000D02*
X111506000Y-115062000D01*
X111760000Y-116840000D02*
X111506000Y-117094000D01*
X111506000Y-117094000D02*
X111506000Y-119380000D01*
X111252000Y-121412000D02*
X110744000Y-121920000D01*
X110744000Y-121920000D02*
X110744000Y-123698000D01*
X109474000Y-125476000D02*
X109220000Y-125730000D01*
X109220000Y-125730000D02*
X105918000Y-125730000D01*
X102616000Y-125730000D02*
X102362000Y-125984000D01*
X102362000Y-125984000D02*
X99822000Y-125984000D01*
X96266000Y-125984000D02*
X96012000Y-125730000D01*
X96012000Y-125730000D02*
X93218000Y-125730000D01*
X88646000Y-125476000D02*
X88392000Y-125730000D01*
X88392000Y-125730000D02*
X85598000Y-125730000D01*
X82042000Y-125730000D02*
X81788000Y-125984000D01*
X81788000Y-125984000D02*
X78232000Y-125984000D01*
X74676000Y-125984000D02*
X71628000Y-125984000D01*
X68072000Y-125730000D02*
X64770000Y-125730000D01*
X62230000Y-125730000D02*
X61214000Y-125476000D01*
X61214000Y-125476000D02*
X59944000Y-125476000D01*
X58420000Y-125222000D02*
X57150000Y-125222000D01*
X57150000Y-125222000D02*
X55626000Y-125222000D01*
X53594000Y-124714000D02*
X53340000Y-122174000D01*
X53340000Y-122174000D02*
X51308000Y-122174000D01*
X49022000Y-122174000D02*
X45974000Y-122174000D01*
X43688000Y-122428000D02*
X42926000Y-121666000D01*
X42926000Y-121666000D02*
X41148000Y-121666000D01*
X39878000Y-120904000D02*
X39116000Y-120142000D01*
X39116000Y-120142000D02*
X39116000Y-118872000D01*
X39116000Y-117348000D02*
X38862000Y-117094000D01*
X38862000Y-117094000D02*
X38862000Y-115062000D01*
X39116000Y-112522000D02*
X39624000Y-112014000D01*
X39624000Y-112014000D02*
X39624000Y-109728000D01*
X39370000Y-102870000D02*
X39370000Y-102362000D01*
X39116000Y-103124000D02*
X39370000Y-102870000D01*
X39370000Y-108204000D02*
X39370000Y-105918000D01*
D29*
X39750000Y-100750000D02*
X39200000Y-100200000D01*
X39200000Y-100200000D02*
X39200000Y-99950000D01*
X39050000Y-98650000D02*
X39150000Y-98550000D01*
X39150000Y-98550000D02*
X39150000Y-96900000D01*
X39100000Y-95400000D02*
X38900000Y-95200000D01*
X38900000Y-95200000D02*
X38900000Y-93850000D01*
X38900000Y-92650000D02*
X39050000Y-92500000D01*
X39050000Y-92500000D02*
X39050000Y-91650000D01*
D28*
X104950000Y-100600000D02*
X106410000Y-100600000D01*
X108846000Y-99180000D02*
X109120000Y-99120000D01*
X108204000Y-99822000D02*
X108846000Y-99180000D01*
X106410000Y-100600000D02*
X106426000Y-100584000D01*
X105390000Y-97790000D02*
X105390000Y-100160000D01*
X105390000Y-100160000D02*
X104950000Y-100600000D01*
D29*
X75010000Y-90190000D02*
X76920000Y-90190000D01*
X74850000Y-90350000D02*
X75010000Y-90190000D01*
X70050000Y-90300000D02*
X71775000Y-90300000D01*
X69850000Y-90100000D02*
X70050000Y-90300000D01*
X67025000Y-88700000D02*
X68525000Y-88700000D01*
X66525000Y-88200000D02*
X67025000Y-88700000D01*
X95250000Y-99300000D02*
X95250000Y-100600000D01*
X95450000Y-99100000D02*
X95250000Y-99300000D01*
X95000000Y-83050000D02*
X95000000Y-83350000D01*
D28*
X94925000Y-97100000D02*
X94091000Y-96266000D01*
D29*
X96300000Y-97100000D02*
X94925000Y-97100000D01*
X96750000Y-97550000D02*
X96300000Y-97100000D01*
X96950000Y-95100000D02*
X98150000Y-95100000D01*
X96850000Y-95000000D02*
X96950000Y-95100000D01*
X95350000Y-89200000D02*
X95350000Y-91900000D01*
X95150000Y-89000000D02*
X95350000Y-89200000D01*
X93450000Y-85350000D02*
X93450000Y-86900000D01*
X93600000Y-85200000D02*
X93450000Y-85350000D01*
X95000000Y-83350000D02*
X94200000Y-84150000D01*
X88750000Y-100350000D02*
X88750000Y-101050000D01*
X87850000Y-99450000D02*
X88750000Y-100350000D01*
X87100000Y-96400000D02*
X87100000Y-97450000D01*
X87050000Y-96350000D02*
X87100000Y-96400000D01*
X86900000Y-94900000D02*
X87000000Y-95000000D01*
X86900000Y-93800000D02*
X86900000Y-94900000D01*
X87000000Y-93700000D02*
X86900000Y-93800000D01*
X86800000Y-90400000D02*
X86800000Y-92100000D01*
X86850000Y-90350000D02*
X86800000Y-90400000D01*
X86950000Y-87750000D02*
X86950000Y-88300000D01*
X86600000Y-87400000D02*
X86950000Y-87750000D01*
X86650000Y-85000000D02*
X86650000Y-85400000D01*
X87250000Y-84400000D02*
X86650000Y-85000000D01*
X63820000Y-94250000D02*
X63500000Y-94250000D01*
X63500000Y-94250000D02*
X62450000Y-95300000D01*
X61900000Y-100500000D02*
X61900000Y-101050000D01*
X62350000Y-100050000D02*
X61900000Y-100500000D01*
X62200000Y-97200000D02*
X62200000Y-97850000D01*
X62400000Y-97000000D02*
X62200000Y-97200000D01*
X54800000Y-95500000D02*
X54800000Y-94450000D01*
X54650000Y-95650000D02*
X54800000Y-95500000D01*
X54950000Y-101400000D02*
X54200000Y-102200000D01*
X55450000Y-101900000D02*
X54950000Y-101400000D01*
X59450000Y-102000000D02*
X57700000Y-102000000D01*
X59550000Y-102100000D02*
X59450000Y-102000000D01*
X62800000Y-102100000D02*
X61800000Y-102100000D01*
X63875000Y-101825000D02*
X62800000Y-102100000D01*
X68050000Y-102075000D02*
X65875000Y-101850000D01*
X68150000Y-101975000D02*
X68050000Y-102075000D01*
X72250000Y-102125000D02*
X70450000Y-102000000D01*
X72350000Y-102225000D02*
X72250000Y-102125000D01*
X75000000Y-102900000D02*
X74050000Y-102025000D01*
X75650000Y-102250000D02*
X75000000Y-102900000D01*
X77800000Y-101900000D02*
X77250000Y-101900000D01*
X78350000Y-101350000D02*
X77800000Y-101900000D01*
X105300000Y-100250000D02*
X104950000Y-100600000D01*
X103100000Y-100650000D02*
X103050000Y-100700000D01*
X103050000Y-100700000D02*
X101450000Y-100700000D01*
X99500000Y-100700000D02*
X99400000Y-100600000D01*
X99400000Y-100600000D02*
X97150000Y-100600000D01*
X95250000Y-100600000D02*
X93150000Y-100600000D01*
X91050000Y-100600000D02*
X90900000Y-100750000D01*
X90900000Y-100750000D02*
X88850000Y-100750000D01*
X87500000Y-101950000D02*
X86900000Y-102550000D01*
X86900000Y-102550000D02*
X85600000Y-102550000D01*
X83300000Y-102350000D02*
X83000000Y-102050000D01*
X83000000Y-102050000D02*
X81250000Y-102050000D01*
X107200000Y-86450000D02*
X107650000Y-86900000D01*
X107650000Y-86900000D02*
X108950000Y-86900000D01*
X109120000Y-89230000D02*
X109480000Y-89850000D01*
X109480000Y-89850000D02*
X109190000Y-90660000D01*
X109010000Y-92460000D02*
X108910000Y-92560000D01*
X108910000Y-92560000D02*
X108920000Y-94220000D01*
X108920000Y-94220000D02*
X109070000Y-94370000D01*
X109040000Y-95840000D02*
X109090000Y-95890000D01*
X109090000Y-95890000D02*
X109070000Y-97320000D01*
X109120000Y-99120000D02*
X109058673Y-100839565D01*
X109940000Y-102500000D02*
X111150000Y-103480000D01*
X111150000Y-103480000D02*
X111200000Y-103480000D01*
X112050000Y-104250000D02*
X112989039Y-104896283D01*
X112989039Y-104896283D02*
X114440000Y-105640000D01*
X114540000Y-105640000D02*
X114640000Y-105540000D01*
X132540000Y-105370000D02*
X132590000Y-105420000D01*
X130098000Y-105460000D02*
X132540000Y-105370000D01*
X130048000Y-105410000D02*
X130098000Y-105460000D01*
X125790000Y-105370000D02*
X127630000Y-105470000D01*
X122530000Y-105460000D02*
X124190000Y-105490000D01*
X122480000Y-105510000D02*
X122530000Y-105460000D01*
X118520000Y-105550000D02*
X120690000Y-105550000D01*
X118470000Y-105500000D02*
X118520000Y-105550000D01*
X114640000Y-105540000D02*
X116590000Y-105480000D01*
X128270000Y-102490000D02*
X129810000Y-102470000D01*
X128220000Y-102440000D02*
X128270000Y-102490000D01*
X124210000Y-102420000D02*
X126370000Y-102440000D01*
X120800000Y-102470000D02*
X122510000Y-102420000D01*
X120750000Y-102420000D02*
X120800000Y-102470000D01*
X116058911Y-102371919D02*
X118800000Y-102370000D01*
X116008911Y-102321919D02*
X116058911Y-102371919D01*
X113300000Y-102230000D02*
X113550000Y-102230000D01*
X112640000Y-101090000D02*
X113300000Y-102230000D01*
X111810000Y-98880000D02*
X111870000Y-100310000D01*
X111567052Y-98261616D02*
X111810000Y-98880000D01*
X111880000Y-93580000D02*
X112127052Y-95861616D01*
X111830000Y-93530000D02*
X111880000Y-93580000D01*
X111740000Y-89430000D02*
X111750000Y-91300000D01*
X111790000Y-89380000D02*
X111740000Y-89430000D01*
X111640000Y-86140000D02*
X111680000Y-87580000D01*
X111490000Y-85990000D02*
X111640000Y-86140000D01*
X111504994Y-84608668D02*
X111314994Y-84628668D01*
X109600000Y-84400000D02*
X111504994Y-84608668D01*
X78370000Y-87820000D02*
X78870000Y-87320000D01*
X78870000Y-87320000D02*
X78870000Y-86490000D01*
X78790000Y-84960000D02*
X78560000Y-84730000D01*
X78560000Y-84730000D02*
X78560000Y-83590000D01*
X58450000Y-82900000D02*
X58550000Y-83000000D01*
X58550000Y-83000000D02*
X60500000Y-83000000D01*
X62200000Y-83100000D02*
X63650000Y-83100000D01*
X65300000Y-83100000D02*
X65350000Y-83150000D01*
X65350000Y-83150000D02*
X67100000Y-83150000D01*
X68950000Y-83250000D02*
X69000000Y-83300000D01*
X69000000Y-83300000D02*
X71250000Y-83300000D01*
X73150000Y-83250000D02*
X73250000Y-83350000D01*
X73250000Y-83350000D02*
X74650000Y-83350000D01*
X76700000Y-83250000D02*
X77040000Y-83590000D01*
X77040000Y-83590000D02*
X78560000Y-83590000D01*
X54300000Y-83100000D02*
X56750000Y-83100000D01*
X54250000Y-83150000D02*
X54300000Y-83100000D01*
X50500000Y-83150000D02*
X52350000Y-83150000D01*
X50450000Y-83200000D02*
X50500000Y-83150000D01*
X46700000Y-83250000D02*
X48400000Y-83250000D01*
X46650000Y-83300000D02*
X46700000Y-83250000D01*
X42850000Y-83300000D02*
X44400000Y-83300000D01*
X42600000Y-83050000D02*
X42850000Y-83300000D01*
X40300000Y-83100000D02*
X40400000Y-83100000D01*
X39550000Y-83850000D02*
X40300000Y-83100000D01*
X38850000Y-86450000D02*
X38850000Y-85100000D01*
X38800000Y-86500000D02*
X38850000Y-86450000D01*
X38850000Y-89800000D02*
X38850000Y-88150000D01*
X39310000Y-90940000D02*
X39300000Y-90950000D01*
X41250000Y-90940000D02*
X39310000Y-90940000D01*
X78230000Y-90190000D02*
X76920000Y-90190000D01*
X80510000Y-98260000D02*
X80960000Y-98260000D01*
X79630000Y-99140000D02*
X80510000Y-98260000D01*
X78030000Y-95590000D02*
X78030000Y-97230000D01*
X78070000Y-95550000D02*
X78030000Y-95590000D01*
X78120000Y-93740000D02*
X77760000Y-94100000D01*
X78120000Y-93740000D02*
X78120000Y-92400000D01*
X78400000Y-90020000D02*
X78230000Y-90190000D01*
X101100000Y-83150000D02*
X102600000Y-83150000D01*
X97600000Y-83100000D02*
X99350000Y-83100000D01*
X95050000Y-83000000D02*
X96350000Y-83000000D01*
X95000000Y-83050000D02*
X95050000Y-83000000D01*
X92100000Y-83000000D02*
X93500000Y-83000000D01*
X92050000Y-83050000D02*
X92100000Y-83000000D01*
X89500000Y-83100000D02*
X91000000Y-83100000D01*
X89400000Y-83000000D02*
X89500000Y-83100000D01*
X86600000Y-83050000D02*
X87750000Y-83050000D01*
X86550000Y-83100000D02*
X86600000Y-83050000D01*
X84100000Y-83150000D02*
X85200000Y-83150000D01*
X83950000Y-83000000D02*
X84100000Y-83150000D01*
X80950000Y-83000000D02*
X82400000Y-83000000D01*
X80900000Y-83050000D02*
X80950000Y-83000000D01*
X78760000Y-83590000D02*
X79250000Y-83100000D01*
X78760000Y-83590000D02*
X78560000Y-83590000D01*
X107450000Y-83450000D02*
X106450000Y-83450000D01*
X107600000Y-83600000D02*
X107450000Y-83450000D01*
D28*
X106394000Y-90678000D02*
X107178000Y-90678000D01*
X93186000Y-96266000D02*
X94091000Y-96266000D01*
X93186000Y-96266000D02*
X94409000Y-96266000D01*
X94409000Y-96266000D02*
X94875000Y-95800000D01*
X93186000Y-96266000D02*
X93991000Y-96266000D01*
X63820000Y-94250000D02*
X63820000Y-93680000D01*
X65000000Y-85000000D02*
X65000000Y-84000000D01*
X65000000Y-88000000D02*
X65000000Y-86500000D01*
X64500000Y-90000000D02*
X65000000Y-89500000D01*
X64500000Y-91000000D02*
X64500000Y-90000000D01*
X65000000Y-91500000D02*
X64500000Y-91000000D01*
X63820000Y-93680000D02*
X64500000Y-93000000D01*
D29*
X79970000Y-101350000D02*
X79960000Y-101360000D01*
X79960000Y-101360000D02*
X79960000Y-102710000D01*
D28*
X54040000Y-98070000D02*
X54010000Y-98040000D01*
X54010000Y-98040000D02*
X52500000Y-98040000D01*
X52280000Y-101570000D02*
X52250000Y-102650000D01*
X52340000Y-101510000D02*
X52280000Y-101570000D01*
X96948000Y-87630000D02*
X96948000Y-89632000D01*
X96948000Y-89632000D02*
X97044000Y-89728000D01*
X97048000Y-85344000D02*
X97048000Y-87530000D01*
X97048000Y-87530000D02*
X96948000Y-87630000D01*
D29*
X105410000Y-85364000D02*
X108814000Y-85364000D01*
X113600000Y-104000000D02*
X135430000Y-104160000D01*
X110350000Y-100750000D02*
X113600000Y-104000000D01*
X110350000Y-86900000D02*
X110350000Y-100750000D01*
X108814000Y-85364000D02*
X110350000Y-86900000D01*
D28*
X103124000Y-85364000D02*
X99568000Y-85364000D01*
X99568000Y-85364000D02*
X99548000Y-85344000D01*
X103124000Y-85364000D02*
X105410000Y-85364000D01*
X102536000Y-93726000D02*
X100156000Y-93726000D01*
X102394000Y-90678000D02*
X102394000Y-93584000D01*
X102394000Y-93584000D02*
X102536000Y-93726000D01*
X99648000Y-87630000D02*
X99648000Y-87932000D01*
X99648000Y-87932000D02*
X102394000Y-90678000D01*
X91170000Y-87056000D02*
X91170000Y-89058000D01*
X91170000Y-89058000D02*
X91186000Y-89074000D01*
X93472000Y-89174000D02*
X91286000Y-89174000D01*
X91286000Y-89174000D02*
X91186000Y-89074000D01*
X93472000Y-91674000D02*
X93472000Y-91694000D01*
X93472000Y-91694000D02*
X95504000Y-93726000D01*
X95504000Y-93726000D02*
X97456000Y-93726000D01*
X99044000Y-90678000D02*
X99044000Y-90948000D01*
X99044000Y-90948000D02*
X98298000Y-91694000D01*
X98298000Y-91694000D02*
X98298000Y-92884000D01*
X98298000Y-92884000D02*
X97456000Y-93726000D01*
X98225000Y-96275000D02*
X97200000Y-96325000D01*
X91186000Y-93218000D02*
X91186000Y-91774000D01*
X92202000Y-94234000D02*
X91186000Y-93218000D01*
X94488000Y-94234000D02*
X92202000Y-94234000D01*
X97200000Y-96325000D02*
X94488000Y-94234000D01*
X91186000Y-91774000D02*
X88900000Y-91774000D01*
X88900000Y-91774000D02*
X88900000Y-95980000D01*
X88900000Y-95980000D02*
X89186000Y-96266000D01*
X88900000Y-95980000D02*
X89186000Y-96266000D01*
X85344000Y-93198000D02*
X85344000Y-96092000D01*
X85344000Y-96092000D02*
X84916000Y-96520000D01*
X83042000Y-94168000D02*
X84374000Y-94168000D01*
X84374000Y-94168000D02*
X85344000Y-93198000D01*
X88900000Y-89074000D02*
X86968000Y-89074000D01*
X86968000Y-89074000D02*
X85344000Y-90698000D01*
X89170000Y-86106000D02*
X89170000Y-88804000D01*
X89170000Y-88804000D02*
X88900000Y-89074000D01*
X68072000Y-93392000D02*
X66578000Y-93392000D01*
X66578000Y-93392000D02*
X65720000Y-94250000D01*
X76708000Y-88726000D02*
X75104000Y-88726000D01*
X70024000Y-91440000D02*
X68072000Y-93392000D01*
X72390000Y-91440000D02*
X70024000Y-91440000D01*
X75104000Y-88726000D02*
X72390000Y-91440000D01*
X76374000Y-88726000D02*
X76708000Y-88726000D01*
X80284000Y-88900000D02*
X76882000Y-88900000D01*
X76882000Y-88900000D02*
X76708000Y-88726000D01*
X52578000Y-94488000D02*
X52578000Y-94878000D01*
X52578000Y-94878000D02*
X54700000Y-97000000D01*
X54700000Y-97000000D02*
X57000000Y-97000000D01*
X57000000Y-97000000D02*
X58600000Y-98600000D01*
X58600000Y-98600000D02*
X71400000Y-98600000D01*
X71400000Y-98600000D02*
X72100000Y-97900000D01*
X72100000Y-97900000D02*
X74000000Y-97900000D01*
X74000000Y-97900000D02*
X75100000Y-99000000D01*
X75100000Y-99000000D02*
X78400000Y-99000000D01*
X78400000Y-99000000D02*
X79500000Y-97900000D01*
X79500000Y-97900000D02*
X79500000Y-91800000D01*
X79500000Y-91800000D02*
X80600000Y-90700000D01*
X80600000Y-90700000D02*
X80984000Y-90700000D01*
X80984000Y-90700000D02*
X82784000Y-88900000D01*
X82784000Y-88900000D02*
X84408000Y-88900000D01*
X84408000Y-88900000D02*
X85344000Y-87964000D01*
X83042000Y-92268000D02*
X83042000Y-89158000D01*
X83042000Y-89158000D02*
X82784000Y-88900000D01*
X73100000Y-96550000D02*
X73100000Y-93800000D01*
X73100000Y-93800000D02*
X72692000Y-93392000D01*
X75946000Y-92234000D02*
X74866000Y-92234000D01*
X74866000Y-92234000D02*
X73708000Y-93392000D01*
X73708000Y-93392000D02*
X72692000Y-93392000D01*
X72692000Y-93392000D02*
X70358000Y-93392000D01*
X68072000Y-96092000D02*
X68072000Y-95678000D01*
X68072000Y-95678000D02*
X70358000Y-93392000D01*
X60290000Y-85100000D02*
X60290000Y-86020000D01*
X60290000Y-86020000D02*
X59696000Y-86614000D01*
X58770000Y-85070000D02*
X58770000Y-86160000D01*
X58770000Y-86160000D02*
X59224000Y-86614000D01*
X60706000Y-93746000D02*
X58420000Y-93746000D01*
X62214000Y-91120000D02*
X62214000Y-92238000D01*
X62214000Y-92238000D02*
X60706000Y-93746000D01*
X58420000Y-93746000D02*
X58420000Y-93400000D01*
X58420000Y-93400000D02*
X59510000Y-92310000D01*
X60660000Y-92340000D02*
X61080000Y-91920000D01*
X61080000Y-91920000D02*
X61080000Y-91140000D01*
X52578000Y-89408000D02*
X52832000Y-89408000D01*
X52832000Y-89408000D02*
X55626000Y-86614000D01*
X55626000Y-86614000D02*
X59224000Y-86614000D01*
X59224000Y-86614000D02*
X59696000Y-86614000D01*
X59696000Y-86614000D02*
X62230000Y-86614000D01*
X62230000Y-86614000D02*
X63500000Y-87884000D01*
X63500000Y-87884000D02*
X63500000Y-89834000D01*
X63500000Y-89834000D02*
X62214000Y-91120000D01*
X60706000Y-96246000D02*
X64766000Y-96246000D01*
X64766000Y-96246000D02*
X64770000Y-96250000D01*
X70358000Y-96092000D02*
X70358000Y-97282000D01*
X66310000Y-97790000D02*
X64770000Y-96250000D01*
X69850000Y-97790000D02*
X66310000Y-97790000D01*
X70358000Y-97282000D02*
X69850000Y-97790000D01*
X47170000Y-92350000D02*
X47170000Y-91720000D01*
X47170000Y-91720000D02*
X49280000Y-89610000D01*
X49280000Y-88224000D02*
X48448000Y-87392000D01*
X49280000Y-89610000D02*
X49280000Y-88224000D01*
X47170000Y-92350000D02*
X47170000Y-92550000D01*
X47170000Y-92550000D02*
X49410000Y-94790000D01*
X48700000Y-87644000D02*
X48448000Y-87392000D01*
X47170000Y-92350000D02*
X47050000Y-92550000D01*
X47050000Y-92550000D02*
X47350000Y-92250000D01*
X47350000Y-92250000D02*
X47350000Y-92230000D01*
X49410000Y-92290000D02*
X52236000Y-92290000D01*
X52236000Y-92290000D02*
X52578000Y-91948000D01*
X58166000Y-88820000D02*
X58864000Y-88820000D01*
X58864000Y-88820000D02*
X60214000Y-90170000D01*
X56134000Y-95678000D02*
X56134000Y-93552000D01*
X56134000Y-93552000D02*
X58166000Y-91520000D01*
X58166000Y-91520000D02*
X58166000Y-91868000D01*
D29*
X46715000Y-119750000D02*
X46715000Y-110365000D01*
X49970000Y-107110000D02*
X49970000Y-101460000D01*
X46715000Y-110365000D02*
X49970000Y-107110000D01*
D28*
X47170000Y-95050000D02*
X46710000Y-95050000D01*
X46710000Y-95050000D02*
X45850000Y-93920000D01*
X46798000Y-89392000D02*
X47498000Y-89392000D01*
X45850000Y-90610000D02*
X46798000Y-89392000D01*
X45850000Y-93920000D02*
X45850000Y-90610000D01*
X47170000Y-95050000D02*
X47170000Y-99200000D01*
X47170000Y-99200000D02*
X47870000Y-99900000D01*
D29*
X56134000Y-98378000D02*
X55052000Y-98378000D01*
X55052000Y-98378000D02*
X52930000Y-100500000D01*
X52930000Y-100500000D02*
X51950000Y-100500000D01*
X51950000Y-100500000D02*
X50990000Y-101460000D01*
X50990000Y-101460000D02*
X49970000Y-101460000D01*
X49430000Y-101460000D02*
X47870000Y-99900000D01*
X49970000Y-101460000D02*
X49430000Y-101460000D01*
X43160000Y-116332000D02*
X45974000Y-116332000D01*
X46715000Y-117073000D02*
X46715000Y-119750000D01*
X45974000Y-116332000D02*
X46715000Y-117073000D01*
D28*
X86025000Y-99700000D02*
X86025000Y-101075000D01*
X80000000Y-99900000D02*
X73750000Y-99900000D01*
X81300000Y-101200000D02*
X80000000Y-99900000D01*
X85900000Y-101200000D02*
X81300000Y-101200000D01*
X86025000Y-101075000D02*
X85900000Y-101200000D01*
X73750000Y-99900000D02*
X73100000Y-99250000D01*
X66900000Y-99250000D02*
X66900000Y-100300000D01*
X66900000Y-100300000D02*
X66800000Y-100400000D01*
X56134000Y-98378000D02*
X56678000Y-98378000D01*
X56678000Y-98378000D02*
X57550000Y-99250000D01*
X57550000Y-99250000D02*
X66900000Y-99250000D01*
X66900000Y-99250000D02*
X73100000Y-99250000D01*
X86025000Y-98298000D02*
X86025000Y-99700000D01*
D30*
X56134000Y-98378000D02*
X56134000Y-98534000D01*
D28*
X56134000Y-98378000D02*
X55800000Y-98378000D01*
X100925000Y-96275000D02*
X101366000Y-96266000D01*
X101366000Y-96266000D02*
X102890000Y-97790000D01*
X56134000Y-98378000D02*
X56214000Y-98378000D01*
X81788000Y-96092000D02*
X82216000Y-96520000D01*
X100925000Y-96275000D02*
X100156000Y-97456000D01*
X83820000Y-98298000D02*
X82216000Y-96694000D01*
X99314000Y-98298000D02*
X86025000Y-98298000D01*
X86025000Y-98298000D02*
X83820000Y-98298000D01*
X100156000Y-97456000D02*
X99314000Y-98298000D01*
X82216000Y-96694000D02*
X82216000Y-96520000D01*
X105236000Y-93726000D02*
X105236000Y-94916000D01*
X103886000Y-96266000D02*
X100925000Y-96275000D01*
X105236000Y-94916000D02*
X103886000Y-96266000D01*
X81042000Y-93218000D02*
X81042000Y-95346000D01*
X81042000Y-95346000D02*
X82216000Y-96520000D01*
X41250000Y-88400000D02*
X43400000Y-88400000D01*
X43400000Y-88400000D02*
X44000000Y-87800000D01*
X76708000Y-86026000D02*
X67484000Y-86026000D01*
X67484000Y-86026000D02*
X67310000Y-85852000D01*
X76708000Y-86026000D02*
X76280000Y-86026000D01*
X44000000Y-90500000D02*
X44000000Y-93840000D01*
X44000000Y-93840000D02*
X43540000Y-94300000D01*
X46548000Y-87392000D02*
X46548000Y-87952000D01*
X46548000Y-87952000D02*
X44000000Y-90500000D01*
X47630000Y-103080000D02*
X42860000Y-103080000D01*
X42860000Y-103080000D02*
X42590000Y-103350000D01*
X43540000Y-98700000D02*
X43540000Y-102400000D01*
X43540000Y-102400000D02*
X42590000Y-103350000D01*
X43540000Y-102400000D02*
X42590000Y-103350000D01*
D29*
G36*
X113670117Y-82905344D02*
X113399151Y-83310873D01*
X113304000Y-83789227D01*
X113304000Y-87406773D01*
X113399151Y-87885127D01*
X113670117Y-88290656D01*
X114011858Y-88519000D01*
X113670117Y-88747344D01*
X113399151Y-89152873D01*
X113304000Y-89631227D01*
X113304000Y-93248773D01*
X113399151Y-93727127D01*
X113670117Y-94132656D01*
X113821789Y-94234000D01*
X113670117Y-94335344D01*
X113399151Y-94740873D01*
X113304000Y-95219227D01*
X113304000Y-98836773D01*
X113399151Y-99315127D01*
X113670117Y-99720656D01*
X114075646Y-99991622D01*
X114554000Y-100086773D01*
X115032354Y-99991622D01*
X115205718Y-99875784D01*
X115141227Y-100200000D01*
X115236378Y-100678354D01*
X115507344Y-101083883D01*
X115912873Y-101354849D01*
X116391227Y-101450000D01*
X120008773Y-101450000D01*
X120487127Y-101354849D01*
X120892656Y-101083883D01*
X121000000Y-100923231D01*
X121107344Y-101083883D01*
X121512873Y-101354849D01*
X121991227Y-101450000D01*
X125608773Y-101450000D01*
X126087127Y-101354849D01*
X126492656Y-101083883D01*
X126500000Y-101072892D01*
X126507344Y-101083883D01*
X126912873Y-101354849D01*
X127391227Y-101450000D01*
X131008773Y-101450000D01*
X131487127Y-101354849D01*
X131892656Y-101083883D01*
X131960643Y-100982133D01*
X132332873Y-101230849D01*
X132811227Y-101326000D01*
X133012000Y-101326000D01*
X133012000Y-103142250D01*
X114017245Y-103003031D01*
X111350000Y-100335786D01*
X111350000Y-86900000D01*
X111286846Y-86582500D01*
X111273880Y-86517316D01*
X111057107Y-86192893D01*
X109521107Y-84656893D01*
X109196684Y-84440120D01*
X108814000Y-84364000D01*
X106479500Y-84364000D01*
X106458138Y-84330802D01*
X106207508Y-84159554D01*
X105910000Y-84099307D01*
X104910000Y-84099307D01*
X104632067Y-84151604D01*
X104376802Y-84315862D01*
X104292665Y-84439000D01*
X104241761Y-84439000D01*
X104172138Y-84330802D01*
X103921508Y-84159554D01*
X103624000Y-84099307D01*
X102624000Y-84099307D01*
X102346067Y-84151604D01*
X102090802Y-84315862D01*
X102006665Y-84439000D01*
X101009066Y-84439000D01*
X100846138Y-84185802D01*
X100595508Y-84014554D01*
X100298000Y-83954307D01*
X98798000Y-83954307D01*
X98520067Y-84006604D01*
X98295429Y-84151154D01*
X98095508Y-84014554D01*
X97798000Y-83954307D01*
X96298000Y-83954307D01*
X96020067Y-84006604D01*
X95764802Y-84170862D01*
X95593554Y-84421492D01*
X95533307Y-84719000D01*
X95533307Y-85969000D01*
X95585604Y-86246933D01*
X95692948Y-86413751D01*
X95664802Y-86431862D01*
X95493554Y-86682492D01*
X95433307Y-86980000D01*
X95433307Y-88280000D01*
X95485604Y-88557933D01*
X95649862Y-88813198D01*
X95900492Y-88984446D01*
X95918521Y-88988097D01*
X95889554Y-89030492D01*
X95829307Y-89328000D01*
X95829307Y-90128000D01*
X95881604Y-90405933D01*
X95922830Y-90470000D01*
X95793998Y-90470000D01*
X95793998Y-91228000D01*
X95836000Y-91228000D01*
X95836000Y-91238500D01*
X96025500Y-91428000D01*
X96819000Y-91428000D01*
X96819000Y-91228000D01*
X97269000Y-91228000D01*
X97269000Y-91428000D01*
X97425910Y-91428000D01*
X97384552Y-91635926D01*
X97373000Y-91694000D01*
X97373000Y-91828000D01*
X97269000Y-91828000D01*
X97269000Y-92028000D01*
X96819000Y-92028000D01*
X96819000Y-91828000D01*
X96025500Y-91828000D01*
X95836000Y-92017500D01*
X95836000Y-92028000D01*
X95793998Y-92028000D01*
X95793998Y-92707850D01*
X94861693Y-91775545D01*
X94861693Y-90924000D01*
X94809396Y-90646067D01*
X94664846Y-90421429D01*
X94801446Y-90221508D01*
X94861693Y-89924000D01*
X94861693Y-88424000D01*
X94809396Y-88146067D01*
X94645138Y-87890802D01*
X94394508Y-87719554D01*
X94097000Y-87659307D01*
X92847000Y-87659307D01*
X92569067Y-87711604D01*
X92402249Y-87818948D01*
X92384138Y-87790802D01*
X92325067Y-87750441D01*
X92384693Y-87456000D01*
X92384693Y-86656000D01*
X92332396Y-86378067D01*
X92291170Y-86314000D01*
X92420002Y-86314000D01*
X92420002Y-85556000D01*
X92378000Y-85556000D01*
X92378000Y-85545500D01*
X92188500Y-85356000D01*
X91395000Y-85356000D01*
X91395000Y-85556000D01*
X90945000Y-85556000D01*
X90945000Y-85356000D01*
X90720000Y-85356000D01*
X90720000Y-84956000D01*
X90945000Y-84956000D01*
X90945000Y-84187500D01*
X91395000Y-84187500D01*
X91395000Y-84956000D01*
X92188500Y-84956000D01*
X92378000Y-84766500D01*
X92378000Y-84605225D01*
X92262602Y-84326628D01*
X92049373Y-84113399D01*
X91770776Y-83998000D01*
X91584500Y-83998000D01*
X91395000Y-84187500D01*
X90945000Y-84187500D01*
X90755500Y-83998000D01*
X90720000Y-83998000D01*
X90720000Y-83905998D01*
X89962000Y-83905998D01*
X89962000Y-85031954D01*
X89917508Y-85001554D01*
X89620000Y-84941307D01*
X88720000Y-84941307D01*
X88442067Y-84993604D01*
X88186802Y-85157862D01*
X88015554Y-85408492D01*
X87955307Y-85706000D01*
X87955307Y-86506000D01*
X88007604Y-86783933D01*
X88171862Y-87039198D01*
X88245000Y-87089171D01*
X88245000Y-87560248D01*
X87972067Y-87611604D01*
X87716802Y-87775862D01*
X87545554Y-88026492D01*
X87520745Y-88149000D01*
X86968000Y-88149000D01*
X86758693Y-88190634D01*
X86758693Y-87214000D01*
X86706396Y-86936067D01*
X86594002Y-86761401D01*
X86594002Y-86485972D01*
X86636601Y-86443373D01*
X86752000Y-86164776D01*
X86752000Y-85828500D01*
X86562500Y-85639000D01*
X85669000Y-85639000D01*
X85669000Y-86014000D01*
X85019000Y-86014000D01*
X85019000Y-85639000D01*
X84125500Y-85639000D01*
X83936000Y-85828500D01*
X83936000Y-86164776D01*
X84051399Y-86443373D01*
X84093998Y-86485972D01*
X84093998Y-86763633D01*
X83989554Y-86916492D01*
X83929307Y-87214000D01*
X83929307Y-87637377D01*
X83831508Y-87570554D01*
X83534000Y-87510307D01*
X82034000Y-87510307D01*
X81756067Y-87562604D01*
X81531429Y-87707154D01*
X81331508Y-87570554D01*
X81034000Y-87510307D01*
X79534000Y-87510307D01*
X79256067Y-87562604D01*
X79000802Y-87726862D01*
X78831257Y-87975000D01*
X78122505Y-87975000D01*
X78070396Y-87698067D01*
X77906138Y-87442802D01*
X77809452Y-87376740D01*
X77891198Y-87324138D01*
X78062446Y-87073508D01*
X78122693Y-86776000D01*
X78122693Y-85276000D01*
X78070396Y-84998067D01*
X77906138Y-84742802D01*
X77655508Y-84571554D01*
X77358000Y-84511307D01*
X76058000Y-84511307D01*
X75780067Y-84563604D01*
X75524802Y-84727862D01*
X75353554Y-84978492D01*
X75328745Y-85101000D01*
X69163696Y-85101000D01*
X69006506Y-84720571D01*
X68649783Y-84363224D01*
X83936000Y-84363224D01*
X83936000Y-84699500D01*
X84125500Y-84889000D01*
X85019000Y-84889000D01*
X85019000Y-83945500D01*
X85669000Y-83945500D01*
X85669000Y-84889000D01*
X86562500Y-84889000D01*
X86752000Y-84699500D01*
X86752000Y-84363224D01*
X86636601Y-84084627D01*
X86423372Y-83871398D01*
X86144775Y-83756000D01*
X85858500Y-83756000D01*
X85669000Y-83945500D01*
X85019000Y-83945500D01*
X84829500Y-83756000D01*
X84543225Y-83756000D01*
X84264628Y-83871398D01*
X84051399Y-84084627D01*
X83936000Y-84363224D01*
X68649783Y-84363224D01*
X68444388Y-84157471D01*
X67709570Y-83852348D01*
X66913921Y-83851654D01*
X66178571Y-84155494D01*
X65615471Y-84717612D01*
X65310348Y-85452430D01*
X65309654Y-86248079D01*
X65613494Y-86983429D01*
X66175612Y-87546529D01*
X66910430Y-87851652D01*
X67706079Y-87852346D01*
X68441429Y-87548506D01*
X69004529Y-86986388D01*
X69019223Y-86951000D01*
X70862552Y-86951000D01*
X70021891Y-87791661D01*
X70354847Y-88124616D01*
X70308356Y-88504604D01*
X70405368Y-88992316D01*
X70670937Y-89147180D01*
X71466117Y-88352000D01*
X71024175Y-87910058D01*
X71908058Y-87026175D01*
X72350000Y-87468117D01*
X72791942Y-87026175D01*
X73675825Y-87910058D01*
X73233883Y-88352000D01*
X73675825Y-88793942D01*
X72791942Y-89677825D01*
X72350000Y-89235883D01*
X71554820Y-90031063D01*
X71709684Y-90296632D01*
X72169021Y-90352831D01*
X72006852Y-90515000D01*
X70024000Y-90515000D01*
X69670017Y-90585411D01*
X69369926Y-90785926D01*
X69337033Y-90818819D01*
X69351644Y-90699396D01*
X69254632Y-90211684D01*
X68989063Y-90056820D01*
X68193883Y-90852000D01*
X68635825Y-91293942D01*
X68052460Y-91877307D01*
X67451424Y-91877307D01*
X67310000Y-91735883D01*
X67066125Y-91979758D01*
X66888802Y-92093862D01*
X66752422Y-92293461D01*
X66578883Y-92467000D01*
X66578000Y-92467000D01*
X66224017Y-92537411D01*
X65923926Y-92737926D01*
X65626545Y-93035307D01*
X65320000Y-93035307D01*
X65042067Y-93087604D01*
X64978000Y-93128830D01*
X64978000Y-92999998D01*
X64220000Y-92999998D01*
X64220000Y-93042000D01*
X64209500Y-93042000D01*
X64020000Y-93231500D01*
X64020000Y-94025000D01*
X64220000Y-94025000D01*
X64220000Y-94475000D01*
X64020000Y-94475000D01*
X64020000Y-94700000D01*
X63620000Y-94700000D01*
X63620000Y-94475000D01*
X62851500Y-94475000D01*
X62662000Y-94664500D01*
X62662000Y-94700000D01*
X62569998Y-94700000D01*
X62569998Y-95321000D01*
X62062764Y-95321000D01*
X62043396Y-95218067D01*
X61898846Y-94993429D01*
X62035446Y-94793508D01*
X62095693Y-94496000D01*
X62095693Y-93664455D01*
X62110924Y-93649224D01*
X62662000Y-93649224D01*
X62662000Y-93835500D01*
X62851500Y-94025000D01*
X63620000Y-94025000D01*
X63620000Y-93231500D01*
X63430500Y-93042000D01*
X63269225Y-93042000D01*
X62990628Y-93157398D01*
X62777399Y-93370627D01*
X62662000Y-93649224D01*
X62110924Y-93649224D01*
X62868074Y-92892074D01*
X63068589Y-92591983D01*
X63139000Y-92238000D01*
X63139000Y-92105587D01*
X63197198Y-92068138D01*
X63368446Y-91817508D01*
X63428693Y-91520000D01*
X63428693Y-91213455D01*
X63637544Y-91004604D01*
X65268356Y-91004604D01*
X65365368Y-91492316D01*
X65630937Y-91647180D01*
X66426117Y-90852000D01*
X65630937Y-90056820D01*
X65365368Y-90211684D01*
X65268356Y-91004604D01*
X63637544Y-91004604D01*
X64154074Y-90488074D01*
X64354589Y-90187982D01*
X64425001Y-89834000D01*
X64425000Y-89833995D01*
X64425000Y-89172937D01*
X66514820Y-89172937D01*
X67310000Y-89968117D01*
X68105180Y-89172937D01*
X67950316Y-88907368D01*
X67157396Y-88810356D01*
X66669684Y-88907368D01*
X66514820Y-89172937D01*
X64425000Y-89172937D01*
X64425000Y-87884000D01*
X64408490Y-87800999D01*
X64354589Y-87530017D01*
X64154074Y-87229926D01*
X63282148Y-86358000D01*
X64040002Y-86358000D01*
X64040002Y-85770084D01*
X64048000Y-85750775D01*
X64048000Y-85539500D01*
X63858500Y-85350000D01*
X63040000Y-85350000D01*
X63040000Y-85600000D01*
X62540000Y-85600000D01*
X62540000Y-85350000D01*
X62290000Y-85350000D01*
X62290000Y-84850000D01*
X62540000Y-84850000D01*
X62540000Y-84031500D01*
X63040000Y-84031500D01*
X63040000Y-84850000D01*
X63858500Y-84850000D01*
X64048000Y-84660500D01*
X64048000Y-84449225D01*
X63932602Y-84170628D01*
X63719373Y-83957399D01*
X63440776Y-83842000D01*
X63229500Y-83842000D01*
X63040000Y-84031500D01*
X62540000Y-84031500D01*
X62350500Y-83842000D01*
X62139224Y-83842000D01*
X62119915Y-83849998D01*
X61532000Y-83849998D01*
X61532000Y-84479398D01*
X61502396Y-84322067D01*
X61338138Y-84066802D01*
X61087508Y-83895554D01*
X60790000Y-83835307D01*
X59790000Y-83835307D01*
X59580840Y-83874663D01*
X59567508Y-83865554D01*
X59270000Y-83805307D01*
X58270000Y-83805307D01*
X57992067Y-83857604D01*
X57736802Y-84021862D01*
X57565554Y-84272492D01*
X57528000Y-84457939D01*
X57528000Y-83819998D01*
X56940085Y-83819998D01*
X56920776Y-83812000D01*
X56709500Y-83812000D01*
X56520000Y-84001500D01*
X56520000Y-84820000D01*
X56770000Y-84820000D01*
X56770000Y-85320000D01*
X56520000Y-85320000D01*
X56520000Y-85570000D01*
X56020000Y-85570000D01*
X56020000Y-85320000D01*
X55201500Y-85320000D01*
X55012000Y-85509500D01*
X55012000Y-85720775D01*
X55019998Y-85740084D01*
X55019998Y-85927806D01*
X54971926Y-85959926D01*
X53138545Y-87793307D01*
X51728000Y-87793307D01*
X51450067Y-87845604D01*
X51194802Y-88009862D01*
X51023554Y-88260492D01*
X50963307Y-88558000D01*
X50963307Y-90258000D01*
X51015604Y-90535933D01*
X51179862Y-90791198D01*
X51353158Y-90909606D01*
X51068447Y-91335707D01*
X51062620Y-91365000D01*
X50766764Y-91365000D01*
X50747396Y-91262067D01*
X50583138Y-91006802D01*
X50332508Y-90835554D01*
X50035000Y-90775307D01*
X49422841Y-90775307D01*
X49934074Y-90264074D01*
X50134589Y-89963982D01*
X50205001Y-89610000D01*
X50205000Y-89609995D01*
X50205000Y-88224005D01*
X50205001Y-88224000D01*
X50134589Y-87870018D01*
X49934074Y-87569926D01*
X49612693Y-87248545D01*
X49612693Y-86942000D01*
X49560396Y-86664067D01*
X49396138Y-86408802D01*
X49145508Y-86237554D01*
X48848000Y-86177307D01*
X48048000Y-86177307D01*
X47770067Y-86229604D01*
X47514802Y-86393862D01*
X47500239Y-86415175D01*
X47496138Y-86408802D01*
X47245508Y-86237554D01*
X46948000Y-86177307D01*
X46148000Y-86177307D01*
X45870067Y-86229604D01*
X45614802Y-86393862D01*
X45443554Y-86644492D01*
X45389042Y-86913679D01*
X45362396Y-86772067D01*
X45198138Y-86516802D01*
X44947508Y-86345554D01*
X44650000Y-86285307D01*
X43350000Y-86285307D01*
X43072067Y-86337604D01*
X42816802Y-86501862D01*
X42645554Y-86752492D01*
X42598850Y-86983125D01*
X42397508Y-86845554D01*
X42100000Y-86785307D01*
X40400000Y-86785307D01*
X40122067Y-86837604D01*
X39866802Y-87001862D01*
X39695554Y-87252492D01*
X39635307Y-87550000D01*
X39635307Y-89250000D01*
X39687604Y-89527933D01*
X39851862Y-89783198D01*
X39999998Y-89884415D01*
X39999998Y-89955466D01*
X39784759Y-90277631D01*
X39896664Y-90515000D01*
X40825000Y-90515000D01*
X40825000Y-90090000D01*
X41675000Y-90090000D01*
X41675000Y-90515000D01*
X42100000Y-90515000D01*
X42100000Y-91365000D01*
X41675000Y-91365000D01*
X41675000Y-92301350D01*
X41912374Y-92405272D01*
X42213334Y-92190002D01*
X42302935Y-92190002D01*
X42206802Y-92251862D01*
X42035554Y-92502492D01*
X41975307Y-92800000D01*
X41975307Y-95800000D01*
X42027604Y-96077933D01*
X42191862Y-96333198D01*
X42439292Y-96502259D01*
X42206802Y-96651862D01*
X42035554Y-96902492D01*
X41975307Y-97200000D01*
X41975307Y-100200000D01*
X42027604Y-100477933D01*
X42191862Y-100733198D01*
X42442492Y-100904446D01*
X42615000Y-100939380D01*
X42615000Y-101085307D01*
X41090000Y-101085307D01*
X40812067Y-101137604D01*
X40556802Y-101301862D01*
X40385554Y-101552492D01*
X40325307Y-101850000D01*
X40325307Y-104850000D01*
X40377604Y-105127933D01*
X40541862Y-105383198D01*
X40792492Y-105554446D01*
X41090000Y-105614693D01*
X44090000Y-105614693D01*
X44367933Y-105562396D01*
X44623198Y-105398138D01*
X44794446Y-105147508D01*
X44854693Y-104850000D01*
X44854693Y-104005000D01*
X46248236Y-104005000D01*
X46267604Y-104107933D01*
X46379998Y-104282599D01*
X46379998Y-104558028D01*
X46337399Y-104600627D01*
X46222000Y-104879224D01*
X46222000Y-105215500D01*
X46411500Y-105405000D01*
X47305000Y-105405000D01*
X47305000Y-105030000D01*
X47955000Y-105030000D01*
X47955000Y-105405000D01*
X48280000Y-105405000D01*
X48280000Y-106155000D01*
X47955000Y-106155000D01*
X47955000Y-107098500D01*
X48144500Y-107288000D01*
X48377786Y-107288000D01*
X46007893Y-109657893D01*
X45791120Y-109982316D01*
X45791120Y-109982317D01*
X45715000Y-110365000D01*
X45715000Y-115332000D01*
X44559935Y-115332000D01*
X44458138Y-115173802D01*
X44207508Y-115002554D01*
X43910000Y-114942307D01*
X42410000Y-114942307D01*
X42132067Y-114994604D01*
X41996252Y-115081998D01*
X41856972Y-115081998D01*
X41839373Y-115064399D01*
X41560776Y-114949000D01*
X41224500Y-114949000D01*
X41035000Y-115138500D01*
X41035000Y-116019500D01*
X41410000Y-116019500D01*
X41410000Y-116644500D01*
X41035000Y-116644500D01*
X41035000Y-117525500D01*
X41224500Y-117715000D01*
X41560776Y-117715000D01*
X41839373Y-117599601D01*
X41856972Y-117582002D01*
X41996221Y-117582002D01*
X42095627Y-117649923D01*
X41632142Y-117841431D01*
X40998655Y-118473813D01*
X40655392Y-119300484D01*
X40654610Y-120195589D01*
X40996431Y-121022858D01*
X41628813Y-121656345D01*
X42455484Y-121999608D01*
X43350589Y-122000390D01*
X44177858Y-121658569D01*
X44810548Y-121026982D01*
X45438813Y-121656345D01*
X46265484Y-121999608D01*
X47160589Y-122000390D01*
X47987858Y-121658569D01*
X48620548Y-121026982D01*
X49248813Y-121656345D01*
X50075484Y-121999608D01*
X50970589Y-122000390D01*
X51797858Y-121658569D01*
X52431345Y-121026187D01*
X52546028Y-120750000D01*
X53295786Y-120750000D01*
X54392000Y-121846214D01*
X54392000Y-122101348D01*
X54364067Y-122106604D01*
X54108802Y-122270862D01*
X53937554Y-122521492D01*
X53877307Y-122819000D01*
X53877307Y-124069000D01*
X53929604Y-124346933D01*
X54093862Y-124602198D01*
X54344492Y-124773446D01*
X54642000Y-124833693D01*
X56142000Y-124833693D01*
X56419933Y-124781396D01*
X56555748Y-124694002D01*
X56695028Y-124694002D01*
X56712627Y-124711601D01*
X56991224Y-124827000D01*
X57327500Y-124827000D01*
X57517000Y-124637500D01*
X57517000Y-123756500D01*
X58267000Y-123756500D01*
X58267000Y-124637500D01*
X58456500Y-124827000D01*
X58792776Y-124827000D01*
X58999407Y-124741410D01*
X79962803Y-124741410D01*
X80234190Y-125034058D01*
X81328825Y-125109045D01*
X81705810Y-125034058D01*
X81977197Y-124741410D01*
X80970000Y-123734214D01*
X79962803Y-124741410D01*
X58999407Y-124741410D01*
X59071373Y-124711601D01*
X59284602Y-124498372D01*
X59400000Y-124219775D01*
X59400000Y-123946000D01*
X59210500Y-123756500D01*
X58267000Y-123756500D01*
X57517000Y-123756500D01*
X57142000Y-123756500D01*
X57142000Y-123131500D01*
X57517000Y-123131500D01*
X57517000Y-122250500D01*
X58267000Y-122250500D01*
X58267000Y-123131500D01*
X59210500Y-123131500D01*
X59400000Y-122942000D01*
X59400000Y-122678825D01*
X78180955Y-122678825D01*
X78255942Y-123055810D01*
X78548590Y-123327197D01*
X79555786Y-122320000D01*
X82384214Y-122320000D01*
X83391410Y-123327197D01*
X83684058Y-123055810D01*
X83759045Y-121961175D01*
X83684058Y-121584190D01*
X83391410Y-121312803D01*
X82384214Y-122320000D01*
X79555786Y-122320000D01*
X78548590Y-121312803D01*
X78255942Y-121584190D01*
X78180955Y-122678825D01*
X59400000Y-122678825D01*
X59400000Y-122668225D01*
X59284602Y-122389628D01*
X59071373Y-122176399D01*
X58792776Y-122061000D01*
X58456500Y-122061000D01*
X58267000Y-122250500D01*
X57517000Y-122250500D01*
X57327500Y-122061000D01*
X56991224Y-122061000D01*
X56712627Y-122176399D01*
X56695028Y-122193998D01*
X56555778Y-122193998D01*
X56439508Y-122114554D01*
X56392000Y-122104933D01*
X56392000Y-121432000D01*
X56315880Y-121049317D01*
X56099107Y-120724893D01*
X55272804Y-119898590D01*
X79962803Y-119898590D01*
X80970000Y-120905786D01*
X81977197Y-119898590D01*
X81705810Y-119605942D01*
X80611175Y-119530955D01*
X80234190Y-119605942D01*
X79962803Y-119898590D01*
X55272804Y-119898590D01*
X54417107Y-119042893D01*
X54092684Y-118826120D01*
X53710000Y-118750000D01*
X52546312Y-118750000D01*
X52433569Y-118477142D01*
X52070000Y-118112938D01*
X52070000Y-115364693D01*
X52570000Y-115364693D01*
X52847933Y-115312396D01*
X53103198Y-115148138D01*
X53274446Y-114897508D01*
X53334693Y-114600000D01*
X53334693Y-113545589D01*
X69309610Y-113545589D01*
X69651431Y-114372858D01*
X70283813Y-115006345D01*
X71110484Y-115349608D01*
X72005589Y-115350390D01*
X72832858Y-115008569D01*
X73466345Y-114376187D01*
X73581028Y-114100000D01*
X78985307Y-114100000D01*
X78985307Y-114525000D01*
X79037604Y-114802933D01*
X79201862Y-115058198D01*
X79452492Y-115229446D01*
X79750000Y-115289693D01*
X82750000Y-115289693D01*
X83027933Y-115237396D01*
X83283198Y-115073138D01*
X83365994Y-114951961D01*
X100873699Y-114951961D01*
X101067361Y-115226784D01*
X101961149Y-115316592D01*
X102412639Y-115226784D01*
X102606301Y-114951961D01*
X101740000Y-114085660D01*
X100873699Y-114951961D01*
X83365994Y-114951961D01*
X83454446Y-114822508D01*
X83514693Y-114525000D01*
X83514693Y-114033426D01*
X83562684Y-114023880D01*
X83887107Y-113807107D01*
X84103880Y-113482684D01*
X84150929Y-113246149D01*
X99448408Y-113246149D01*
X99538216Y-113697639D01*
X99813039Y-113891301D01*
X100679340Y-113025000D01*
X102800660Y-113025000D01*
X103666961Y-113891301D01*
X103941784Y-113697639D01*
X104031592Y-112803851D01*
X103941784Y-112352361D01*
X103666961Y-112158699D01*
X102800660Y-113025000D01*
X100679340Y-113025000D01*
X99813039Y-112158699D01*
X99538216Y-112352361D01*
X99448408Y-113246149D01*
X84150929Y-113246149D01*
X84180000Y-113100000D01*
X84103880Y-112717316D01*
X83887107Y-112392893D01*
X83812107Y-112317893D01*
X83514693Y-112119167D01*
X83514693Y-111525000D01*
X83462396Y-111247067D01*
X83366500Y-111098039D01*
X100873699Y-111098039D01*
X101740000Y-111964340D01*
X102606301Y-111098039D01*
X102412639Y-110823216D01*
X101518851Y-110733408D01*
X101067361Y-110823216D01*
X100873699Y-111098039D01*
X83366500Y-111098039D01*
X83298138Y-110991802D01*
X83047508Y-110820554D01*
X82750000Y-110760307D01*
X79750000Y-110760307D01*
X79472067Y-110812604D01*
X79216802Y-110976862D01*
X79045554Y-111227492D01*
X78985307Y-111525000D01*
X78985307Y-112100000D01*
X73581312Y-112100000D01*
X73468569Y-111827142D01*
X72836187Y-111193655D01*
X72009516Y-110850392D01*
X71114411Y-110849610D01*
X70287142Y-111191431D01*
X69653655Y-111823813D01*
X69310392Y-112650484D01*
X69309610Y-113545589D01*
X53334693Y-113545589D01*
X53334693Y-111600000D01*
X53282396Y-111322067D01*
X53118138Y-111066802D01*
X52867508Y-110895554D01*
X52570000Y-110835307D01*
X49570000Y-110835307D01*
X49292067Y-110887604D01*
X49036802Y-111051862D01*
X48865554Y-111302492D01*
X48805307Y-111600000D01*
X48805307Y-114600000D01*
X48857604Y-114877933D01*
X49021862Y-115133198D01*
X49272492Y-115304446D01*
X49570000Y-115364693D01*
X50070000Y-115364693D01*
X50070000Y-117503499D01*
X49252142Y-117841431D01*
X48619452Y-118473018D01*
X47991187Y-117843655D01*
X47715000Y-117728972D01*
X47715000Y-110779214D01*
X50677107Y-107817107D01*
X50758028Y-107696000D01*
X50893880Y-107492683D01*
X50970000Y-107110000D01*
X50970000Y-102460000D01*
X50990000Y-102460000D01*
X51372684Y-102383880D01*
X51697107Y-102167107D01*
X52364214Y-101500000D01*
X52930000Y-101500000D01*
X53312684Y-101423880D01*
X53637107Y-101207107D01*
X55082692Y-99761522D01*
X55186492Y-99832446D01*
X55484000Y-99892693D01*
X56784000Y-99892693D01*
X56868622Y-99876770D01*
X56895926Y-99904074D01*
X57196017Y-100104589D01*
X57550000Y-100175000D01*
X65285307Y-100175000D01*
X65285307Y-101025000D01*
X65337604Y-101302933D01*
X65501862Y-101558198D01*
X65752492Y-101729446D01*
X66050000Y-101789693D01*
X67550000Y-101789693D01*
X67827933Y-101737396D01*
X67963748Y-101650002D01*
X68103028Y-101650002D01*
X68120627Y-101667601D01*
X68399224Y-101783000D01*
X68735500Y-101783000D01*
X68925000Y-101593500D01*
X68925000Y-100712500D01*
X69675000Y-100712500D01*
X69675000Y-101593500D01*
X69864500Y-101783000D01*
X70200776Y-101783000D01*
X70479373Y-101667601D01*
X70692602Y-101454372D01*
X70808000Y-101175775D01*
X70808000Y-100902000D01*
X70618500Y-100712500D01*
X69675000Y-100712500D01*
X68925000Y-100712500D01*
X68550000Y-100712500D01*
X68550000Y-100175000D01*
X71718236Y-100175000D01*
X71737604Y-100277933D01*
X71901862Y-100533198D01*
X72152492Y-100704446D01*
X72450000Y-100764693D01*
X73446815Y-100764693D01*
X73750000Y-100825000D01*
X79616852Y-100825000D01*
X80645926Y-101854074D01*
X80946018Y-102054589D01*
X81300000Y-102125001D01*
X81300005Y-102125000D01*
X85900000Y-102125000D01*
X86253983Y-102054589D01*
X86554074Y-101854074D01*
X86679074Y-101729074D01*
X86879589Y-101428982D01*
X86950001Y-101075000D01*
X86950000Y-101074995D01*
X86950000Y-101056764D01*
X87052933Y-101037396D01*
X87308198Y-100873138D01*
X87479446Y-100622508D01*
X87539693Y-100325000D01*
X87539693Y-99223000D01*
X99314000Y-99223000D01*
X99667983Y-99152589D01*
X99968074Y-98952074D01*
X100810074Y-98110074D01*
X100863709Y-98029804D01*
X100931155Y-97960737D01*
X101107643Y-97689693D01*
X101375307Y-97689693D01*
X101375307Y-98415000D01*
X101427604Y-98692933D01*
X101591862Y-98948198D01*
X101842492Y-99119446D01*
X102140000Y-99179693D01*
X103640000Y-99179693D01*
X103917933Y-99127396D01*
X104053748Y-99040002D01*
X104193028Y-99040002D01*
X104210627Y-99057601D01*
X104489224Y-99173000D01*
X104825500Y-99173000D01*
X105015000Y-98983500D01*
X105015000Y-98102500D01*
X105765000Y-98102500D01*
X105765000Y-98983500D01*
X105954500Y-99173000D01*
X106290776Y-99173000D01*
X106569373Y-99057601D01*
X106782602Y-98844372D01*
X106898000Y-98565775D01*
X106898000Y-98292000D01*
X106708500Y-98102500D01*
X105765000Y-98102500D01*
X105015000Y-98102500D01*
X104640000Y-98102500D01*
X104640000Y-97477500D01*
X105015000Y-97477500D01*
X105015000Y-96596500D01*
X105765000Y-96596500D01*
X105765000Y-97477500D01*
X106708500Y-97477500D01*
X106898000Y-97288000D01*
X106898000Y-97014225D01*
X106782602Y-96735628D01*
X106569373Y-96522399D01*
X106290776Y-96407000D01*
X105954500Y-96407000D01*
X105765000Y-96596500D01*
X105015000Y-96596500D01*
X104939324Y-96520824D01*
X105890074Y-95570074D01*
X106090589Y-95269983D01*
X106121373Y-95115221D01*
X106263933Y-95088396D01*
X106519198Y-94924138D01*
X106690446Y-94673508D01*
X106750693Y-94376000D01*
X106750693Y-93076000D01*
X106698396Y-92798067D01*
X106626283Y-92686000D01*
X107644002Y-92686000D01*
X107644002Y-92644899D01*
X107823373Y-92570601D01*
X108036602Y-92357372D01*
X108152000Y-92078775D01*
X108152000Y-91492500D01*
X107962500Y-91303000D01*
X106894000Y-91303000D01*
X106894000Y-91928000D01*
X105894000Y-91928000D01*
X105894000Y-91303000D01*
X104825500Y-91303000D01*
X104636000Y-91492500D01*
X104636000Y-92078775D01*
X104732317Y-92311307D01*
X104486000Y-92311307D01*
X104208067Y-92363604D01*
X103952802Y-92527862D01*
X103886740Y-92624548D01*
X103834138Y-92542802D01*
X103829026Y-92539309D01*
X103927198Y-92476138D01*
X104098446Y-92225508D01*
X104158693Y-91928000D01*
X104158693Y-89428000D01*
X104106396Y-89150067D01*
X104088335Y-89122000D01*
X104700296Y-89122000D01*
X104636000Y-89277225D01*
X104636000Y-89863500D01*
X104825500Y-90053000D01*
X105894000Y-90053000D01*
X105894000Y-89428000D01*
X106894000Y-89428000D01*
X106894000Y-90053000D01*
X107962500Y-90053000D01*
X108152000Y-89863500D01*
X108152000Y-89277225D01*
X108036602Y-88998628D01*
X107823373Y-88785399D01*
X107644002Y-88711101D01*
X107644002Y-88670000D01*
X106660002Y-88670000D01*
X106660002Y-88534085D01*
X106668000Y-88514776D01*
X106668000Y-88303500D01*
X106478500Y-88114000D01*
X105660000Y-88114000D01*
X105660000Y-88364000D01*
X105160000Y-88364000D01*
X105160000Y-88114000D01*
X104341500Y-88114000D01*
X104267000Y-88188500D01*
X104192500Y-88114000D01*
X103374000Y-88114000D01*
X103374000Y-88364000D01*
X102874000Y-88364000D01*
X102874000Y-88114000D01*
X102055500Y-88114000D01*
X101866000Y-88303500D01*
X101866000Y-88514776D01*
X101873998Y-88534085D01*
X101873998Y-88663307D01*
X101687454Y-88663307D01*
X101162693Y-88138545D01*
X101162693Y-86980000D01*
X101110396Y-86702067D01*
X100946138Y-86446802D01*
X100900543Y-86415648D01*
X100987078Y-86289000D01*
X102006239Y-86289000D01*
X102075862Y-86397198D01*
X102326492Y-86568446D01*
X102511939Y-86606000D01*
X101873998Y-86606000D01*
X101873998Y-87193915D01*
X101866000Y-87213224D01*
X101866000Y-87424500D01*
X102055500Y-87614000D01*
X102874000Y-87614000D01*
X102874000Y-87364000D01*
X103374000Y-87364000D01*
X103374000Y-87614000D01*
X104192500Y-87614000D01*
X104267000Y-87539500D01*
X104341500Y-87614000D01*
X105160000Y-87614000D01*
X105160000Y-87364000D01*
X105660000Y-87364000D01*
X105660000Y-87614000D01*
X106478500Y-87614000D01*
X106668000Y-87424500D01*
X106668000Y-87213224D01*
X106660002Y-87193915D01*
X106660002Y-86606000D01*
X106030602Y-86606000D01*
X106187933Y-86576396D01*
X106443198Y-86412138D01*
X106476089Y-86364000D01*
X108399786Y-86364000D01*
X109350000Y-87314214D01*
X109350000Y-100750000D01*
X109426120Y-101132684D01*
X109642893Y-101457107D01*
X112892893Y-104707107D01*
X113052130Y-104813506D01*
X113210556Y-104921050D01*
X113214210Y-104921805D01*
X113217316Y-104923880D01*
X113405187Y-104961250D01*
X113592671Y-104999973D01*
X133012000Y-105142304D01*
X133012000Y-106446000D01*
X132811227Y-106446000D01*
X132332873Y-106541151D01*
X131927344Y-106812117D01*
X131922558Y-106819279D01*
X131587127Y-106595151D01*
X131108773Y-106500000D01*
X127491227Y-106500000D01*
X127012873Y-106595151D01*
X126643305Y-106842089D01*
X126642656Y-106841117D01*
X126237127Y-106570151D01*
X125758773Y-106475000D01*
X122141227Y-106475000D01*
X121662873Y-106570151D01*
X121257344Y-106841117D01*
X121083352Y-107101514D01*
X120892656Y-106816117D01*
X120487127Y-106545151D01*
X120008773Y-106450000D01*
X116391227Y-106450000D01*
X115912873Y-106545151D01*
X115507344Y-106816117D01*
X115236378Y-107221646D01*
X115141227Y-107700000D01*
X115236378Y-108178354D01*
X115507344Y-108583883D01*
X115912873Y-108854849D01*
X116391227Y-108950000D01*
X120008773Y-108950000D01*
X120487127Y-108854849D01*
X120892656Y-108583883D01*
X121066648Y-108323486D01*
X121257344Y-108608883D01*
X121662873Y-108879849D01*
X122141227Y-108975000D01*
X125758773Y-108975000D01*
X126237127Y-108879849D01*
X126606695Y-108632911D01*
X126607344Y-108633883D01*
X127012873Y-108904849D01*
X127491227Y-109000000D01*
X131108773Y-109000000D01*
X131587127Y-108904849D01*
X131992656Y-108633883D01*
X131997442Y-108626721D01*
X132332873Y-108850849D01*
X132811227Y-108946000D01*
X133012000Y-108946000D01*
X133012000Y-126175000D01*
X115581980Y-126175000D01*
X115708849Y-125985127D01*
X115804000Y-125506773D01*
X115804000Y-121889227D01*
X115708849Y-121410873D01*
X115437883Y-121005344D01*
X115286211Y-120904000D01*
X115437883Y-120802656D01*
X115708849Y-120397127D01*
X115804000Y-119918773D01*
X115804000Y-116301227D01*
X115708849Y-115822873D01*
X115437883Y-115417344D01*
X115096142Y-115189000D01*
X115437883Y-114960656D01*
X115708849Y-114555127D01*
X115804000Y-114076773D01*
X115804000Y-110459227D01*
X115708849Y-109980873D01*
X115437883Y-109575344D01*
X115032354Y-109304378D01*
X114554000Y-109209227D01*
X114075646Y-109304378D01*
X113670117Y-109575344D01*
X113399151Y-109980873D01*
X113304000Y-110459227D01*
X113304000Y-114076773D01*
X113399151Y-114555127D01*
X113670117Y-114960656D01*
X114011858Y-115189000D01*
X113670117Y-115417344D01*
X113399151Y-115822873D01*
X113304000Y-116301227D01*
X113304000Y-119918773D01*
X113399151Y-120397127D01*
X113670117Y-120802656D01*
X113821789Y-120904000D01*
X113670117Y-121005344D01*
X113399151Y-121410873D01*
X113304000Y-121889227D01*
X113304000Y-125506773D01*
X113399151Y-125985127D01*
X113526020Y-126175000D01*
X52107968Y-126175000D01*
X52431345Y-125852187D01*
X52774608Y-125025516D01*
X52775390Y-124130411D01*
X52433569Y-123303142D01*
X51801187Y-122669655D01*
X50974516Y-122326392D01*
X50079411Y-122325610D01*
X49252142Y-122667431D01*
X48619452Y-123299018D01*
X47991187Y-122669655D01*
X47164516Y-122326392D01*
X46269411Y-122325610D01*
X45442142Y-122667431D01*
X44809452Y-123299018D01*
X44181187Y-122669655D01*
X43354516Y-122326392D01*
X42459411Y-122325610D01*
X41632142Y-122667431D01*
X40998655Y-123299813D01*
X40655392Y-124126484D01*
X40654610Y-125021589D01*
X40996431Y-125848858D01*
X41322004Y-126175000D01*
X38825000Y-126175000D01*
X38825000Y-116834000D01*
X39152000Y-116834000D01*
X39152000Y-117107775D01*
X39267398Y-117386372D01*
X39480627Y-117599601D01*
X39759224Y-117715000D01*
X40095500Y-117715000D01*
X40285000Y-117525500D01*
X40285000Y-116644500D01*
X39341500Y-116644500D01*
X39152000Y-116834000D01*
X38825000Y-116834000D01*
X38825000Y-115556225D01*
X39152000Y-115556225D01*
X39152000Y-115830000D01*
X39341500Y-116019500D01*
X40285000Y-116019500D01*
X40285000Y-115138500D01*
X40095500Y-114949000D01*
X39759224Y-114949000D01*
X39480627Y-115064399D01*
X39267398Y-115277628D01*
X39152000Y-115556225D01*
X38825000Y-115556225D01*
X38825000Y-110356961D01*
X41723699Y-110356961D01*
X41917361Y-110631784D01*
X42811149Y-110721592D01*
X43262639Y-110631784D01*
X43456301Y-110356961D01*
X42590000Y-109490660D01*
X41723699Y-110356961D01*
X38825000Y-110356961D01*
X38825000Y-108651149D01*
X40298408Y-108651149D01*
X40388216Y-109102639D01*
X40663039Y-109296301D01*
X41529340Y-108430000D01*
X43650660Y-108430000D01*
X44516961Y-109296301D01*
X44791784Y-109102639D01*
X44881592Y-108208851D01*
X44791784Y-107757361D01*
X44516961Y-107563699D01*
X43650660Y-108430000D01*
X41529340Y-108430000D01*
X40663039Y-107563699D01*
X40388216Y-107757361D01*
X40298408Y-108651149D01*
X38825000Y-108651149D01*
X38825000Y-106503039D01*
X41723699Y-106503039D01*
X42590000Y-107369340D01*
X43456301Y-106503039D01*
X43344582Y-106344500D01*
X46222000Y-106344500D01*
X46222000Y-106680776D01*
X46337399Y-106959373D01*
X46550628Y-107172602D01*
X46829225Y-107288000D01*
X47115500Y-107288000D01*
X47305000Y-107098500D01*
X47305000Y-106155000D01*
X46411500Y-106155000D01*
X46222000Y-106344500D01*
X43344582Y-106344500D01*
X43262639Y-106228216D01*
X42368851Y-106138408D01*
X41917361Y-106228216D01*
X41723699Y-106503039D01*
X38825000Y-106503039D01*
X38825000Y-91602369D01*
X39784759Y-91602369D01*
X40077311Y-92040255D01*
X40587626Y-92405272D01*
X40825000Y-92301350D01*
X40825000Y-91365000D01*
X39896664Y-91365000D01*
X39784759Y-91602369D01*
X38825000Y-91602369D01*
X38825000Y-84419225D01*
X55012000Y-84419225D01*
X55012000Y-84630500D01*
X55201500Y-84820000D01*
X56020000Y-84820000D01*
X56020000Y-84001500D01*
X55830500Y-83812000D01*
X55619224Y-83812000D01*
X55340627Y-83927399D01*
X55127398Y-84140628D01*
X55012000Y-84419225D01*
X38825000Y-84419225D01*
X38825000Y-82825000D01*
X113790360Y-82825000D01*
X113670117Y-82905344D01*
X113670117Y-82905344D01*
G37*
X113670117Y-82905344D02*
X113399151Y-83310873D01*
X113304000Y-83789227D01*
X113304000Y-87406773D01*
X113399151Y-87885127D01*
X113670117Y-88290656D01*
X114011858Y-88519000D01*
X113670117Y-88747344D01*
X113399151Y-89152873D01*
X113304000Y-89631227D01*
X113304000Y-93248773D01*
X113399151Y-93727127D01*
X113670117Y-94132656D01*
X113821789Y-94234000D01*
X113670117Y-94335344D01*
X113399151Y-94740873D01*
X113304000Y-95219227D01*
X113304000Y-98836773D01*
X113399151Y-99315127D01*
X113670117Y-99720656D01*
X114075646Y-99991622D01*
X114554000Y-100086773D01*
X115032354Y-99991622D01*
X115205718Y-99875784D01*
X115141227Y-100200000D01*
X115236378Y-100678354D01*
X115507344Y-101083883D01*
X115912873Y-101354849D01*
X116391227Y-101450000D01*
X120008773Y-101450000D01*
X120487127Y-101354849D01*
X120892656Y-101083883D01*
X121000000Y-100923231D01*
X121107344Y-101083883D01*
X121512873Y-101354849D01*
X121991227Y-101450000D01*
X125608773Y-101450000D01*
X126087127Y-101354849D01*
X126492656Y-101083883D01*
X126500000Y-101072892D01*
X126507344Y-101083883D01*
X126912873Y-101354849D01*
X127391227Y-101450000D01*
X131008773Y-101450000D01*
X131487127Y-101354849D01*
X131892656Y-101083883D01*
X131960643Y-100982133D01*
X132332873Y-101230849D01*
X132811227Y-101326000D01*
X133012000Y-101326000D01*
X133012000Y-103142250D01*
X114017245Y-103003031D01*
X111350000Y-100335786D01*
X111350000Y-86900000D01*
X111286846Y-86582500D01*
X111273880Y-86517316D01*
X111057107Y-86192893D01*
X109521107Y-84656893D01*
X109196684Y-84440120D01*
X108814000Y-84364000D01*
X106479500Y-84364000D01*
X106458138Y-84330802D01*
X106207508Y-84159554D01*
X105910000Y-84099307D01*
X104910000Y-84099307D01*
X104632067Y-84151604D01*
X104376802Y-84315862D01*
X104292665Y-84439000D01*
X104241761Y-84439000D01*
X104172138Y-84330802D01*
X103921508Y-84159554D01*
X103624000Y-84099307D01*
X102624000Y-84099307D01*
X102346067Y-84151604D01*
X102090802Y-84315862D01*
X102006665Y-84439000D01*
X101009066Y-84439000D01*
X100846138Y-84185802D01*
X100595508Y-84014554D01*
X100298000Y-83954307D01*
X98798000Y-83954307D01*
X98520067Y-84006604D01*
X98295429Y-84151154D01*
X98095508Y-84014554D01*
X97798000Y-83954307D01*
X96298000Y-83954307D01*
X96020067Y-84006604D01*
X95764802Y-84170862D01*
X95593554Y-84421492D01*
X95533307Y-84719000D01*
X95533307Y-85969000D01*
X95585604Y-86246933D01*
X95692948Y-86413751D01*
X95664802Y-86431862D01*
X95493554Y-86682492D01*
X95433307Y-86980000D01*
X95433307Y-88280000D01*
X95485604Y-88557933D01*
X95649862Y-88813198D01*
X95900492Y-88984446D01*
X95918521Y-88988097D01*
X95889554Y-89030492D01*
X95829307Y-89328000D01*
X95829307Y-90128000D01*
X95881604Y-90405933D01*
X95922830Y-90470000D01*
X95793998Y-90470000D01*
X95793998Y-91228000D01*
X95836000Y-91228000D01*
X95836000Y-91238500D01*
X96025500Y-91428000D01*
X96819000Y-91428000D01*
X96819000Y-91228000D01*
X97269000Y-91228000D01*
X97269000Y-91428000D01*
X97425910Y-91428000D01*
X97384552Y-91635926D01*
X97373000Y-91694000D01*
X97373000Y-91828000D01*
X97269000Y-91828000D01*
X97269000Y-92028000D01*
X96819000Y-92028000D01*
X96819000Y-91828000D01*
X96025500Y-91828000D01*
X95836000Y-92017500D01*
X95836000Y-92028000D01*
X95793998Y-92028000D01*
X95793998Y-92707850D01*
X94861693Y-91775545D01*
X94861693Y-90924000D01*
X94809396Y-90646067D01*
X94664846Y-90421429D01*
X94801446Y-90221508D01*
X94861693Y-89924000D01*
X94861693Y-88424000D01*
X94809396Y-88146067D01*
X94645138Y-87890802D01*
X94394508Y-87719554D01*
X94097000Y-87659307D01*
X92847000Y-87659307D01*
X92569067Y-87711604D01*
X92402249Y-87818948D01*
X92384138Y-87790802D01*
X92325067Y-87750441D01*
X92384693Y-87456000D01*
X92384693Y-86656000D01*
X92332396Y-86378067D01*
X92291170Y-86314000D01*
X92420002Y-86314000D01*
X92420002Y-85556000D01*
X92378000Y-85556000D01*
X92378000Y-85545500D01*
X92188500Y-85356000D01*
X91395000Y-85356000D01*
X91395000Y-85556000D01*
X90945000Y-85556000D01*
X90945000Y-85356000D01*
X90720000Y-85356000D01*
X90720000Y-84956000D01*
X90945000Y-84956000D01*
X90945000Y-84187500D01*
X91395000Y-84187500D01*
X91395000Y-84956000D01*
X92188500Y-84956000D01*
X92378000Y-84766500D01*
X92378000Y-84605225D01*
X92262602Y-84326628D01*
X92049373Y-84113399D01*
X91770776Y-83998000D01*
X91584500Y-83998000D01*
X91395000Y-84187500D01*
X90945000Y-84187500D01*
X90755500Y-83998000D01*
X90720000Y-83998000D01*
X90720000Y-83905998D01*
X89962000Y-83905998D01*
X89962000Y-85031954D01*
X89917508Y-85001554D01*
X89620000Y-84941307D01*
X88720000Y-84941307D01*
X88442067Y-84993604D01*
X88186802Y-85157862D01*
X88015554Y-85408492D01*
X87955307Y-85706000D01*
X87955307Y-86506000D01*
X88007604Y-86783933D01*
X88171862Y-87039198D01*
X88245000Y-87089171D01*
X88245000Y-87560248D01*
X87972067Y-87611604D01*
X87716802Y-87775862D01*
X87545554Y-88026492D01*
X87520745Y-88149000D01*
X86968000Y-88149000D01*
X86758693Y-88190634D01*
X86758693Y-87214000D01*
X86706396Y-86936067D01*
X86594002Y-86761401D01*
X86594002Y-86485972D01*
X86636601Y-86443373D01*
X86752000Y-86164776D01*
X86752000Y-85828500D01*
X86562500Y-85639000D01*
X85669000Y-85639000D01*
X85669000Y-86014000D01*
X85019000Y-86014000D01*
X85019000Y-85639000D01*
X84125500Y-85639000D01*
X83936000Y-85828500D01*
X83936000Y-86164776D01*
X84051399Y-86443373D01*
X84093998Y-86485972D01*
X84093998Y-86763633D01*
X83989554Y-86916492D01*
X83929307Y-87214000D01*
X83929307Y-87637377D01*
X83831508Y-87570554D01*
X83534000Y-87510307D01*
X82034000Y-87510307D01*
X81756067Y-87562604D01*
X81531429Y-87707154D01*
X81331508Y-87570554D01*
X81034000Y-87510307D01*
X79534000Y-87510307D01*
X79256067Y-87562604D01*
X79000802Y-87726862D01*
X78831257Y-87975000D01*
X78122505Y-87975000D01*
X78070396Y-87698067D01*
X77906138Y-87442802D01*
X77809452Y-87376740D01*
X77891198Y-87324138D01*
X78062446Y-87073508D01*
X78122693Y-86776000D01*
X78122693Y-85276000D01*
X78070396Y-84998067D01*
X77906138Y-84742802D01*
X77655508Y-84571554D01*
X77358000Y-84511307D01*
X76058000Y-84511307D01*
X75780067Y-84563604D01*
X75524802Y-84727862D01*
X75353554Y-84978492D01*
X75328745Y-85101000D01*
X69163696Y-85101000D01*
X69006506Y-84720571D01*
X68649783Y-84363224D01*
X83936000Y-84363224D01*
X83936000Y-84699500D01*
X84125500Y-84889000D01*
X85019000Y-84889000D01*
X85019000Y-83945500D01*
X85669000Y-83945500D01*
X85669000Y-84889000D01*
X86562500Y-84889000D01*
X86752000Y-84699500D01*
X86752000Y-84363224D01*
X86636601Y-84084627D01*
X86423372Y-83871398D01*
X86144775Y-83756000D01*
X85858500Y-83756000D01*
X85669000Y-83945500D01*
X85019000Y-83945500D01*
X84829500Y-83756000D01*
X84543225Y-83756000D01*
X84264628Y-83871398D01*
X84051399Y-84084627D01*
X83936000Y-84363224D01*
X68649783Y-84363224D01*
X68444388Y-84157471D01*
X67709570Y-83852348D01*
X66913921Y-83851654D01*
X66178571Y-84155494D01*
X65615471Y-84717612D01*
X65310348Y-85452430D01*
X65309654Y-86248079D01*
X65613494Y-86983429D01*
X66175612Y-87546529D01*
X66910430Y-87851652D01*
X67706079Y-87852346D01*
X68441429Y-87548506D01*
X69004529Y-86986388D01*
X69019223Y-86951000D01*
X70862552Y-86951000D01*
X70021891Y-87791661D01*
X70354847Y-88124616D01*
X70308356Y-88504604D01*
X70405368Y-88992316D01*
X70670937Y-89147180D01*
X71466117Y-88352000D01*
X71024175Y-87910058D01*
X71908058Y-87026175D01*
X72350000Y-87468117D01*
X72791942Y-87026175D01*
X73675825Y-87910058D01*
X73233883Y-88352000D01*
X73675825Y-88793942D01*
X72791942Y-89677825D01*
X72350000Y-89235883D01*
X71554820Y-90031063D01*
X71709684Y-90296632D01*
X72169021Y-90352831D01*
X72006852Y-90515000D01*
X70024000Y-90515000D01*
X69670017Y-90585411D01*
X69369926Y-90785926D01*
X69337033Y-90818819D01*
X69351644Y-90699396D01*
X69254632Y-90211684D01*
X68989063Y-90056820D01*
X68193883Y-90852000D01*
X68635825Y-91293942D01*
X68052460Y-91877307D01*
X67451424Y-91877307D01*
X67310000Y-91735883D01*
X67066125Y-91979758D01*
X66888802Y-92093862D01*
X66752422Y-92293461D01*
X66578883Y-92467000D01*
X66578000Y-92467000D01*
X66224017Y-92537411D01*
X65923926Y-92737926D01*
X65626545Y-93035307D01*
X65320000Y-93035307D01*
X65042067Y-93087604D01*
X64978000Y-93128830D01*
X64978000Y-92999998D01*
X64220000Y-92999998D01*
X64220000Y-93042000D01*
X64209500Y-93042000D01*
X64020000Y-93231500D01*
X64020000Y-94025000D01*
X64220000Y-94025000D01*
X64220000Y-94475000D01*
X64020000Y-94475000D01*
X64020000Y-94700000D01*
X63620000Y-94700000D01*
X63620000Y-94475000D01*
X62851500Y-94475000D01*
X62662000Y-94664500D01*
X62662000Y-94700000D01*
X62569998Y-94700000D01*
X62569998Y-95321000D01*
X62062764Y-95321000D01*
X62043396Y-95218067D01*
X61898846Y-94993429D01*
X62035446Y-94793508D01*
X62095693Y-94496000D01*
X62095693Y-93664455D01*
X62110924Y-93649224D01*
X62662000Y-93649224D01*
X62662000Y-93835500D01*
X62851500Y-94025000D01*
X63620000Y-94025000D01*
X63620000Y-93231500D01*
X63430500Y-93042000D01*
X63269225Y-93042000D01*
X62990628Y-93157398D01*
X62777399Y-93370627D01*
X62662000Y-93649224D01*
X62110924Y-93649224D01*
X62868074Y-92892074D01*
X63068589Y-92591983D01*
X63139000Y-92238000D01*
X63139000Y-92105587D01*
X63197198Y-92068138D01*
X63368446Y-91817508D01*
X63428693Y-91520000D01*
X63428693Y-91213455D01*
X63637544Y-91004604D01*
X65268356Y-91004604D01*
X65365368Y-91492316D01*
X65630937Y-91647180D01*
X66426117Y-90852000D01*
X65630937Y-90056820D01*
X65365368Y-90211684D01*
X65268356Y-91004604D01*
X63637544Y-91004604D01*
X64154074Y-90488074D01*
X64354589Y-90187982D01*
X64425001Y-89834000D01*
X64425000Y-89833995D01*
X64425000Y-89172937D01*
X66514820Y-89172937D01*
X67310000Y-89968117D01*
X68105180Y-89172937D01*
X67950316Y-88907368D01*
X67157396Y-88810356D01*
X66669684Y-88907368D01*
X66514820Y-89172937D01*
X64425000Y-89172937D01*
X64425000Y-87884000D01*
X64408490Y-87800999D01*
X64354589Y-87530017D01*
X64154074Y-87229926D01*
X63282148Y-86358000D01*
X64040002Y-86358000D01*
X64040002Y-85770084D01*
X64048000Y-85750775D01*
X64048000Y-85539500D01*
X63858500Y-85350000D01*
X63040000Y-85350000D01*
X63040000Y-85600000D01*
X62540000Y-85600000D01*
X62540000Y-85350000D01*
X62290000Y-85350000D01*
X62290000Y-84850000D01*
X62540000Y-84850000D01*
X62540000Y-84031500D01*
X63040000Y-84031500D01*
X63040000Y-84850000D01*
X63858500Y-84850000D01*
X64048000Y-84660500D01*
X64048000Y-84449225D01*
X63932602Y-84170628D01*
X63719373Y-83957399D01*
X63440776Y-83842000D01*
X63229500Y-83842000D01*
X63040000Y-84031500D01*
X62540000Y-84031500D01*
X62350500Y-83842000D01*
X62139224Y-83842000D01*
X62119915Y-83849998D01*
X61532000Y-83849998D01*
X61532000Y-84479398D01*
X61502396Y-84322067D01*
X61338138Y-84066802D01*
X61087508Y-83895554D01*
X60790000Y-83835307D01*
X59790000Y-83835307D01*
X59580840Y-83874663D01*
X59567508Y-83865554D01*
X59270000Y-83805307D01*
X58270000Y-83805307D01*
X57992067Y-83857604D01*
X57736802Y-84021862D01*
X57565554Y-84272492D01*
X57528000Y-84457939D01*
X57528000Y-83819998D01*
X56940085Y-83819998D01*
X56920776Y-83812000D01*
X56709500Y-83812000D01*
X56520000Y-84001500D01*
X56520000Y-84820000D01*
X56770000Y-84820000D01*
X56770000Y-85320000D01*
X56520000Y-85320000D01*
X56520000Y-85570000D01*
X56020000Y-85570000D01*
X56020000Y-85320000D01*
X55201500Y-85320000D01*
X55012000Y-85509500D01*
X55012000Y-85720775D01*
X55019998Y-85740084D01*
X55019998Y-85927806D01*
X54971926Y-85959926D01*
X53138545Y-87793307D01*
X51728000Y-87793307D01*
X51450067Y-87845604D01*
X51194802Y-88009862D01*
X51023554Y-88260492D01*
X50963307Y-88558000D01*
X50963307Y-90258000D01*
X51015604Y-90535933D01*
X51179862Y-90791198D01*
X51353158Y-90909606D01*
X51068447Y-91335707D01*
X51062620Y-91365000D01*
X50766764Y-91365000D01*
X50747396Y-91262067D01*
X50583138Y-91006802D01*
X50332508Y-90835554D01*
X50035000Y-90775307D01*
X49422841Y-90775307D01*
X49934074Y-90264074D01*
X50134589Y-89963982D01*
X50205001Y-89610000D01*
X50205000Y-89609995D01*
X50205000Y-88224005D01*
X50205001Y-88224000D01*
X50134589Y-87870018D01*
X49934074Y-87569926D01*
X49612693Y-87248545D01*
X49612693Y-86942000D01*
X49560396Y-86664067D01*
X49396138Y-86408802D01*
X49145508Y-86237554D01*
X48848000Y-86177307D01*
X48048000Y-86177307D01*
X47770067Y-86229604D01*
X47514802Y-86393862D01*
X47500239Y-86415175D01*
X47496138Y-86408802D01*
X47245508Y-86237554D01*
X46948000Y-86177307D01*
X46148000Y-86177307D01*
X45870067Y-86229604D01*
X45614802Y-86393862D01*
X45443554Y-86644492D01*
X45389042Y-86913679D01*
X45362396Y-86772067D01*
X45198138Y-86516802D01*
X44947508Y-86345554D01*
X44650000Y-86285307D01*
X43350000Y-86285307D01*
X43072067Y-86337604D01*
X42816802Y-86501862D01*
X42645554Y-86752492D01*
X42598850Y-86983125D01*
X42397508Y-86845554D01*
X42100000Y-86785307D01*
X40400000Y-86785307D01*
X40122067Y-86837604D01*
X39866802Y-87001862D01*
X39695554Y-87252492D01*
X39635307Y-87550000D01*
X39635307Y-89250000D01*
X39687604Y-89527933D01*
X39851862Y-89783198D01*
X39999998Y-89884415D01*
X39999998Y-89955466D01*
X39784759Y-90277631D01*
X39896664Y-90515000D01*
X40825000Y-90515000D01*
X40825000Y-90090000D01*
X41675000Y-90090000D01*
X41675000Y-90515000D01*
X42100000Y-90515000D01*
X42100000Y-91365000D01*
X41675000Y-91365000D01*
X41675000Y-92301350D01*
X41912374Y-92405272D01*
X42213334Y-92190002D01*
X42302935Y-92190002D01*
X42206802Y-92251862D01*
X42035554Y-92502492D01*
X41975307Y-92800000D01*
X41975307Y-95800000D01*
X42027604Y-96077933D01*
X42191862Y-96333198D01*
X42439292Y-96502259D01*
X42206802Y-96651862D01*
X42035554Y-96902492D01*
X41975307Y-97200000D01*
X41975307Y-100200000D01*
X42027604Y-100477933D01*
X42191862Y-100733198D01*
X42442492Y-100904446D01*
X42615000Y-100939380D01*
X42615000Y-101085307D01*
X41090000Y-101085307D01*
X40812067Y-101137604D01*
X40556802Y-101301862D01*
X40385554Y-101552492D01*
X40325307Y-101850000D01*
X40325307Y-104850000D01*
X40377604Y-105127933D01*
X40541862Y-105383198D01*
X40792492Y-105554446D01*
X41090000Y-105614693D01*
X44090000Y-105614693D01*
X44367933Y-105562396D01*
X44623198Y-105398138D01*
X44794446Y-105147508D01*
X44854693Y-104850000D01*
X44854693Y-104005000D01*
X46248236Y-104005000D01*
X46267604Y-104107933D01*
X46379998Y-104282599D01*
X46379998Y-104558028D01*
X46337399Y-104600627D01*
X46222000Y-104879224D01*
X46222000Y-105215500D01*
X46411500Y-105405000D01*
X47305000Y-105405000D01*
X47305000Y-105030000D01*
X47955000Y-105030000D01*
X47955000Y-105405000D01*
X48280000Y-105405000D01*
X48280000Y-106155000D01*
X47955000Y-106155000D01*
X47955000Y-107098500D01*
X48144500Y-107288000D01*
X48377786Y-107288000D01*
X46007893Y-109657893D01*
X45791120Y-109982316D01*
X45791120Y-109982317D01*
X45715000Y-110365000D01*
X45715000Y-115332000D01*
X44559935Y-115332000D01*
X44458138Y-115173802D01*
X44207508Y-115002554D01*
X43910000Y-114942307D01*
X42410000Y-114942307D01*
X42132067Y-114994604D01*
X41996252Y-115081998D01*
X41856972Y-115081998D01*
X41839373Y-115064399D01*
X41560776Y-114949000D01*
X41224500Y-114949000D01*
X41035000Y-115138500D01*
X41035000Y-116019500D01*
X41410000Y-116019500D01*
X41410000Y-116644500D01*
X41035000Y-116644500D01*
X41035000Y-117525500D01*
X41224500Y-117715000D01*
X41560776Y-117715000D01*
X41839373Y-117599601D01*
X41856972Y-117582002D01*
X41996221Y-117582002D01*
X42095627Y-117649923D01*
X41632142Y-117841431D01*
X40998655Y-118473813D01*
X40655392Y-119300484D01*
X40654610Y-120195589D01*
X40996431Y-121022858D01*
X41628813Y-121656345D01*
X42455484Y-121999608D01*
X43350589Y-122000390D01*
X44177858Y-121658569D01*
X44810548Y-121026982D01*
X45438813Y-121656345D01*
X46265484Y-121999608D01*
X47160589Y-122000390D01*
X47987858Y-121658569D01*
X48620548Y-121026982D01*
X49248813Y-121656345D01*
X50075484Y-121999608D01*
X50970589Y-122000390D01*
X51797858Y-121658569D01*
X52431345Y-121026187D01*
X52546028Y-120750000D01*
X53295786Y-120750000D01*
X54392000Y-121846214D01*
X54392000Y-122101348D01*
X54364067Y-122106604D01*
X54108802Y-122270862D01*
X53937554Y-122521492D01*
X53877307Y-122819000D01*
X53877307Y-124069000D01*
X53929604Y-124346933D01*
X54093862Y-124602198D01*
X54344492Y-124773446D01*
X54642000Y-124833693D01*
X56142000Y-124833693D01*
X56419933Y-124781396D01*
X56555748Y-124694002D01*
X56695028Y-124694002D01*
X56712627Y-124711601D01*
X56991224Y-124827000D01*
X57327500Y-124827000D01*
X57517000Y-124637500D01*
X57517000Y-123756500D01*
X58267000Y-123756500D01*
X58267000Y-124637500D01*
X58456500Y-124827000D01*
X58792776Y-124827000D01*
X58999407Y-124741410D01*
X79962803Y-124741410D01*
X80234190Y-125034058D01*
X81328825Y-125109045D01*
X81705810Y-125034058D01*
X81977197Y-124741410D01*
X80970000Y-123734214D01*
X79962803Y-124741410D01*
X58999407Y-124741410D01*
X59071373Y-124711601D01*
X59284602Y-124498372D01*
X59400000Y-124219775D01*
X59400000Y-123946000D01*
X59210500Y-123756500D01*
X58267000Y-123756500D01*
X57517000Y-123756500D01*
X57142000Y-123756500D01*
X57142000Y-123131500D01*
X57517000Y-123131500D01*
X57517000Y-122250500D01*
X58267000Y-122250500D01*
X58267000Y-123131500D01*
X59210500Y-123131500D01*
X59400000Y-122942000D01*
X59400000Y-122678825D01*
X78180955Y-122678825D01*
X78255942Y-123055810D01*
X78548590Y-123327197D01*
X79555786Y-122320000D01*
X82384214Y-122320000D01*
X83391410Y-123327197D01*
X83684058Y-123055810D01*
X83759045Y-121961175D01*
X83684058Y-121584190D01*
X83391410Y-121312803D01*
X82384214Y-122320000D01*
X79555786Y-122320000D01*
X78548590Y-121312803D01*
X78255942Y-121584190D01*
X78180955Y-122678825D01*
X59400000Y-122678825D01*
X59400000Y-122668225D01*
X59284602Y-122389628D01*
X59071373Y-122176399D01*
X58792776Y-122061000D01*
X58456500Y-122061000D01*
X58267000Y-122250500D01*
X57517000Y-122250500D01*
X57327500Y-122061000D01*
X56991224Y-122061000D01*
X56712627Y-122176399D01*
X56695028Y-122193998D01*
X56555778Y-122193998D01*
X56439508Y-122114554D01*
X56392000Y-122104933D01*
X56392000Y-121432000D01*
X56315880Y-121049317D01*
X56099107Y-120724893D01*
X55272804Y-119898590D01*
X79962803Y-119898590D01*
X80970000Y-120905786D01*
X81977197Y-119898590D01*
X81705810Y-119605942D01*
X80611175Y-119530955D01*
X80234190Y-119605942D01*
X79962803Y-119898590D01*
X55272804Y-119898590D01*
X54417107Y-119042893D01*
X54092684Y-118826120D01*
X53710000Y-118750000D01*
X52546312Y-118750000D01*
X52433569Y-118477142D01*
X52070000Y-118112938D01*
X52070000Y-115364693D01*
X52570000Y-115364693D01*
X52847933Y-115312396D01*
X53103198Y-115148138D01*
X53274446Y-114897508D01*
X53334693Y-114600000D01*
X53334693Y-113545589D01*
X69309610Y-113545589D01*
X69651431Y-114372858D01*
X70283813Y-115006345D01*
X71110484Y-115349608D01*
X72005589Y-115350390D01*
X72832858Y-115008569D01*
X73466345Y-114376187D01*
X73581028Y-114100000D01*
X78985307Y-114100000D01*
X78985307Y-114525000D01*
X79037604Y-114802933D01*
X79201862Y-115058198D01*
X79452492Y-115229446D01*
X79750000Y-115289693D01*
X82750000Y-115289693D01*
X83027933Y-115237396D01*
X83283198Y-115073138D01*
X83365994Y-114951961D01*
X100873699Y-114951961D01*
X101067361Y-115226784D01*
X101961149Y-115316592D01*
X102412639Y-115226784D01*
X102606301Y-114951961D01*
X101740000Y-114085660D01*
X100873699Y-114951961D01*
X83365994Y-114951961D01*
X83454446Y-114822508D01*
X83514693Y-114525000D01*
X83514693Y-114033426D01*
X83562684Y-114023880D01*
X83887107Y-113807107D01*
X84103880Y-113482684D01*
X84150929Y-113246149D01*
X99448408Y-113246149D01*
X99538216Y-113697639D01*
X99813039Y-113891301D01*
X100679340Y-113025000D01*
X102800660Y-113025000D01*
X103666961Y-113891301D01*
X103941784Y-113697639D01*
X104031592Y-112803851D01*
X103941784Y-112352361D01*
X103666961Y-112158699D01*
X102800660Y-113025000D01*
X100679340Y-113025000D01*
X99813039Y-112158699D01*
X99538216Y-112352361D01*
X99448408Y-113246149D01*
X84150929Y-113246149D01*
X84180000Y-113100000D01*
X84103880Y-112717316D01*
X83887107Y-112392893D01*
X83812107Y-112317893D01*
X83514693Y-112119167D01*
X83514693Y-111525000D01*
X83462396Y-111247067D01*
X83366500Y-111098039D01*
X100873699Y-111098039D01*
X101740000Y-111964340D01*
X102606301Y-111098039D01*
X102412639Y-110823216D01*
X101518851Y-110733408D01*
X101067361Y-110823216D01*
X100873699Y-111098039D01*
X83366500Y-111098039D01*
X83298138Y-110991802D01*
X83047508Y-110820554D01*
X82750000Y-110760307D01*
X79750000Y-110760307D01*
X79472067Y-110812604D01*
X79216802Y-110976862D01*
X79045554Y-111227492D01*
X78985307Y-111525000D01*
X78985307Y-112100000D01*
X73581312Y-112100000D01*
X73468569Y-111827142D01*
X72836187Y-111193655D01*
X72009516Y-110850392D01*
X71114411Y-110849610D01*
X70287142Y-111191431D01*
X69653655Y-111823813D01*
X69310392Y-112650484D01*
X69309610Y-113545589D01*
X53334693Y-113545589D01*
X53334693Y-111600000D01*
X53282396Y-111322067D01*
X53118138Y-111066802D01*
X52867508Y-110895554D01*
X52570000Y-110835307D01*
X49570000Y-110835307D01*
X49292067Y-110887604D01*
X49036802Y-111051862D01*
X48865554Y-111302492D01*
X48805307Y-111600000D01*
X48805307Y-114600000D01*
X48857604Y-114877933D01*
X49021862Y-115133198D01*
X49272492Y-115304446D01*
X49570000Y-115364693D01*
X50070000Y-115364693D01*
X50070000Y-117503499D01*
X49252142Y-117841431D01*
X48619452Y-118473018D01*
X47991187Y-117843655D01*
X47715000Y-117728972D01*
X47715000Y-110779214D01*
X50677107Y-107817107D01*
X50758028Y-107696000D01*
X50893880Y-107492683D01*
X50970000Y-107110000D01*
X50970000Y-102460000D01*
X50990000Y-102460000D01*
X51372684Y-102383880D01*
X51697107Y-102167107D01*
X52364214Y-101500000D01*
X52930000Y-101500000D01*
X53312684Y-101423880D01*
X53637107Y-101207107D01*
X55082692Y-99761522D01*
X55186492Y-99832446D01*
X55484000Y-99892693D01*
X56784000Y-99892693D01*
X56868622Y-99876770D01*
X56895926Y-99904074D01*
X57196017Y-100104589D01*
X57550000Y-100175000D01*
X65285307Y-100175000D01*
X65285307Y-101025000D01*
X65337604Y-101302933D01*
X65501862Y-101558198D01*
X65752492Y-101729446D01*
X66050000Y-101789693D01*
X67550000Y-101789693D01*
X67827933Y-101737396D01*
X67963748Y-101650002D01*
X68103028Y-101650002D01*
X68120627Y-101667601D01*
X68399224Y-101783000D01*
X68735500Y-101783000D01*
X68925000Y-101593500D01*
X68925000Y-100712500D01*
X69675000Y-100712500D01*
X69675000Y-101593500D01*
X69864500Y-101783000D01*
X70200776Y-101783000D01*
X70479373Y-101667601D01*
X70692602Y-101454372D01*
X70808000Y-101175775D01*
X70808000Y-100902000D01*
X70618500Y-100712500D01*
X69675000Y-100712500D01*
X68925000Y-100712500D01*
X68550000Y-100712500D01*
X68550000Y-100175000D01*
X71718236Y-100175000D01*
X71737604Y-100277933D01*
X71901862Y-100533198D01*
X72152492Y-100704446D01*
X72450000Y-100764693D01*
X73446815Y-100764693D01*
X73750000Y-100825000D01*
X79616852Y-100825000D01*
X80645926Y-101854074D01*
X80946018Y-102054589D01*
X81300000Y-102125001D01*
X81300005Y-102125000D01*
X85900000Y-102125000D01*
X86253983Y-102054589D01*
X86554074Y-101854074D01*
X86679074Y-101729074D01*
X86879589Y-101428982D01*
X86950001Y-101075000D01*
X86950000Y-101074995D01*
X86950000Y-101056764D01*
X87052933Y-101037396D01*
X87308198Y-100873138D01*
X87479446Y-100622508D01*
X87539693Y-100325000D01*
X87539693Y-99223000D01*
X99314000Y-99223000D01*
X99667983Y-99152589D01*
X99968074Y-98952074D01*
X100810074Y-98110074D01*
X100863709Y-98029804D01*
X100931155Y-97960737D01*
X101107643Y-97689693D01*
X101375307Y-97689693D01*
X101375307Y-98415000D01*
X101427604Y-98692933D01*
X101591862Y-98948198D01*
X101842492Y-99119446D01*
X102140000Y-99179693D01*
X103640000Y-99179693D01*
X103917933Y-99127396D01*
X104053748Y-99040002D01*
X104193028Y-99040002D01*
X104210627Y-99057601D01*
X104489224Y-99173000D01*
X104825500Y-99173000D01*
X105015000Y-98983500D01*
X105015000Y-98102500D01*
X105765000Y-98102500D01*
X105765000Y-98983500D01*
X105954500Y-99173000D01*
X106290776Y-99173000D01*
X106569373Y-99057601D01*
X106782602Y-98844372D01*
X106898000Y-98565775D01*
X106898000Y-98292000D01*
X106708500Y-98102500D01*
X105765000Y-98102500D01*
X105015000Y-98102500D01*
X104640000Y-98102500D01*
X104640000Y-97477500D01*
X105015000Y-97477500D01*
X105015000Y-96596500D01*
X105765000Y-96596500D01*
X105765000Y-97477500D01*
X106708500Y-97477500D01*
X106898000Y-97288000D01*
X106898000Y-97014225D01*
X106782602Y-96735628D01*
X106569373Y-96522399D01*
X106290776Y-96407000D01*
X105954500Y-96407000D01*
X105765000Y-96596500D01*
X105015000Y-96596500D01*
X104939324Y-96520824D01*
X105890074Y-95570074D01*
X106090589Y-95269983D01*
X106121373Y-95115221D01*
X106263933Y-95088396D01*
X106519198Y-94924138D01*
X106690446Y-94673508D01*
X106750693Y-94376000D01*
X106750693Y-93076000D01*
X106698396Y-92798067D01*
X106626283Y-92686000D01*
X107644002Y-92686000D01*
X107644002Y-92644899D01*
X107823373Y-92570601D01*
X108036602Y-92357372D01*
X108152000Y-92078775D01*
X108152000Y-91492500D01*
X107962500Y-91303000D01*
X106894000Y-91303000D01*
X106894000Y-91928000D01*
X105894000Y-91928000D01*
X105894000Y-91303000D01*
X104825500Y-91303000D01*
X104636000Y-91492500D01*
X104636000Y-92078775D01*
X104732317Y-92311307D01*
X104486000Y-92311307D01*
X104208067Y-92363604D01*
X103952802Y-92527862D01*
X103886740Y-92624548D01*
X103834138Y-92542802D01*
X103829026Y-92539309D01*
X103927198Y-92476138D01*
X104098446Y-92225508D01*
X104158693Y-91928000D01*
X104158693Y-89428000D01*
X104106396Y-89150067D01*
X104088335Y-89122000D01*
X104700296Y-89122000D01*
X104636000Y-89277225D01*
X104636000Y-89863500D01*
X104825500Y-90053000D01*
X105894000Y-90053000D01*
X105894000Y-89428000D01*
X106894000Y-89428000D01*
X106894000Y-90053000D01*
X107962500Y-90053000D01*
X108152000Y-89863500D01*
X108152000Y-89277225D01*
X108036602Y-88998628D01*
X107823373Y-88785399D01*
X107644002Y-88711101D01*
X107644002Y-88670000D01*
X106660002Y-88670000D01*
X106660002Y-88534085D01*
X106668000Y-88514776D01*
X106668000Y-88303500D01*
X106478500Y-88114000D01*
X105660000Y-88114000D01*
X105660000Y-88364000D01*
X105160000Y-88364000D01*
X105160000Y-88114000D01*
X104341500Y-88114000D01*
X104267000Y-88188500D01*
X104192500Y-88114000D01*
X103374000Y-88114000D01*
X103374000Y-88364000D01*
X102874000Y-88364000D01*
X102874000Y-88114000D01*
X102055500Y-88114000D01*
X101866000Y-88303500D01*
X101866000Y-88514776D01*
X101873998Y-88534085D01*
X101873998Y-88663307D01*
X101687454Y-88663307D01*
X101162693Y-88138545D01*
X101162693Y-86980000D01*
X101110396Y-86702067D01*
X100946138Y-86446802D01*
X100900543Y-86415648D01*
X100987078Y-86289000D01*
X102006239Y-86289000D01*
X102075862Y-86397198D01*
X102326492Y-86568446D01*
X102511939Y-86606000D01*
X101873998Y-86606000D01*
X101873998Y-87193915D01*
X101866000Y-87213224D01*
X101866000Y-87424500D01*
X102055500Y-87614000D01*
X102874000Y-87614000D01*
X102874000Y-87364000D01*
X103374000Y-87364000D01*
X103374000Y-87614000D01*
X104192500Y-87614000D01*
X104267000Y-87539500D01*
X104341500Y-87614000D01*
X105160000Y-87614000D01*
X105160000Y-87364000D01*
X105660000Y-87364000D01*
X105660000Y-87614000D01*
X106478500Y-87614000D01*
X106668000Y-87424500D01*
X106668000Y-87213224D01*
X106660002Y-87193915D01*
X106660002Y-86606000D01*
X106030602Y-86606000D01*
X106187933Y-86576396D01*
X106443198Y-86412138D01*
X106476089Y-86364000D01*
X108399786Y-86364000D01*
X109350000Y-87314214D01*
X109350000Y-100750000D01*
X109426120Y-101132684D01*
X109642893Y-101457107D01*
X112892893Y-104707107D01*
X113052130Y-104813506D01*
X113210556Y-104921050D01*
X113214210Y-104921805D01*
X113217316Y-104923880D01*
X113405187Y-104961250D01*
X113592671Y-104999973D01*
X133012000Y-105142304D01*
X133012000Y-106446000D01*
X132811227Y-106446000D01*
X132332873Y-106541151D01*
X131927344Y-106812117D01*
X131922558Y-106819279D01*
X131587127Y-106595151D01*
X131108773Y-106500000D01*
X127491227Y-106500000D01*
X127012873Y-106595151D01*
X126643305Y-106842089D01*
X126642656Y-106841117D01*
X126237127Y-106570151D01*
X125758773Y-106475000D01*
X122141227Y-106475000D01*
X121662873Y-106570151D01*
X121257344Y-106841117D01*
X121083352Y-107101514D01*
X120892656Y-106816117D01*
X120487127Y-106545151D01*
X120008773Y-106450000D01*
X116391227Y-106450000D01*
X115912873Y-106545151D01*
X115507344Y-106816117D01*
X115236378Y-107221646D01*
X115141227Y-107700000D01*
X115236378Y-108178354D01*
X115507344Y-108583883D01*
X115912873Y-108854849D01*
X116391227Y-108950000D01*
X120008773Y-108950000D01*
X120487127Y-108854849D01*
X120892656Y-108583883D01*
X121066648Y-108323486D01*
X121257344Y-108608883D01*
X121662873Y-108879849D01*
X122141227Y-108975000D01*
X125758773Y-108975000D01*
X126237127Y-108879849D01*
X126606695Y-108632911D01*
X126607344Y-108633883D01*
X127012873Y-108904849D01*
X127491227Y-109000000D01*
X131108773Y-109000000D01*
X131587127Y-108904849D01*
X131992656Y-108633883D01*
X131997442Y-108626721D01*
X132332873Y-108850849D01*
X132811227Y-108946000D01*
X133012000Y-108946000D01*
X133012000Y-126175000D01*
X115581980Y-126175000D01*
X115708849Y-125985127D01*
X115804000Y-125506773D01*
X115804000Y-121889227D01*
X115708849Y-121410873D01*
X115437883Y-121005344D01*
X115286211Y-120904000D01*
X115437883Y-120802656D01*
X115708849Y-120397127D01*
X115804000Y-119918773D01*
X115804000Y-116301227D01*
X115708849Y-115822873D01*
X115437883Y-115417344D01*
X115096142Y-115189000D01*
X115437883Y-114960656D01*
X115708849Y-114555127D01*
X115804000Y-114076773D01*
X115804000Y-110459227D01*
X115708849Y-109980873D01*
X115437883Y-109575344D01*
X115032354Y-109304378D01*
X114554000Y-109209227D01*
X114075646Y-109304378D01*
X113670117Y-109575344D01*
X113399151Y-109980873D01*
X113304000Y-110459227D01*
X113304000Y-114076773D01*
X113399151Y-114555127D01*
X113670117Y-114960656D01*
X114011858Y-115189000D01*
X113670117Y-115417344D01*
X113399151Y-115822873D01*
X113304000Y-116301227D01*
X113304000Y-119918773D01*
X113399151Y-120397127D01*
X113670117Y-120802656D01*
X113821789Y-120904000D01*
X113670117Y-121005344D01*
X113399151Y-121410873D01*
X113304000Y-121889227D01*
X113304000Y-125506773D01*
X113399151Y-125985127D01*
X113526020Y-126175000D01*
X52107968Y-126175000D01*
X52431345Y-125852187D01*
X52774608Y-125025516D01*
X52775390Y-124130411D01*
X52433569Y-123303142D01*
X51801187Y-122669655D01*
X50974516Y-122326392D01*
X50079411Y-122325610D01*
X49252142Y-122667431D01*
X48619452Y-123299018D01*
X47991187Y-122669655D01*
X47164516Y-122326392D01*
X46269411Y-122325610D01*
X45442142Y-122667431D01*
X44809452Y-123299018D01*
X44181187Y-122669655D01*
X43354516Y-122326392D01*
X42459411Y-122325610D01*
X41632142Y-122667431D01*
X40998655Y-123299813D01*
X40655392Y-124126484D01*
X40654610Y-125021589D01*
X40996431Y-125848858D01*
X41322004Y-126175000D01*
X38825000Y-126175000D01*
X38825000Y-116834000D01*
X39152000Y-116834000D01*
X39152000Y-117107775D01*
X39267398Y-117386372D01*
X39480627Y-117599601D01*
X39759224Y-117715000D01*
X40095500Y-117715000D01*
X40285000Y-117525500D01*
X40285000Y-116644500D01*
X39341500Y-116644500D01*
X39152000Y-116834000D01*
X38825000Y-116834000D01*
X38825000Y-115556225D01*
X39152000Y-115556225D01*
X39152000Y-115830000D01*
X39341500Y-116019500D01*
X40285000Y-116019500D01*
X40285000Y-115138500D01*
X40095500Y-114949000D01*
X39759224Y-114949000D01*
X39480627Y-115064399D01*
X39267398Y-115277628D01*
X39152000Y-115556225D01*
X38825000Y-115556225D01*
X38825000Y-110356961D01*
X41723699Y-110356961D01*
X41917361Y-110631784D01*
X42811149Y-110721592D01*
X43262639Y-110631784D01*
X43456301Y-110356961D01*
X42590000Y-109490660D01*
X41723699Y-110356961D01*
X38825000Y-110356961D01*
X38825000Y-108651149D01*
X40298408Y-108651149D01*
X40388216Y-109102639D01*
X40663039Y-109296301D01*
X41529340Y-108430000D01*
X43650660Y-108430000D01*
X44516961Y-109296301D01*
X44791784Y-109102639D01*
X44881592Y-108208851D01*
X44791784Y-107757361D01*
X44516961Y-107563699D01*
X43650660Y-108430000D01*
X41529340Y-108430000D01*
X40663039Y-107563699D01*
X40388216Y-107757361D01*
X40298408Y-108651149D01*
X38825000Y-108651149D01*
X38825000Y-106503039D01*
X41723699Y-106503039D01*
X42590000Y-107369340D01*
X43456301Y-106503039D01*
X43344582Y-106344500D01*
X46222000Y-106344500D01*
X46222000Y-106680776D01*
X46337399Y-106959373D01*
X46550628Y-107172602D01*
X46829225Y-107288000D01*
X47115500Y-107288000D01*
X47305000Y-107098500D01*
X47305000Y-106155000D01*
X46411500Y-106155000D01*
X46222000Y-106344500D01*
X43344582Y-106344500D01*
X43262639Y-106228216D01*
X42368851Y-106138408D01*
X41917361Y-106228216D01*
X41723699Y-106503039D01*
X38825000Y-106503039D01*
X38825000Y-91602369D01*
X39784759Y-91602369D01*
X40077311Y-92040255D01*
X40587626Y-92405272D01*
X40825000Y-92301350D01*
X40825000Y-91365000D01*
X39896664Y-91365000D01*
X39784759Y-91602369D01*
X38825000Y-91602369D01*
X38825000Y-84419225D01*
X55012000Y-84419225D01*
X55012000Y-84630500D01*
X55201500Y-84820000D01*
X56020000Y-84820000D01*
X56020000Y-84001500D01*
X55830500Y-83812000D01*
X55619224Y-83812000D01*
X55340627Y-83927399D01*
X55127398Y-84140628D01*
X55012000Y-84419225D01*
X38825000Y-84419225D01*
X38825000Y-82825000D01*
X113790360Y-82825000D01*
X113670117Y-82905344D01*
G36*
X45113927Y-94480197D02*
X45755307Y-95322940D01*
X45755307Y-95800000D01*
X45807604Y-96077933D01*
X45971862Y-96333198D01*
X46222492Y-96504446D01*
X46245000Y-96509004D01*
X46245000Y-99200000D01*
X46315411Y-99553983D01*
X46355307Y-99613691D01*
X46355307Y-100525000D01*
X46407604Y-100802933D01*
X46571862Y-101058198D01*
X46822492Y-101229446D01*
X47120000Y-101289693D01*
X47845479Y-101289693D01*
X48121093Y-101565307D01*
X46980000Y-101565307D01*
X46702067Y-101617604D01*
X46446802Y-101781862D01*
X46275554Y-102032492D01*
X46250745Y-102155000D01*
X44854693Y-102155000D01*
X44854693Y-101850000D01*
X44802396Y-101572067D01*
X44638138Y-101316802D01*
X44465000Y-101198502D01*
X44465000Y-100941172D01*
X44617933Y-100912396D01*
X44873198Y-100748138D01*
X45044446Y-100497508D01*
X45104693Y-100200000D01*
X45104693Y-97200000D01*
X45052396Y-96922067D01*
X44888138Y-96666802D01*
X44640708Y-96497741D01*
X44873198Y-96348138D01*
X45044446Y-96097508D01*
X45104693Y-95800000D01*
X45104693Y-94461284D01*
X45113927Y-94480197D01*
X45113927Y-94480197D01*
G37*
X45113927Y-94480197D02*
X45755307Y-95322940D01*
X45755307Y-95800000D01*
X45807604Y-96077933D01*
X45971862Y-96333198D01*
X46222492Y-96504446D01*
X46245000Y-96509004D01*
X46245000Y-99200000D01*
X46315411Y-99553983D01*
X46355307Y-99613691D01*
X46355307Y-100525000D01*
X46407604Y-100802933D01*
X46571862Y-101058198D01*
X46822492Y-101229446D01*
X47120000Y-101289693D01*
X47845479Y-101289693D01*
X48121093Y-101565307D01*
X46980000Y-101565307D01*
X46702067Y-101617604D01*
X46446802Y-101781862D01*
X46275554Y-102032492D01*
X46250745Y-102155000D01*
X44854693Y-102155000D01*
X44854693Y-101850000D01*
X44802396Y-101572067D01*
X44638138Y-101316802D01*
X44465000Y-101198502D01*
X44465000Y-100941172D01*
X44617933Y-100912396D01*
X44873198Y-100748138D01*
X45044446Y-100497508D01*
X45104693Y-100200000D01*
X45104693Y-97200000D01*
X45052396Y-96922067D01*
X44888138Y-96666802D01*
X44640708Y-96497741D01*
X44873198Y-96348138D01*
X45044446Y-96097508D01*
X45104693Y-95800000D01*
X45104693Y-94461284D01*
X45113927Y-94480197D01*
G36*
X51622756Y-93218000D02*
X51415283Y-93356629D01*
X51068447Y-93875707D01*
X50946654Y-94488000D01*
X51068447Y-95100293D01*
X51415283Y-95619371D01*
X51934361Y-95966207D01*
X52463265Y-96071413D01*
X54045926Y-97654074D01*
X54235226Y-97780560D01*
X52515786Y-99500000D01*
X51950000Y-99500000D01*
X51878000Y-99514322D01*
X51878000Y-98649998D01*
X51566972Y-98649998D01*
X51549373Y-98632399D01*
X51270776Y-98517000D01*
X50934500Y-98517000D01*
X50745000Y-98706500D01*
X50745000Y-99587500D01*
X51120000Y-99587500D01*
X51120000Y-99915786D01*
X50823286Y-100212500D01*
X50745000Y-100212500D01*
X50745000Y-100290786D01*
X50575786Y-100460000D01*
X49995000Y-100460000D01*
X49995000Y-100212500D01*
X49620000Y-100212500D01*
X49620000Y-99587500D01*
X49995000Y-99587500D01*
X49995000Y-98706500D01*
X49805500Y-98517000D01*
X49469224Y-98517000D01*
X49190627Y-98632399D01*
X49173028Y-98649998D01*
X49033778Y-98649998D01*
X48917508Y-98570554D01*
X48620000Y-98510307D01*
X48095000Y-98510307D01*
X48095000Y-96512948D01*
X48097933Y-96512396D01*
X48353198Y-96348138D01*
X48444240Y-96214893D01*
X48487492Y-96244446D01*
X48785000Y-96304693D01*
X50035000Y-96304693D01*
X50312933Y-96252396D01*
X50568198Y-96088138D01*
X50739446Y-95837508D01*
X50799693Y-95540000D01*
X50799693Y-94040000D01*
X50747396Y-93762067D01*
X50602846Y-93537429D01*
X50739446Y-93337508D01*
X50764255Y-93215000D01*
X51618267Y-93215000D01*
X51622756Y-93218000D01*
X51622756Y-93218000D01*
G37*
X51622756Y-93218000D02*
X51415283Y-93356629D01*
X51068447Y-93875707D01*
X50946654Y-94488000D01*
X51068447Y-95100293D01*
X51415283Y-95619371D01*
X51934361Y-95966207D01*
X52463265Y-96071413D01*
X54045926Y-97654074D01*
X54235226Y-97780560D01*
X52515786Y-99500000D01*
X51950000Y-99500000D01*
X51878000Y-99514322D01*
X51878000Y-98649998D01*
X51566972Y-98649998D01*
X51549373Y-98632399D01*
X51270776Y-98517000D01*
X50934500Y-98517000D01*
X50745000Y-98706500D01*
X50745000Y-99587500D01*
X51120000Y-99587500D01*
X51120000Y-99915786D01*
X50823286Y-100212500D01*
X50745000Y-100212500D01*
X50745000Y-100290786D01*
X50575786Y-100460000D01*
X49995000Y-100460000D01*
X49995000Y-100212500D01*
X49620000Y-100212500D01*
X49620000Y-99587500D01*
X49995000Y-99587500D01*
X49995000Y-98706500D01*
X49805500Y-98517000D01*
X49469224Y-98517000D01*
X49190627Y-98632399D01*
X49173028Y-98649998D01*
X49033778Y-98649998D01*
X48917508Y-98570554D01*
X48620000Y-98510307D01*
X48095000Y-98510307D01*
X48095000Y-96512948D01*
X48097933Y-96512396D01*
X48353198Y-96348138D01*
X48444240Y-96214893D01*
X48487492Y-96244446D01*
X48785000Y-96304693D01*
X50035000Y-96304693D01*
X50312933Y-96252396D01*
X50568198Y-96088138D01*
X50739446Y-95837508D01*
X50799693Y-95540000D01*
X50799693Y-94040000D01*
X50747396Y-93762067D01*
X50602846Y-93537429D01*
X50739446Y-93337508D01*
X50764255Y-93215000D01*
X51618267Y-93215000D01*
X51622756Y-93218000D01*
G36*
X80701307Y-96313455D02*
X80701307Y-97170000D01*
X80753604Y-97447933D01*
X80917862Y-97703198D01*
X81168492Y-97874446D01*
X81466000Y-97934693D01*
X82148545Y-97934693D01*
X82530853Y-98317000D01*
X82274998Y-98317000D01*
X82274998Y-98503028D01*
X82132398Y-98645628D01*
X82017000Y-98924225D01*
X82017000Y-99198000D01*
X82206500Y-99387500D01*
X83150000Y-99387500D01*
X83150000Y-99075000D01*
X83349898Y-99075000D01*
X83466018Y-99152589D01*
X83820000Y-99223001D01*
X83820005Y-99223000D01*
X83900000Y-99223000D01*
X83900000Y-99387500D01*
X84275000Y-99387500D01*
X84275000Y-100012500D01*
X83900000Y-100012500D01*
X83900000Y-100275000D01*
X83150000Y-100275000D01*
X83150000Y-100012500D01*
X82206500Y-100012500D01*
X82017000Y-100202000D01*
X82017000Y-100275000D01*
X81683148Y-100275000D01*
X80654074Y-99245926D01*
X80353983Y-99045411D01*
X80000000Y-98975000D01*
X79733148Y-98975000D01*
X80154074Y-98554074D01*
X80354589Y-98253983D01*
X80425000Y-97900000D01*
X80425000Y-96037148D01*
X80701307Y-96313455D01*
X80701307Y-96313455D01*
G37*
X80701307Y-96313455D02*
X80701307Y-97170000D01*
X80753604Y-97447933D01*
X80917862Y-97703198D01*
X81168492Y-97874446D01*
X81466000Y-97934693D01*
X82148545Y-97934693D01*
X82530853Y-98317000D01*
X82274998Y-98317000D01*
X82274998Y-98503028D01*
X82132398Y-98645628D01*
X82017000Y-98924225D01*
X82017000Y-99198000D01*
X82206500Y-99387500D01*
X83150000Y-99387500D01*
X83150000Y-99075000D01*
X83349898Y-99075000D01*
X83466018Y-99152589D01*
X83820000Y-99223001D01*
X83820005Y-99223000D01*
X83900000Y-99223000D01*
X83900000Y-99387500D01*
X84275000Y-99387500D01*
X84275000Y-100012500D01*
X83900000Y-100012500D01*
X83900000Y-100275000D01*
X83150000Y-100275000D01*
X83150000Y-100012500D01*
X82206500Y-100012500D01*
X82017000Y-100202000D01*
X82017000Y-100275000D01*
X81683148Y-100275000D01*
X80654074Y-99245926D01*
X80353983Y-99045411D01*
X80000000Y-98975000D01*
X79733148Y-98975000D01*
X80154074Y-98554074D01*
X80354589Y-98253983D01*
X80425000Y-97900000D01*
X80425000Y-96037148D01*
X80701307Y-96313455D01*
G36*
X75509862Y-90009198D02*
X75760492Y-90180446D01*
X76058000Y-90240693D01*
X77358000Y-90240693D01*
X77635933Y-90188396D01*
X77891198Y-90024138D01*
X78027263Y-89825000D01*
X78835804Y-89825000D01*
X78985862Y-90058198D01*
X79236492Y-90229446D01*
X79534000Y-90289693D01*
X79702159Y-90289693D01*
X78845926Y-91145926D01*
X78645411Y-91446017D01*
X78590913Y-91720000D01*
X78575000Y-91800000D01*
X78575000Y-97516852D01*
X78016852Y-98075000D01*
X75483148Y-98075000D01*
X75265824Y-97857676D01*
X75321000Y-97802500D01*
X75321000Y-96734000D01*
X76571000Y-96734000D01*
X76571000Y-97802500D01*
X76760500Y-97992000D01*
X77346775Y-97992000D01*
X77625372Y-97876602D01*
X77838601Y-97663373D01*
X77954000Y-97384776D01*
X77954000Y-96923500D01*
X77764500Y-96734000D01*
X76571000Y-96734000D01*
X75321000Y-96734000D01*
X74696000Y-96734000D01*
X74696000Y-95734000D01*
X75321000Y-95734000D01*
X75321000Y-94665500D01*
X76571000Y-94665500D01*
X76571000Y-95734000D01*
X77764500Y-95734000D01*
X77954000Y-95544500D01*
X77954000Y-95083224D01*
X77838601Y-94804627D01*
X77625372Y-94591398D01*
X77346775Y-94476000D01*
X76760500Y-94476000D01*
X76571000Y-94665500D01*
X75321000Y-94665500D01*
X75131500Y-94476000D01*
X74545225Y-94476000D01*
X74266628Y-94591398D01*
X74053399Y-94804627D01*
X74025000Y-94873188D01*
X74025000Y-94253945D01*
X74061983Y-94246589D01*
X74362074Y-94046074D01*
X74457710Y-93950438D01*
X74696000Y-93998693D01*
X77196000Y-93998693D01*
X77473933Y-93946396D01*
X77729198Y-93782138D01*
X77900446Y-93531508D01*
X77960693Y-93234000D01*
X77960693Y-91234000D01*
X77908396Y-90956067D01*
X77744138Y-90700802D01*
X77493508Y-90529554D01*
X77196000Y-90469307D01*
X74696000Y-90469307D01*
X74662545Y-90475602D01*
X75360721Y-89777426D01*
X75509862Y-90009198D01*
X75509862Y-90009198D01*
G37*
X75509862Y-90009198D02*
X75760492Y-90180446D01*
X76058000Y-90240693D01*
X77358000Y-90240693D01*
X77635933Y-90188396D01*
X77891198Y-90024138D01*
X78027263Y-89825000D01*
X78835804Y-89825000D01*
X78985862Y-90058198D01*
X79236492Y-90229446D01*
X79534000Y-90289693D01*
X79702159Y-90289693D01*
X78845926Y-91145926D01*
X78645411Y-91446017D01*
X78590913Y-91720000D01*
X78575000Y-91800000D01*
X78575000Y-97516852D01*
X78016852Y-98075000D01*
X75483148Y-98075000D01*
X75265824Y-97857676D01*
X75321000Y-97802500D01*
X75321000Y-96734000D01*
X76571000Y-96734000D01*
X76571000Y-97802500D01*
X76760500Y-97992000D01*
X77346775Y-97992000D01*
X77625372Y-97876602D01*
X77838601Y-97663373D01*
X77954000Y-97384776D01*
X77954000Y-96923500D01*
X77764500Y-96734000D01*
X76571000Y-96734000D01*
X75321000Y-96734000D01*
X74696000Y-96734000D01*
X74696000Y-95734000D01*
X75321000Y-95734000D01*
X75321000Y-94665500D01*
X76571000Y-94665500D01*
X76571000Y-95734000D01*
X77764500Y-95734000D01*
X77954000Y-95544500D01*
X77954000Y-95083224D01*
X77838601Y-94804627D01*
X77625372Y-94591398D01*
X77346775Y-94476000D01*
X76760500Y-94476000D01*
X76571000Y-94665500D01*
X75321000Y-94665500D01*
X75131500Y-94476000D01*
X74545225Y-94476000D01*
X74266628Y-94591398D01*
X74053399Y-94804627D01*
X74025000Y-94873188D01*
X74025000Y-94253945D01*
X74061983Y-94246589D01*
X74362074Y-94046074D01*
X74457710Y-93950438D01*
X74696000Y-93998693D01*
X77196000Y-93998693D01*
X77473933Y-93946396D01*
X77729198Y-93782138D01*
X77900446Y-93531508D01*
X77960693Y-93234000D01*
X77960693Y-91234000D01*
X77908396Y-90956067D01*
X77744138Y-90700802D01*
X77493508Y-90529554D01*
X77196000Y-90469307D01*
X74696000Y-90469307D01*
X74662545Y-90475602D01*
X75360721Y-89777426D01*
X75509862Y-90009198D01*
G36*
X63821862Y-97233198D02*
X64072492Y-97404446D01*
X64370000Y-97464693D01*
X64676545Y-97464693D01*
X64886852Y-97675000D01*
X61660832Y-97675000D01*
X61864198Y-97544138D01*
X62035446Y-97293508D01*
X62060255Y-97171000D01*
X63781839Y-97171000D01*
X63821862Y-97233198D01*
X63821862Y-97233198D01*
G37*
X63821862Y-97233198D02*
X64072492Y-97404446D01*
X64370000Y-97464693D01*
X64676545Y-97464693D01*
X64886852Y-97675000D01*
X61660832Y-97675000D01*
X61864198Y-97544138D01*
X62035446Y-97293508D01*
X62060255Y-97171000D01*
X63781839Y-97171000D01*
X63821862Y-97233198D01*
G36*
X87537604Y-90101933D02*
X87701862Y-90357198D01*
X87798548Y-90423260D01*
X87716802Y-90475862D01*
X87545554Y-90726492D01*
X87485307Y-91024000D01*
X87485307Y-92524000D01*
X87537604Y-92801933D01*
X87701862Y-93057198D01*
X87952492Y-93228446D01*
X87975000Y-93233004D01*
X87975000Y-94291010D01*
X87908067Y-94303604D01*
X87652802Y-94467862D01*
X87481554Y-94718492D01*
X87421307Y-95016000D01*
X87421307Y-97373000D01*
X86389584Y-97373000D01*
X86430693Y-97170000D01*
X86430693Y-95870000D01*
X86378396Y-95592067D01*
X86269000Y-95422060D01*
X86269000Y-94646196D01*
X86502198Y-94496138D01*
X86673446Y-94245508D01*
X86733693Y-93948000D01*
X86733693Y-92448000D01*
X86681396Y-92170067D01*
X86536846Y-91945429D01*
X86673446Y-91745508D01*
X86733693Y-91448000D01*
X86733693Y-90616455D01*
X87351148Y-89999000D01*
X87518236Y-89999000D01*
X87537604Y-90101933D01*
X87537604Y-90101933D01*
G37*
X87537604Y-90101933D02*
X87701862Y-90357198D01*
X87798548Y-90423260D01*
X87716802Y-90475862D01*
X87545554Y-90726492D01*
X87485307Y-91024000D01*
X87485307Y-92524000D01*
X87537604Y-92801933D01*
X87701862Y-93057198D01*
X87952492Y-93228446D01*
X87975000Y-93233004D01*
X87975000Y-94291010D01*
X87908067Y-94303604D01*
X87652802Y-94467862D01*
X87481554Y-94718492D01*
X87421307Y-95016000D01*
X87421307Y-97373000D01*
X86389584Y-97373000D01*
X86430693Y-97170000D01*
X86430693Y-95870000D01*
X86378396Y-95592067D01*
X86269000Y-95422060D01*
X86269000Y-94646196D01*
X86502198Y-94496138D01*
X86673446Y-94245508D01*
X86733693Y-93948000D01*
X86733693Y-92448000D01*
X86681396Y-92170067D01*
X86536846Y-91945429D01*
X86673446Y-91745508D01*
X86733693Y-91448000D01*
X86733693Y-90616455D01*
X87351148Y-89999000D01*
X87518236Y-89999000D01*
X87537604Y-90101933D01*
G36*
X90238492Y-93228446D02*
X90264110Y-93233634D01*
X90331411Y-93571983D01*
X90531926Y-93872074D01*
X91456433Y-94796581D01*
X91428000Y-94865225D01*
X91428000Y-95451500D01*
X91617500Y-95641000D01*
X92686000Y-95641000D01*
X92686000Y-95159000D01*
X93686000Y-95159000D01*
X93686000Y-95641000D01*
X94754500Y-95641000D01*
X94773419Y-95622081D01*
X96635196Y-97057544D01*
X96745547Y-97112282D01*
X96762604Y-97202933D01*
X96872039Y-97373000D01*
X94944000Y-97373000D01*
X94944000Y-97080500D01*
X94754500Y-96891000D01*
X93686000Y-96891000D01*
X93686000Y-97373000D01*
X92686000Y-97373000D01*
X92686000Y-96891000D01*
X91617500Y-96891000D01*
X91428000Y-97080500D01*
X91428000Y-97373000D01*
X90950693Y-97373000D01*
X90950693Y-95016000D01*
X90898396Y-94738067D01*
X90734138Y-94482802D01*
X90483508Y-94311554D01*
X90186000Y-94251307D01*
X89825000Y-94251307D01*
X89825000Y-93236948D01*
X89827933Y-93236396D01*
X90045361Y-93096485D01*
X90238492Y-93228446D01*
X90238492Y-93228446D01*
G37*
X90238492Y-93228446D02*
X90264110Y-93233634D01*
X90331411Y-93571983D01*
X90531926Y-93872074D01*
X91456433Y-94796581D01*
X91428000Y-94865225D01*
X91428000Y-95451500D01*
X91617500Y-95641000D01*
X92686000Y-95641000D01*
X92686000Y-95159000D01*
X93686000Y-95159000D01*
X93686000Y-95641000D01*
X94754500Y-95641000D01*
X94773419Y-95622081D01*
X96635196Y-97057544D01*
X96745547Y-97112282D01*
X96762604Y-97202933D01*
X96872039Y-97373000D01*
X94944000Y-97373000D01*
X94944000Y-97080500D01*
X94754500Y-96891000D01*
X93686000Y-96891000D01*
X93686000Y-97373000D01*
X92686000Y-97373000D01*
X92686000Y-96891000D01*
X91617500Y-96891000D01*
X91428000Y-97080500D01*
X91428000Y-97373000D01*
X90950693Y-97373000D01*
X90950693Y-95016000D01*
X90898396Y-94738067D01*
X90734138Y-94482802D01*
X90483508Y-94311554D01*
X90186000Y-94251307D01*
X89825000Y-94251307D01*
X89825000Y-93236948D01*
X89827933Y-93236396D01*
X90045361Y-93096485D01*
X90238492Y-93228446D01*
G36*
X56811554Y-87772492D02*
X56751307Y-88070000D01*
X56751307Y-89570000D01*
X56803604Y-89847933D01*
X56967862Y-90103198D01*
X57064548Y-90169260D01*
X56982802Y-90221862D01*
X56811554Y-90472492D01*
X56751307Y-90770000D01*
X56751307Y-91626545D01*
X55479926Y-92897926D01*
X55279411Y-93198017D01*
X55230081Y-93446017D01*
X55209000Y-93552000D01*
X55209000Y-94215052D01*
X55206067Y-94215604D01*
X54950802Y-94379862D01*
X54779554Y-94630492D01*
X54719307Y-94928000D01*
X54719307Y-95711159D01*
X54091019Y-95082871D01*
X54209346Y-94488000D01*
X54087553Y-93875707D01*
X53740717Y-93356629D01*
X53533244Y-93218000D01*
X53740717Y-93079371D01*
X54087553Y-92560293D01*
X54209346Y-91948000D01*
X54087553Y-91335707D01*
X53802109Y-90908509D01*
X53961198Y-90806138D01*
X54132446Y-90555508D01*
X54192693Y-90258000D01*
X54192693Y-89355455D01*
X56009148Y-87539000D01*
X56971092Y-87539000D01*
X56811554Y-87772492D01*
X56811554Y-87772492D01*
G37*
X56811554Y-87772492D02*
X56751307Y-88070000D01*
X56751307Y-89570000D01*
X56803604Y-89847933D01*
X56967862Y-90103198D01*
X57064548Y-90169260D01*
X56982802Y-90221862D01*
X56811554Y-90472492D01*
X56751307Y-90770000D01*
X56751307Y-91626545D01*
X55479926Y-92897926D01*
X55279411Y-93198017D01*
X55230081Y-93446017D01*
X55209000Y-93552000D01*
X55209000Y-94215052D01*
X55206067Y-94215604D01*
X54950802Y-94379862D01*
X54779554Y-94630492D01*
X54719307Y-94928000D01*
X54719307Y-95711159D01*
X54091019Y-95082871D01*
X54209346Y-94488000D01*
X54087553Y-93875707D01*
X53740717Y-93356629D01*
X53533244Y-93218000D01*
X53740717Y-93079371D01*
X54087553Y-92560293D01*
X54209346Y-91948000D01*
X54087553Y-91335707D01*
X53802109Y-90908509D01*
X53961198Y-90806138D01*
X54132446Y-90555508D01*
X54192693Y-90258000D01*
X54192693Y-89355455D01*
X56009148Y-87539000D01*
X56971092Y-87539000D01*
X56811554Y-87772492D01*
G36*
X62499176Y-88191324D02*
X62439000Y-88251500D01*
X62439000Y-89020000D01*
X62575000Y-89020000D01*
X62575000Y-89420000D01*
X62439000Y-89420000D01*
X62439000Y-89586852D01*
X62405852Y-89620000D01*
X61989000Y-89620000D01*
X61989000Y-89420000D01*
X61764000Y-89420000D01*
X61764000Y-89020000D01*
X61989000Y-89020000D01*
X61989000Y-88251500D01*
X61799500Y-88062000D01*
X61764000Y-88062000D01*
X61764000Y-87969998D01*
X61006000Y-87969998D01*
X61006000Y-89095954D01*
X60961508Y-89065554D01*
X60664000Y-89005307D01*
X60357455Y-89005307D01*
X59580693Y-88228545D01*
X59580693Y-88070000D01*
X59528396Y-87792067D01*
X59365552Y-87539000D01*
X61846852Y-87539000D01*
X62499176Y-88191324D01*
X62499176Y-88191324D01*
G37*
X62499176Y-88191324D02*
X62439000Y-88251500D01*
X62439000Y-89020000D01*
X62575000Y-89020000D01*
X62575000Y-89420000D01*
X62439000Y-89420000D01*
X62439000Y-89586852D01*
X62405852Y-89620000D01*
X61989000Y-89620000D01*
X61989000Y-89420000D01*
X61764000Y-89420000D01*
X61764000Y-89020000D01*
X61989000Y-89020000D01*
X61989000Y-88251500D01*
X61799500Y-88062000D01*
X61764000Y-88062000D01*
X61764000Y-87969998D01*
X61006000Y-87969998D01*
X61006000Y-89095954D01*
X60961508Y-89065554D01*
X60664000Y-89005307D01*
X60357455Y-89005307D01*
X59580693Y-88228545D01*
X59580693Y-88070000D01*
X59528396Y-87792067D01*
X59365552Y-87539000D01*
X61846852Y-87539000D01*
X62499176Y-88191324D01*
M02*
