G04 #@! TF.FileFunction,Legend,Bot*
%FSLAX46Y46*%
G04 Gerber Fmt 4.6, Leading zero omitted, Abs format (unit mm)*
G04 Created by KiCad (PCBNEW 4.0.7) date 04/19/20 14:30:36*
%MOMM*%
%LPD*%
G01*
G04 APERTURE LIST*
%ADD10C,0.100000*%
%ADD11C,0.150000*%
G04 APERTURE END LIST*
D10*
D11*
X107052762Y-91147762D02*
X106909905Y-91195381D01*
X106671809Y-91195381D01*
X106576571Y-91147762D01*
X106528952Y-91100143D01*
X106481333Y-91004905D01*
X106481333Y-90909667D01*
X106528952Y-90814429D01*
X106576571Y-90766810D01*
X106671809Y-90719190D01*
X106862286Y-90671571D01*
X106957524Y-90623952D01*
X107005143Y-90576333D01*
X107052762Y-90481095D01*
X107052762Y-90385857D01*
X107005143Y-90290619D01*
X106957524Y-90243000D01*
X106862286Y-90195381D01*
X106624190Y-90195381D01*
X106481333Y-90243000D01*
X106052762Y-91195381D02*
X106052762Y-90195381D01*
X105576572Y-91195381D02*
X105576572Y-90195381D01*
X105005143Y-91195381D01*
X105005143Y-90195381D01*
X104005143Y-90243000D02*
X104100381Y-90195381D01*
X104243238Y-90195381D01*
X104386096Y-90243000D01*
X104481334Y-90338238D01*
X104528953Y-90433476D01*
X104576572Y-90623952D01*
X104576572Y-90766810D01*
X104528953Y-90957286D01*
X104481334Y-91052524D01*
X104386096Y-91147762D01*
X104243238Y-91195381D01*
X104148000Y-91195381D01*
X104005143Y-91147762D01*
X103957524Y-91100143D01*
X103957524Y-90766810D01*
X104148000Y-90766810D01*
X103052762Y-91195381D02*
X103528953Y-91195381D01*
X103528953Y-90195381D01*
X102719429Y-90671571D02*
X102386095Y-90671571D01*
X102243238Y-91195381D02*
X102719429Y-91195381D01*
X102719429Y-90195381D01*
X102243238Y-90195381D01*
X106528952Y-92321571D02*
X106386095Y-92369190D01*
X106338476Y-92416810D01*
X106290857Y-92512048D01*
X106290857Y-92654905D01*
X106338476Y-92750143D01*
X106386095Y-92797762D01*
X106481333Y-92845381D01*
X106862286Y-92845381D01*
X106862286Y-91845381D01*
X106528952Y-91845381D01*
X106433714Y-91893000D01*
X106386095Y-91940619D01*
X106338476Y-92035857D01*
X106338476Y-92131095D01*
X106386095Y-92226333D01*
X106433714Y-92273952D01*
X106528952Y-92321571D01*
X106862286Y-92321571D01*
X105671810Y-91845381D02*
X105481333Y-91845381D01*
X105386095Y-91893000D01*
X105290857Y-91988238D01*
X105243238Y-92178714D01*
X105243238Y-92512048D01*
X105290857Y-92702524D01*
X105386095Y-92797762D01*
X105481333Y-92845381D01*
X105671810Y-92845381D01*
X105767048Y-92797762D01*
X105862286Y-92702524D01*
X105909905Y-92512048D01*
X105909905Y-92178714D01*
X105862286Y-91988238D01*
X105767048Y-91893000D01*
X105671810Y-91845381D01*
X104862286Y-92559667D02*
X104386095Y-92559667D01*
X104957524Y-92845381D02*
X104624191Y-91845381D01*
X104290857Y-92845381D01*
X103386095Y-92845381D02*
X103719429Y-92369190D01*
X103957524Y-92845381D02*
X103957524Y-91845381D01*
X103576571Y-91845381D01*
X103481333Y-91893000D01*
X103433714Y-91940619D01*
X103386095Y-92035857D01*
X103386095Y-92178714D01*
X103433714Y-92273952D01*
X103481333Y-92321571D01*
X103576571Y-92369190D01*
X103957524Y-92369190D01*
X102957524Y-92845381D02*
X102957524Y-91845381D01*
X102719429Y-91845381D01*
X102576571Y-91893000D01*
X102481333Y-91988238D01*
X102433714Y-92083476D01*
X102386095Y-92273952D01*
X102386095Y-92416810D01*
X102433714Y-92607286D01*
X102481333Y-92702524D01*
X102576571Y-92797762D01*
X102719429Y-92845381D01*
X102957524Y-92845381D01*
X106909905Y-94447762D02*
X106767048Y-94495381D01*
X106528952Y-94495381D01*
X106433714Y-94447762D01*
X106386095Y-94400143D01*
X106338476Y-94304905D01*
X106338476Y-94209667D01*
X106386095Y-94114429D01*
X106433714Y-94066810D01*
X106528952Y-94019190D01*
X106719429Y-93971571D01*
X106814667Y-93923952D01*
X106862286Y-93876333D01*
X106909905Y-93781095D01*
X106909905Y-93685857D01*
X106862286Y-93590619D01*
X106814667Y-93543000D01*
X106719429Y-93495381D01*
X106481333Y-93495381D01*
X106338476Y-93543000D01*
X105909905Y-93495381D02*
X105909905Y-94304905D01*
X105862286Y-94400143D01*
X105814667Y-94447762D01*
X105719429Y-94495381D01*
X105528952Y-94495381D01*
X105433714Y-94447762D01*
X105386095Y-94400143D01*
X105338476Y-94304905D01*
X105338476Y-93495381D01*
X104862286Y-94495381D02*
X104862286Y-93495381D01*
X104481333Y-93495381D01*
X104386095Y-93543000D01*
X104338476Y-93590619D01*
X104290857Y-93685857D01*
X104290857Y-93828714D01*
X104338476Y-93923952D01*
X104386095Y-93971571D01*
X104481333Y-94019190D01*
X104862286Y-94019190D01*
X103862286Y-93971571D02*
X103528952Y-93971571D01*
X103386095Y-94495381D02*
X103862286Y-94495381D01*
X103862286Y-93495381D01*
X103386095Y-93495381D01*
X102386095Y-94495381D02*
X102719429Y-94019190D01*
X102957524Y-94495381D02*
X102957524Y-93495381D01*
X102576571Y-93495381D01*
X102481333Y-93543000D01*
X102433714Y-93590619D01*
X102386095Y-93685857D01*
X102386095Y-93828714D01*
X102433714Y-93923952D01*
X102481333Y-93971571D01*
X102576571Y-94019190D01*
X102957524Y-94019190D01*
X106886095Y-96145381D02*
X106886095Y-95145381D01*
X106505142Y-95145381D01*
X106409904Y-95193000D01*
X106362285Y-95240619D01*
X106314666Y-95335857D01*
X106314666Y-95478714D01*
X106362285Y-95573952D01*
X106409904Y-95621571D01*
X106505142Y-95669190D01*
X106886095Y-95669190D01*
X105314666Y-96145381D02*
X105648000Y-95669190D01*
X105886095Y-96145381D02*
X105886095Y-95145381D01*
X105505142Y-95145381D01*
X105409904Y-95193000D01*
X105362285Y-95240619D01*
X105314666Y-95335857D01*
X105314666Y-95478714D01*
X105362285Y-95573952D01*
X105409904Y-95621571D01*
X105505142Y-95669190D01*
X105886095Y-95669190D01*
X104695619Y-95145381D02*
X104505142Y-95145381D01*
X104409904Y-95193000D01*
X104314666Y-95288238D01*
X104267047Y-95478714D01*
X104267047Y-95812048D01*
X104314666Y-96002524D01*
X104409904Y-96097762D01*
X104505142Y-96145381D01*
X104695619Y-96145381D01*
X104790857Y-96097762D01*
X104886095Y-96002524D01*
X104933714Y-95812048D01*
X104933714Y-95478714D01*
X104886095Y-95288238D01*
X104790857Y-95193000D01*
X104695619Y-95145381D01*
X103505142Y-95621571D02*
X103362285Y-95669190D01*
X103314666Y-95716810D01*
X103267047Y-95812048D01*
X103267047Y-95954905D01*
X103314666Y-96050143D01*
X103362285Y-96097762D01*
X103457523Y-96145381D01*
X103838476Y-96145381D01*
X103838476Y-95145381D01*
X103505142Y-95145381D01*
X103409904Y-95193000D01*
X103362285Y-95240619D01*
X103314666Y-95335857D01*
X103314666Y-95431095D01*
X103362285Y-95526333D01*
X103409904Y-95573952D01*
X103505142Y-95621571D01*
X103838476Y-95621571D01*
X102838476Y-95621571D02*
X102505142Y-95621571D01*
X102362285Y-96145381D02*
X102838476Y-96145381D01*
X102838476Y-95145381D01*
X102362285Y-95145381D01*
M02*
