G04 #@! TF.FileFunction,Soldermask,Top*
%FSLAX46Y46*%
G04 Gerber Fmt 4.6, Leading zero omitted, Abs format (unit mm)*
G04 Created by KiCad (PCBNEW 4.0.7) date 04/19/20 01:40:25*
%MOMM*%
%LPD*%
G01*
G04 APERTURE LIST*
%ADD10C,0.100000*%
%ADD11C,3.400000*%
%ADD12R,3.400000X3.400000*%
%ADD13R,1.900000X1.650000*%
%ADD14R,2.400000X2.900000*%
%ADD15R,1.650000X1.900000*%
%ADD16R,2.900000X2.400000*%
%ADD17R,1.400000X1.400000*%
%ADD18R,1.700000X1.900000*%
%ADD19R,2.100000X2.100000*%
%ADD20O,2.100000X2.100000*%
%ADD21R,1.300000X1.200000*%
%ADD22R,1.200000X1.300000*%
%ADD23R,1.900000X1.700000*%
%ADD24C,2.900000*%
%ADD25O,4.900000X1.400000*%
%ADD26O,1.400000X4.900000*%
%ADD27C,4.400000*%
%ADD28R,2.000000X3.400000*%
%ADD29C,0.254000*%
G04 APERTURE END LIST*
D10*
D11*
X71544000Y-112776000D03*
D12*
X51054000Y-112776000D03*
D11*
X50292000Y-117602000D03*
X46482000Y-117602000D03*
X42672000Y-117602000D03*
X50292000Y-122428000D03*
X46482000Y-122428000D03*
X42672000Y-122428000D03*
X101770000Y-112776000D03*
D12*
X81280000Y-112776000D03*
D13*
X109200000Y-98552000D03*
X106700000Y-98552000D03*
D14*
X110204000Y-93472000D03*
X106204000Y-93472000D03*
D13*
X96540000Y-91948000D03*
X99040000Y-91948000D03*
D14*
X89186000Y-97282000D03*
X93186000Y-97282000D03*
D15*
X85344000Y-93198000D03*
X85344000Y-90698000D03*
D13*
X80792000Y-88900000D03*
X83292000Y-88900000D03*
D16*
X75946000Y-96488000D03*
X75946000Y-92488000D03*
D15*
X60706000Y-93746000D03*
X60706000Y-96246000D03*
X102870000Y-96286000D03*
X102870000Y-98786000D03*
X49410000Y-94790000D03*
X49410000Y-92290000D03*
D17*
X109220000Y-103104000D03*
X109220000Y-100604000D03*
X106934000Y-100604000D03*
X106934000Y-103104000D03*
X56134000Y-90404000D03*
X56134000Y-87904000D03*
D18*
X58420000Y-92884000D03*
X58420000Y-95584000D03*
D17*
X58420000Y-87904000D03*
X58420000Y-90404000D03*
D19*
X42418000Y-88392000D03*
D20*
X42418000Y-90932000D03*
D21*
X104124000Y-93914000D03*
X104124000Y-92014000D03*
X102124000Y-92964000D03*
X93375000Y-91825000D03*
X93375000Y-89925000D03*
X91375000Y-90875000D03*
X83042000Y-94168000D03*
X83042000Y-92268000D03*
X81042000Y-93218000D03*
D22*
X65720000Y-94250000D03*
X63820000Y-94250000D03*
X64770000Y-96250000D03*
D21*
X63484000Y-92136000D03*
X63484000Y-90236000D03*
X61484000Y-91186000D03*
D22*
X49972000Y-87392000D03*
X48072000Y-87392000D03*
X49022000Y-89392000D03*
D23*
X109300000Y-96266000D03*
X106600000Y-96266000D03*
D18*
X99822000Y-97616000D03*
X99822000Y-94916000D03*
D23*
X96450000Y-89700000D03*
X99150000Y-89700000D03*
X91360000Y-93726000D03*
X94060000Y-93726000D03*
D18*
X96012000Y-97870000D03*
X96012000Y-95170000D03*
X89154000Y-94060000D03*
X89154000Y-91360000D03*
D23*
X82216000Y-96520000D03*
X84916000Y-96520000D03*
X85775000Y-88725000D03*
X88475000Y-88725000D03*
D18*
X68072000Y-96600000D03*
X68072000Y-93900000D03*
D23*
X78058000Y-89154000D03*
X75358000Y-89154000D03*
D18*
X73100000Y-99250000D03*
X73100000Y-96550000D03*
X70358000Y-93900000D03*
X70358000Y-96600000D03*
X56134000Y-98378000D03*
X56134000Y-95678000D03*
X47498000Y-94822000D03*
X47498000Y-92122000D03*
X44958000Y-90504000D03*
X44958000Y-87804000D03*
D24*
X72096000Y-89114000D03*
X67056000Y-91614000D03*
X67056000Y-86614000D03*
D19*
X52578000Y-89408000D03*
D20*
X52578000Y-91948000D03*
X52578000Y-94488000D03*
D13*
X50272000Y-98552000D03*
X47772000Y-98552000D03*
X69300000Y-100400000D03*
X66800000Y-100400000D03*
X83525000Y-99700000D03*
X86025000Y-99700000D03*
D24*
X135430000Y-104160000D03*
D25*
X134620000Y-100076000D03*
X129200000Y-100200000D03*
X123800000Y-100200000D03*
X118200000Y-100200000D03*
D26*
X114554000Y-97028000D03*
X114554000Y-91440000D03*
X114554000Y-85598000D03*
X114350000Y-110775000D03*
D25*
X118200000Y-107700000D03*
X123950000Y-107725000D03*
X129300000Y-107750000D03*
X134620000Y-107696000D03*
D26*
X114460000Y-116780000D03*
X114600000Y-122690000D03*
D27*
X81280000Y-121158000D03*
D13*
X57892000Y-123444000D03*
X55392000Y-123444000D03*
X43708000Y-112522000D03*
X46208000Y-112522000D03*
D12*
X44450000Y-103886000D03*
D11*
X44450000Y-108966000D03*
D28*
X43540000Y-94300000D03*
X43540000Y-98700000D03*
D18*
X50038000Y-104060000D03*
X50038000Y-106760000D03*
D29*
G36*
X39164535Y-82650773D02*
X39182143Y-82652000D01*
X113748000Y-82652000D01*
X113748000Y-84698000D01*
X113475000Y-84698000D01*
X113425590Y-84708006D01*
X113383965Y-84736447D01*
X113356685Y-84778841D01*
X113348000Y-84825000D01*
X113348000Y-101350000D01*
X113358006Y-101399410D01*
X113386447Y-101441035D01*
X113428841Y-101468315D01*
X113475000Y-101477000D01*
X133048000Y-101477000D01*
X133048000Y-103223000D01*
X113475000Y-103223000D01*
X113425590Y-103233006D01*
X113403645Y-103248000D01*
X111702000Y-103248000D01*
X111702000Y-84825000D01*
X111691994Y-84775590D01*
X111663553Y-84733965D01*
X111621159Y-84706685D01*
X111575000Y-84698000D01*
X40075000Y-84698000D01*
X40025590Y-84708006D01*
X39983965Y-84736447D01*
X39956685Y-84778841D01*
X39948003Y-84825807D01*
X40202003Y-124792807D01*
X40212322Y-124842153D01*
X40241027Y-124883596D01*
X40283594Y-124910606D01*
X40329000Y-124919000D01*
X111954000Y-124919000D01*
X112003410Y-124908994D01*
X112045035Y-124880553D01*
X112072315Y-124838159D01*
X112080988Y-124790222D01*
X111826988Y-106648222D01*
X111816291Y-106598957D01*
X111787270Y-106557735D01*
X111777000Y-106551328D01*
X111777000Y-105102000D01*
X133148000Y-105102000D01*
X133148000Y-106523000D01*
X113450000Y-106523000D01*
X113400590Y-106533006D01*
X113358965Y-106561447D01*
X113331685Y-106603841D01*
X113323000Y-106650000D01*
X113323000Y-126498000D01*
X111827000Y-126498000D01*
X111827000Y-126450000D01*
X111816994Y-126400590D01*
X111788553Y-126358965D01*
X111746159Y-126331685D01*
X111700000Y-126323000D01*
X40075000Y-126323000D01*
X40025590Y-126333006D01*
X39983965Y-126361447D01*
X39976531Y-126373000D01*
X38502000Y-126373000D01*
X38502000Y-82602000D01*
X38816156Y-82602000D01*
X39164535Y-82650773D01*
X39164535Y-82650773D01*
G37*
X39164535Y-82650773D02*
X39182143Y-82652000D01*
X113748000Y-82652000D01*
X113748000Y-84698000D01*
X113475000Y-84698000D01*
X113425590Y-84708006D01*
X113383965Y-84736447D01*
X113356685Y-84778841D01*
X113348000Y-84825000D01*
X113348000Y-101350000D01*
X113358006Y-101399410D01*
X113386447Y-101441035D01*
X113428841Y-101468315D01*
X113475000Y-101477000D01*
X133048000Y-101477000D01*
X133048000Y-103223000D01*
X113475000Y-103223000D01*
X113425590Y-103233006D01*
X113403645Y-103248000D01*
X111702000Y-103248000D01*
X111702000Y-84825000D01*
X111691994Y-84775590D01*
X111663553Y-84733965D01*
X111621159Y-84706685D01*
X111575000Y-84698000D01*
X40075000Y-84698000D01*
X40025590Y-84708006D01*
X39983965Y-84736447D01*
X39956685Y-84778841D01*
X39948003Y-84825807D01*
X40202003Y-124792807D01*
X40212322Y-124842153D01*
X40241027Y-124883596D01*
X40283594Y-124910606D01*
X40329000Y-124919000D01*
X111954000Y-124919000D01*
X112003410Y-124908994D01*
X112045035Y-124880553D01*
X112072315Y-124838159D01*
X112080988Y-124790222D01*
X111826988Y-106648222D01*
X111816291Y-106598957D01*
X111787270Y-106557735D01*
X111777000Y-106551328D01*
X111777000Y-105102000D01*
X133148000Y-105102000D01*
X133148000Y-106523000D01*
X113450000Y-106523000D01*
X113400590Y-106533006D01*
X113358965Y-106561447D01*
X113331685Y-106603841D01*
X113323000Y-106650000D01*
X113323000Y-126498000D01*
X111827000Y-126498000D01*
X111827000Y-126450000D01*
X111816994Y-126400590D01*
X111788553Y-126358965D01*
X111746159Y-126331685D01*
X111700000Y-126323000D01*
X40075000Y-126323000D01*
X40025590Y-126333006D01*
X39983965Y-126361447D01*
X39976531Y-126373000D01*
X38502000Y-126373000D01*
X38502000Y-82602000D01*
X38816156Y-82602000D01*
X39164535Y-82650773D01*
M02*
