G04 #@! TF.FileFunction,Copper,L2,Bot,Signal*
%FSLAX46Y46*%
G04 Gerber Fmt 4.6, Leading zero omitted, Abs format (unit mm)*
G04 Created by KiCad (PCBNEW 4.0.7) date 05/06/20 19:10:42*
%MOMM*%
%LPD*%
G01*
G04 APERTURE LIST*
%ADD10C,0.100000*%
%ADD11C,3.000000*%
%ADD12C,2.500000*%
%ADD13C,0.600000*%
%ADD14C,0.350000*%
%ADD15C,0.500000*%
G04 APERTURE END LIST*
D10*
D11*
X91100000Y-109850000D03*
X91100000Y-106040000D03*
X91100000Y-102230000D03*
X86274000Y-109850000D03*
X86274000Y-106040000D03*
X86274000Y-102230000D03*
D12*
X73700000Y-92440000D03*
X71200000Y-87400000D03*
X76200000Y-87400000D03*
D11*
X53850000Y-93450000D03*
X53850000Y-89640000D03*
X53850000Y-85830000D03*
X49024000Y-93450000D03*
X49024000Y-89640000D03*
X49024000Y-85830000D03*
D12*
X44750000Y-84600000D03*
X69088000Y-105918000D03*
X95800000Y-104600000D03*
X95650000Y-109825000D03*
X69088000Y-109982000D03*
D13*
X63500000Y-95050000D03*
X66110000Y-104870000D03*
X72100000Y-106200000D03*
X71950000Y-104950000D03*
X73100000Y-103400000D03*
X73900000Y-103450000D03*
X73250000Y-101400000D03*
X71600000Y-108900000D03*
X70950000Y-109600000D03*
X49550000Y-107100000D03*
X71100000Y-98450000D03*
X71100000Y-97500000D03*
X71050000Y-95250000D03*
X71200000Y-93750000D03*
X71700000Y-92650000D03*
X71950000Y-91200000D03*
X71150000Y-90350000D03*
X72750000Y-88550000D03*
X73250000Y-86500000D03*
X73150000Y-84250000D03*
X56900000Y-101450000D03*
X58250000Y-101600000D03*
X59950000Y-101600000D03*
X61750000Y-101500000D03*
X62900000Y-101300000D03*
X50200000Y-98850000D03*
X48850000Y-98300000D03*
X47500000Y-97700000D03*
X96875000Y-85300000D03*
X96300000Y-83525000D03*
X72300000Y-107750000D03*
X80300000Y-109450000D03*
X114350000Y-99000000D03*
X115900000Y-98900000D03*
X118400000Y-99000000D03*
X120150000Y-99150000D03*
X122400000Y-99050000D03*
X124650000Y-99050000D03*
X126700000Y-99150000D03*
X128850000Y-99150000D03*
X130700000Y-99200000D03*
X132500000Y-99250000D03*
X134200000Y-99100000D03*
X135800000Y-99050000D03*
X135800000Y-96500000D03*
X133650000Y-96450000D03*
X132300000Y-96450000D03*
X130650000Y-96450000D03*
X128800000Y-96500000D03*
X126700000Y-96500000D03*
X124850000Y-96500000D03*
X123050000Y-96600000D03*
X120950000Y-96550000D03*
X119050000Y-96600000D03*
X116900000Y-96500000D03*
X115250000Y-96550000D03*
X113600000Y-96550000D03*
X105918000Y-96774000D03*
X102100000Y-86200000D03*
X108458000Y-90170000D03*
X108966000Y-93726000D03*
X91948000Y-97790000D03*
X106172000Y-99060000D03*
X46228000Y-96520000D03*
X45212000Y-95758000D03*
X43942000Y-95504000D03*
X60550000Y-85050000D03*
X60550000Y-84200000D03*
X63450000Y-93500000D03*
X63450000Y-91150000D03*
X62350000Y-89900000D03*
X63250000Y-99400000D03*
X62000000Y-88000000D03*
X63000000Y-87000000D03*
X64400000Y-86900000D03*
X65400000Y-86500000D03*
X66900000Y-86500000D03*
X68400000Y-86400000D03*
X80700000Y-90200000D03*
X79900000Y-87900000D03*
X79900000Y-86400000D03*
X77750000Y-84350000D03*
X81300000Y-97200000D03*
X81000000Y-95100000D03*
X80500000Y-93500000D03*
X80500000Y-91700000D03*
X90200000Y-97800000D03*
X90100000Y-95700000D03*
X90100000Y-93600000D03*
X90200000Y-91500000D03*
X90200000Y-89800000D03*
X90100000Y-88400000D03*
X90400000Y-85200000D03*
X90500000Y-83900000D03*
X99300000Y-97900000D03*
X98900000Y-96300000D03*
X100000000Y-94800000D03*
X100600000Y-93900000D03*
X100600000Y-90900000D03*
X100300000Y-89000000D03*
X102700000Y-100300000D03*
X67100000Y-99900000D03*
X68400000Y-99900000D03*
X69900000Y-100000000D03*
X70900000Y-100700000D03*
X72300000Y-100700000D03*
X73800000Y-100700000D03*
X75500000Y-100700000D03*
X77000000Y-100700000D03*
X78400000Y-100700000D03*
X80600000Y-100700000D03*
X81600000Y-99900000D03*
X83475000Y-100075000D03*
X84650000Y-100100000D03*
X85900000Y-100100000D03*
X87600000Y-100000000D03*
X89000000Y-99600000D03*
X90800000Y-99600000D03*
X92700000Y-99700000D03*
X94400000Y-99700000D03*
X96000000Y-99700000D03*
X97900000Y-99800000D03*
X99800000Y-99900000D03*
X104400000Y-100800000D03*
X106000000Y-100800000D03*
X107700000Y-100600000D03*
X108900000Y-100500000D03*
X110800000Y-100400000D03*
X51500000Y-98900000D03*
X53340000Y-100076000D03*
X54610000Y-100330000D03*
X55550000Y-100950000D03*
X63700000Y-100500000D03*
X64500000Y-99900000D03*
X66000000Y-100000000D03*
X112500000Y-107000000D03*
X112500000Y-109000000D03*
X112500000Y-111000000D03*
X112000000Y-113000000D03*
X110500000Y-112500000D03*
X108000000Y-112500000D03*
X106500000Y-112500000D03*
X104000000Y-112500000D03*
X101500000Y-112500000D03*
X98000000Y-112500000D03*
X95500000Y-112500000D03*
X92500000Y-112500000D03*
X89500000Y-112500000D03*
X87000000Y-112500000D03*
X83500000Y-112500000D03*
X80000000Y-112500000D03*
X76500000Y-112500000D03*
X74500000Y-112500000D03*
X71500000Y-112500000D03*
X68000000Y-112500000D03*
X65000000Y-112500000D03*
X61500000Y-112500000D03*
X57500000Y-112500000D03*
X53500000Y-112500000D03*
X50500000Y-113000000D03*
X47500000Y-112500000D03*
X43500000Y-113000000D03*
X42000000Y-111000000D03*
X42500000Y-108000000D03*
X42000000Y-105500000D03*
X42500000Y-103000000D03*
X43000000Y-100000000D03*
X112500000Y-105000000D03*
X43000000Y-97000000D03*
X43000000Y-95000000D03*
X43000000Y-93000000D03*
X43000000Y-91000000D03*
X42500000Y-89000000D03*
X43000000Y-87000000D03*
X42500000Y-85000000D03*
X42500000Y-83500000D03*
X43500000Y-82500000D03*
X46000000Y-82500000D03*
X48000000Y-82500000D03*
X51500000Y-82500000D03*
X55000000Y-82500000D03*
X58000000Y-83000000D03*
X60500000Y-83000000D03*
X63350000Y-82250000D03*
X65900000Y-82250000D03*
X68900000Y-82250000D03*
X71000000Y-82200000D03*
X74500000Y-82200000D03*
X77000000Y-82500000D03*
X79000000Y-82250000D03*
X81000000Y-82250000D03*
X83000000Y-82200000D03*
X85000000Y-82200000D03*
X86750000Y-82450000D03*
X89000000Y-81992000D03*
X93000000Y-81992000D03*
X95500000Y-81992000D03*
X98000000Y-81992000D03*
X100584000Y-81788000D03*
X103000000Y-81992000D03*
X105500000Y-81992000D03*
X107254000Y-81992000D03*
X109508000Y-81738000D03*
X112014000Y-82042000D03*
X112500000Y-84500000D03*
X112500000Y-87000000D03*
X112500000Y-89000000D03*
X112500000Y-90500000D03*
X112500000Y-92500000D03*
X112500000Y-94500000D03*
X112500000Y-96000000D03*
X112500000Y-99000000D03*
X112500000Y-100500000D03*
X112500000Y-102000000D03*
X112500000Y-103500000D03*
D14*
X68000000Y-112500000D02*
X68000000Y-111070000D01*
X68000000Y-111070000D02*
X69088000Y-109982000D01*
X72300000Y-107750000D02*
X72300000Y-106400000D01*
X72300000Y-106400000D02*
X72100000Y-106200000D01*
X71950000Y-104950000D02*
X73100000Y-103800000D01*
X73100000Y-103800000D02*
X73100000Y-103400000D01*
X73900000Y-103450000D02*
X73250000Y-102800000D01*
X73250000Y-102800000D02*
X73250000Y-101400000D01*
X69088000Y-109982000D02*
X70568000Y-109982000D01*
X72300000Y-108200000D02*
X72300000Y-107750000D01*
X71600000Y-108900000D02*
X72300000Y-108200000D01*
X70568000Y-109982000D02*
X70950000Y-109600000D01*
X69900000Y-100000000D02*
X70100000Y-100000000D01*
X70100000Y-100000000D02*
X71100000Y-99000000D01*
X71100000Y-99000000D02*
X71100000Y-98450000D01*
X71100000Y-97500000D02*
X71050000Y-97450000D01*
X71050000Y-97450000D02*
X71050000Y-95250000D01*
X71200000Y-93750000D02*
X71700000Y-93250000D01*
X71700000Y-93250000D02*
X71700000Y-92650000D01*
X73700000Y-92440000D02*
X73190000Y-92440000D01*
X73190000Y-92440000D02*
X71950000Y-91200000D01*
X71150000Y-90350000D02*
X72750000Y-88750000D01*
X72750000Y-88750000D02*
X72750000Y-88550000D01*
X73250000Y-86500000D02*
X73150000Y-86400000D01*
X73150000Y-86400000D02*
X73150000Y-84250000D01*
X56900000Y-101450000D02*
X57050000Y-101600000D01*
X57050000Y-101600000D02*
X58250000Y-101600000D01*
X59950000Y-101600000D02*
X60050000Y-101500000D01*
X60050000Y-101500000D02*
X61750000Y-101500000D01*
X62900000Y-101300000D02*
X63700000Y-100500000D01*
X51500000Y-98900000D02*
X50250000Y-98900000D01*
X50250000Y-98900000D02*
X50200000Y-98850000D01*
X48850000Y-98300000D02*
X48250000Y-97700000D01*
X48250000Y-97700000D02*
X47500000Y-97700000D01*
X100300000Y-89000000D02*
X99825000Y-89000000D01*
X99825000Y-89000000D02*
X96875000Y-86050000D01*
X96875000Y-86050000D02*
X96875000Y-85300000D01*
X96300000Y-83525000D02*
X95500000Y-82725000D01*
X95500000Y-82725000D02*
X95500000Y-81992000D01*
X99800000Y-99900000D02*
X99900000Y-99900000D01*
X114350000Y-99000000D02*
X112500000Y-99000000D01*
X118300000Y-98900000D02*
X115900000Y-98900000D01*
X118400000Y-99000000D02*
X118300000Y-98900000D01*
X122300000Y-99150000D02*
X120150000Y-99150000D01*
X122400000Y-99050000D02*
X122300000Y-99150000D01*
X126600000Y-99050000D02*
X124650000Y-99050000D01*
X126700000Y-99150000D02*
X126600000Y-99050000D01*
X130650000Y-99150000D02*
X128850000Y-99150000D01*
X130700000Y-99200000D02*
X130650000Y-99150000D01*
X134050000Y-99250000D02*
X132500000Y-99250000D01*
X134200000Y-99100000D02*
X134050000Y-99250000D01*
X135800000Y-96500000D02*
X135800000Y-99050000D01*
X132300000Y-96450000D02*
X133650000Y-96450000D01*
X128850000Y-96450000D02*
X130650000Y-96450000D01*
X128800000Y-96500000D02*
X128850000Y-96450000D01*
X124850000Y-96500000D02*
X126700000Y-96500000D01*
X121000000Y-96600000D02*
X123050000Y-96600000D01*
X120950000Y-96550000D02*
X121000000Y-96600000D01*
X117000000Y-96600000D02*
X119050000Y-96600000D01*
X116900000Y-96500000D02*
X117000000Y-96600000D01*
X113600000Y-96550000D02*
X115250000Y-96550000D01*
X90200000Y-97800000D02*
X91938000Y-97800000D01*
X91938000Y-97800000D02*
X91948000Y-97790000D01*
X46228000Y-96520000D02*
X45466000Y-95758000D01*
X45466000Y-95758000D02*
X45212000Y-95758000D01*
X43942000Y-95504000D02*
X43438000Y-95000000D01*
X43438000Y-95000000D02*
X43000000Y-95000000D01*
X62000000Y-88000000D02*
X62000000Y-87000000D01*
X62000000Y-87000000D02*
X60550000Y-85050000D01*
X60550000Y-84200000D02*
X60500000Y-84150000D01*
X60500000Y-84150000D02*
X60500000Y-83000000D01*
X63500000Y-95050000D02*
X63500000Y-93550000D01*
X63500000Y-93550000D02*
X63450000Y-93500000D01*
X63450000Y-91150000D02*
X62350000Y-90050000D01*
X62350000Y-90050000D02*
X62350000Y-89900000D01*
X63250000Y-99400000D02*
X63550000Y-99100000D01*
X63550000Y-99100000D02*
X63550000Y-97100000D01*
X63550000Y-97100000D02*
X63500000Y-97050000D01*
X63500000Y-97050000D02*
X63500000Y-95050000D01*
X62000000Y-88000000D02*
X63000000Y-87000000D01*
X64400000Y-86900000D02*
X64800000Y-86500000D01*
X64800000Y-86500000D02*
X65400000Y-86500000D01*
X66900000Y-86500000D02*
X67000000Y-86400000D01*
X67000000Y-86400000D02*
X68400000Y-86400000D01*
X80700000Y-90200000D02*
X80700000Y-89500000D01*
X80700000Y-89500000D02*
X79900000Y-88700000D01*
X79900000Y-88700000D02*
X79900000Y-87900000D01*
X79900000Y-86400000D02*
X79800000Y-86300000D01*
X79800000Y-86300000D02*
X77750000Y-84350000D01*
D15*
X81600000Y-99900000D02*
X81600000Y-97500000D01*
X81600000Y-97500000D02*
X81300000Y-97200000D01*
X81000000Y-95100000D02*
X80800000Y-94900000D01*
X80800000Y-94900000D02*
X80800000Y-93800000D01*
X80800000Y-93800000D02*
X80500000Y-93500000D01*
X90800000Y-99600000D02*
X90800000Y-98400000D01*
X90800000Y-98400000D02*
X90200000Y-97800000D01*
X90100000Y-95700000D02*
X90100000Y-93600000D01*
X90200000Y-91500000D02*
X90200000Y-89800000D01*
X90100000Y-88400000D02*
X90400000Y-88100000D01*
X90400000Y-88100000D02*
X90400000Y-85200000D01*
X90500000Y-83900000D02*
X89100000Y-81992000D01*
X89100000Y-81992000D02*
X89000000Y-81992000D01*
X99800000Y-99900000D02*
X99800000Y-98400000D01*
X99800000Y-98400000D02*
X99300000Y-97900000D01*
X98900000Y-96300000D02*
X100000000Y-95200000D01*
X100000000Y-95200000D02*
X100000000Y-94800000D01*
X100600000Y-93900000D02*
X100600000Y-90900000D01*
X102700000Y-100300000D02*
X103200000Y-100800000D01*
X103200000Y-100800000D02*
X104400000Y-100800000D01*
X67100000Y-99900000D02*
X68400000Y-99900000D01*
X69900000Y-100000000D02*
X70600000Y-100700000D01*
X70600000Y-100700000D02*
X70900000Y-100700000D01*
X72300000Y-100700000D02*
X73800000Y-100700000D01*
X75500000Y-100700000D02*
X77000000Y-100700000D01*
X78400000Y-100700000D02*
X80600000Y-100700000D01*
X81600000Y-99900000D02*
X81700000Y-100000000D01*
X81700000Y-100000000D02*
X83475000Y-100075000D01*
X84650000Y-100100000D02*
X84750000Y-100200000D01*
X84750000Y-100200000D02*
X85900000Y-100100000D01*
X87600000Y-100000000D02*
X88000000Y-99600000D01*
X88000000Y-99600000D02*
X89000000Y-99600000D01*
X90800000Y-99600000D02*
X90900000Y-99700000D01*
X90900000Y-99700000D02*
X92700000Y-99700000D01*
X94400000Y-99700000D02*
X96000000Y-99700000D01*
X97900000Y-99800000D02*
X98000000Y-99900000D01*
X98000000Y-99900000D02*
X99800000Y-99900000D01*
X106000000Y-100800000D02*
X106200000Y-100600000D01*
X106200000Y-100600000D02*
X107700000Y-100600000D01*
X108900000Y-100500000D02*
X109000000Y-100400000D01*
X109000000Y-100400000D02*
X110800000Y-100400000D01*
X51500000Y-98900000D02*
X52200000Y-99600000D01*
X52200000Y-99600000D02*
X53340000Y-100076000D01*
X54610000Y-100330000D02*
X55550000Y-100950000D01*
X64500000Y-99900000D02*
X64600000Y-100000000D01*
X64600000Y-100000000D02*
X66000000Y-100000000D01*
X112500000Y-107000000D02*
X112500000Y-109000000D01*
X112500000Y-111000000D02*
X112000000Y-111500000D01*
X112000000Y-111500000D02*
X112000000Y-113000000D01*
X110500000Y-112500000D02*
X108500000Y-112500000D01*
X108500000Y-112500000D02*
X108000000Y-112500000D01*
X106500000Y-112500000D02*
X104000000Y-112500000D01*
X101500000Y-112500000D02*
X98000000Y-112500000D01*
X95500000Y-112500000D02*
X92500000Y-112500000D01*
X89500000Y-112500000D02*
X87000000Y-112500000D01*
X83500000Y-112500000D02*
X80000000Y-112500000D01*
X76500000Y-112500000D02*
X74500000Y-112500000D01*
X71500000Y-112500000D02*
X68000000Y-112500000D01*
X65000000Y-112500000D02*
X61500000Y-112500000D01*
X57500000Y-112500000D02*
X53500000Y-112500000D01*
X50500000Y-113000000D02*
X50000000Y-112500000D01*
X50000000Y-112500000D02*
X47500000Y-112500000D01*
X43500000Y-113000000D02*
X42500000Y-113000000D01*
X42500000Y-113000000D02*
X42500000Y-111500000D01*
X42500000Y-111500000D02*
X42000000Y-111000000D01*
X42500000Y-108000000D02*
X42000000Y-107500000D01*
X42000000Y-107500000D02*
X42000000Y-105500000D01*
X42500000Y-103000000D02*
X43000000Y-102500000D01*
X43000000Y-102500000D02*
X43000000Y-100000000D01*
X43000000Y-97000000D02*
X43000000Y-95000000D01*
X43000000Y-93000000D02*
X43000000Y-91000000D01*
X42500000Y-89000000D02*
X43000000Y-88500000D01*
X43000000Y-88500000D02*
X43000000Y-87000000D01*
X42500000Y-85000000D02*
X42500000Y-83500000D01*
X43500000Y-82500000D02*
X46000000Y-82500000D01*
X48000000Y-82500000D02*
X51500000Y-82500000D01*
X55000000Y-82500000D02*
X55500000Y-83000000D01*
X55500000Y-83000000D02*
X58000000Y-83000000D01*
X60500000Y-83000000D02*
X60850000Y-82250000D01*
X60850000Y-82250000D02*
X63350000Y-82250000D01*
X65900000Y-82250000D02*
X68900000Y-82250000D01*
X71000000Y-82200000D02*
X74500000Y-82200000D01*
X77000000Y-82500000D02*
X77700000Y-82400000D01*
X77700000Y-82400000D02*
X79000000Y-82250000D01*
X81000000Y-82250000D02*
X83000000Y-82200000D01*
X85000000Y-82200000D02*
X86750000Y-82450000D01*
X89000000Y-81992000D02*
X93000000Y-81992000D01*
X95500000Y-81992000D02*
X98000000Y-81992000D01*
X100584000Y-81788000D02*
X103000000Y-81992000D01*
X105500000Y-81992000D02*
X107254000Y-81992000D01*
X109508000Y-81738000D02*
X110490000Y-81788000D01*
X110490000Y-81788000D02*
X112014000Y-82042000D01*
X112500000Y-84500000D02*
X112500000Y-87000000D01*
X112500000Y-89000000D02*
X112500000Y-90500000D01*
X112500000Y-92500000D02*
X112500000Y-94500000D01*
X112500000Y-96000000D02*
X112500000Y-99000000D01*
X112500000Y-100500000D02*
X112500000Y-102000000D01*
X112500000Y-103500000D02*
X112500000Y-105000000D01*
G36*
X113399151Y-82046259D02*
X113304000Y-82524613D01*
X113304000Y-83083387D01*
X113399151Y-83561741D01*
X113670117Y-83967270D01*
X114015888Y-84198307D01*
X113670117Y-84429344D01*
X113399151Y-84834873D01*
X113304000Y-85313227D01*
X113304000Y-88930773D01*
X113399151Y-89409127D01*
X113670117Y-89814656D01*
X114011858Y-90043000D01*
X113670117Y-90271344D01*
X113399151Y-90676873D01*
X113304000Y-91155227D01*
X113304000Y-94772773D01*
X113399151Y-95251127D01*
X113670117Y-95656656D01*
X114075646Y-95927622D01*
X114554000Y-96022773D01*
X115032354Y-95927622D01*
X115437883Y-95656656D01*
X115708849Y-95251127D01*
X115740004Y-95094502D01*
X115925344Y-95371883D01*
X116330873Y-95642849D01*
X116809227Y-95738000D01*
X120426773Y-95738000D01*
X120905127Y-95642849D01*
X121310656Y-95371883D01*
X121581622Y-94966354D01*
X121676773Y-94488000D01*
X121909227Y-94488000D01*
X122004378Y-94966354D01*
X122275344Y-95371883D01*
X122680873Y-95642849D01*
X123159227Y-95738000D01*
X126776773Y-95738000D01*
X127255127Y-95642849D01*
X127660656Y-95371883D01*
X127889000Y-95030142D01*
X128117344Y-95371883D01*
X128522873Y-95642849D01*
X129001227Y-95738000D01*
X132618773Y-95738000D01*
X133097127Y-95642849D01*
X133502656Y-95371883D01*
X133773622Y-94966354D01*
X133858000Y-94542159D01*
X133942378Y-94966354D01*
X134213344Y-95371883D01*
X134618873Y-95642849D01*
X135097227Y-95738000D01*
X138714773Y-95738000D01*
X139193127Y-95642849D01*
X139598656Y-95371883D01*
X139869622Y-94966354D01*
X139964773Y-94488000D01*
X139869622Y-94009646D01*
X139598656Y-93604117D01*
X139193127Y-93333151D01*
X138714773Y-93238000D01*
X135097227Y-93238000D01*
X134618873Y-93333151D01*
X134213344Y-93604117D01*
X133942378Y-94009646D01*
X133858000Y-94433841D01*
X133773622Y-94009646D01*
X133502656Y-93604117D01*
X133097127Y-93333151D01*
X132618773Y-93238000D01*
X129001227Y-93238000D01*
X128522873Y-93333151D01*
X128117344Y-93604117D01*
X127889000Y-93945858D01*
X127660656Y-93604117D01*
X127255127Y-93333151D01*
X126776773Y-93238000D01*
X123159227Y-93238000D01*
X122680873Y-93333151D01*
X122275344Y-93604117D01*
X122004378Y-94009646D01*
X121909227Y-94488000D01*
X121676773Y-94488000D01*
X121581622Y-94009646D01*
X121310656Y-93604117D01*
X120905127Y-93333151D01*
X120426773Y-93238000D01*
X116809227Y-93238000D01*
X116330873Y-93333151D01*
X115925344Y-93604117D01*
X115804000Y-93785721D01*
X115804000Y-91155227D01*
X115708849Y-90676873D01*
X115437883Y-90271344D01*
X115096142Y-90043000D01*
X115437883Y-89814656D01*
X115708849Y-89409127D01*
X115804000Y-88930773D01*
X115804000Y-85313227D01*
X115708849Y-84834873D01*
X115437883Y-84429344D01*
X115092112Y-84198307D01*
X115437883Y-83967270D01*
X115708849Y-83561741D01*
X115804000Y-83083387D01*
X115804000Y-82524613D01*
X115708849Y-82046259D01*
X115561008Y-81825000D01*
X140175000Y-81825000D01*
X140175000Y-114175000D01*
X115044431Y-114175000D01*
X115389623Y-113944350D01*
X115660589Y-113538821D01*
X115755740Y-113060467D01*
X115755740Y-112501693D01*
X115660589Y-112023339D01*
X115512258Y-111801346D01*
X115708849Y-111507127D01*
X115804000Y-111028773D01*
X115804000Y-107411227D01*
X115708849Y-106932873D01*
X115437883Y-106527344D01*
X115096142Y-106299000D01*
X115437883Y-106070656D01*
X115708849Y-105665127D01*
X115804000Y-105186773D01*
X115804000Y-102048279D01*
X115925344Y-102229883D01*
X116330873Y-102500849D01*
X116809227Y-102596000D01*
X120426773Y-102596000D01*
X120905127Y-102500849D01*
X121310656Y-102229883D01*
X121581622Y-101824354D01*
X121666000Y-101400159D01*
X121750378Y-101824354D01*
X122021344Y-102229883D01*
X122426873Y-102500849D01*
X122905227Y-102596000D01*
X126522773Y-102596000D01*
X127001127Y-102500849D01*
X127406656Y-102229883D01*
X127677622Y-101824354D01*
X127744559Y-101487842D01*
X127796378Y-101748354D01*
X128067344Y-102153883D01*
X128472873Y-102424849D01*
X128951227Y-102520000D01*
X132568773Y-102520000D01*
X133047127Y-102424849D01*
X133452656Y-102153883D01*
X133723622Y-101748354D01*
X133813978Y-101294105D01*
X133896378Y-101708354D01*
X134167344Y-102113883D01*
X134572873Y-102384849D01*
X135051227Y-102480000D01*
X138668773Y-102480000D01*
X139147127Y-102384849D01*
X139552656Y-102113883D01*
X139823622Y-101708354D01*
X139918773Y-101230000D01*
X139823622Y-100751646D01*
X139552656Y-100346117D01*
X139147127Y-100075151D01*
X138668773Y-99980000D01*
X135051227Y-99980000D01*
X134572873Y-100075151D01*
X134167344Y-100346117D01*
X133896378Y-100751646D01*
X133806022Y-101205895D01*
X133723622Y-100791646D01*
X133452656Y-100386117D01*
X133047127Y-100115151D01*
X132568773Y-100020000D01*
X128951227Y-100020000D01*
X128472873Y-100115151D01*
X128067344Y-100386117D01*
X127796378Y-100791646D01*
X127729441Y-101128158D01*
X127677622Y-100867646D01*
X127406656Y-100462117D01*
X127001127Y-100191151D01*
X126522773Y-100096000D01*
X122905227Y-100096000D01*
X122426873Y-100191151D01*
X122021344Y-100462117D01*
X121750378Y-100867646D01*
X121666000Y-101291841D01*
X121581622Y-100867646D01*
X121310656Y-100462117D01*
X120905127Y-100191151D01*
X120426773Y-100096000D01*
X116809227Y-100096000D01*
X116330873Y-100191151D01*
X115925344Y-100462117D01*
X115654378Y-100867646D01*
X115632657Y-100976844D01*
X115437883Y-100685344D01*
X115032354Y-100414378D01*
X114554000Y-100319227D01*
X114075646Y-100414378D01*
X113670117Y-100685344D01*
X113399151Y-101090873D01*
X113304000Y-101569227D01*
X113304000Y-105186773D01*
X113399151Y-105665127D01*
X113670117Y-106070656D01*
X114011858Y-106299000D01*
X113670117Y-106527344D01*
X113399151Y-106932873D01*
X113304000Y-107411227D01*
X113304000Y-111028773D01*
X113399151Y-111507127D01*
X113547482Y-111729120D01*
X113350891Y-112023339D01*
X113255740Y-112501693D01*
X113255740Y-113060467D01*
X113350891Y-113538821D01*
X113621857Y-113944350D01*
X113967049Y-114175000D01*
X41825000Y-114175000D01*
X41825000Y-111661063D01*
X68292820Y-111661063D01*
X68447684Y-111926632D01*
X69240604Y-112023644D01*
X69728316Y-111926632D01*
X69883180Y-111661063D01*
X69088000Y-110865883D01*
X68292820Y-111661063D01*
X41825000Y-111661063D01*
X41825000Y-110134604D01*
X67046356Y-110134604D01*
X67143368Y-110622316D01*
X67408937Y-110777180D01*
X68204117Y-109982000D01*
X69971883Y-109982000D01*
X70767063Y-110777180D01*
X71032632Y-110622316D01*
X71129644Y-109829396D01*
X71032632Y-109341684D01*
X70767063Y-109186820D01*
X69971883Y-109982000D01*
X68204117Y-109982000D01*
X67408937Y-109186820D01*
X67143368Y-109341684D01*
X67046356Y-110134604D01*
X41825000Y-110134604D01*
X41825000Y-108302937D01*
X68292820Y-108302937D01*
X69088000Y-109098117D01*
X69883180Y-108302937D01*
X69728316Y-108037368D01*
X68935396Y-107940356D01*
X68447684Y-108037368D01*
X68292820Y-108302937D01*
X41825000Y-108302937D01*
X41825000Y-106314079D01*
X67087654Y-106314079D01*
X67391494Y-107049429D01*
X67953612Y-107612529D01*
X68688430Y-107917652D01*
X69484079Y-107918346D01*
X70219429Y-107614506D01*
X70782529Y-107052388D01*
X71087652Y-106317570D01*
X71088346Y-105521921D01*
X70784506Y-104786571D01*
X70222388Y-104223471D01*
X69487570Y-103918348D01*
X68691921Y-103917654D01*
X67956571Y-104221494D01*
X67393471Y-104783612D01*
X67088348Y-105518430D01*
X67087654Y-106314079D01*
X41825000Y-106314079D01*
X41825000Y-102675589D01*
X84023610Y-102675589D01*
X84365431Y-103502858D01*
X84997018Y-104135548D01*
X84367655Y-104763813D01*
X84024392Y-105590484D01*
X84023610Y-106485589D01*
X84365431Y-107312858D01*
X84997018Y-107945548D01*
X84367655Y-108573813D01*
X84024392Y-109400484D01*
X84023610Y-110295589D01*
X84365431Y-111122858D01*
X84997813Y-111756345D01*
X85824484Y-112099608D01*
X86719589Y-112100390D01*
X87546858Y-111758569D01*
X88180345Y-111126187D01*
X88523608Y-110299516D01*
X88524390Y-109404411D01*
X88182569Y-108577142D01*
X87550982Y-107944452D01*
X88180345Y-107316187D01*
X88523608Y-106489516D01*
X88524390Y-105594411D01*
X88182569Y-104767142D01*
X87550982Y-104134452D01*
X88180345Y-103506187D01*
X88523608Y-102679516D01*
X88523611Y-102675589D01*
X88849610Y-102675589D01*
X89191431Y-103502858D01*
X89823018Y-104135548D01*
X89193655Y-104763813D01*
X88850392Y-105590484D01*
X88849610Y-106485589D01*
X89191431Y-107312858D01*
X89823018Y-107945548D01*
X89193655Y-108573813D01*
X88850392Y-109400484D01*
X88849610Y-110295589D01*
X89191431Y-111122858D01*
X89823813Y-111756345D01*
X90650484Y-112099608D01*
X91545589Y-112100390D01*
X92372858Y-111758569D01*
X92627808Y-111504063D01*
X94854820Y-111504063D01*
X95009684Y-111769632D01*
X95802604Y-111866644D01*
X96290316Y-111769632D01*
X96445180Y-111504063D01*
X95650000Y-110708883D01*
X94854820Y-111504063D01*
X92627808Y-111504063D01*
X93006345Y-111126187D01*
X93349608Y-110299516D01*
X93349889Y-109977604D01*
X93608356Y-109977604D01*
X93705368Y-110465316D01*
X93970937Y-110620180D01*
X94766117Y-109825000D01*
X96533883Y-109825000D01*
X97329063Y-110620180D01*
X97594632Y-110465316D01*
X97648503Y-110025000D01*
X98966227Y-110025000D01*
X99099438Y-110694696D01*
X99478790Y-111262437D01*
X100046531Y-111641789D01*
X100716227Y-111775000D01*
X103333773Y-111775000D01*
X104003469Y-111641789D01*
X104571210Y-111262437D01*
X104950562Y-110694696D01*
X105083773Y-110025000D01*
X105075220Y-109982000D01*
X105145227Y-109982000D01*
X105278438Y-110651696D01*
X105657790Y-111219437D01*
X106225531Y-111598789D01*
X106895227Y-111732000D01*
X109512773Y-111732000D01*
X110182469Y-111598789D01*
X110750210Y-111219437D01*
X111129562Y-110651696D01*
X111262773Y-109982000D01*
X111129562Y-109312304D01*
X110750210Y-108744563D01*
X110182469Y-108365211D01*
X109512773Y-108232000D01*
X106895227Y-108232000D01*
X106225531Y-108365211D01*
X105657790Y-108744563D01*
X105278438Y-109312304D01*
X105145227Y-109982000D01*
X105075220Y-109982000D01*
X104950562Y-109355304D01*
X104571210Y-108787563D01*
X104003469Y-108408211D01*
X103333773Y-108275000D01*
X100716227Y-108275000D01*
X100046531Y-108408211D01*
X99478790Y-108787563D01*
X99099438Y-109355304D01*
X98966227Y-110025000D01*
X97648503Y-110025000D01*
X97691644Y-109672396D01*
X97594632Y-109184684D01*
X97329063Y-109029820D01*
X96533883Y-109825000D01*
X94766117Y-109825000D01*
X93970937Y-109029820D01*
X93705368Y-109184684D01*
X93608356Y-109977604D01*
X93349889Y-109977604D01*
X93350390Y-109404411D01*
X93008569Y-108577142D01*
X92578116Y-108145937D01*
X94854820Y-108145937D01*
X95650000Y-108941117D01*
X96445180Y-108145937D01*
X96290316Y-107880368D01*
X95497396Y-107783356D01*
X95009684Y-107880368D01*
X94854820Y-108145937D01*
X92578116Y-108145937D01*
X92376982Y-107944452D01*
X93006345Y-107316187D01*
X93349608Y-106489516D01*
X93350390Y-105594411D01*
X93103164Y-104996079D01*
X93799654Y-104996079D01*
X94103494Y-105731429D01*
X94665612Y-106294529D01*
X95400430Y-106599652D01*
X96196079Y-106600346D01*
X96931429Y-106296506D01*
X97494529Y-105734388D01*
X97799652Y-104999570D01*
X97800346Y-104203921D01*
X97496506Y-103468571D01*
X96934388Y-102905471D01*
X96199570Y-102600348D01*
X95403921Y-102599654D01*
X94668571Y-102903494D01*
X94105471Y-103465612D01*
X93800348Y-104200430D01*
X93799654Y-104996079D01*
X93103164Y-104996079D01*
X93008569Y-104767142D01*
X92376982Y-104134452D01*
X93006345Y-103506187D01*
X93349608Y-102679516D01*
X93350390Y-101784411D01*
X93008569Y-100957142D01*
X92376187Y-100323655D01*
X91549516Y-99980392D01*
X90654411Y-99979610D01*
X89827142Y-100321431D01*
X89193655Y-100953813D01*
X88850392Y-101780484D01*
X88849610Y-102675589D01*
X88523611Y-102675589D01*
X88524390Y-101784411D01*
X88182569Y-100957142D01*
X87550187Y-100323655D01*
X86723516Y-99980392D01*
X85828411Y-99979610D01*
X85001142Y-100321431D01*
X84367655Y-100953813D01*
X84024392Y-101780484D01*
X84023610Y-102675589D01*
X41825000Y-102675589D01*
X41825000Y-86279063D01*
X43954820Y-86279063D01*
X44109684Y-86544632D01*
X44902604Y-86641644D01*
X45390316Y-86544632D01*
X45545180Y-86279063D01*
X45541706Y-86275589D01*
X46773610Y-86275589D01*
X47115431Y-87102858D01*
X47747018Y-87735548D01*
X47117655Y-88363813D01*
X46774392Y-89190484D01*
X46773610Y-90085589D01*
X47115431Y-90912858D01*
X47747018Y-91545548D01*
X47117655Y-92173813D01*
X46774392Y-93000484D01*
X46773610Y-93895589D01*
X47115431Y-94722858D01*
X47747813Y-95356345D01*
X48574484Y-95699608D01*
X49469589Y-95700390D01*
X50296858Y-95358569D01*
X50930345Y-94726187D01*
X51273608Y-93899516D01*
X51274390Y-93004411D01*
X50932569Y-92177142D01*
X50300982Y-91544452D01*
X50930345Y-90916187D01*
X51273608Y-90089516D01*
X51274390Y-89194411D01*
X50932569Y-88367142D01*
X50300982Y-87734452D01*
X50930345Y-87106187D01*
X51273608Y-86279516D01*
X51273611Y-86275589D01*
X51599610Y-86275589D01*
X51941431Y-87102858D01*
X52573018Y-87735548D01*
X51943655Y-88363813D01*
X51600392Y-89190484D01*
X51599610Y-90085589D01*
X51941431Y-90912858D01*
X52573018Y-91545548D01*
X51943655Y-92173813D01*
X51600392Y-93000484D01*
X51599610Y-93895589D01*
X51941431Y-94722858D01*
X52573813Y-95356345D01*
X53400484Y-95699608D01*
X54295589Y-95700390D01*
X55122858Y-95358569D01*
X55756345Y-94726187D01*
X56008444Y-94119063D01*
X72904820Y-94119063D01*
X73059684Y-94384632D01*
X73852604Y-94481644D01*
X74340316Y-94384632D01*
X74495180Y-94119063D01*
X73700000Y-93323883D01*
X72904820Y-94119063D01*
X56008444Y-94119063D01*
X56099608Y-93899516D01*
X56100390Y-93004411D01*
X55930235Y-92592604D01*
X71658356Y-92592604D01*
X71755368Y-93080316D01*
X72020937Y-93235180D01*
X72816117Y-92440000D01*
X74583883Y-92440000D01*
X75379063Y-93235180D01*
X75644632Y-93080316D01*
X75741644Y-92287396D01*
X75644632Y-91799684D01*
X75379063Y-91644820D01*
X74583883Y-92440000D01*
X72816117Y-92440000D01*
X72020937Y-91644820D01*
X71755368Y-91799684D01*
X71658356Y-92592604D01*
X55930235Y-92592604D01*
X55758569Y-92177142D01*
X55126982Y-91544452D01*
X55756345Y-90916187D01*
X55820810Y-90760937D01*
X72904820Y-90760937D01*
X73700000Y-91556117D01*
X74495180Y-90760937D01*
X74340316Y-90495368D01*
X73547396Y-90398356D01*
X73059684Y-90495368D01*
X72904820Y-90760937D01*
X55820810Y-90760937D01*
X56099608Y-90089516D01*
X56100390Y-89194411D01*
X56052730Y-89079063D01*
X70404820Y-89079063D01*
X70559684Y-89344632D01*
X71352604Y-89441644D01*
X71840316Y-89344632D01*
X71995180Y-89079063D01*
X71200000Y-88283883D01*
X70404820Y-89079063D01*
X56052730Y-89079063D01*
X55758569Y-88367142D01*
X55126982Y-87734452D01*
X55309147Y-87552604D01*
X69158356Y-87552604D01*
X69255368Y-88040316D01*
X69520937Y-88195180D01*
X70316117Y-87400000D01*
X72083883Y-87400000D01*
X72879063Y-88195180D01*
X73144632Y-88040316D01*
X73174513Y-87796079D01*
X74199654Y-87796079D01*
X74503494Y-88531429D01*
X75065612Y-89094529D01*
X75800430Y-89399652D01*
X76596079Y-89400346D01*
X77331429Y-89096506D01*
X77894529Y-88534388D01*
X78199652Y-87799570D01*
X78200346Y-87003921D01*
X77896506Y-86268571D01*
X77334388Y-85705471D01*
X76599570Y-85400348D01*
X75803921Y-85399654D01*
X75068571Y-85703494D01*
X74505471Y-86265612D01*
X74200348Y-87000430D01*
X74199654Y-87796079D01*
X73174513Y-87796079D01*
X73241644Y-87247396D01*
X73144632Y-86759684D01*
X72879063Y-86604820D01*
X72083883Y-87400000D01*
X70316117Y-87400000D01*
X69520937Y-86604820D01*
X69255368Y-86759684D01*
X69158356Y-87552604D01*
X55309147Y-87552604D01*
X55756345Y-87106187D01*
X56099608Y-86279516D01*
X56100095Y-85720937D01*
X70404820Y-85720937D01*
X71200000Y-86516117D01*
X71995180Y-85720937D01*
X71840316Y-85455368D01*
X71047396Y-85358356D01*
X70559684Y-85455368D01*
X70404820Y-85720937D01*
X56100095Y-85720937D01*
X56100390Y-85384411D01*
X55758569Y-84557142D01*
X55601702Y-84400000D01*
X99041227Y-84400000D01*
X99174438Y-85069696D01*
X99553790Y-85637437D01*
X100121531Y-86016789D01*
X100791227Y-86150000D01*
X103408773Y-86150000D01*
X104078469Y-86016789D01*
X104646210Y-85637437D01*
X105025562Y-85069696D01*
X105154973Y-84419105D01*
X105274438Y-85019696D01*
X105653790Y-85587437D01*
X106221531Y-85966789D01*
X106891227Y-86100000D01*
X109508773Y-86100000D01*
X110178469Y-85966789D01*
X110746210Y-85587437D01*
X111125562Y-85019696D01*
X111258773Y-84350000D01*
X111125562Y-83680304D01*
X110746210Y-83112563D01*
X110178469Y-82733211D01*
X109508773Y-82600000D01*
X106891227Y-82600000D01*
X106221531Y-82733211D01*
X105653790Y-83112563D01*
X105274438Y-83680304D01*
X105145027Y-84330895D01*
X105025562Y-83730304D01*
X104646210Y-83162563D01*
X104078469Y-82783211D01*
X103408773Y-82650000D01*
X100791227Y-82650000D01*
X100121531Y-82783211D01*
X99553790Y-83162563D01*
X99174438Y-83730304D01*
X99041227Y-84400000D01*
X55601702Y-84400000D01*
X55126187Y-83923655D01*
X54299516Y-83580392D01*
X53404411Y-83579610D01*
X52577142Y-83921431D01*
X51943655Y-84553813D01*
X51600392Y-85380484D01*
X51599610Y-86275589D01*
X51273611Y-86275589D01*
X51274390Y-85384411D01*
X50932569Y-84557142D01*
X50300187Y-83923655D01*
X49473516Y-83580392D01*
X48578411Y-83579610D01*
X47751142Y-83921431D01*
X47117655Y-84553813D01*
X46774392Y-85380484D01*
X46773610Y-86275589D01*
X45541706Y-86275589D01*
X44750000Y-85483883D01*
X43954820Y-86279063D01*
X41825000Y-86279063D01*
X41825000Y-84752604D01*
X42708356Y-84752604D01*
X42805368Y-85240316D01*
X43070937Y-85395180D01*
X43866117Y-84600000D01*
X45633883Y-84600000D01*
X46429063Y-85395180D01*
X46694632Y-85240316D01*
X46791644Y-84447396D01*
X46694632Y-83959684D01*
X46429063Y-83804820D01*
X45633883Y-84600000D01*
X43866117Y-84600000D01*
X43070937Y-83804820D01*
X42805368Y-83959684D01*
X42708356Y-84752604D01*
X41825000Y-84752604D01*
X41825000Y-82920937D01*
X43954820Y-82920937D01*
X44750000Y-83716117D01*
X45545180Y-82920937D01*
X45390316Y-82655368D01*
X44597396Y-82558356D01*
X44109684Y-82655368D01*
X43954820Y-82920937D01*
X41825000Y-82920937D01*
X41825000Y-81825000D01*
X113546992Y-81825000D01*
X113399151Y-82046259D01*
X113399151Y-82046259D01*
G37*
X113399151Y-82046259D02*
X113304000Y-82524613D01*
X113304000Y-83083387D01*
X113399151Y-83561741D01*
X113670117Y-83967270D01*
X114015888Y-84198307D01*
X113670117Y-84429344D01*
X113399151Y-84834873D01*
X113304000Y-85313227D01*
X113304000Y-88930773D01*
X113399151Y-89409127D01*
X113670117Y-89814656D01*
X114011858Y-90043000D01*
X113670117Y-90271344D01*
X113399151Y-90676873D01*
X113304000Y-91155227D01*
X113304000Y-94772773D01*
X113399151Y-95251127D01*
X113670117Y-95656656D01*
X114075646Y-95927622D01*
X114554000Y-96022773D01*
X115032354Y-95927622D01*
X115437883Y-95656656D01*
X115708849Y-95251127D01*
X115740004Y-95094502D01*
X115925344Y-95371883D01*
X116330873Y-95642849D01*
X116809227Y-95738000D01*
X120426773Y-95738000D01*
X120905127Y-95642849D01*
X121310656Y-95371883D01*
X121581622Y-94966354D01*
X121676773Y-94488000D01*
X121909227Y-94488000D01*
X122004378Y-94966354D01*
X122275344Y-95371883D01*
X122680873Y-95642849D01*
X123159227Y-95738000D01*
X126776773Y-95738000D01*
X127255127Y-95642849D01*
X127660656Y-95371883D01*
X127889000Y-95030142D01*
X128117344Y-95371883D01*
X128522873Y-95642849D01*
X129001227Y-95738000D01*
X132618773Y-95738000D01*
X133097127Y-95642849D01*
X133502656Y-95371883D01*
X133773622Y-94966354D01*
X133858000Y-94542159D01*
X133942378Y-94966354D01*
X134213344Y-95371883D01*
X134618873Y-95642849D01*
X135097227Y-95738000D01*
X138714773Y-95738000D01*
X139193127Y-95642849D01*
X139598656Y-95371883D01*
X139869622Y-94966354D01*
X139964773Y-94488000D01*
X139869622Y-94009646D01*
X139598656Y-93604117D01*
X139193127Y-93333151D01*
X138714773Y-93238000D01*
X135097227Y-93238000D01*
X134618873Y-93333151D01*
X134213344Y-93604117D01*
X133942378Y-94009646D01*
X133858000Y-94433841D01*
X133773622Y-94009646D01*
X133502656Y-93604117D01*
X133097127Y-93333151D01*
X132618773Y-93238000D01*
X129001227Y-93238000D01*
X128522873Y-93333151D01*
X128117344Y-93604117D01*
X127889000Y-93945858D01*
X127660656Y-93604117D01*
X127255127Y-93333151D01*
X126776773Y-93238000D01*
X123159227Y-93238000D01*
X122680873Y-93333151D01*
X122275344Y-93604117D01*
X122004378Y-94009646D01*
X121909227Y-94488000D01*
X121676773Y-94488000D01*
X121581622Y-94009646D01*
X121310656Y-93604117D01*
X120905127Y-93333151D01*
X120426773Y-93238000D01*
X116809227Y-93238000D01*
X116330873Y-93333151D01*
X115925344Y-93604117D01*
X115804000Y-93785721D01*
X115804000Y-91155227D01*
X115708849Y-90676873D01*
X115437883Y-90271344D01*
X115096142Y-90043000D01*
X115437883Y-89814656D01*
X115708849Y-89409127D01*
X115804000Y-88930773D01*
X115804000Y-85313227D01*
X115708849Y-84834873D01*
X115437883Y-84429344D01*
X115092112Y-84198307D01*
X115437883Y-83967270D01*
X115708849Y-83561741D01*
X115804000Y-83083387D01*
X115804000Y-82524613D01*
X115708849Y-82046259D01*
X115561008Y-81825000D01*
X140175000Y-81825000D01*
X140175000Y-114175000D01*
X115044431Y-114175000D01*
X115389623Y-113944350D01*
X115660589Y-113538821D01*
X115755740Y-113060467D01*
X115755740Y-112501693D01*
X115660589Y-112023339D01*
X115512258Y-111801346D01*
X115708849Y-111507127D01*
X115804000Y-111028773D01*
X115804000Y-107411227D01*
X115708849Y-106932873D01*
X115437883Y-106527344D01*
X115096142Y-106299000D01*
X115437883Y-106070656D01*
X115708849Y-105665127D01*
X115804000Y-105186773D01*
X115804000Y-102048279D01*
X115925344Y-102229883D01*
X116330873Y-102500849D01*
X116809227Y-102596000D01*
X120426773Y-102596000D01*
X120905127Y-102500849D01*
X121310656Y-102229883D01*
X121581622Y-101824354D01*
X121666000Y-101400159D01*
X121750378Y-101824354D01*
X122021344Y-102229883D01*
X122426873Y-102500849D01*
X122905227Y-102596000D01*
X126522773Y-102596000D01*
X127001127Y-102500849D01*
X127406656Y-102229883D01*
X127677622Y-101824354D01*
X127744559Y-101487842D01*
X127796378Y-101748354D01*
X128067344Y-102153883D01*
X128472873Y-102424849D01*
X128951227Y-102520000D01*
X132568773Y-102520000D01*
X133047127Y-102424849D01*
X133452656Y-102153883D01*
X133723622Y-101748354D01*
X133813978Y-101294105D01*
X133896378Y-101708354D01*
X134167344Y-102113883D01*
X134572873Y-102384849D01*
X135051227Y-102480000D01*
X138668773Y-102480000D01*
X139147127Y-102384849D01*
X139552656Y-102113883D01*
X139823622Y-101708354D01*
X139918773Y-101230000D01*
X139823622Y-100751646D01*
X139552656Y-100346117D01*
X139147127Y-100075151D01*
X138668773Y-99980000D01*
X135051227Y-99980000D01*
X134572873Y-100075151D01*
X134167344Y-100346117D01*
X133896378Y-100751646D01*
X133806022Y-101205895D01*
X133723622Y-100791646D01*
X133452656Y-100386117D01*
X133047127Y-100115151D01*
X132568773Y-100020000D01*
X128951227Y-100020000D01*
X128472873Y-100115151D01*
X128067344Y-100386117D01*
X127796378Y-100791646D01*
X127729441Y-101128158D01*
X127677622Y-100867646D01*
X127406656Y-100462117D01*
X127001127Y-100191151D01*
X126522773Y-100096000D01*
X122905227Y-100096000D01*
X122426873Y-100191151D01*
X122021344Y-100462117D01*
X121750378Y-100867646D01*
X121666000Y-101291841D01*
X121581622Y-100867646D01*
X121310656Y-100462117D01*
X120905127Y-100191151D01*
X120426773Y-100096000D01*
X116809227Y-100096000D01*
X116330873Y-100191151D01*
X115925344Y-100462117D01*
X115654378Y-100867646D01*
X115632657Y-100976844D01*
X115437883Y-100685344D01*
X115032354Y-100414378D01*
X114554000Y-100319227D01*
X114075646Y-100414378D01*
X113670117Y-100685344D01*
X113399151Y-101090873D01*
X113304000Y-101569227D01*
X113304000Y-105186773D01*
X113399151Y-105665127D01*
X113670117Y-106070656D01*
X114011858Y-106299000D01*
X113670117Y-106527344D01*
X113399151Y-106932873D01*
X113304000Y-107411227D01*
X113304000Y-111028773D01*
X113399151Y-111507127D01*
X113547482Y-111729120D01*
X113350891Y-112023339D01*
X113255740Y-112501693D01*
X113255740Y-113060467D01*
X113350891Y-113538821D01*
X113621857Y-113944350D01*
X113967049Y-114175000D01*
X41825000Y-114175000D01*
X41825000Y-111661063D01*
X68292820Y-111661063D01*
X68447684Y-111926632D01*
X69240604Y-112023644D01*
X69728316Y-111926632D01*
X69883180Y-111661063D01*
X69088000Y-110865883D01*
X68292820Y-111661063D01*
X41825000Y-111661063D01*
X41825000Y-110134604D01*
X67046356Y-110134604D01*
X67143368Y-110622316D01*
X67408937Y-110777180D01*
X68204117Y-109982000D01*
X69971883Y-109982000D01*
X70767063Y-110777180D01*
X71032632Y-110622316D01*
X71129644Y-109829396D01*
X71032632Y-109341684D01*
X70767063Y-109186820D01*
X69971883Y-109982000D01*
X68204117Y-109982000D01*
X67408937Y-109186820D01*
X67143368Y-109341684D01*
X67046356Y-110134604D01*
X41825000Y-110134604D01*
X41825000Y-108302937D01*
X68292820Y-108302937D01*
X69088000Y-109098117D01*
X69883180Y-108302937D01*
X69728316Y-108037368D01*
X68935396Y-107940356D01*
X68447684Y-108037368D01*
X68292820Y-108302937D01*
X41825000Y-108302937D01*
X41825000Y-106314079D01*
X67087654Y-106314079D01*
X67391494Y-107049429D01*
X67953612Y-107612529D01*
X68688430Y-107917652D01*
X69484079Y-107918346D01*
X70219429Y-107614506D01*
X70782529Y-107052388D01*
X71087652Y-106317570D01*
X71088346Y-105521921D01*
X70784506Y-104786571D01*
X70222388Y-104223471D01*
X69487570Y-103918348D01*
X68691921Y-103917654D01*
X67956571Y-104221494D01*
X67393471Y-104783612D01*
X67088348Y-105518430D01*
X67087654Y-106314079D01*
X41825000Y-106314079D01*
X41825000Y-102675589D01*
X84023610Y-102675589D01*
X84365431Y-103502858D01*
X84997018Y-104135548D01*
X84367655Y-104763813D01*
X84024392Y-105590484D01*
X84023610Y-106485589D01*
X84365431Y-107312858D01*
X84997018Y-107945548D01*
X84367655Y-108573813D01*
X84024392Y-109400484D01*
X84023610Y-110295589D01*
X84365431Y-111122858D01*
X84997813Y-111756345D01*
X85824484Y-112099608D01*
X86719589Y-112100390D01*
X87546858Y-111758569D01*
X88180345Y-111126187D01*
X88523608Y-110299516D01*
X88524390Y-109404411D01*
X88182569Y-108577142D01*
X87550982Y-107944452D01*
X88180345Y-107316187D01*
X88523608Y-106489516D01*
X88524390Y-105594411D01*
X88182569Y-104767142D01*
X87550982Y-104134452D01*
X88180345Y-103506187D01*
X88523608Y-102679516D01*
X88523611Y-102675589D01*
X88849610Y-102675589D01*
X89191431Y-103502858D01*
X89823018Y-104135548D01*
X89193655Y-104763813D01*
X88850392Y-105590484D01*
X88849610Y-106485589D01*
X89191431Y-107312858D01*
X89823018Y-107945548D01*
X89193655Y-108573813D01*
X88850392Y-109400484D01*
X88849610Y-110295589D01*
X89191431Y-111122858D01*
X89823813Y-111756345D01*
X90650484Y-112099608D01*
X91545589Y-112100390D01*
X92372858Y-111758569D01*
X92627808Y-111504063D01*
X94854820Y-111504063D01*
X95009684Y-111769632D01*
X95802604Y-111866644D01*
X96290316Y-111769632D01*
X96445180Y-111504063D01*
X95650000Y-110708883D01*
X94854820Y-111504063D01*
X92627808Y-111504063D01*
X93006345Y-111126187D01*
X93349608Y-110299516D01*
X93349889Y-109977604D01*
X93608356Y-109977604D01*
X93705368Y-110465316D01*
X93970937Y-110620180D01*
X94766117Y-109825000D01*
X96533883Y-109825000D01*
X97329063Y-110620180D01*
X97594632Y-110465316D01*
X97648503Y-110025000D01*
X98966227Y-110025000D01*
X99099438Y-110694696D01*
X99478790Y-111262437D01*
X100046531Y-111641789D01*
X100716227Y-111775000D01*
X103333773Y-111775000D01*
X104003469Y-111641789D01*
X104571210Y-111262437D01*
X104950562Y-110694696D01*
X105083773Y-110025000D01*
X105075220Y-109982000D01*
X105145227Y-109982000D01*
X105278438Y-110651696D01*
X105657790Y-111219437D01*
X106225531Y-111598789D01*
X106895227Y-111732000D01*
X109512773Y-111732000D01*
X110182469Y-111598789D01*
X110750210Y-111219437D01*
X111129562Y-110651696D01*
X111262773Y-109982000D01*
X111129562Y-109312304D01*
X110750210Y-108744563D01*
X110182469Y-108365211D01*
X109512773Y-108232000D01*
X106895227Y-108232000D01*
X106225531Y-108365211D01*
X105657790Y-108744563D01*
X105278438Y-109312304D01*
X105145227Y-109982000D01*
X105075220Y-109982000D01*
X104950562Y-109355304D01*
X104571210Y-108787563D01*
X104003469Y-108408211D01*
X103333773Y-108275000D01*
X100716227Y-108275000D01*
X100046531Y-108408211D01*
X99478790Y-108787563D01*
X99099438Y-109355304D01*
X98966227Y-110025000D01*
X97648503Y-110025000D01*
X97691644Y-109672396D01*
X97594632Y-109184684D01*
X97329063Y-109029820D01*
X96533883Y-109825000D01*
X94766117Y-109825000D01*
X93970937Y-109029820D01*
X93705368Y-109184684D01*
X93608356Y-109977604D01*
X93349889Y-109977604D01*
X93350390Y-109404411D01*
X93008569Y-108577142D01*
X92578116Y-108145937D01*
X94854820Y-108145937D01*
X95650000Y-108941117D01*
X96445180Y-108145937D01*
X96290316Y-107880368D01*
X95497396Y-107783356D01*
X95009684Y-107880368D01*
X94854820Y-108145937D01*
X92578116Y-108145937D01*
X92376982Y-107944452D01*
X93006345Y-107316187D01*
X93349608Y-106489516D01*
X93350390Y-105594411D01*
X93103164Y-104996079D01*
X93799654Y-104996079D01*
X94103494Y-105731429D01*
X94665612Y-106294529D01*
X95400430Y-106599652D01*
X96196079Y-106600346D01*
X96931429Y-106296506D01*
X97494529Y-105734388D01*
X97799652Y-104999570D01*
X97800346Y-104203921D01*
X97496506Y-103468571D01*
X96934388Y-102905471D01*
X96199570Y-102600348D01*
X95403921Y-102599654D01*
X94668571Y-102903494D01*
X94105471Y-103465612D01*
X93800348Y-104200430D01*
X93799654Y-104996079D01*
X93103164Y-104996079D01*
X93008569Y-104767142D01*
X92376982Y-104134452D01*
X93006345Y-103506187D01*
X93349608Y-102679516D01*
X93350390Y-101784411D01*
X93008569Y-100957142D01*
X92376187Y-100323655D01*
X91549516Y-99980392D01*
X90654411Y-99979610D01*
X89827142Y-100321431D01*
X89193655Y-100953813D01*
X88850392Y-101780484D01*
X88849610Y-102675589D01*
X88523611Y-102675589D01*
X88524390Y-101784411D01*
X88182569Y-100957142D01*
X87550187Y-100323655D01*
X86723516Y-99980392D01*
X85828411Y-99979610D01*
X85001142Y-100321431D01*
X84367655Y-100953813D01*
X84024392Y-101780484D01*
X84023610Y-102675589D01*
X41825000Y-102675589D01*
X41825000Y-86279063D01*
X43954820Y-86279063D01*
X44109684Y-86544632D01*
X44902604Y-86641644D01*
X45390316Y-86544632D01*
X45545180Y-86279063D01*
X45541706Y-86275589D01*
X46773610Y-86275589D01*
X47115431Y-87102858D01*
X47747018Y-87735548D01*
X47117655Y-88363813D01*
X46774392Y-89190484D01*
X46773610Y-90085589D01*
X47115431Y-90912858D01*
X47747018Y-91545548D01*
X47117655Y-92173813D01*
X46774392Y-93000484D01*
X46773610Y-93895589D01*
X47115431Y-94722858D01*
X47747813Y-95356345D01*
X48574484Y-95699608D01*
X49469589Y-95700390D01*
X50296858Y-95358569D01*
X50930345Y-94726187D01*
X51273608Y-93899516D01*
X51274390Y-93004411D01*
X50932569Y-92177142D01*
X50300982Y-91544452D01*
X50930345Y-90916187D01*
X51273608Y-90089516D01*
X51274390Y-89194411D01*
X50932569Y-88367142D01*
X50300982Y-87734452D01*
X50930345Y-87106187D01*
X51273608Y-86279516D01*
X51273611Y-86275589D01*
X51599610Y-86275589D01*
X51941431Y-87102858D01*
X52573018Y-87735548D01*
X51943655Y-88363813D01*
X51600392Y-89190484D01*
X51599610Y-90085589D01*
X51941431Y-90912858D01*
X52573018Y-91545548D01*
X51943655Y-92173813D01*
X51600392Y-93000484D01*
X51599610Y-93895589D01*
X51941431Y-94722858D01*
X52573813Y-95356345D01*
X53400484Y-95699608D01*
X54295589Y-95700390D01*
X55122858Y-95358569D01*
X55756345Y-94726187D01*
X56008444Y-94119063D01*
X72904820Y-94119063D01*
X73059684Y-94384632D01*
X73852604Y-94481644D01*
X74340316Y-94384632D01*
X74495180Y-94119063D01*
X73700000Y-93323883D01*
X72904820Y-94119063D01*
X56008444Y-94119063D01*
X56099608Y-93899516D01*
X56100390Y-93004411D01*
X55930235Y-92592604D01*
X71658356Y-92592604D01*
X71755368Y-93080316D01*
X72020937Y-93235180D01*
X72816117Y-92440000D01*
X74583883Y-92440000D01*
X75379063Y-93235180D01*
X75644632Y-93080316D01*
X75741644Y-92287396D01*
X75644632Y-91799684D01*
X75379063Y-91644820D01*
X74583883Y-92440000D01*
X72816117Y-92440000D01*
X72020937Y-91644820D01*
X71755368Y-91799684D01*
X71658356Y-92592604D01*
X55930235Y-92592604D01*
X55758569Y-92177142D01*
X55126982Y-91544452D01*
X55756345Y-90916187D01*
X55820810Y-90760937D01*
X72904820Y-90760937D01*
X73700000Y-91556117D01*
X74495180Y-90760937D01*
X74340316Y-90495368D01*
X73547396Y-90398356D01*
X73059684Y-90495368D01*
X72904820Y-90760937D01*
X55820810Y-90760937D01*
X56099608Y-90089516D01*
X56100390Y-89194411D01*
X56052730Y-89079063D01*
X70404820Y-89079063D01*
X70559684Y-89344632D01*
X71352604Y-89441644D01*
X71840316Y-89344632D01*
X71995180Y-89079063D01*
X71200000Y-88283883D01*
X70404820Y-89079063D01*
X56052730Y-89079063D01*
X55758569Y-88367142D01*
X55126982Y-87734452D01*
X55309147Y-87552604D01*
X69158356Y-87552604D01*
X69255368Y-88040316D01*
X69520937Y-88195180D01*
X70316117Y-87400000D01*
X72083883Y-87400000D01*
X72879063Y-88195180D01*
X73144632Y-88040316D01*
X73174513Y-87796079D01*
X74199654Y-87796079D01*
X74503494Y-88531429D01*
X75065612Y-89094529D01*
X75800430Y-89399652D01*
X76596079Y-89400346D01*
X77331429Y-89096506D01*
X77894529Y-88534388D01*
X78199652Y-87799570D01*
X78200346Y-87003921D01*
X77896506Y-86268571D01*
X77334388Y-85705471D01*
X76599570Y-85400348D01*
X75803921Y-85399654D01*
X75068571Y-85703494D01*
X74505471Y-86265612D01*
X74200348Y-87000430D01*
X74199654Y-87796079D01*
X73174513Y-87796079D01*
X73241644Y-87247396D01*
X73144632Y-86759684D01*
X72879063Y-86604820D01*
X72083883Y-87400000D01*
X70316117Y-87400000D01*
X69520937Y-86604820D01*
X69255368Y-86759684D01*
X69158356Y-87552604D01*
X55309147Y-87552604D01*
X55756345Y-87106187D01*
X56099608Y-86279516D01*
X56100095Y-85720937D01*
X70404820Y-85720937D01*
X71200000Y-86516117D01*
X71995180Y-85720937D01*
X71840316Y-85455368D01*
X71047396Y-85358356D01*
X70559684Y-85455368D01*
X70404820Y-85720937D01*
X56100095Y-85720937D01*
X56100390Y-85384411D01*
X55758569Y-84557142D01*
X55601702Y-84400000D01*
X99041227Y-84400000D01*
X99174438Y-85069696D01*
X99553790Y-85637437D01*
X100121531Y-86016789D01*
X100791227Y-86150000D01*
X103408773Y-86150000D01*
X104078469Y-86016789D01*
X104646210Y-85637437D01*
X105025562Y-85069696D01*
X105154973Y-84419105D01*
X105274438Y-85019696D01*
X105653790Y-85587437D01*
X106221531Y-85966789D01*
X106891227Y-86100000D01*
X109508773Y-86100000D01*
X110178469Y-85966789D01*
X110746210Y-85587437D01*
X111125562Y-85019696D01*
X111258773Y-84350000D01*
X111125562Y-83680304D01*
X110746210Y-83112563D01*
X110178469Y-82733211D01*
X109508773Y-82600000D01*
X106891227Y-82600000D01*
X106221531Y-82733211D01*
X105653790Y-83112563D01*
X105274438Y-83680304D01*
X105145027Y-84330895D01*
X105025562Y-83730304D01*
X104646210Y-83162563D01*
X104078469Y-82783211D01*
X103408773Y-82650000D01*
X100791227Y-82650000D01*
X100121531Y-82783211D01*
X99553790Y-83162563D01*
X99174438Y-83730304D01*
X99041227Y-84400000D01*
X55601702Y-84400000D01*
X55126187Y-83923655D01*
X54299516Y-83580392D01*
X53404411Y-83579610D01*
X52577142Y-83921431D01*
X51943655Y-84553813D01*
X51600392Y-85380484D01*
X51599610Y-86275589D01*
X51273611Y-86275589D01*
X51274390Y-85384411D01*
X50932569Y-84557142D01*
X50300187Y-83923655D01*
X49473516Y-83580392D01*
X48578411Y-83579610D01*
X47751142Y-83921431D01*
X47117655Y-84553813D01*
X46774392Y-85380484D01*
X46773610Y-86275589D01*
X45541706Y-86275589D01*
X44750000Y-85483883D01*
X43954820Y-86279063D01*
X41825000Y-86279063D01*
X41825000Y-84752604D01*
X42708356Y-84752604D01*
X42805368Y-85240316D01*
X43070937Y-85395180D01*
X43866117Y-84600000D01*
X45633883Y-84600000D01*
X46429063Y-85395180D01*
X46694632Y-85240316D01*
X46791644Y-84447396D01*
X46694632Y-83959684D01*
X46429063Y-83804820D01*
X45633883Y-84600000D01*
X43866117Y-84600000D01*
X43070937Y-83804820D01*
X42805368Y-83959684D01*
X42708356Y-84752604D01*
X41825000Y-84752604D01*
X41825000Y-82920937D01*
X43954820Y-82920937D01*
X44750000Y-83716117D01*
X45545180Y-82920937D01*
X45390316Y-82655368D01*
X44597396Y-82558356D01*
X44109684Y-82655368D01*
X43954820Y-82920937D01*
X41825000Y-82920937D01*
X41825000Y-81825000D01*
X113546992Y-81825000D01*
X113399151Y-82046259D01*
M02*
