M48
;DRILL file {KiCad 4.0.7} date 04/18/20 23:37:38
;FORMAT={-:-/ absolute / metric / decimal}
FMAT,2
METRIC,TZ
T1C0.400
T2C1.000
T3C1.200
T4C1.500
T5C1.520
T6C2.000
%
G90
G05
M71
T1
X38.8Y-86.5
X38.85Y-85.1
X38.85Y-88.15
X38.85Y-89.8
X38.862Y-115.062
X38.9Y-92.65
X38.9Y-93.85
X39.05Y-91.65
X39.05Y-98.65
X39.1Y-95.4
X39.116Y-103.124
X39.116Y-112.522
X39.116Y-117.348
X39.116Y-118.872
X39.15Y-96.9
X39.2Y-99.95
X39.3Y-90.95
X39.37Y-102.362
X39.37Y-105.918
X39.37Y-108.204
X39.55Y-83.85
X39.624Y-109.728
X39.75Y-100.75
X39.878Y-120.904
X40.11Y-110.3
X40.4Y-83.1
X41.148Y-121.666
X41.3Y-100.87
X42.25Y-110.93
X42.6Y-83.05
X42.73Y-101.24
X43.688Y-122.428
X44.09Y-110.83
X44.4Y-83.3
X44.49Y-101.32
X45.6Y-109.99
X45.67Y-101.53
X45.974Y-122.174
X46.47Y-108.71
X46.65Y-83.3
X46.91Y-101.61
X47.77Y-107.64
X48.4Y-83.25
X48.46Y-101.62
X48.85Y-106.84
X49.022Y-122.174
X49.13Y-105.44
X50.45Y-83.2
X51.07Y-102.47
X51.308Y-122.174
X51.47Y-104.75
X52.25Y-102.65
X52.32Y-103.84
X52.34Y-101.51
X52.35Y-83.15
X52.5Y-98.04
X53.594Y-124.714
X53.97Y-83.84
X54.04Y-85.3
X54.04Y-98.07
X54.2Y-102.2
X54.22Y-92.81
X54.25Y-83.15
X54.27Y-90.5
X54.28Y-91.77
X54.3Y-86.75
X54.5Y-89.61
X54.65Y-95.65
X54.7Y-88.5
X54.8Y-94.45
X54.85Y-93.5
X55.45Y-101.9
X55.626Y-125.222
X56.25Y-87.97
X56.75Y-83.1
X57.09Y-94.22
X57.36Y-87.42
X57.7Y-102.
X58.25Y-94.8
X58.42Y-125.222
X58.45Y-82.9
X58.95Y-87.48
X59.51Y-92.31
X59.55Y-102.1
X59.944Y-125.476
X60.46Y-87.55
X60.5Y-83.
X60.66Y-92.34
X61.08Y-91.14
X61.8Y-102.1
X61.9Y-101.05
X62.01Y-87.77
X62.2Y-83.1
X62.2Y-97.85
X62.23Y-125.73
X62.35Y-100.05
X62.4Y-97.
X62.45Y-95.3
X63.65Y-83.1
X63.875Y-101.825
X64.5Y-93.
X64.77Y-125.73
X65.Y-84.
X65.Y-85.
X65.Y-86.5
X65.Y-88.
X65.Y-89.5
X65.Y-91.5
X65.3Y-83.1
X65.875Y-101.85
X66.525Y-88.2
X67.1Y-83.15
X68.072Y-125.73
X68.15Y-101.975
X68.525Y-88.7
X68.95Y-83.25
X69.85Y-90.1
X70.45Y-102.
X71.25Y-83.3
X71.628Y-125.984
X71.775Y-90.3
X72.35Y-102.225
X73.15Y-83.25
X74.05Y-102.025
X74.65Y-83.35
X74.676Y-125.984
X74.85Y-90.35
X75.65Y-102.25
X76.7Y-83.25
X76.92Y-90.19
X77.25Y-101.9
X77.76Y-94.1
X78.03Y-97.23
X78.07Y-95.55
X78.12Y-92.4
X78.232Y-125.984
X78.35Y-101.35
X78.37Y-87.82
X78.4Y-90.02
X78.56Y-83.59
X78.79Y-84.96
X78.87Y-86.49
X79.25Y-83.1
X79.63Y-99.14
X79.96Y-102.71
X79.97Y-101.35
X80.9Y-83.05
X80.96Y-98.26
X81.25Y-102.05
X82.042Y-125.73
X82.4Y-83.
X83.3Y-102.35
X83.95Y-83.
X85.2Y-83.15
X85.598Y-125.73
X85.6Y-102.55
X86.55Y-83.1
X86.6Y-87.4
X86.65Y-85.4
X86.8Y-92.1
X86.85Y-90.35
X86.95Y-88.3
X87.Y-93.7
X87.Y-95.
X87.05Y-96.35
X87.1Y-97.45
X87.25Y-84.4
X87.5Y-101.95
X87.75Y-83.05
X87.85Y-99.45
X88.646Y-125.476
X88.85Y-100.75
X89.4Y-83.
X91.Y-83.1
X91.05Y-100.6
X92.05Y-83.05
X93.15Y-100.6
X93.218Y-125.73
X93.45Y-86.9
X93.5Y-83.
X93.6Y-85.2
X94.2Y-84.15
X94.875Y-95.8
X94.925Y-97.1
X95.Y-83.05
X95.15Y-89.
X95.25Y-100.6
X95.35Y-91.9
X95.45Y-99.1
X96.266Y-125.984
X96.35Y-83.
X96.75Y-97.55
X96.85Y-95.
X97.15Y-100.6
X97.6Y-83.1
X98.15Y-95.1
X99.35Y-83.1
X99.5Y-100.7
X99.822Y-125.984
X101.1Y-83.15
X101.45Y-100.7
X102.6Y-83.15
X102.616Y-125.73
X103.1Y-100.65
X104.4Y-83.25
X104.95Y-100.6
X105.918Y-125.73
X106.426Y-100.584
X106.45Y-83.45
X107.2Y-86.45
X107.6Y-83.6
X108.204Y-99.822
X108.95Y-86.9
X109.01Y-92.46
X109.04Y-95.84
X109.059Y-100.84
X109.07Y-94.37
X109.07Y-97.32
X109.12Y-89.23
X109.12Y-99.12
X109.19Y-90.66
X109.474Y-125.476
X109.6Y-84.4
X109.94Y-102.5
X110.744Y-123.698
X111.2Y-103.48
X111.252Y-121.412
X111.315Y-84.629
X111.49Y-85.99
X111.506Y-115.062
X111.506Y-119.38
X111.567Y-98.262
X111.68Y-87.58
X111.75Y-91.3
X111.76Y-112.522
X111.76Y-116.84
X111.79Y-89.38
X111.83Y-93.53
X111.87Y-100.31
X112.014Y-105.664
X112.014Y-107.442
X112.014Y-109.728
X112.05Y-104.25
X112.127Y-95.862
X112.64Y-101.09
X113.55Y-102.23
X114.44Y-105.64
X114.54Y-105.64
X116.009Y-102.322
X116.59Y-105.48
X118.47Y-105.5
X118.8Y-102.37
X120.69Y-105.55
X120.75Y-102.42
X122.48Y-105.51
X122.51Y-102.42
X124.19Y-105.49
X124.21Y-102.42
X125.79Y-105.37
X126.37Y-102.44
X127.63Y-105.47
X128.22Y-102.44
X129.81Y-102.47
X130.048Y-105.41
X132.59Y-105.42
X132.66Y-102.46
T2
X41.25Y-88.4
X41.25Y-90.94
X52.578Y-89.408
X52.578Y-91.948
X52.578Y-94.488
T3
X67.31Y-85.852
X67.31Y-90.852
X72.35Y-88.352
T4
X51.07Y-113.1
X71.56Y-113.1
X81.25Y-113.025
X101.74Y-113.025
X135.43Y-104.16
T5
X42.59Y-103.35
X42.59Y-108.43
T6
X42.905Y-119.75
X42.905Y-124.576
X46.715Y-119.75
X46.715Y-124.576
X50.525Y-119.75
X50.525Y-124.576
X80.97Y-122.32
T0
M30
