G04 #@! TF.FileFunction,Legend,Top*
%FSLAX46Y46*%
G04 Gerber Fmt 4.6, Leading zero omitted, Abs format (unit mm)*
G04 Created by KiCad (PCBNEW 4.0.7) date 04/19/20 01:47:33*
%MOMM*%
%LPD*%
G01*
G04 APERTURE LIST*
%ADD10C,0.100000*%
%ADD11C,0.150000*%
%ADD12C,0.200000*%
%ADD13C,0.120000*%
G04 APERTURE END LIST*
D10*
D11*
X75931905Y-104084762D02*
X76074762Y-104132381D01*
X76312858Y-104132381D01*
X76408096Y-104084762D01*
X76455715Y-104037143D01*
X76503334Y-103941905D01*
X76503334Y-103846667D01*
X76455715Y-103751429D01*
X76408096Y-103703810D01*
X76312858Y-103656190D01*
X76122381Y-103608571D01*
X76027143Y-103560952D01*
X75979524Y-103513333D01*
X75931905Y-103418095D01*
X75931905Y-103322857D01*
X75979524Y-103227619D01*
X76027143Y-103180000D01*
X76122381Y-103132381D01*
X76360477Y-103132381D01*
X76503334Y-103180000D01*
X76931905Y-104132381D02*
X76931905Y-103132381D01*
X77408095Y-104132381D02*
X77408095Y-103132381D01*
X77979524Y-104132381D01*
X77979524Y-103132381D01*
X78979524Y-103180000D02*
X78884286Y-103132381D01*
X78741429Y-103132381D01*
X78598571Y-103180000D01*
X78503333Y-103275238D01*
X78455714Y-103370476D01*
X78408095Y-103560952D01*
X78408095Y-103703810D01*
X78455714Y-103894286D01*
X78503333Y-103989524D01*
X78598571Y-104084762D01*
X78741429Y-104132381D01*
X78836667Y-104132381D01*
X78979524Y-104084762D01*
X79027143Y-104037143D01*
X79027143Y-103703810D01*
X78836667Y-103703810D01*
X79931905Y-104132381D02*
X79455714Y-104132381D01*
X79455714Y-103132381D01*
X80265238Y-103608571D02*
X80598572Y-103608571D01*
X80741429Y-104132381D02*
X80265238Y-104132381D01*
X80265238Y-103132381D01*
X80741429Y-103132381D01*
X82265239Y-103608571D02*
X82408096Y-103656190D01*
X82455715Y-103703810D01*
X82503334Y-103799048D01*
X82503334Y-103941905D01*
X82455715Y-104037143D01*
X82408096Y-104084762D01*
X82312858Y-104132381D01*
X81931905Y-104132381D01*
X81931905Y-103132381D01*
X82265239Y-103132381D01*
X82360477Y-103180000D01*
X82408096Y-103227619D01*
X82455715Y-103322857D01*
X82455715Y-103418095D01*
X82408096Y-103513333D01*
X82360477Y-103560952D01*
X82265239Y-103608571D01*
X81931905Y-103608571D01*
X83122381Y-103132381D02*
X83312858Y-103132381D01*
X83408096Y-103180000D01*
X83503334Y-103275238D01*
X83550953Y-103465714D01*
X83550953Y-103799048D01*
X83503334Y-103989524D01*
X83408096Y-104084762D01*
X83312858Y-104132381D01*
X83122381Y-104132381D01*
X83027143Y-104084762D01*
X82931905Y-103989524D01*
X82884286Y-103799048D01*
X82884286Y-103465714D01*
X82931905Y-103275238D01*
X83027143Y-103180000D01*
X83122381Y-103132381D01*
X83931905Y-103846667D02*
X84408096Y-103846667D01*
X83836667Y-104132381D02*
X84170000Y-103132381D01*
X84503334Y-104132381D01*
X85408096Y-104132381D02*
X85074762Y-103656190D01*
X84836667Y-104132381D02*
X84836667Y-103132381D01*
X85217620Y-103132381D01*
X85312858Y-103180000D01*
X85360477Y-103227619D01*
X85408096Y-103322857D01*
X85408096Y-103465714D01*
X85360477Y-103560952D01*
X85312858Y-103608571D01*
X85217620Y-103656190D01*
X84836667Y-103656190D01*
X85836667Y-104132381D02*
X85836667Y-103132381D01*
X86074762Y-103132381D01*
X86217620Y-103180000D01*
X86312858Y-103275238D01*
X86360477Y-103370476D01*
X86408096Y-103560952D01*
X86408096Y-103703810D01*
X86360477Y-103894286D01*
X86312858Y-103989524D01*
X86217620Y-104084762D01*
X86074762Y-104132381D01*
X85836667Y-104132381D01*
X78908095Y-105734762D02*
X79050952Y-105782381D01*
X79289048Y-105782381D01*
X79384286Y-105734762D01*
X79431905Y-105687143D01*
X79479524Y-105591905D01*
X79479524Y-105496667D01*
X79431905Y-105401429D01*
X79384286Y-105353810D01*
X79289048Y-105306190D01*
X79098571Y-105258571D01*
X79003333Y-105210952D01*
X78955714Y-105163333D01*
X78908095Y-105068095D01*
X78908095Y-104972857D01*
X78955714Y-104877619D01*
X79003333Y-104830000D01*
X79098571Y-104782381D01*
X79336667Y-104782381D01*
X79479524Y-104830000D01*
X79908095Y-104782381D02*
X79908095Y-105591905D01*
X79955714Y-105687143D01*
X80003333Y-105734762D01*
X80098571Y-105782381D01*
X80289048Y-105782381D01*
X80384286Y-105734762D01*
X80431905Y-105687143D01*
X80479524Y-105591905D01*
X80479524Y-104782381D01*
X80955714Y-105782381D02*
X80955714Y-104782381D01*
X81336667Y-104782381D01*
X81431905Y-104830000D01*
X81479524Y-104877619D01*
X81527143Y-104972857D01*
X81527143Y-105115714D01*
X81479524Y-105210952D01*
X81431905Y-105258571D01*
X81336667Y-105306190D01*
X80955714Y-105306190D01*
X81955714Y-105258571D02*
X82289048Y-105258571D01*
X82431905Y-105782381D02*
X81955714Y-105782381D01*
X81955714Y-104782381D01*
X82431905Y-104782381D01*
X83431905Y-105782381D02*
X83098571Y-105306190D01*
X82860476Y-105782381D02*
X82860476Y-104782381D01*
X83241429Y-104782381D01*
X83336667Y-104830000D01*
X83384286Y-104877619D01*
X83431905Y-104972857D01*
X83431905Y-105115714D01*
X83384286Y-105210952D01*
X83336667Y-105258571D01*
X83241429Y-105306190D01*
X82860476Y-105306190D01*
X78931905Y-107432381D02*
X78931905Y-106432381D01*
X79312858Y-106432381D01*
X79408096Y-106480000D01*
X79455715Y-106527619D01*
X79503334Y-106622857D01*
X79503334Y-106765714D01*
X79455715Y-106860952D01*
X79408096Y-106908571D01*
X79312858Y-106956190D01*
X78931905Y-106956190D01*
X80503334Y-107432381D02*
X80170000Y-106956190D01*
X79931905Y-107432381D02*
X79931905Y-106432381D01*
X80312858Y-106432381D01*
X80408096Y-106480000D01*
X80455715Y-106527619D01*
X80503334Y-106622857D01*
X80503334Y-106765714D01*
X80455715Y-106860952D01*
X80408096Y-106908571D01*
X80312858Y-106956190D01*
X79931905Y-106956190D01*
X81122381Y-106432381D02*
X81312858Y-106432381D01*
X81408096Y-106480000D01*
X81503334Y-106575238D01*
X81550953Y-106765714D01*
X81550953Y-107099048D01*
X81503334Y-107289524D01*
X81408096Y-107384762D01*
X81312858Y-107432381D01*
X81122381Y-107432381D01*
X81027143Y-107384762D01*
X80931905Y-107289524D01*
X80884286Y-107099048D01*
X80884286Y-106765714D01*
X80931905Y-106575238D01*
X81027143Y-106480000D01*
X81122381Y-106432381D01*
X82312858Y-106908571D02*
X82455715Y-106956190D01*
X82503334Y-107003810D01*
X82550953Y-107099048D01*
X82550953Y-107241905D01*
X82503334Y-107337143D01*
X82455715Y-107384762D01*
X82360477Y-107432381D01*
X81979524Y-107432381D01*
X81979524Y-106432381D01*
X82312858Y-106432381D01*
X82408096Y-106480000D01*
X82455715Y-106527619D01*
X82503334Y-106622857D01*
X82503334Y-106718095D01*
X82455715Y-106813333D01*
X82408096Y-106860952D01*
X82312858Y-106908571D01*
X81979524Y-106908571D01*
X82979524Y-106908571D02*
X83312858Y-106908571D01*
X83455715Y-107432381D02*
X82979524Y-107432381D01*
X82979524Y-106432381D01*
X83455715Y-106432381D01*
D12*
X113500000Y-126250000D02*
X113250000Y-126250000D01*
X113500000Y-106750000D02*
X113500000Y-126250000D01*
X137500000Y-106750000D02*
X113500000Y-106750000D01*
X113500000Y-101250000D02*
X113500000Y-83250000D01*
X137500000Y-101250000D02*
X113500000Y-101250000D01*
D13*
X77749671Y-112730719D02*
G75*
G02X55304000Y-116276000I-11495671J-45281D01*
G01*
X55305754Y-116302384D02*
G75*
G03X54554000Y-115776000I-751754J-273616D01*
G01*
X77749671Y-112821281D02*
G75*
G03X55304000Y-109276000I-11495671J45281D01*
G01*
X55305754Y-109249616D02*
G75*
G02X54554000Y-109776000I-751754J273616D01*
G01*
X48854000Y-109776000D02*
X54554000Y-109776000D01*
X48854000Y-115776000D02*
X48854000Y-109776000D01*
X48854000Y-115776000D02*
X54554000Y-115776000D01*
X107975671Y-112730719D02*
G75*
G02X85530000Y-116276000I-11495671J-45281D01*
G01*
X85531754Y-116302384D02*
G75*
G03X84780000Y-115776000I-751754J-273616D01*
G01*
X107975671Y-112821281D02*
G75*
G03X85530000Y-109276000I-11495671J45281D01*
G01*
X85531754Y-109249616D02*
G75*
G02X84780000Y-109776000I-751754J273616D01*
G01*
X79080000Y-109776000D02*
X84780000Y-109776000D01*
X79080000Y-115776000D02*
X79080000Y-109776000D01*
X79080000Y-115776000D02*
X84780000Y-115776000D01*
X107450000Y-99402000D02*
X108450000Y-99402000D01*
X108450000Y-97702000D02*
X107450000Y-97702000D01*
X107204000Y-94952000D02*
X109204000Y-94952000D01*
X109204000Y-91992000D02*
X107204000Y-91992000D01*
X98290000Y-91098000D02*
X97290000Y-91098000D01*
X97290000Y-92798000D02*
X98290000Y-92798000D01*
X92186000Y-95802000D02*
X90186000Y-95802000D01*
X90186000Y-98762000D02*
X92186000Y-98762000D01*
X84494000Y-91448000D02*
X84494000Y-92448000D01*
X86194000Y-92448000D02*
X86194000Y-91448000D01*
X82542000Y-88050000D02*
X81542000Y-88050000D01*
X81542000Y-89750000D02*
X82542000Y-89750000D01*
X74466000Y-93488000D02*
X74466000Y-95488000D01*
X77426000Y-95488000D02*
X77426000Y-93488000D01*
X61556000Y-95496000D02*
X61556000Y-94496000D01*
X59856000Y-94496000D02*
X59856000Y-95496000D01*
X103720000Y-98036000D02*
X103720000Y-97036000D01*
X102020000Y-97036000D02*
X102020000Y-98036000D01*
X48560000Y-93040000D02*
X48560000Y-94040000D01*
X50260000Y-94040000D02*
X50260000Y-93040000D01*
X108370000Y-103754000D02*
X110070000Y-103754000D01*
X110070000Y-103754000D02*
X110070000Y-100604000D01*
X108370000Y-103754000D02*
X108370000Y-100604000D01*
X107784000Y-99954000D02*
X106084000Y-99954000D01*
X106084000Y-99954000D02*
X106084000Y-103104000D01*
X107784000Y-99954000D02*
X107784000Y-103104000D01*
X55284000Y-91054000D02*
X56984000Y-91054000D01*
X56984000Y-91054000D02*
X56984000Y-87904000D01*
X55284000Y-91054000D02*
X55284000Y-87904000D01*
X57670000Y-95234000D02*
X57670000Y-92034000D01*
X59170000Y-92034000D02*
X59170000Y-95234000D01*
X59170000Y-92034000D02*
X57670000Y-92034000D01*
X59270000Y-87254000D02*
X57570000Y-87254000D01*
X57570000Y-87254000D02*
X57570000Y-90404000D01*
X59270000Y-87254000D02*
X59270000Y-90404000D01*
X41088000Y-92262000D02*
X43748000Y-92262000D01*
X41088000Y-89662000D02*
X41088000Y-92262000D01*
X43748000Y-89662000D02*
X43748000Y-92262000D01*
X41088000Y-89662000D02*
X43748000Y-89662000D01*
X41088000Y-88392000D02*
X41088000Y-87062000D01*
X41088000Y-87062000D02*
X42418000Y-87062000D01*
X102364000Y-91384000D02*
X102364000Y-92314000D01*
X102364000Y-94544000D02*
X102364000Y-93614000D01*
X102364000Y-94544000D02*
X104524000Y-94544000D01*
X102364000Y-91384000D02*
X103824000Y-91384000D01*
X91615000Y-89295000D02*
X91615000Y-90225000D01*
X91615000Y-92455000D02*
X91615000Y-91525000D01*
X91615000Y-92455000D02*
X93775000Y-92455000D01*
X91615000Y-89295000D02*
X93075000Y-89295000D01*
X81282000Y-91638000D02*
X81282000Y-92568000D01*
X81282000Y-94798000D02*
X81282000Y-93868000D01*
X81282000Y-94798000D02*
X83442000Y-94798000D01*
X81282000Y-91638000D02*
X82742000Y-91638000D01*
X63190000Y-96010000D02*
X64120000Y-96010000D01*
X66350000Y-96010000D02*
X65420000Y-96010000D01*
X66350000Y-96010000D02*
X66350000Y-93850000D01*
X63190000Y-96010000D02*
X63190000Y-94550000D01*
X61724000Y-89606000D02*
X61724000Y-90536000D01*
X61724000Y-92766000D02*
X61724000Y-91836000D01*
X61724000Y-92766000D02*
X63884000Y-92766000D01*
X61724000Y-89606000D02*
X63184000Y-89606000D01*
X47442000Y-89152000D02*
X48372000Y-89152000D01*
X50602000Y-89152000D02*
X49672000Y-89152000D01*
X50602000Y-89152000D02*
X50602000Y-86992000D01*
X47442000Y-89152000D02*
X47442000Y-87692000D01*
X107350000Y-95386000D02*
X108550000Y-95386000D01*
X108550000Y-97146000D02*
X107350000Y-97146000D01*
X100702000Y-95666000D02*
X100702000Y-96866000D01*
X98942000Y-96866000D02*
X98942000Y-95666000D01*
X98400000Y-90580000D02*
X97200000Y-90580000D01*
X97200000Y-88820000D02*
X98400000Y-88820000D01*
X93310000Y-94606000D02*
X92110000Y-94606000D01*
X92110000Y-92846000D02*
X93310000Y-92846000D01*
X96892000Y-95920000D02*
X96892000Y-97120000D01*
X95132000Y-97120000D02*
X95132000Y-95920000D01*
X90034000Y-92110000D02*
X90034000Y-93310000D01*
X88274000Y-93310000D02*
X88274000Y-92110000D01*
X84166000Y-97400000D02*
X82966000Y-97400000D01*
X82966000Y-95640000D02*
X84166000Y-95640000D01*
X87725000Y-89605000D02*
X86525000Y-89605000D01*
X86525000Y-87845000D02*
X87725000Y-87845000D01*
X68952000Y-94650000D02*
X68952000Y-95850000D01*
X67192000Y-95850000D02*
X67192000Y-94650000D01*
X76108000Y-88274000D02*
X77308000Y-88274000D01*
X77308000Y-90034000D02*
X76108000Y-90034000D01*
X73980000Y-97300000D02*
X73980000Y-98500000D01*
X72220000Y-98500000D02*
X72220000Y-97300000D01*
X69478000Y-95850000D02*
X69478000Y-94650000D01*
X71238000Y-94650000D02*
X71238000Y-95850000D01*
X57014000Y-96428000D02*
X57014000Y-97628000D01*
X55254000Y-97628000D02*
X55254000Y-96428000D01*
X48378000Y-92872000D02*
X48378000Y-94072000D01*
X46618000Y-94072000D02*
X46618000Y-92872000D01*
X45838000Y-88554000D02*
X45838000Y-89754000D01*
X44078000Y-89754000D02*
X44078000Y-88554000D01*
X65906000Y-92464000D02*
X65656000Y-92464000D01*
X65656000Y-92464000D02*
X65656000Y-92214000D01*
X65656000Y-92214000D02*
X65406000Y-92214000D01*
X65406000Y-92214000D02*
X65406000Y-90964000D01*
X65406000Y-90964000D02*
X65656000Y-90964000D01*
X65656000Y-90964000D02*
X65656000Y-87314000D01*
X65656000Y-87314000D02*
X65406000Y-87314000D01*
X65406000Y-87314000D02*
X65406000Y-86014000D01*
X65406000Y-86014000D02*
X65656000Y-86014000D01*
X65656000Y-86014000D02*
X65656000Y-85714000D01*
X65656000Y-85714000D02*
X65906000Y-85714000D01*
X72956000Y-90264000D02*
X72956000Y-91164000D01*
X72956000Y-91164000D02*
X71456000Y-92514000D01*
X71456000Y-92514000D02*
X68156000Y-92514000D01*
X68156000Y-85714000D02*
X71506000Y-85714000D01*
X71506000Y-85714000D02*
X72956000Y-87064000D01*
X72956000Y-87064000D02*
X72956000Y-87964000D01*
X51248000Y-95818000D02*
X53908000Y-95818000D01*
X51248000Y-90678000D02*
X51248000Y-95818000D01*
X53908000Y-90678000D02*
X53908000Y-95818000D01*
X51248000Y-90678000D02*
X53908000Y-90678000D01*
X51248000Y-89408000D02*
X51248000Y-88078000D01*
X51248000Y-88078000D02*
X52578000Y-88078000D01*
X48522000Y-99402000D02*
X49522000Y-99402000D01*
X49522000Y-97702000D02*
X48522000Y-97702000D01*
X67550000Y-101250000D02*
X68550000Y-101250000D01*
X68550000Y-99550000D02*
X67550000Y-99550000D01*
X85275000Y-98850000D02*
X84275000Y-98850000D01*
X84275000Y-100550000D02*
X85275000Y-100550000D01*
X137716000Y-104160000D02*
G75*
G03X137716000Y-104160000I-2286000J0D01*
G01*
X83566000Y-121158000D02*
G75*
G03X83566000Y-121158000I-2286000J0D01*
G01*
X56142000Y-124294000D02*
X57142000Y-124294000D01*
X57142000Y-122594000D02*
X56142000Y-122594000D01*
X45458000Y-111672000D02*
X44458000Y-111672000D01*
X44458000Y-113372000D02*
X45458000Y-113372000D01*
X41910000Y-111506000D02*
X41910000Y-101346000D01*
X40640000Y-111506000D02*
X48260000Y-111506000D01*
X48260000Y-111506000D02*
X48260000Y-101346000D01*
X48260000Y-101346000D02*
X40640000Y-101346000D01*
X40640000Y-101346000D02*
X40640000Y-111506000D01*
X46230000Y-99170000D02*
X44680000Y-99170000D01*
X40900000Y-99170000D02*
X42450000Y-99170000D01*
X41660000Y-93830000D02*
X42450000Y-93830000D01*
X45470000Y-93830000D02*
X44680000Y-93830000D01*
X46230000Y-99170000D02*
X46230000Y-94590000D01*
X46230000Y-94590000D02*
X45470000Y-93830000D01*
X41660000Y-93830000D02*
X40900000Y-94590000D01*
X40900000Y-94590000D02*
X40900000Y-99170000D01*
X49158000Y-106010000D02*
X49158000Y-104810000D01*
X50918000Y-104810000D02*
X50918000Y-106010000D01*
D11*
X50268286Y-108404571D02*
X50411143Y-108452190D01*
X50458762Y-108499810D01*
X50506381Y-108595048D01*
X50506381Y-108737905D01*
X50458762Y-108833143D01*
X50411143Y-108880762D01*
X50315905Y-108928381D01*
X49934952Y-108928381D01*
X49934952Y-107928381D01*
X50268286Y-107928381D01*
X50363524Y-107976000D01*
X50411143Y-108023619D01*
X50458762Y-108118857D01*
X50458762Y-108214095D01*
X50411143Y-108309333D01*
X50363524Y-108356952D01*
X50268286Y-108404571D01*
X49934952Y-108404571D01*
X50792095Y-107928381D02*
X51363524Y-107928381D01*
X51077809Y-108928381D02*
X51077809Y-107928381D01*
X52220667Y-108928381D02*
X51649238Y-108928381D01*
X51934952Y-108928381D02*
X51934952Y-107928381D01*
X51839714Y-108071238D01*
X51744476Y-108166476D01*
X51649238Y-108214095D01*
X53232572Y-112883143D02*
X54375429Y-112883143D01*
X53804000Y-113454571D02*
X53804000Y-112311714D01*
X52982762Y-121221333D02*
X53030381Y-121078476D01*
X53030381Y-120840380D01*
X52982762Y-120745142D01*
X52935143Y-120697523D01*
X52839905Y-120649904D01*
X52744667Y-120649904D01*
X52649429Y-120697523D01*
X52601810Y-120745142D01*
X52554190Y-120840380D01*
X52506571Y-121030857D01*
X52458952Y-121126095D01*
X52411333Y-121173714D01*
X52316095Y-121221333D01*
X52220857Y-121221333D01*
X52125619Y-121173714D01*
X52078000Y-121126095D01*
X52030381Y-121030857D01*
X52030381Y-120792761D01*
X52078000Y-120649904D01*
X52030381Y-120316571D02*
X53030381Y-120078476D01*
X52316095Y-119887999D01*
X53030381Y-119697523D01*
X52030381Y-119459428D01*
X52125619Y-119126095D02*
X52078000Y-119078476D01*
X52030381Y-118983238D01*
X52030381Y-118745142D01*
X52078000Y-118649904D01*
X52125619Y-118602285D01*
X52220857Y-118554666D01*
X52316095Y-118554666D01*
X52458952Y-118602285D01*
X53030381Y-119173714D01*
X53030381Y-118554666D01*
X80494286Y-108404571D02*
X80637143Y-108452190D01*
X80684762Y-108499810D01*
X80732381Y-108595048D01*
X80732381Y-108737905D01*
X80684762Y-108833143D01*
X80637143Y-108880762D01*
X80541905Y-108928381D01*
X80160952Y-108928381D01*
X80160952Y-107928381D01*
X80494286Y-107928381D01*
X80589524Y-107976000D01*
X80637143Y-108023619D01*
X80684762Y-108118857D01*
X80684762Y-108214095D01*
X80637143Y-108309333D01*
X80589524Y-108356952D01*
X80494286Y-108404571D01*
X80160952Y-108404571D01*
X81018095Y-107928381D02*
X81589524Y-107928381D01*
X81303809Y-108928381D02*
X81303809Y-107928381D01*
X81875238Y-108023619D02*
X81922857Y-107976000D01*
X82018095Y-107928381D01*
X82256191Y-107928381D01*
X82351429Y-107976000D01*
X82399048Y-108023619D01*
X82446667Y-108118857D01*
X82446667Y-108214095D01*
X82399048Y-108356952D01*
X81827619Y-108928381D01*
X82446667Y-108928381D01*
X83458572Y-112883143D02*
X84601429Y-112883143D01*
X84030000Y-113454571D02*
X84030000Y-112311714D01*
X105259143Y-98718666D02*
X105306762Y-98766285D01*
X105354381Y-98909142D01*
X105354381Y-99004380D01*
X105306762Y-99147238D01*
X105211524Y-99242476D01*
X105116286Y-99290095D01*
X104925810Y-99337714D01*
X104782952Y-99337714D01*
X104592476Y-99290095D01*
X104497238Y-99242476D01*
X104402000Y-99147238D01*
X104354381Y-99004380D01*
X104354381Y-98909142D01*
X104402000Y-98766285D01*
X104449619Y-98718666D01*
X105354381Y-97766285D02*
X105354381Y-98337714D01*
X105354381Y-98052000D02*
X104354381Y-98052000D01*
X104497238Y-98147238D01*
X104592476Y-98242476D01*
X104640095Y-98337714D01*
X108561143Y-93638666D02*
X108608762Y-93686285D01*
X108656381Y-93829142D01*
X108656381Y-93924380D01*
X108608762Y-94067238D01*
X108513524Y-94162476D01*
X108418286Y-94210095D01*
X108227810Y-94257714D01*
X108084952Y-94257714D01*
X107894476Y-94210095D01*
X107799238Y-94162476D01*
X107704000Y-94067238D01*
X107656381Y-93924380D01*
X107656381Y-93829142D01*
X107704000Y-93686285D01*
X107751619Y-93638666D01*
X107751619Y-93257714D02*
X107704000Y-93210095D01*
X107656381Y-93114857D01*
X107656381Y-92876761D01*
X107704000Y-92781523D01*
X107751619Y-92733904D01*
X107846857Y-92686285D01*
X107942095Y-92686285D01*
X108084952Y-92733904D01*
X108656381Y-93305333D01*
X108656381Y-92686285D01*
X101195143Y-92114666D02*
X101242762Y-92162285D01*
X101290381Y-92305142D01*
X101290381Y-92400380D01*
X101242762Y-92543238D01*
X101147524Y-92638476D01*
X101052286Y-92686095D01*
X100861810Y-92733714D01*
X100718952Y-92733714D01*
X100528476Y-92686095D01*
X100433238Y-92638476D01*
X100338000Y-92543238D01*
X100290381Y-92400380D01*
X100290381Y-92305142D01*
X100338000Y-92162285D01*
X100385619Y-92114666D01*
X100290381Y-91781333D02*
X100290381Y-91162285D01*
X100671333Y-91495619D01*
X100671333Y-91352761D01*
X100718952Y-91257523D01*
X100766571Y-91209904D01*
X100861810Y-91162285D01*
X101099905Y-91162285D01*
X101195143Y-91209904D01*
X101242762Y-91257523D01*
X101290381Y-91352761D01*
X101290381Y-91638476D01*
X101242762Y-91733714D01*
X101195143Y-91781333D01*
X91407143Y-97357666D02*
X91454762Y-97405285D01*
X91502381Y-97548142D01*
X91502381Y-97643380D01*
X91454762Y-97786238D01*
X91359524Y-97881476D01*
X91264286Y-97929095D01*
X91073810Y-97976714D01*
X90930952Y-97976714D01*
X90740476Y-97929095D01*
X90645238Y-97881476D01*
X90550000Y-97786238D01*
X90502381Y-97643380D01*
X90502381Y-97548142D01*
X90550000Y-97405285D01*
X90597619Y-97357666D01*
X90835714Y-96500523D02*
X91502381Y-96500523D01*
X90454762Y-96738619D02*
X91169048Y-96976714D01*
X91169048Y-96357666D01*
X85177334Y-95353143D02*
X85129715Y-95400762D01*
X84986858Y-95448381D01*
X84891620Y-95448381D01*
X84748762Y-95400762D01*
X84653524Y-95305524D01*
X84605905Y-95210286D01*
X84558286Y-95019810D01*
X84558286Y-94876952D01*
X84605905Y-94686476D01*
X84653524Y-94591238D01*
X84748762Y-94496000D01*
X84891620Y-94448381D01*
X84986858Y-94448381D01*
X85129715Y-94496000D01*
X85177334Y-94543619D01*
X86082096Y-94448381D02*
X85605905Y-94448381D01*
X85558286Y-94924571D01*
X85605905Y-94876952D01*
X85701143Y-94829333D01*
X85939239Y-94829333D01*
X86034477Y-94876952D01*
X86082096Y-94924571D01*
X86129715Y-95019810D01*
X86129715Y-95257905D01*
X86082096Y-95353143D01*
X86034477Y-95400762D01*
X85939239Y-95448381D01*
X85701143Y-95448381D01*
X85605905Y-95400762D01*
X85558286Y-95353143D01*
X81875334Y-87479143D02*
X81827715Y-87526762D01*
X81684858Y-87574381D01*
X81589620Y-87574381D01*
X81446762Y-87526762D01*
X81351524Y-87431524D01*
X81303905Y-87336286D01*
X81256286Y-87145810D01*
X81256286Y-87002952D01*
X81303905Y-86812476D01*
X81351524Y-86717238D01*
X81446762Y-86622000D01*
X81589620Y-86574381D01*
X81684858Y-86574381D01*
X81827715Y-86622000D01*
X81875334Y-86669619D01*
X82732477Y-86574381D02*
X82542000Y-86574381D01*
X82446762Y-86622000D01*
X82399143Y-86669619D01*
X82303905Y-86812476D01*
X82256286Y-87002952D01*
X82256286Y-87383905D01*
X82303905Y-87479143D01*
X82351524Y-87526762D01*
X82446762Y-87574381D01*
X82637239Y-87574381D01*
X82732477Y-87526762D01*
X82780096Y-87479143D01*
X82827715Y-87383905D01*
X82827715Y-87145810D01*
X82780096Y-87050571D01*
X82732477Y-87002952D01*
X82637239Y-86955333D01*
X82446762Y-86955333D01*
X82351524Y-87002952D01*
X82303905Y-87050571D01*
X82256286Y-87145810D01*
X75725334Y-94879143D02*
X75677715Y-94926762D01*
X75534858Y-94974381D01*
X75439620Y-94974381D01*
X75296762Y-94926762D01*
X75201524Y-94831524D01*
X75153905Y-94736286D01*
X75106286Y-94545810D01*
X75106286Y-94402952D01*
X75153905Y-94212476D01*
X75201524Y-94117238D01*
X75296762Y-94022000D01*
X75439620Y-93974381D01*
X75534858Y-93974381D01*
X75677715Y-94022000D01*
X75725334Y-94069619D01*
X76058667Y-93974381D02*
X76725334Y-93974381D01*
X76296762Y-94974381D01*
X60539334Y-98401143D02*
X60491715Y-98448762D01*
X60348858Y-98496381D01*
X60253620Y-98496381D01*
X60110762Y-98448762D01*
X60015524Y-98353524D01*
X59967905Y-98258286D01*
X59920286Y-98067810D01*
X59920286Y-97924952D01*
X59967905Y-97734476D01*
X60015524Y-97639238D01*
X60110762Y-97544000D01*
X60253620Y-97496381D01*
X60348858Y-97496381D01*
X60491715Y-97544000D01*
X60539334Y-97591619D01*
X61110762Y-97924952D02*
X61015524Y-97877333D01*
X60967905Y-97829714D01*
X60920286Y-97734476D01*
X60920286Y-97686857D01*
X60967905Y-97591619D01*
X61015524Y-97544000D01*
X61110762Y-97496381D01*
X61301239Y-97496381D01*
X61396477Y-97544000D01*
X61444096Y-97591619D01*
X61491715Y-97686857D01*
X61491715Y-97734476D01*
X61444096Y-97829714D01*
X61396477Y-97877333D01*
X61301239Y-97924952D01*
X61110762Y-97924952D01*
X61015524Y-97972571D01*
X60967905Y-98020190D01*
X60920286Y-98115429D01*
X60920286Y-98305905D01*
X60967905Y-98401143D01*
X61015524Y-98448762D01*
X61110762Y-98496381D01*
X61301239Y-98496381D01*
X61396477Y-98448762D01*
X61444096Y-98401143D01*
X61491715Y-98305905D01*
X61491715Y-98115429D01*
X61444096Y-98020190D01*
X61396477Y-97972571D01*
X61301239Y-97924952D01*
X102703334Y-100941143D02*
X102655715Y-100988762D01*
X102512858Y-101036381D01*
X102417620Y-101036381D01*
X102274762Y-100988762D01*
X102179524Y-100893524D01*
X102131905Y-100798286D01*
X102084286Y-100607810D01*
X102084286Y-100464952D01*
X102131905Y-100274476D01*
X102179524Y-100179238D01*
X102274762Y-100084000D01*
X102417620Y-100036381D01*
X102512858Y-100036381D01*
X102655715Y-100084000D01*
X102703334Y-100131619D01*
X103179524Y-101036381D02*
X103370000Y-101036381D01*
X103465239Y-100988762D01*
X103512858Y-100941143D01*
X103608096Y-100798286D01*
X103655715Y-100607810D01*
X103655715Y-100226857D01*
X103608096Y-100131619D01*
X103560477Y-100084000D01*
X103465239Y-100036381D01*
X103274762Y-100036381D01*
X103179524Y-100084000D01*
X103131905Y-100131619D01*
X103084286Y-100226857D01*
X103084286Y-100464952D01*
X103131905Y-100560190D01*
X103179524Y-100607810D01*
X103274762Y-100655429D01*
X103465239Y-100655429D01*
X103560477Y-100607810D01*
X103608096Y-100560190D01*
X103655715Y-100464952D01*
X48887143Y-91035143D02*
X48839524Y-91082762D01*
X48696667Y-91130381D01*
X48601429Y-91130381D01*
X48458571Y-91082762D01*
X48363333Y-90987524D01*
X48315714Y-90892286D01*
X48268095Y-90701810D01*
X48268095Y-90558952D01*
X48315714Y-90368476D01*
X48363333Y-90273238D01*
X48458571Y-90178000D01*
X48601429Y-90130381D01*
X48696667Y-90130381D01*
X48839524Y-90178000D01*
X48887143Y-90225619D01*
X49839524Y-91130381D02*
X49268095Y-91130381D01*
X49553809Y-91130381D02*
X49553809Y-90130381D01*
X49458571Y-90273238D01*
X49363333Y-90368476D01*
X49268095Y-90416095D01*
X50458571Y-90130381D02*
X50553810Y-90130381D01*
X50649048Y-90178000D01*
X50696667Y-90225619D01*
X50744286Y-90320857D01*
X50791905Y-90511333D01*
X50791905Y-90749429D01*
X50744286Y-90939905D01*
X50696667Y-91035143D01*
X50649048Y-91082762D01*
X50553810Y-91130381D01*
X50458571Y-91130381D01*
X50363333Y-91082762D01*
X50315714Y-91035143D01*
X50268095Y-90939905D01*
X50220476Y-90749429D01*
X50220476Y-90511333D01*
X50268095Y-90320857D01*
X50315714Y-90225619D01*
X50363333Y-90178000D01*
X50458571Y-90130381D01*
X108735905Y-104846381D02*
X108735905Y-103846381D01*
X108974000Y-103846381D01*
X109116858Y-103894000D01*
X109212096Y-103989238D01*
X109259715Y-104084476D01*
X109307334Y-104274952D01*
X109307334Y-104417810D01*
X109259715Y-104608286D01*
X109212096Y-104703524D01*
X109116858Y-104798762D01*
X108974000Y-104846381D01*
X108735905Y-104846381D01*
X110259715Y-104846381D02*
X109688286Y-104846381D01*
X109974000Y-104846381D02*
X109974000Y-103846381D01*
X109878762Y-103989238D01*
X109783524Y-104084476D01*
X109688286Y-104132095D01*
X106195905Y-104846381D02*
X106195905Y-103846381D01*
X106434000Y-103846381D01*
X106576858Y-103894000D01*
X106672096Y-103989238D01*
X106719715Y-104084476D01*
X106767334Y-104274952D01*
X106767334Y-104417810D01*
X106719715Y-104608286D01*
X106672096Y-104703524D01*
X106576858Y-104798762D01*
X106434000Y-104846381D01*
X106195905Y-104846381D01*
X107148286Y-103941619D02*
X107195905Y-103894000D01*
X107291143Y-103846381D01*
X107529239Y-103846381D01*
X107624477Y-103894000D01*
X107672096Y-103941619D01*
X107719715Y-104036857D01*
X107719715Y-104132095D01*
X107672096Y-104274952D01*
X107100667Y-104846381D01*
X107719715Y-104846381D01*
X55395905Y-86812381D02*
X55395905Y-85812381D01*
X55634000Y-85812381D01*
X55776858Y-85860000D01*
X55872096Y-85955238D01*
X55919715Y-86050476D01*
X55967334Y-86240952D01*
X55967334Y-86383810D01*
X55919715Y-86574286D01*
X55872096Y-86669524D01*
X55776858Y-86764762D01*
X55634000Y-86812381D01*
X55395905Y-86812381D01*
X56300667Y-85812381D02*
X56919715Y-85812381D01*
X56586381Y-86193333D01*
X56729239Y-86193333D01*
X56824477Y-86240952D01*
X56872096Y-86288571D01*
X56919715Y-86383810D01*
X56919715Y-86621905D01*
X56872096Y-86717143D01*
X56824477Y-86764762D01*
X56729239Y-86812381D01*
X56443524Y-86812381D01*
X56348286Y-86764762D01*
X56300667Y-86717143D01*
X57094381Y-93956095D02*
X56094381Y-93956095D01*
X56094381Y-93718000D01*
X56142000Y-93575142D01*
X56237238Y-93479904D01*
X56332476Y-93432285D01*
X56522952Y-93384666D01*
X56665810Y-93384666D01*
X56856286Y-93432285D01*
X56951524Y-93479904D01*
X57046762Y-93575142D01*
X57094381Y-93718000D01*
X57094381Y-93956095D01*
X56427714Y-92527523D02*
X57094381Y-92527523D01*
X56046762Y-92765619D02*
X56761048Y-93003714D01*
X56761048Y-92384666D01*
X57681905Y-86812381D02*
X57681905Y-85812381D01*
X57920000Y-85812381D01*
X58062858Y-85860000D01*
X58158096Y-85955238D01*
X58205715Y-86050476D01*
X58253334Y-86240952D01*
X58253334Y-86383810D01*
X58205715Y-86574286D01*
X58158096Y-86669524D01*
X58062858Y-86764762D01*
X57920000Y-86812381D01*
X57681905Y-86812381D01*
X59158096Y-85812381D02*
X58681905Y-85812381D01*
X58634286Y-86288571D01*
X58681905Y-86240952D01*
X58777143Y-86193333D01*
X59015239Y-86193333D01*
X59110477Y-86240952D01*
X59158096Y-86288571D01*
X59205715Y-86383810D01*
X59205715Y-86621905D01*
X59158096Y-86717143D01*
X59110477Y-86764762D01*
X59015239Y-86812381D01*
X58777143Y-86812381D01*
X58681905Y-86764762D01*
X58634286Y-86717143D01*
X41584667Y-85514381D02*
X41584667Y-86228667D01*
X41537047Y-86371524D01*
X41441809Y-86466762D01*
X41298952Y-86514381D01*
X41203714Y-86514381D01*
X42060857Y-86514381D02*
X42060857Y-85514381D01*
X42441810Y-85514381D01*
X42537048Y-85562000D01*
X42584667Y-85609619D01*
X42632286Y-85704857D01*
X42632286Y-85847714D01*
X42584667Y-85942952D01*
X42537048Y-85990571D01*
X42441810Y-86038190D01*
X42060857Y-86038190D01*
X43584667Y-86514381D02*
X43013238Y-86514381D01*
X43298952Y-86514381D02*
X43298952Y-85514381D01*
X43203714Y-85657238D01*
X43108476Y-85752476D01*
X43013238Y-85800095D01*
X102147619Y-94583238D02*
X102100000Y-94678476D01*
X102004762Y-94773714D01*
X101861905Y-94916571D01*
X101814286Y-95011810D01*
X101814286Y-95107048D01*
X102052381Y-95059429D02*
X102004762Y-95154667D01*
X101909524Y-95249905D01*
X101719048Y-95297524D01*
X101385714Y-95297524D01*
X101195238Y-95249905D01*
X101100000Y-95154667D01*
X101052381Y-95059429D01*
X101052381Y-94868952D01*
X101100000Y-94773714D01*
X101195238Y-94678476D01*
X101385714Y-94630857D01*
X101719048Y-94630857D01*
X101909524Y-94678476D01*
X102004762Y-94773714D01*
X102052381Y-94868952D01*
X102052381Y-95059429D01*
X102052381Y-93678476D02*
X102052381Y-94249905D01*
X102052381Y-93964191D02*
X101052381Y-93964191D01*
X101195238Y-94059429D01*
X101290476Y-94154667D01*
X101338095Y-94249905D01*
X92429762Y-88872619D02*
X92334524Y-88825000D01*
X92239286Y-88729762D01*
X92096429Y-88586905D01*
X92001190Y-88539286D01*
X91905952Y-88539286D01*
X91953571Y-88777381D02*
X91858333Y-88729762D01*
X91763095Y-88634524D01*
X91715476Y-88444048D01*
X91715476Y-88110714D01*
X91763095Y-87920238D01*
X91858333Y-87825000D01*
X91953571Y-87777381D01*
X92144048Y-87777381D01*
X92239286Y-87825000D01*
X92334524Y-87920238D01*
X92382143Y-88110714D01*
X92382143Y-88444048D01*
X92334524Y-88634524D01*
X92239286Y-88729762D01*
X92144048Y-88777381D01*
X91953571Y-88777381D01*
X92763095Y-87872619D02*
X92810714Y-87825000D01*
X92905952Y-87777381D01*
X93144048Y-87777381D01*
X93239286Y-87825000D01*
X93286905Y-87872619D01*
X93334524Y-87967857D01*
X93334524Y-88063095D01*
X93286905Y-88205952D01*
X92715476Y-88777381D01*
X93334524Y-88777381D01*
X81692762Y-91225619D02*
X81597524Y-91178000D01*
X81502286Y-91082762D01*
X81359429Y-90939905D01*
X81264190Y-90892286D01*
X81168952Y-90892286D01*
X81216571Y-91130381D02*
X81121333Y-91082762D01*
X81026095Y-90987524D01*
X80978476Y-90797048D01*
X80978476Y-90463714D01*
X81026095Y-90273238D01*
X81121333Y-90178000D01*
X81216571Y-90130381D01*
X81407048Y-90130381D01*
X81502286Y-90178000D01*
X81597524Y-90273238D01*
X81645143Y-90463714D01*
X81645143Y-90797048D01*
X81597524Y-90987524D01*
X81502286Y-91082762D01*
X81407048Y-91130381D01*
X81216571Y-91130381D01*
X81978476Y-90130381D02*
X82597524Y-90130381D01*
X82264190Y-90511333D01*
X82407048Y-90511333D01*
X82502286Y-90558952D01*
X82549905Y-90606571D01*
X82597524Y-90701810D01*
X82597524Y-90939905D01*
X82549905Y-91035143D01*
X82502286Y-91082762D01*
X82407048Y-91130381D01*
X82121333Y-91130381D01*
X82026095Y-91082762D01*
X81978476Y-91035143D01*
X64674762Y-98337619D02*
X64579524Y-98290000D01*
X64484286Y-98194762D01*
X64341429Y-98051905D01*
X64246190Y-98004286D01*
X64150952Y-98004286D01*
X64198571Y-98242381D02*
X64103333Y-98194762D01*
X64008095Y-98099524D01*
X63960476Y-97909048D01*
X63960476Y-97575714D01*
X64008095Y-97385238D01*
X64103333Y-97290000D01*
X64198571Y-97242381D01*
X64389048Y-97242381D01*
X64484286Y-97290000D01*
X64579524Y-97385238D01*
X64627143Y-97575714D01*
X64627143Y-97909048D01*
X64579524Y-98099524D01*
X64484286Y-98194762D01*
X64389048Y-98242381D01*
X64198571Y-98242381D01*
X65484286Y-97575714D02*
X65484286Y-98242381D01*
X65246190Y-97194762D02*
X65008095Y-97909048D01*
X65627143Y-97909048D01*
X60491619Y-90773238D02*
X60444000Y-90868476D01*
X60348762Y-90963714D01*
X60205905Y-91106571D01*
X60158286Y-91201810D01*
X60158286Y-91297048D01*
X60396381Y-91249429D02*
X60348762Y-91344667D01*
X60253524Y-91439905D01*
X60063048Y-91487524D01*
X59729714Y-91487524D01*
X59539238Y-91439905D01*
X59444000Y-91344667D01*
X59396381Y-91249429D01*
X59396381Y-91058952D01*
X59444000Y-90963714D01*
X59539238Y-90868476D01*
X59729714Y-90820857D01*
X60063048Y-90820857D01*
X60253524Y-90868476D01*
X60348762Y-90963714D01*
X60396381Y-91058952D01*
X60396381Y-91249429D01*
X59396381Y-89916095D02*
X59396381Y-90392286D01*
X59872571Y-90439905D01*
X59824952Y-90392286D01*
X59777333Y-90297048D01*
X59777333Y-90058952D01*
X59824952Y-89963714D01*
X59872571Y-89916095D01*
X59967810Y-89868476D01*
X60205905Y-89868476D01*
X60301143Y-89916095D01*
X60348762Y-89963714D01*
X60396381Y-90058952D01*
X60396381Y-90297048D01*
X60348762Y-90392286D01*
X60301143Y-90439905D01*
X49434762Y-86399619D02*
X49339524Y-86352000D01*
X49244286Y-86256762D01*
X49101429Y-86113905D01*
X49006190Y-86066286D01*
X48910952Y-86066286D01*
X48958571Y-86304381D02*
X48863333Y-86256762D01*
X48768095Y-86161524D01*
X48720476Y-85971048D01*
X48720476Y-85637714D01*
X48768095Y-85447238D01*
X48863333Y-85352000D01*
X48958571Y-85304381D01*
X49149048Y-85304381D01*
X49244286Y-85352000D01*
X49339524Y-85447238D01*
X49387143Y-85637714D01*
X49387143Y-85971048D01*
X49339524Y-86161524D01*
X49244286Y-86256762D01*
X49149048Y-86304381D01*
X48958571Y-86304381D01*
X50244286Y-85304381D02*
X50053809Y-85304381D01*
X49958571Y-85352000D01*
X49910952Y-85399619D01*
X49815714Y-85542476D01*
X49768095Y-85732952D01*
X49768095Y-86113905D01*
X49815714Y-86209143D01*
X49863333Y-86256762D01*
X49958571Y-86304381D01*
X50149048Y-86304381D01*
X50244286Y-86256762D01*
X50291905Y-86209143D01*
X50339524Y-86113905D01*
X50339524Y-85875810D01*
X50291905Y-85780571D01*
X50244286Y-85732952D01*
X50149048Y-85685333D01*
X49958571Y-85685333D01*
X49863333Y-85732952D01*
X49815714Y-85780571D01*
X49768095Y-85875810D01*
X105354381Y-96178666D02*
X104878190Y-96512000D01*
X105354381Y-96750095D02*
X104354381Y-96750095D01*
X104354381Y-96369142D01*
X104402000Y-96273904D01*
X104449619Y-96226285D01*
X104544857Y-96178666D01*
X104687714Y-96178666D01*
X104782952Y-96226285D01*
X104830571Y-96273904D01*
X104878190Y-96369142D01*
X104878190Y-96750095D01*
X105354381Y-95226285D02*
X105354381Y-95797714D01*
X105354381Y-95512000D02*
X104354381Y-95512000D01*
X104497238Y-95607238D01*
X104592476Y-95702476D01*
X104640095Y-95797714D01*
X99655334Y-99766381D02*
X99322000Y-99290190D01*
X99083905Y-99766381D02*
X99083905Y-98766381D01*
X99464858Y-98766381D01*
X99560096Y-98814000D01*
X99607715Y-98861619D01*
X99655334Y-98956857D01*
X99655334Y-99099714D01*
X99607715Y-99194952D01*
X99560096Y-99242571D01*
X99464858Y-99290190D01*
X99083905Y-99290190D01*
X100036286Y-98861619D02*
X100083905Y-98814000D01*
X100179143Y-98766381D01*
X100417239Y-98766381D01*
X100512477Y-98814000D01*
X100560096Y-98861619D01*
X100607715Y-98956857D01*
X100607715Y-99052095D01*
X100560096Y-99194952D01*
X99988667Y-99766381D01*
X100607715Y-99766381D01*
X101300381Y-89866666D02*
X100824190Y-90200000D01*
X101300381Y-90438095D02*
X100300381Y-90438095D01*
X100300381Y-90057142D01*
X100348000Y-89961904D01*
X100395619Y-89914285D01*
X100490857Y-89866666D01*
X100633714Y-89866666D01*
X100728952Y-89914285D01*
X100776571Y-89961904D01*
X100824190Y-90057142D01*
X100824190Y-90438095D01*
X100300381Y-89533333D02*
X100300381Y-88914285D01*
X100681333Y-89247619D01*
X100681333Y-89104761D01*
X100728952Y-89009523D01*
X100776571Y-88961904D01*
X100871810Y-88914285D01*
X101109905Y-88914285D01*
X101205143Y-88961904D01*
X101252762Y-89009523D01*
X101300381Y-89104761D01*
X101300381Y-89390476D01*
X101252762Y-89485714D01*
X101205143Y-89533333D01*
X96464381Y-93638666D02*
X95988190Y-93972000D01*
X96464381Y-94210095D02*
X95464381Y-94210095D01*
X95464381Y-93829142D01*
X95512000Y-93733904D01*
X95559619Y-93686285D01*
X95654857Y-93638666D01*
X95797714Y-93638666D01*
X95892952Y-93686285D01*
X95940571Y-93733904D01*
X95988190Y-93829142D01*
X95988190Y-94210095D01*
X95797714Y-92781523D02*
X96464381Y-92781523D01*
X95416762Y-93019619D02*
X96131048Y-93257714D01*
X96131048Y-92638666D01*
X98242381Y-96686666D02*
X97766190Y-97020000D01*
X98242381Y-97258095D02*
X97242381Y-97258095D01*
X97242381Y-96877142D01*
X97290000Y-96781904D01*
X97337619Y-96734285D01*
X97432857Y-96686666D01*
X97575714Y-96686666D01*
X97670952Y-96734285D01*
X97718571Y-96781904D01*
X97766190Y-96877142D01*
X97766190Y-97258095D01*
X97242381Y-95781904D02*
X97242381Y-96258095D01*
X97718571Y-96305714D01*
X97670952Y-96258095D01*
X97623333Y-96162857D01*
X97623333Y-95924761D01*
X97670952Y-95829523D01*
X97718571Y-95781904D01*
X97813810Y-95734285D01*
X98051905Y-95734285D01*
X98147143Y-95781904D01*
X98194762Y-95829523D01*
X98242381Y-95924761D01*
X98242381Y-96162857D01*
X98194762Y-96258095D01*
X98147143Y-96305714D01*
X88987334Y-96210381D02*
X88654000Y-95734190D01*
X88415905Y-96210381D02*
X88415905Y-95210381D01*
X88796858Y-95210381D01*
X88892096Y-95258000D01*
X88939715Y-95305619D01*
X88987334Y-95400857D01*
X88987334Y-95543714D01*
X88939715Y-95638952D01*
X88892096Y-95686571D01*
X88796858Y-95734190D01*
X88415905Y-95734190D01*
X89844477Y-95210381D02*
X89654000Y-95210381D01*
X89558762Y-95258000D01*
X89511143Y-95305619D01*
X89415905Y-95448476D01*
X89368286Y-95638952D01*
X89368286Y-96019905D01*
X89415905Y-96115143D01*
X89463524Y-96162762D01*
X89558762Y-96210381D01*
X89749239Y-96210381D01*
X89844477Y-96162762D01*
X89892096Y-96115143D01*
X89939715Y-96019905D01*
X89939715Y-95781810D01*
X89892096Y-95686571D01*
X89844477Y-95638952D01*
X89749239Y-95591333D01*
X89558762Y-95591333D01*
X89463524Y-95638952D01*
X89415905Y-95686571D01*
X89368286Y-95781810D01*
X80970381Y-96686666D02*
X80494190Y-97020000D01*
X80970381Y-97258095D02*
X79970381Y-97258095D01*
X79970381Y-96877142D01*
X80018000Y-96781904D01*
X80065619Y-96734285D01*
X80160857Y-96686666D01*
X80303714Y-96686666D01*
X80398952Y-96734285D01*
X80446571Y-96781904D01*
X80494190Y-96877142D01*
X80494190Y-97258095D01*
X79970381Y-96353333D02*
X79970381Y-95686666D01*
X80970381Y-96115238D01*
X90652381Y-88691666D02*
X90176190Y-89025000D01*
X90652381Y-89263095D02*
X89652381Y-89263095D01*
X89652381Y-88882142D01*
X89700000Y-88786904D01*
X89747619Y-88739285D01*
X89842857Y-88691666D01*
X89985714Y-88691666D01*
X90080952Y-88739285D01*
X90128571Y-88786904D01*
X90176190Y-88882142D01*
X90176190Y-89263095D01*
X90080952Y-88120238D02*
X90033333Y-88215476D01*
X89985714Y-88263095D01*
X89890476Y-88310714D01*
X89842857Y-88310714D01*
X89747619Y-88263095D01*
X89700000Y-88215476D01*
X89652381Y-88120238D01*
X89652381Y-87929761D01*
X89700000Y-87834523D01*
X89747619Y-87786904D01*
X89842857Y-87739285D01*
X89890476Y-87739285D01*
X89985714Y-87786904D01*
X90033333Y-87834523D01*
X90080952Y-87929761D01*
X90080952Y-88120238D01*
X90128571Y-88215476D01*
X90176190Y-88263095D01*
X90271429Y-88310714D01*
X90461905Y-88310714D01*
X90557143Y-88263095D01*
X90604762Y-88215476D01*
X90652381Y-88120238D01*
X90652381Y-87929761D01*
X90604762Y-87834523D01*
X90557143Y-87786904D01*
X90461905Y-87739285D01*
X90271429Y-87739285D01*
X90176190Y-87786904D01*
X90128571Y-87834523D01*
X90080952Y-87929761D01*
X67397334Y-98750381D02*
X67064000Y-98274190D01*
X66825905Y-98750381D02*
X66825905Y-97750381D01*
X67206858Y-97750381D01*
X67302096Y-97798000D01*
X67349715Y-97845619D01*
X67397334Y-97940857D01*
X67397334Y-98083714D01*
X67349715Y-98178952D01*
X67302096Y-98226571D01*
X67206858Y-98274190D01*
X66825905Y-98274190D01*
X67873524Y-98750381D02*
X68064000Y-98750381D01*
X68159239Y-98702762D01*
X68206858Y-98655143D01*
X68302096Y-98512286D01*
X68349715Y-98321810D01*
X68349715Y-97940857D01*
X68302096Y-97845619D01*
X68254477Y-97798000D01*
X68159239Y-97750381D01*
X67968762Y-97750381D01*
X67873524Y-97798000D01*
X67825905Y-97845619D01*
X67778286Y-97940857D01*
X67778286Y-98178952D01*
X67825905Y-98274190D01*
X67873524Y-98321810D01*
X67968762Y-98369429D01*
X68159239Y-98369429D01*
X68254477Y-98321810D01*
X68302096Y-98274190D01*
X68349715Y-98178952D01*
X76065143Y-87828381D02*
X75731809Y-87352190D01*
X75493714Y-87828381D02*
X75493714Y-86828381D01*
X75874667Y-86828381D01*
X75969905Y-86876000D01*
X76017524Y-86923619D01*
X76065143Y-87018857D01*
X76065143Y-87161714D01*
X76017524Y-87256952D01*
X75969905Y-87304571D01*
X75874667Y-87352190D01*
X75493714Y-87352190D01*
X77017524Y-87828381D02*
X76446095Y-87828381D01*
X76731809Y-87828381D02*
X76731809Y-86828381D01*
X76636571Y-86971238D01*
X76541333Y-87066476D01*
X76446095Y-87114095D01*
X77636571Y-86828381D02*
X77731810Y-86828381D01*
X77827048Y-86876000D01*
X77874667Y-86923619D01*
X77922286Y-87018857D01*
X77969905Y-87209333D01*
X77969905Y-87447429D01*
X77922286Y-87637905D01*
X77874667Y-87733143D01*
X77827048Y-87780762D01*
X77731810Y-87828381D01*
X77636571Y-87828381D01*
X77541333Y-87780762D01*
X77493714Y-87733143D01*
X77446095Y-87637905D01*
X77398476Y-87447429D01*
X77398476Y-87209333D01*
X77446095Y-87018857D01*
X77493714Y-86923619D01*
X77541333Y-86876000D01*
X77636571Y-86828381D01*
X72711143Y-101400381D02*
X72377809Y-100924190D01*
X72139714Y-101400381D02*
X72139714Y-100400381D01*
X72520667Y-100400381D01*
X72615905Y-100448000D01*
X72663524Y-100495619D01*
X72711143Y-100590857D01*
X72711143Y-100733714D01*
X72663524Y-100828952D01*
X72615905Y-100876571D01*
X72520667Y-100924190D01*
X72139714Y-100924190D01*
X73663524Y-101400381D02*
X73092095Y-101400381D01*
X73377809Y-101400381D02*
X73377809Y-100400381D01*
X73282571Y-100543238D01*
X73187333Y-100638476D01*
X73092095Y-100686095D01*
X74615905Y-101400381D02*
X74044476Y-101400381D01*
X74330190Y-101400381D02*
X74330190Y-100400381D01*
X74234952Y-100543238D01*
X74139714Y-100638476D01*
X74044476Y-100686095D01*
X69461143Y-98750381D02*
X69127809Y-98274190D01*
X68889714Y-98750381D02*
X68889714Y-97750381D01*
X69270667Y-97750381D01*
X69365905Y-97798000D01*
X69413524Y-97845619D01*
X69461143Y-97940857D01*
X69461143Y-98083714D01*
X69413524Y-98178952D01*
X69365905Y-98226571D01*
X69270667Y-98274190D01*
X68889714Y-98274190D01*
X70413524Y-98750381D02*
X69842095Y-98750381D01*
X70127809Y-98750381D02*
X70127809Y-97750381D01*
X70032571Y-97893238D01*
X69937333Y-97988476D01*
X69842095Y-98036095D01*
X70794476Y-97845619D02*
X70842095Y-97798000D01*
X70937333Y-97750381D01*
X71175429Y-97750381D01*
X71270667Y-97798000D01*
X71318286Y-97845619D01*
X71365905Y-97940857D01*
X71365905Y-98036095D01*
X71318286Y-98178952D01*
X70746857Y-98750381D01*
X71365905Y-98750381D01*
X54983143Y-100782381D02*
X54649809Y-100306190D01*
X54411714Y-100782381D02*
X54411714Y-99782381D01*
X54792667Y-99782381D01*
X54887905Y-99830000D01*
X54935524Y-99877619D01*
X54983143Y-99972857D01*
X54983143Y-100115714D01*
X54935524Y-100210952D01*
X54887905Y-100258571D01*
X54792667Y-100306190D01*
X54411714Y-100306190D01*
X55935524Y-100782381D02*
X55364095Y-100782381D01*
X55649809Y-100782381D02*
X55649809Y-99782381D01*
X55554571Y-99925238D01*
X55459333Y-100020476D01*
X55364095Y-100068095D01*
X56268857Y-99782381D02*
X56887905Y-99782381D01*
X56554571Y-100163333D01*
X56697429Y-100163333D01*
X56792667Y-100210952D01*
X56840286Y-100258571D01*
X56887905Y-100353810D01*
X56887905Y-100591905D01*
X56840286Y-100687143D01*
X56792667Y-100734762D01*
X56697429Y-100782381D01*
X56411714Y-100782381D01*
X56316476Y-100734762D01*
X56268857Y-100687143D01*
X47109143Y-96972381D02*
X46775809Y-96496190D01*
X46537714Y-96972381D02*
X46537714Y-95972381D01*
X46918667Y-95972381D01*
X47013905Y-96020000D01*
X47061524Y-96067619D01*
X47109143Y-96162857D01*
X47109143Y-96305714D01*
X47061524Y-96400952D01*
X47013905Y-96448571D01*
X46918667Y-96496190D01*
X46537714Y-96496190D01*
X48061524Y-96972381D02*
X47490095Y-96972381D01*
X47775809Y-96972381D02*
X47775809Y-95972381D01*
X47680571Y-96115238D01*
X47585333Y-96210476D01*
X47490095Y-96258095D01*
X48966286Y-95972381D02*
X48490095Y-95972381D01*
X48442476Y-96448571D01*
X48490095Y-96400952D01*
X48585333Y-96353333D01*
X48823429Y-96353333D01*
X48918667Y-96400952D01*
X48966286Y-96448571D01*
X49013905Y-96543810D01*
X49013905Y-96781905D01*
X48966286Y-96877143D01*
X48918667Y-96924762D01*
X48823429Y-96972381D01*
X48585333Y-96972381D01*
X48490095Y-96924762D01*
X48442476Y-96877143D01*
X44485143Y-86516381D02*
X44151809Y-86040190D01*
X43913714Y-86516381D02*
X43913714Y-85516381D01*
X44294667Y-85516381D01*
X44389905Y-85564000D01*
X44437524Y-85611619D01*
X44485143Y-85706857D01*
X44485143Y-85849714D01*
X44437524Y-85944952D01*
X44389905Y-85992571D01*
X44294667Y-86040190D01*
X43913714Y-86040190D01*
X45437524Y-86516381D02*
X44866095Y-86516381D01*
X45151809Y-86516381D02*
X45151809Y-85516381D01*
X45056571Y-85659238D01*
X44961333Y-85754476D01*
X44866095Y-85802095D01*
X45770857Y-85516381D02*
X46437524Y-85516381D01*
X46008952Y-86516381D01*
X70302381Y-87717238D02*
X69826190Y-88050572D01*
X70302381Y-88288667D02*
X69302381Y-88288667D01*
X69302381Y-87907714D01*
X69350000Y-87812476D01*
X69397619Y-87764857D01*
X69492857Y-87717238D01*
X69635714Y-87717238D01*
X69730952Y-87764857D01*
X69778571Y-87812476D01*
X69826190Y-87907714D01*
X69826190Y-88288667D01*
X69302381Y-87431524D02*
X70302381Y-87098191D01*
X69302381Y-86764857D01*
X70302381Y-85907714D02*
X70302381Y-86479143D01*
X70302381Y-86193429D02*
X69302381Y-86193429D01*
X69445238Y-86288667D01*
X69540476Y-86383905D01*
X69588095Y-86479143D01*
X51244667Y-87482762D02*
X51387524Y-87530381D01*
X51625620Y-87530381D01*
X51720858Y-87482762D01*
X51768477Y-87435143D01*
X51816096Y-87339905D01*
X51816096Y-87244667D01*
X51768477Y-87149429D01*
X51720858Y-87101810D01*
X51625620Y-87054190D01*
X51435143Y-87006571D01*
X51339905Y-86958952D01*
X51292286Y-86911333D01*
X51244667Y-86816095D01*
X51244667Y-86720857D01*
X51292286Y-86625619D01*
X51339905Y-86578000D01*
X51435143Y-86530381D01*
X51673239Y-86530381D01*
X51816096Y-86578000D01*
X52149429Y-86530381D02*
X52387524Y-87530381D01*
X52578001Y-86816095D01*
X52768477Y-87530381D01*
X53006572Y-86530381D01*
X53911334Y-87530381D02*
X53339905Y-87530381D01*
X53625619Y-87530381D02*
X53625619Y-86530381D01*
X53530381Y-86673238D01*
X53435143Y-86768476D01*
X53339905Y-86816095D01*
X48379143Y-100659143D02*
X48331524Y-100706762D01*
X48188667Y-100754381D01*
X48093429Y-100754381D01*
X47950571Y-100706762D01*
X47855333Y-100611524D01*
X47807714Y-100516286D01*
X47760095Y-100325810D01*
X47760095Y-100182952D01*
X47807714Y-99992476D01*
X47855333Y-99897238D01*
X47950571Y-99802000D01*
X48093429Y-99754381D01*
X48188667Y-99754381D01*
X48331524Y-99802000D01*
X48379143Y-99849619D01*
X49331524Y-100754381D02*
X48760095Y-100754381D01*
X49045809Y-100754381D02*
X49045809Y-99754381D01*
X48950571Y-99897238D01*
X48855333Y-99992476D01*
X48760095Y-100040095D01*
X50283905Y-100754381D02*
X49712476Y-100754381D01*
X49998190Y-100754381D02*
X49998190Y-99754381D01*
X49902952Y-99897238D01*
X49807714Y-99992476D01*
X49712476Y-100040095D01*
X63407143Y-100807143D02*
X63359524Y-100854762D01*
X63216667Y-100902381D01*
X63121429Y-100902381D01*
X62978571Y-100854762D01*
X62883333Y-100759524D01*
X62835714Y-100664286D01*
X62788095Y-100473810D01*
X62788095Y-100330952D01*
X62835714Y-100140476D01*
X62883333Y-100045238D01*
X62978571Y-99950000D01*
X63121429Y-99902381D01*
X63216667Y-99902381D01*
X63359524Y-99950000D01*
X63407143Y-99997619D01*
X64359524Y-100902381D02*
X63788095Y-100902381D01*
X64073809Y-100902381D02*
X64073809Y-99902381D01*
X63978571Y-100045238D01*
X63883333Y-100140476D01*
X63788095Y-100188095D01*
X64740476Y-99997619D02*
X64788095Y-99950000D01*
X64883333Y-99902381D01*
X65121429Y-99902381D01*
X65216667Y-99950000D01*
X65264286Y-99997619D01*
X65311905Y-100092857D01*
X65311905Y-100188095D01*
X65264286Y-100330952D01*
X64692857Y-100902381D01*
X65311905Y-100902381D01*
X84132143Y-98307143D02*
X84084524Y-98354762D01*
X83941667Y-98402381D01*
X83846429Y-98402381D01*
X83703571Y-98354762D01*
X83608333Y-98259524D01*
X83560714Y-98164286D01*
X83513095Y-97973810D01*
X83513095Y-97830952D01*
X83560714Y-97640476D01*
X83608333Y-97545238D01*
X83703571Y-97450000D01*
X83846429Y-97402381D01*
X83941667Y-97402381D01*
X84084524Y-97450000D01*
X84132143Y-97497619D01*
X85084524Y-98402381D02*
X84513095Y-98402381D01*
X84798809Y-98402381D02*
X84798809Y-97402381D01*
X84703571Y-97545238D01*
X84608333Y-97640476D01*
X84513095Y-97688095D01*
X85417857Y-97402381D02*
X86036905Y-97402381D01*
X85703571Y-97783333D01*
X85846429Y-97783333D01*
X85941667Y-97830952D01*
X85989286Y-97878571D01*
X86036905Y-97973810D01*
X86036905Y-98211905D01*
X85989286Y-98307143D01*
X85941667Y-98354762D01*
X85846429Y-98402381D01*
X85560714Y-98402381D01*
X85465476Y-98354762D01*
X85417857Y-98307143D01*
X135810667Y-108672381D02*
X135810667Y-109386667D01*
X135763047Y-109529524D01*
X135667809Y-109624762D01*
X135524952Y-109672381D01*
X135429714Y-109672381D01*
X136810667Y-109672381D02*
X136239238Y-109672381D01*
X136524952Y-109672381D02*
X136524952Y-108672381D01*
X136429714Y-108815238D01*
X136334476Y-108910476D01*
X136239238Y-108958095D01*
X80470477Y-117562381D02*
X80470477Y-118276667D01*
X80422857Y-118419524D01*
X80327619Y-118514762D01*
X80184762Y-118562381D01*
X80089524Y-118562381D01*
X81470477Y-118562381D02*
X80899048Y-118562381D01*
X81184762Y-118562381D02*
X81184762Y-117562381D01*
X81089524Y-117705238D01*
X80994286Y-117800476D01*
X80899048Y-117848095D01*
X82327620Y-117562381D02*
X82137143Y-117562381D01*
X82041905Y-117610000D01*
X81994286Y-117657619D01*
X81899048Y-117800476D01*
X81851429Y-117990952D01*
X81851429Y-118371905D01*
X81899048Y-118467143D01*
X81946667Y-118514762D01*
X82041905Y-118562381D01*
X82232382Y-118562381D01*
X82327620Y-118514762D01*
X82375239Y-118467143D01*
X82422858Y-118371905D01*
X82422858Y-118133810D01*
X82375239Y-118038571D01*
X82327620Y-117990952D01*
X82232382Y-117943333D01*
X82041905Y-117943333D01*
X81946667Y-117990952D01*
X81899048Y-118038571D01*
X81851429Y-118133810D01*
X54983143Y-122023143D02*
X54935524Y-122070762D01*
X54792667Y-122118381D01*
X54697429Y-122118381D01*
X54554571Y-122070762D01*
X54459333Y-121975524D01*
X54411714Y-121880286D01*
X54364095Y-121689810D01*
X54364095Y-121546952D01*
X54411714Y-121356476D01*
X54459333Y-121261238D01*
X54554571Y-121166000D01*
X54697429Y-121118381D01*
X54792667Y-121118381D01*
X54935524Y-121166000D01*
X54983143Y-121213619D01*
X55935524Y-122118381D02*
X55364095Y-122118381D01*
X55649809Y-122118381D02*
X55649809Y-121118381D01*
X55554571Y-121261238D01*
X55459333Y-121356476D01*
X55364095Y-121404095D01*
X56792667Y-121451714D02*
X56792667Y-122118381D01*
X56554571Y-121070762D02*
X56316476Y-121785048D01*
X56935524Y-121785048D01*
X44225143Y-114419143D02*
X44177524Y-114466762D01*
X44034667Y-114514381D01*
X43939429Y-114514381D01*
X43796571Y-114466762D01*
X43701333Y-114371524D01*
X43653714Y-114276286D01*
X43606095Y-114085810D01*
X43606095Y-113942952D01*
X43653714Y-113752476D01*
X43701333Y-113657238D01*
X43796571Y-113562000D01*
X43939429Y-113514381D01*
X44034667Y-113514381D01*
X44177524Y-113562000D01*
X44225143Y-113609619D01*
X45177524Y-114514381D02*
X44606095Y-114514381D01*
X44891809Y-114514381D02*
X44891809Y-113514381D01*
X44796571Y-113657238D01*
X44701333Y-113752476D01*
X44606095Y-113800095D01*
X46082286Y-113514381D02*
X45606095Y-113514381D01*
X45558476Y-113990571D01*
X45606095Y-113942952D01*
X45701333Y-113895333D01*
X45939429Y-113895333D01*
X46034667Y-113942952D01*
X46082286Y-113990571D01*
X46129905Y-114085810D01*
X46129905Y-114323905D01*
X46082286Y-114419143D01*
X46034667Y-114466762D01*
X45939429Y-114514381D01*
X45701333Y-114514381D01*
X45606095Y-114466762D01*
X45558476Y-114419143D01*
X41882381Y-114025523D02*
X42596667Y-114025523D01*
X42739524Y-114073143D01*
X42834762Y-114168381D01*
X42882381Y-114311238D01*
X42882381Y-114406476D01*
X42882381Y-113025523D02*
X42882381Y-113596952D01*
X42882381Y-113311238D02*
X41882381Y-113311238D01*
X42025238Y-113406476D01*
X42120476Y-113501714D01*
X42168095Y-113596952D01*
X41882381Y-112692190D02*
X41882381Y-112025523D01*
X42882381Y-112454095D01*
X45157143Y-100327143D02*
X45109524Y-100374762D01*
X44966667Y-100422381D01*
X44871429Y-100422381D01*
X44728571Y-100374762D01*
X44633333Y-100279524D01*
X44585714Y-100184286D01*
X44538095Y-99993810D01*
X44538095Y-99850952D01*
X44585714Y-99660476D01*
X44633333Y-99565238D01*
X44728571Y-99470000D01*
X44871429Y-99422381D01*
X44966667Y-99422381D01*
X45109524Y-99470000D01*
X45157143Y-99517619D01*
X46109524Y-100422381D02*
X45538095Y-100422381D01*
X45823809Y-100422381D02*
X45823809Y-99422381D01*
X45728571Y-99565238D01*
X45633333Y-99660476D01*
X45538095Y-99708095D01*
X46966667Y-99422381D02*
X46776190Y-99422381D01*
X46680952Y-99470000D01*
X46633333Y-99517619D01*
X46538095Y-99660476D01*
X46490476Y-99850952D01*
X46490476Y-100231905D01*
X46538095Y-100327143D01*
X46585714Y-100374762D01*
X46680952Y-100422381D01*
X46871429Y-100422381D01*
X46966667Y-100374762D01*
X47014286Y-100327143D01*
X47061905Y-100231905D01*
X47061905Y-99993810D01*
X47014286Y-99898571D01*
X46966667Y-99850952D01*
X46871429Y-99803333D01*
X46680952Y-99803333D01*
X46585714Y-99850952D01*
X46538095Y-99898571D01*
X46490476Y-99993810D01*
X41271429Y-93500952D02*
X41271429Y-92739047D01*
X41652381Y-93119999D02*
X40890476Y-93119999D01*
X52190381Y-106052857D02*
X51714190Y-106386191D01*
X52190381Y-106624286D02*
X51190381Y-106624286D01*
X51190381Y-106243333D01*
X51238000Y-106148095D01*
X51285619Y-106100476D01*
X51380857Y-106052857D01*
X51523714Y-106052857D01*
X51618952Y-106100476D01*
X51666571Y-106148095D01*
X51714190Y-106243333D01*
X51714190Y-106624286D01*
X52190381Y-105100476D02*
X52190381Y-105671905D01*
X52190381Y-105386191D02*
X51190381Y-105386191D01*
X51333238Y-105481429D01*
X51428476Y-105576667D01*
X51476095Y-105671905D01*
X51523714Y-104243333D02*
X52190381Y-104243333D01*
X51142762Y-104481429D02*
X51857048Y-104719524D01*
X51857048Y-104100476D01*
M02*
