G04 #@! TF.FileFunction,Copper,L2,Bot,Signal*
%FSLAX46Y46*%
G04 Gerber Fmt 4.6, Leading zero omitted, Abs format (unit mm)*
G04 Created by KiCad (PCBNEW 4.0.7) date 04/18/20 23:37:37*
%MOMM*%
%LPD*%
G01*
G04 APERTURE LIST*
%ADD10C,0.100000*%
%ADD11C,3.000000*%
%ADD12R,3.000000X3.000000*%
%ADD13R,1.700000X1.700000*%
%ADD14O,1.700000X1.700000*%
%ADD15C,2.500000*%
%ADD16C,4.000000*%
%ADD17C,0.600000*%
%ADD18C,0.350000*%
%ADD19C,0.500000*%
G04 APERTURE END LIST*
D10*
D11*
X71560000Y-113100000D03*
D12*
X51070000Y-113100000D03*
D11*
X101740000Y-113025000D03*
D12*
X81250000Y-113025000D03*
D13*
X41250000Y-88400000D03*
D14*
X41250000Y-90940000D03*
D15*
X72350000Y-88352000D03*
X67310000Y-90852000D03*
X67310000Y-85852000D03*
D13*
X52578000Y-89408000D03*
D14*
X52578000Y-91948000D03*
X52578000Y-94488000D03*
D11*
X50525000Y-119750000D03*
X46715000Y-119750000D03*
X42905000Y-119750000D03*
X50525000Y-124576000D03*
X46715000Y-124576000D03*
X42905000Y-124576000D03*
D15*
X135430000Y-104160000D03*
D16*
X80970000Y-122320000D03*
D12*
X42590000Y-103350000D03*
D11*
X42590000Y-108430000D03*
D17*
X57090000Y-94220000D03*
X58250000Y-94800000D03*
X41300000Y-100870000D03*
X42730000Y-101240000D03*
X44490000Y-101320000D03*
X45670000Y-101530000D03*
X46910000Y-101610000D03*
X48460000Y-101620000D03*
X51070000Y-102470000D03*
X40110000Y-110300000D03*
X42250000Y-110930000D03*
X44090000Y-110830000D03*
X45600000Y-109990000D03*
X46470000Y-108710000D03*
X47770000Y-107640000D03*
X48850000Y-106840000D03*
X49130000Y-105440000D03*
X51470000Y-104750000D03*
X52320000Y-103840000D03*
X56250000Y-87970000D03*
X57360000Y-87420000D03*
X58950000Y-87480000D03*
X60460000Y-87550000D03*
X62010000Y-87770000D03*
X53970000Y-83840000D03*
X54040000Y-85300000D03*
X54300000Y-86750000D03*
X54700000Y-88500000D03*
X54500000Y-89610000D03*
X54270000Y-90500000D03*
X54280000Y-91770000D03*
X54220000Y-92810000D03*
X112014000Y-105664000D03*
X112014000Y-107442000D03*
X112014000Y-109728000D03*
X111760000Y-112522000D03*
X111506000Y-115062000D03*
X111760000Y-116840000D03*
X111506000Y-119380000D03*
X111252000Y-121412000D03*
X110744000Y-123698000D03*
X109474000Y-125476000D03*
X105918000Y-125730000D03*
X102616000Y-125730000D03*
X99822000Y-125984000D03*
X96266000Y-125984000D03*
X93218000Y-125730000D03*
X88646000Y-125476000D03*
X85598000Y-125730000D03*
X82042000Y-125730000D03*
X78232000Y-125984000D03*
X74676000Y-125984000D03*
X71628000Y-125984000D03*
X68072000Y-125730000D03*
X64770000Y-125730000D03*
X62230000Y-125730000D03*
X59944000Y-125476000D03*
X58420000Y-125222000D03*
X55626000Y-125222000D03*
X53594000Y-124714000D03*
X51308000Y-122174000D03*
X49022000Y-122174000D03*
X45974000Y-122174000D03*
X43688000Y-122428000D03*
X41148000Y-121666000D03*
X39878000Y-120904000D03*
X39116000Y-118872000D03*
X39116000Y-117348000D03*
X38862000Y-115062000D03*
X39116000Y-112522000D03*
X39624000Y-109728000D03*
X39370000Y-102362000D03*
X39116000Y-103124000D03*
X39370000Y-105918000D03*
X39370000Y-108204000D03*
X39750000Y-100750000D03*
X39200000Y-99950000D03*
X39050000Y-98650000D03*
X39150000Y-96900000D03*
X39100000Y-95400000D03*
X38900000Y-93850000D03*
X38900000Y-92650000D03*
X39050000Y-91650000D03*
X108204000Y-99822000D03*
X106426000Y-100584000D03*
X74850000Y-90350000D03*
X71775000Y-90300000D03*
X69850000Y-90100000D03*
X68525000Y-88700000D03*
X66525000Y-88200000D03*
X94925000Y-97100000D03*
X95450000Y-99100000D03*
X96750000Y-97550000D03*
X98150000Y-95100000D03*
X96850000Y-95000000D03*
X95350000Y-91900000D03*
X95150000Y-89000000D03*
X93450000Y-86900000D03*
X93600000Y-85200000D03*
X94200000Y-84150000D03*
X87850000Y-99450000D03*
X87100000Y-97450000D03*
X87050000Y-96350000D03*
X87000000Y-95000000D03*
X87000000Y-93700000D03*
X86800000Y-92100000D03*
X86850000Y-90350000D03*
X86950000Y-88300000D03*
X86600000Y-87400000D03*
X86650000Y-85400000D03*
X87250000Y-84400000D03*
X61900000Y-101050000D03*
X62350000Y-100050000D03*
X62200000Y-97850000D03*
X62400000Y-97000000D03*
X62450000Y-95300000D03*
X54850000Y-93500000D03*
X54800000Y-94450000D03*
X54650000Y-95650000D03*
X54200000Y-102200000D03*
X55450000Y-101900000D03*
X57700000Y-102000000D03*
X59550000Y-102100000D03*
X61800000Y-102100000D03*
X63875000Y-101825000D03*
X65875000Y-101850000D03*
X68150000Y-101975000D03*
X70450000Y-102000000D03*
X72350000Y-102225000D03*
X74050000Y-102025000D03*
X75650000Y-102250000D03*
X77250000Y-101900000D03*
X78350000Y-101350000D03*
X104950000Y-100600000D03*
X103100000Y-100650000D03*
X101450000Y-100700000D03*
X99500000Y-100700000D03*
X97150000Y-100600000D03*
X95250000Y-100600000D03*
X93150000Y-100600000D03*
X91050000Y-100600000D03*
X88850000Y-100750000D03*
X87500000Y-101950000D03*
X85600000Y-102550000D03*
X83300000Y-102350000D03*
X81250000Y-102050000D03*
X132590000Y-105420000D03*
X132660000Y-102460000D03*
X107200000Y-86450000D03*
X108950000Y-86900000D03*
X109120000Y-89230000D03*
X109190000Y-90660000D03*
X109010000Y-92460000D03*
X109070000Y-94370000D03*
X109040000Y-95840000D03*
X109070000Y-97320000D03*
X109120000Y-99120000D03*
X109058673Y-100839565D03*
X109940000Y-102500000D03*
X111200000Y-103480000D03*
X112050000Y-104250000D03*
X114440000Y-105640000D03*
X114540000Y-105640000D03*
X130048000Y-105410000D03*
X127630000Y-105470000D03*
X125790000Y-105370000D03*
X124190000Y-105490000D03*
X122480000Y-105510000D03*
X120690000Y-105550000D03*
X118470000Y-105500000D03*
X116590000Y-105480000D03*
X129810000Y-102470000D03*
X128220000Y-102440000D03*
X126370000Y-102440000D03*
X124210000Y-102420000D03*
X122510000Y-102420000D03*
X120750000Y-102420000D03*
X118800000Y-102370000D03*
X116008911Y-102321919D03*
X113550000Y-102230000D03*
X112640000Y-101090000D03*
X111870000Y-100310000D03*
X111567052Y-98261616D03*
X112127052Y-95861616D03*
X111830000Y-93530000D03*
X111750000Y-91300000D03*
X111790000Y-89380000D03*
X111680000Y-87580000D03*
X111490000Y-85990000D03*
X111314994Y-84628668D03*
X109600000Y-84400000D03*
X78560000Y-83590000D03*
X76920000Y-90190000D03*
X78370000Y-87820000D03*
X78870000Y-86490000D03*
X78790000Y-84960000D03*
X58450000Y-82900000D03*
X60500000Y-83000000D03*
X62200000Y-83100000D03*
X63650000Y-83100000D03*
X65300000Y-83100000D03*
X67100000Y-83150000D03*
X68950000Y-83250000D03*
X71250000Y-83300000D03*
X73150000Y-83250000D03*
X74650000Y-83350000D03*
X76700000Y-83250000D03*
X56750000Y-83100000D03*
X54250000Y-83150000D03*
X52350000Y-83150000D03*
X50450000Y-83200000D03*
X48400000Y-83250000D03*
X46650000Y-83300000D03*
X44400000Y-83300000D03*
X42600000Y-83050000D03*
X40400000Y-83100000D03*
X39550000Y-83850000D03*
X38850000Y-85100000D03*
X38800000Y-86500000D03*
X38850000Y-88150000D03*
X38850000Y-89800000D03*
X39300000Y-90950000D03*
X80960000Y-98260000D03*
X79630000Y-99140000D03*
X78030000Y-97230000D03*
X78070000Y-95550000D03*
X77760000Y-94100000D03*
X78120000Y-92400000D03*
X78400000Y-90020000D03*
X104400000Y-83250000D03*
X102600000Y-83150000D03*
X101100000Y-83150000D03*
X99350000Y-83100000D03*
X97600000Y-83100000D03*
X96350000Y-83000000D03*
X95000000Y-83050000D03*
X93500000Y-83000000D03*
X92050000Y-83050000D03*
X91000000Y-83100000D03*
X89400000Y-83000000D03*
X87750000Y-83050000D03*
X86550000Y-83100000D03*
X85200000Y-83150000D03*
X83950000Y-83000000D03*
X82400000Y-83000000D03*
X80900000Y-83050000D03*
X79250000Y-83100000D03*
X106450000Y-83450000D03*
X107600000Y-83600000D03*
X94875000Y-95800000D03*
X65000000Y-84000000D03*
X65000000Y-85000000D03*
X65000000Y-86500000D03*
X65000000Y-88000000D03*
X65000000Y-89500000D03*
X65000000Y-91500000D03*
X64500000Y-93000000D03*
X79960000Y-102710000D03*
X79970000Y-101350000D03*
X54040000Y-98070000D03*
X52250000Y-102650000D03*
X52340000Y-101510000D03*
X52500000Y-98040000D03*
X59510000Y-92310000D03*
X60660000Y-92340000D03*
X61080000Y-91140000D03*
D18*
X57610000Y-94740000D02*
X57090000Y-94220000D01*
X58190000Y-94740000D02*
X57610000Y-94740000D01*
X58250000Y-94800000D02*
X58190000Y-94740000D01*
D19*
X41180000Y-100750000D02*
X39750000Y-100750000D01*
X41300000Y-100870000D02*
X41180000Y-100750000D01*
X44410000Y-101240000D02*
X42730000Y-101240000D01*
X44490000Y-101320000D02*
X44410000Y-101240000D01*
X46830000Y-101530000D02*
X45670000Y-101530000D01*
X46910000Y-101610000D02*
X46830000Y-101530000D01*
X49210000Y-102370000D02*
X48460000Y-101620000D01*
X50970000Y-102370000D02*
X49210000Y-102370000D01*
X51070000Y-102470000D02*
X50970000Y-102370000D01*
X52250000Y-102650000D02*
X52250000Y-103770000D01*
X39624000Y-109814000D02*
X39624000Y-109728000D01*
X40110000Y-110300000D02*
X39624000Y-109814000D01*
X43990000Y-110930000D02*
X42250000Y-110930000D01*
X44090000Y-110830000D02*
X43990000Y-110930000D01*
X45600000Y-109580000D02*
X45600000Y-109990000D01*
X46470000Y-108710000D02*
X45600000Y-109580000D01*
X48050000Y-107640000D02*
X47770000Y-107640000D01*
X48850000Y-106840000D02*
X48050000Y-107640000D01*
X50780000Y-105440000D02*
X49130000Y-105440000D01*
X51470000Y-104750000D02*
X50780000Y-105440000D01*
X52250000Y-103770000D02*
X52320000Y-103840000D01*
D18*
X55720000Y-88500000D02*
X54700000Y-88500000D01*
X56250000Y-87970000D02*
X55720000Y-88500000D01*
X58890000Y-87420000D02*
X57360000Y-87420000D01*
X58950000Y-87480000D02*
X58890000Y-87420000D01*
X61790000Y-87550000D02*
X60460000Y-87550000D01*
X62010000Y-87770000D02*
X61790000Y-87550000D01*
D19*
X53970000Y-85230000D02*
X53970000Y-83840000D01*
X54040000Y-85300000D02*
X53970000Y-85230000D01*
X54300000Y-88100000D02*
X54300000Y-86750000D01*
X54700000Y-88500000D02*
X54300000Y-88100000D01*
X54500000Y-90270000D02*
X54500000Y-89610000D01*
X54270000Y-90500000D02*
X54500000Y-90270000D01*
X54280000Y-92750000D02*
X54280000Y-91770000D01*
X54220000Y-92810000D02*
X54280000Y-92750000D01*
D18*
X112014000Y-105664000D02*
X112014000Y-107442000D01*
X112014000Y-109728000D02*
X111760000Y-109982000D01*
X111760000Y-109982000D02*
X111760000Y-112522000D01*
X111506000Y-115062000D02*
X111760000Y-115316000D01*
X111760000Y-115316000D02*
X111760000Y-116840000D01*
X111506000Y-119380000D02*
X111252000Y-119634000D01*
X111252000Y-119634000D02*
X111252000Y-121412000D01*
X110744000Y-123698000D02*
X109474000Y-124968000D01*
X109474000Y-124968000D02*
X109474000Y-125476000D01*
X105918000Y-125730000D02*
X102616000Y-125730000D01*
X99822000Y-125984000D02*
X96266000Y-125984000D01*
X93218000Y-125730000D02*
X92964000Y-125476000D01*
X92964000Y-125476000D02*
X88646000Y-125476000D01*
X85598000Y-125730000D02*
X82042000Y-125730000D01*
X78232000Y-125984000D02*
X74676000Y-125984000D01*
X71628000Y-125984000D02*
X71374000Y-125730000D01*
X71374000Y-125730000D02*
X68072000Y-125730000D01*
X64770000Y-125730000D02*
X62230000Y-125730000D01*
X59944000Y-125476000D02*
X59436000Y-125222000D01*
X59436000Y-125222000D02*
X58420000Y-125222000D01*
X55626000Y-125222000D02*
X55118000Y-124714000D01*
X55118000Y-124714000D02*
X53594000Y-124714000D01*
X51308000Y-122174000D02*
X49022000Y-122174000D01*
X45974000Y-122174000D02*
X45720000Y-122428000D01*
X45720000Y-122428000D02*
X43688000Y-122428000D01*
X41148000Y-121666000D02*
X40386000Y-120904000D01*
X40386000Y-120904000D02*
X39878000Y-120904000D01*
X39116000Y-118872000D02*
X39116000Y-117348000D01*
X38862000Y-115062000D02*
X39116000Y-114808000D01*
X39116000Y-114808000D02*
X39116000Y-112522000D01*
X39750000Y-101982000D02*
X39750000Y-100750000D01*
X39370000Y-102362000D02*
X39750000Y-101982000D01*
X39116000Y-105664000D02*
X39116000Y-103124000D01*
X39370000Y-105918000D02*
X39116000Y-105664000D01*
X39370000Y-109474000D02*
X39370000Y-108204000D01*
X39624000Y-109728000D02*
X39370000Y-109474000D01*
D19*
X39050000Y-91650000D02*
X39300000Y-91400000D01*
X39300000Y-91400000D02*
X39300000Y-90950000D01*
X39200000Y-99950000D02*
X39050000Y-99800000D01*
X39050000Y-99800000D02*
X39050000Y-98650000D01*
X39150000Y-96900000D02*
X39100000Y-96850000D01*
X39100000Y-96850000D02*
X39100000Y-95400000D01*
X38900000Y-93850000D02*
X38900000Y-92650000D01*
D18*
X107188000Y-99822000D02*
X108204000Y-99822000D01*
X106426000Y-100584000D02*
X107188000Y-99822000D01*
D19*
X65000000Y-88000000D02*
X66325000Y-88000000D01*
X71825000Y-90350000D02*
X74850000Y-90350000D01*
X71775000Y-90300000D02*
X71825000Y-90350000D01*
X69850000Y-90025000D02*
X69850000Y-90100000D01*
X68525000Y-88700000D02*
X69850000Y-90025000D01*
X66325000Y-88000000D02*
X66525000Y-88200000D01*
X94925000Y-97100000D02*
X94925000Y-98575000D01*
X94925000Y-98575000D02*
X95450000Y-99100000D01*
X96750000Y-96500000D02*
X96750000Y-97550000D01*
X98150000Y-95100000D02*
X96750000Y-96500000D01*
X96850000Y-93400000D02*
X96850000Y-95000000D01*
X95350000Y-91900000D02*
X96850000Y-93400000D01*
X95150000Y-88600000D02*
X95150000Y-89000000D01*
X93450000Y-86900000D02*
X95150000Y-88600000D01*
X93600000Y-84750000D02*
X93600000Y-85200000D01*
X94200000Y-84150000D02*
X93600000Y-84750000D01*
X87750000Y-83050000D02*
X87750000Y-83900000D01*
X87850000Y-98200000D02*
X87850000Y-99450000D01*
X87100000Y-97450000D02*
X87850000Y-98200000D01*
X87050000Y-95050000D02*
X87050000Y-96350000D01*
X87000000Y-95000000D02*
X87050000Y-95050000D01*
X87000000Y-92300000D02*
X87000000Y-93700000D01*
X86800000Y-92100000D02*
X87000000Y-92300000D01*
X86850000Y-88400000D02*
X86850000Y-90350000D01*
X86950000Y-88300000D02*
X86850000Y-88400000D01*
X86600000Y-85450000D02*
X86600000Y-87400000D01*
X86650000Y-85400000D02*
X86600000Y-85450000D01*
X87750000Y-83900000D02*
X87250000Y-84400000D01*
X61800000Y-101150000D02*
X61800000Y-102100000D01*
X61900000Y-101050000D02*
X61800000Y-101150000D01*
X62250000Y-99950000D02*
X62350000Y-100050000D01*
X62250000Y-97900000D02*
X62250000Y-99950000D01*
X62200000Y-97850000D02*
X62250000Y-97900000D01*
X62400000Y-95350000D02*
X62400000Y-97000000D01*
X62450000Y-95300000D02*
X62400000Y-95350000D01*
X54040000Y-98070000D02*
X54040000Y-96710000D01*
X54850000Y-94400000D02*
X54850000Y-93500000D01*
X54800000Y-94450000D02*
X54850000Y-94400000D01*
X54650000Y-96100000D02*
X54650000Y-95650000D01*
X54040000Y-96710000D02*
X54650000Y-96100000D01*
X79970000Y-101350000D02*
X78350000Y-101350000D01*
X53030000Y-102500000D02*
X52250000Y-102650000D01*
X54200000Y-102200000D02*
X53030000Y-102500000D01*
X57600000Y-101900000D02*
X55450000Y-101900000D01*
X57700000Y-102000000D02*
X57600000Y-101900000D01*
X61800000Y-102100000D02*
X59550000Y-102100000D01*
X64600000Y-102800000D02*
X63875000Y-101825000D01*
X65875000Y-101850000D02*
X64600000Y-102800000D01*
X70350000Y-102100000D02*
X68150000Y-101975000D01*
X70450000Y-102000000D02*
X70350000Y-102100000D01*
X73250000Y-103675000D02*
X72350000Y-102225000D01*
X74050000Y-102025000D02*
X73250000Y-103675000D01*
X76900000Y-102250000D02*
X75650000Y-102250000D01*
X77250000Y-101900000D02*
X76900000Y-102250000D01*
X104950000Y-100600000D02*
X104900000Y-100650000D01*
X104900000Y-100650000D02*
X103100000Y-100650000D01*
X101450000Y-100700000D02*
X99500000Y-100700000D01*
X97150000Y-100600000D02*
X95250000Y-100600000D01*
X80550000Y-101350000D02*
X79970000Y-101350000D01*
X93150000Y-100600000D02*
X91050000Y-100600000D01*
X88850000Y-100750000D02*
X87650000Y-101950000D01*
X87650000Y-101950000D02*
X87500000Y-101950000D01*
X85600000Y-102550000D02*
X85400000Y-102350000D01*
X85400000Y-102350000D02*
X83300000Y-102350000D01*
X81250000Y-102050000D02*
X80550000Y-101350000D01*
X132660000Y-102460000D02*
X132690000Y-105400000D01*
X129810000Y-102470000D02*
X132610000Y-102510000D01*
X132610000Y-102510000D02*
X132660000Y-102460000D01*
X106450000Y-83450000D02*
X106450000Y-83750000D01*
X106450000Y-83750000D02*
X107200000Y-84500000D01*
X107200000Y-84500000D02*
X107200000Y-86450000D01*
X108950000Y-86900000D02*
X109580000Y-87480000D01*
X109580000Y-87480000D02*
X109120000Y-89230000D01*
X109190000Y-90660000D02*
X109090000Y-90760000D01*
X109090000Y-90760000D02*
X109010000Y-92460000D01*
X109070000Y-94370000D02*
X109440000Y-95140000D01*
X109440000Y-95140000D02*
X109040000Y-95840000D01*
X109070000Y-97320000D02*
X109120000Y-97370000D01*
X109120000Y-97370000D02*
X109120000Y-99120000D01*
X114440000Y-105640000D02*
X114540000Y-105640000D01*
X109058673Y-100839565D02*
X109448673Y-101719565D01*
X109448673Y-101719565D02*
X109940000Y-102500000D01*
X111200000Y-103480000D02*
X111750000Y-104250000D01*
X111750000Y-104250000D02*
X112050000Y-104250000D01*
X127680000Y-105420000D02*
X130048000Y-105410000D01*
X127630000Y-105470000D02*
X127680000Y-105420000D01*
X124240000Y-105440000D02*
X125790000Y-105370000D01*
X124190000Y-105490000D02*
X124240000Y-105440000D01*
X120740000Y-105500000D02*
X122480000Y-105510000D01*
X120690000Y-105550000D02*
X120740000Y-105500000D01*
X116590000Y-105480000D02*
X118470000Y-105500000D01*
X107600000Y-83600000D02*
X108800000Y-83600000D01*
X129810000Y-102470000D02*
X129960000Y-102470000D01*
X126370000Y-102440000D02*
X128220000Y-102440000D01*
X122510000Y-102420000D02*
X124210000Y-102420000D01*
X118850000Y-102420000D02*
X120750000Y-102420000D01*
X118800000Y-102370000D02*
X118850000Y-102420000D01*
X114368911Y-102641919D02*
X116008911Y-102321919D01*
X113550000Y-102230000D02*
X114368911Y-102641919D01*
X112640000Y-101040000D02*
X112640000Y-101090000D01*
X111870000Y-100310000D02*
X112640000Y-101040000D01*
X112077052Y-95911616D02*
X111567052Y-98261616D01*
X112127052Y-95861616D02*
X112077052Y-95911616D01*
X111700000Y-91350000D02*
X111830000Y-93530000D01*
X111750000Y-91300000D02*
X111700000Y-91350000D01*
X111780000Y-87680000D02*
X111790000Y-89380000D01*
X111680000Y-87580000D02*
X111780000Y-87680000D01*
X111384372Y-85409168D02*
X111490000Y-85990000D01*
X111314994Y-84628668D02*
X111384372Y-85409168D01*
X108800000Y-83600000D02*
X109600000Y-84400000D01*
X76920000Y-90190000D02*
X78370000Y-88740000D01*
X78370000Y-88740000D02*
X78370000Y-87820000D01*
X78870000Y-86490000D02*
X78790000Y-86410000D01*
X78790000Y-86410000D02*
X78790000Y-84960000D01*
X56750000Y-83100000D02*
X56950000Y-82900000D01*
X56950000Y-82900000D02*
X58450000Y-82900000D01*
X60500000Y-83000000D02*
X60600000Y-83100000D01*
X60600000Y-83100000D02*
X62200000Y-83100000D01*
X63650000Y-83100000D02*
X65300000Y-83100000D01*
X67100000Y-83150000D02*
X67200000Y-83250000D01*
X67200000Y-83250000D02*
X68950000Y-83250000D01*
X71250000Y-83300000D02*
X71300000Y-83250000D01*
X71300000Y-83250000D02*
X73150000Y-83250000D01*
X74650000Y-83350000D02*
X74750000Y-83250000D01*
X74750000Y-83250000D02*
X76700000Y-83250000D01*
X39300000Y-90950000D02*
X38850000Y-90500000D01*
X52350000Y-83150000D02*
X54250000Y-83150000D01*
X48450000Y-83200000D02*
X50450000Y-83200000D01*
X48400000Y-83250000D02*
X48450000Y-83200000D01*
X44400000Y-83300000D02*
X46650000Y-83300000D01*
X40450000Y-83050000D02*
X42600000Y-83050000D01*
X40400000Y-83100000D02*
X40450000Y-83050000D01*
X39550000Y-84400000D02*
X39550000Y-83850000D01*
X38850000Y-85100000D02*
X39550000Y-84400000D01*
X38800000Y-88100000D02*
X38800000Y-86500000D01*
X38850000Y-88150000D02*
X38800000Y-88100000D01*
X38850000Y-90500000D02*
X38850000Y-89800000D01*
X79970000Y-99250000D02*
X79970000Y-101350000D01*
X80960000Y-98260000D02*
X79970000Y-99250000D01*
X79630000Y-98830000D02*
X79630000Y-99140000D01*
X78030000Y-97230000D02*
X79630000Y-98830000D01*
X77760000Y-95240000D02*
X78070000Y-95550000D01*
X77760000Y-94100000D02*
X77760000Y-95240000D01*
X78120000Y-92400000D02*
X78400000Y-92120000D01*
X78400000Y-92120000D02*
X78400000Y-90020000D01*
X102700000Y-83250000D02*
X104400000Y-83250000D01*
X102600000Y-83150000D02*
X102700000Y-83250000D01*
X99400000Y-83150000D02*
X101100000Y-83150000D01*
X99350000Y-83100000D02*
X99400000Y-83150000D01*
X96450000Y-83100000D02*
X97600000Y-83100000D01*
X96350000Y-83000000D02*
X96450000Y-83100000D01*
X93550000Y-83050000D02*
X95000000Y-83050000D01*
X93500000Y-83000000D02*
X93550000Y-83050000D01*
X91050000Y-83050000D02*
X92050000Y-83050000D01*
X91000000Y-83100000D02*
X91050000Y-83050000D01*
X87800000Y-83000000D02*
X89400000Y-83000000D01*
X87750000Y-83050000D02*
X87800000Y-83000000D01*
X85250000Y-83100000D02*
X86550000Y-83100000D01*
X85200000Y-83150000D02*
X85250000Y-83100000D01*
X82400000Y-83000000D02*
X83950000Y-83000000D01*
X79300000Y-83050000D02*
X80900000Y-83050000D01*
X79250000Y-83100000D02*
X79300000Y-83050000D01*
X106250000Y-83250000D02*
X104400000Y-83250000D01*
X106450000Y-83450000D02*
X106250000Y-83250000D01*
D18*
X65000000Y-86500000D02*
X65000000Y-85000000D01*
X65000000Y-89500000D02*
X65000000Y-88000000D01*
X65000000Y-92500000D02*
X65000000Y-91500000D01*
X64500000Y-93000000D02*
X65000000Y-92500000D01*
X54010000Y-98040000D02*
X54040000Y-98070000D01*
X52220000Y-98320000D02*
X52340000Y-101510000D01*
X52500000Y-98040000D02*
X52220000Y-98320000D01*
X59510000Y-92310000D02*
X59540000Y-92340000D01*
X59540000Y-92340000D02*
X60660000Y-92340000D01*
D19*
G36*
X113639340Y-82951404D02*
X113399151Y-83310873D01*
X113304000Y-83789227D01*
X113304000Y-87406773D01*
X113399151Y-87885127D01*
X113670117Y-88290656D01*
X114011858Y-88519000D01*
X113670117Y-88747344D01*
X113399151Y-89152873D01*
X113304000Y-89631227D01*
X113304000Y-93248773D01*
X113399151Y-93727127D01*
X113670117Y-94132656D01*
X113821789Y-94234000D01*
X113670117Y-94335344D01*
X113399151Y-94740873D01*
X113304000Y-95219227D01*
X113304000Y-98836773D01*
X113399151Y-99315127D01*
X113670117Y-99720656D01*
X114075646Y-99991622D01*
X114554000Y-100086773D01*
X115032354Y-99991622D01*
X115205718Y-99875784D01*
X115141227Y-100200000D01*
X115236378Y-100678354D01*
X115507344Y-101083883D01*
X115912873Y-101354849D01*
X116391227Y-101450000D01*
X120008773Y-101450000D01*
X120487127Y-101354849D01*
X120892656Y-101083883D01*
X121000000Y-100923231D01*
X121107344Y-101083883D01*
X121512873Y-101354849D01*
X121991227Y-101450000D01*
X125608773Y-101450000D01*
X126087127Y-101354849D01*
X126492656Y-101083883D01*
X126500000Y-101072892D01*
X126507344Y-101083883D01*
X126912873Y-101354849D01*
X127391227Y-101450000D01*
X131008773Y-101450000D01*
X131487127Y-101354849D01*
X131892656Y-101083883D01*
X131960643Y-100982133D01*
X132332873Y-101230849D01*
X132811227Y-101326000D01*
X133012000Y-101326000D01*
X133012000Y-106446000D01*
X132811227Y-106446000D01*
X132332873Y-106541151D01*
X131927344Y-106812117D01*
X131922558Y-106819279D01*
X131587127Y-106595151D01*
X131108773Y-106500000D01*
X127491227Y-106500000D01*
X127012873Y-106595151D01*
X126643305Y-106842089D01*
X126642656Y-106841117D01*
X126237127Y-106570151D01*
X125758773Y-106475000D01*
X122141227Y-106475000D01*
X121662873Y-106570151D01*
X121257344Y-106841117D01*
X121083352Y-107101514D01*
X120892656Y-106816117D01*
X120487127Y-106545151D01*
X120008773Y-106450000D01*
X116391227Y-106450000D01*
X115912873Y-106545151D01*
X115507344Y-106816117D01*
X115236378Y-107221646D01*
X115141227Y-107700000D01*
X115236378Y-108178354D01*
X115507344Y-108583883D01*
X115912873Y-108854849D01*
X116391227Y-108950000D01*
X120008773Y-108950000D01*
X120487127Y-108854849D01*
X120892656Y-108583883D01*
X121066648Y-108323486D01*
X121257344Y-108608883D01*
X121662873Y-108879849D01*
X122141227Y-108975000D01*
X125758773Y-108975000D01*
X126237127Y-108879849D01*
X126606695Y-108632911D01*
X126607344Y-108633883D01*
X127012873Y-108904849D01*
X127491227Y-109000000D01*
X131108773Y-109000000D01*
X131587127Y-108904849D01*
X131992656Y-108633883D01*
X131997442Y-108626721D01*
X132332873Y-108850849D01*
X132811227Y-108946000D01*
X133012000Y-108946000D01*
X133012000Y-126175000D01*
X115581980Y-126175000D01*
X115708849Y-125985127D01*
X115804000Y-125506773D01*
X115804000Y-121889227D01*
X115708849Y-121410873D01*
X115437883Y-121005344D01*
X115286211Y-120904000D01*
X115437883Y-120802656D01*
X115708849Y-120397127D01*
X115804000Y-119918773D01*
X115804000Y-116301227D01*
X115708849Y-115822873D01*
X115437883Y-115417344D01*
X115096142Y-115189000D01*
X115437883Y-114960656D01*
X115708849Y-114555127D01*
X115804000Y-114076773D01*
X115804000Y-110459227D01*
X115708849Y-109980873D01*
X115437883Y-109575344D01*
X115032354Y-109304378D01*
X114554000Y-109209227D01*
X114075646Y-109304378D01*
X113670117Y-109575344D01*
X113399151Y-109980873D01*
X113304000Y-110459227D01*
X113304000Y-114076773D01*
X113399151Y-114555127D01*
X113670117Y-114960656D01*
X114011858Y-115189000D01*
X113670117Y-115417344D01*
X113399151Y-115822873D01*
X113304000Y-116301227D01*
X113304000Y-119918773D01*
X113399151Y-120397127D01*
X113670117Y-120802656D01*
X113821789Y-120904000D01*
X113670117Y-121005344D01*
X113399151Y-121410873D01*
X113304000Y-121889227D01*
X113304000Y-125506773D01*
X113399151Y-125985127D01*
X113526020Y-126175000D01*
X52107968Y-126175000D01*
X52431345Y-125852187D01*
X52774608Y-125025516D01*
X52774856Y-124741410D01*
X79962803Y-124741410D01*
X80234190Y-125034058D01*
X81328825Y-125109045D01*
X81705810Y-125034058D01*
X81977197Y-124741410D01*
X80970000Y-123734214D01*
X79962803Y-124741410D01*
X52774856Y-124741410D01*
X52775390Y-124130411D01*
X52433569Y-123303142D01*
X51810342Y-122678825D01*
X78180955Y-122678825D01*
X78255942Y-123055810D01*
X78548590Y-123327197D01*
X79555786Y-122320000D01*
X82384214Y-122320000D01*
X83391410Y-123327197D01*
X83684058Y-123055810D01*
X83759045Y-121961175D01*
X83684058Y-121584190D01*
X83391410Y-121312803D01*
X82384214Y-122320000D01*
X79555786Y-122320000D01*
X78548590Y-121312803D01*
X78255942Y-121584190D01*
X78180955Y-122678825D01*
X51810342Y-122678825D01*
X51801187Y-122669655D01*
X50974516Y-122326392D01*
X50079411Y-122325610D01*
X49252142Y-122667431D01*
X48619452Y-123299018D01*
X47991187Y-122669655D01*
X47164516Y-122326392D01*
X46269411Y-122325610D01*
X45442142Y-122667431D01*
X44809452Y-123299018D01*
X44181187Y-122669655D01*
X43354516Y-122326392D01*
X42459411Y-122325610D01*
X41632142Y-122667431D01*
X40998655Y-123299813D01*
X40655392Y-124126484D01*
X40654610Y-125021589D01*
X40996431Y-125848858D01*
X41322004Y-126175000D01*
X38825000Y-126175000D01*
X38825000Y-120195589D01*
X40654610Y-120195589D01*
X40996431Y-121022858D01*
X41628813Y-121656345D01*
X42455484Y-121999608D01*
X43350589Y-122000390D01*
X44177858Y-121658569D01*
X44810548Y-121026982D01*
X45438813Y-121656345D01*
X46265484Y-121999608D01*
X47160589Y-122000390D01*
X47987858Y-121658569D01*
X48620548Y-121026982D01*
X49248813Y-121656345D01*
X50075484Y-121999608D01*
X50970589Y-122000390D01*
X51797858Y-121658569D01*
X52431345Y-121026187D01*
X52774608Y-120199516D01*
X52774870Y-119898590D01*
X79962803Y-119898590D01*
X80970000Y-120905786D01*
X81977197Y-119898590D01*
X81705810Y-119605942D01*
X80611175Y-119530955D01*
X80234190Y-119605942D01*
X79962803Y-119898590D01*
X52774870Y-119898590D01*
X52775390Y-119304411D01*
X52433569Y-118477142D01*
X51801187Y-117843655D01*
X50974516Y-117500392D01*
X50079411Y-117499610D01*
X49252142Y-117841431D01*
X48619452Y-118473018D01*
X47991187Y-117843655D01*
X47164516Y-117500392D01*
X46269411Y-117499610D01*
X45442142Y-117841431D01*
X44809452Y-118473018D01*
X44181187Y-117843655D01*
X43354516Y-117500392D01*
X42459411Y-117499610D01*
X41632142Y-117841431D01*
X40998655Y-118473813D01*
X40655392Y-119300484D01*
X40654610Y-120195589D01*
X38825000Y-120195589D01*
X38825000Y-111600000D01*
X48805307Y-111600000D01*
X48805307Y-114600000D01*
X48857604Y-114877933D01*
X49021862Y-115133198D01*
X49272492Y-115304446D01*
X49570000Y-115364693D01*
X52570000Y-115364693D01*
X52847933Y-115312396D01*
X53103198Y-115148138D01*
X53274446Y-114897508D01*
X53334693Y-114600000D01*
X53334693Y-113545589D01*
X69309610Y-113545589D01*
X69651431Y-114372858D01*
X70283813Y-115006345D01*
X71110484Y-115349608D01*
X72005589Y-115350390D01*
X72832858Y-115008569D01*
X73466345Y-114376187D01*
X73809608Y-113549516D01*
X73810390Y-112654411D01*
X73468569Y-111827142D01*
X73166955Y-111525000D01*
X78985307Y-111525000D01*
X78985307Y-114525000D01*
X79037604Y-114802933D01*
X79201862Y-115058198D01*
X79452492Y-115229446D01*
X79750000Y-115289693D01*
X82750000Y-115289693D01*
X83027933Y-115237396D01*
X83283198Y-115073138D01*
X83365994Y-114951961D01*
X100873699Y-114951961D01*
X101067361Y-115226784D01*
X101961149Y-115316592D01*
X102412639Y-115226784D01*
X102606301Y-114951961D01*
X101740000Y-114085660D01*
X100873699Y-114951961D01*
X83365994Y-114951961D01*
X83454446Y-114822508D01*
X83514693Y-114525000D01*
X83514693Y-113246149D01*
X99448408Y-113246149D01*
X99538216Y-113697639D01*
X99813039Y-113891301D01*
X100679340Y-113025000D01*
X102800660Y-113025000D01*
X103666961Y-113891301D01*
X103941784Y-113697639D01*
X104031592Y-112803851D01*
X103941784Y-112352361D01*
X103666961Y-112158699D01*
X102800660Y-113025000D01*
X100679340Y-113025000D01*
X99813039Y-112158699D01*
X99538216Y-112352361D01*
X99448408Y-113246149D01*
X83514693Y-113246149D01*
X83514693Y-111525000D01*
X83462396Y-111247067D01*
X83366500Y-111098039D01*
X100873699Y-111098039D01*
X101740000Y-111964340D01*
X102606301Y-111098039D01*
X102412639Y-110823216D01*
X101518851Y-110733408D01*
X101067361Y-110823216D01*
X100873699Y-111098039D01*
X83366500Y-111098039D01*
X83298138Y-110991802D01*
X83047508Y-110820554D01*
X82750000Y-110760307D01*
X79750000Y-110760307D01*
X79472067Y-110812604D01*
X79216802Y-110976862D01*
X79045554Y-111227492D01*
X78985307Y-111525000D01*
X73166955Y-111525000D01*
X72836187Y-111193655D01*
X72009516Y-110850392D01*
X71114411Y-110849610D01*
X70287142Y-111191431D01*
X69653655Y-111823813D01*
X69310392Y-112650484D01*
X69309610Y-113545589D01*
X53334693Y-113545589D01*
X53334693Y-111600000D01*
X53282396Y-111322067D01*
X53118138Y-111066802D01*
X52867508Y-110895554D01*
X52570000Y-110835307D01*
X49570000Y-110835307D01*
X49292067Y-110887604D01*
X49036802Y-111051862D01*
X48865554Y-111302492D01*
X48805307Y-111600000D01*
X38825000Y-111600000D01*
X38825000Y-110356961D01*
X41723699Y-110356961D01*
X41917361Y-110631784D01*
X42811149Y-110721592D01*
X43262639Y-110631784D01*
X43456301Y-110356961D01*
X42590000Y-109490660D01*
X41723699Y-110356961D01*
X38825000Y-110356961D01*
X38825000Y-108651149D01*
X40298408Y-108651149D01*
X40388216Y-109102639D01*
X40663039Y-109296301D01*
X41529340Y-108430000D01*
X43650660Y-108430000D01*
X44516961Y-109296301D01*
X44791784Y-109102639D01*
X44881592Y-108208851D01*
X44791784Y-107757361D01*
X44516961Y-107563699D01*
X43650660Y-108430000D01*
X41529340Y-108430000D01*
X40663039Y-107563699D01*
X40388216Y-107757361D01*
X40298408Y-108651149D01*
X38825000Y-108651149D01*
X38825000Y-106503039D01*
X41723699Y-106503039D01*
X42590000Y-107369340D01*
X43456301Y-106503039D01*
X43262639Y-106228216D01*
X42368851Y-106138408D01*
X41917361Y-106228216D01*
X41723699Y-106503039D01*
X38825000Y-106503039D01*
X38825000Y-101850000D01*
X40325307Y-101850000D01*
X40325307Y-104850000D01*
X40377604Y-105127933D01*
X40541862Y-105383198D01*
X40792492Y-105554446D01*
X41090000Y-105614693D01*
X44090000Y-105614693D01*
X44367933Y-105562396D01*
X44623198Y-105398138D01*
X44794446Y-105147508D01*
X44854693Y-104850000D01*
X44854693Y-101850000D01*
X44802396Y-101572067D01*
X44638138Y-101316802D01*
X44387508Y-101145554D01*
X44090000Y-101085307D01*
X41090000Y-101085307D01*
X40812067Y-101137604D01*
X40556802Y-101301862D01*
X40385554Y-101552492D01*
X40325307Y-101850000D01*
X38825000Y-101850000D01*
X38825000Y-91602369D01*
X39784759Y-91602369D01*
X40077311Y-92040255D01*
X40587626Y-92405272D01*
X40825000Y-92301350D01*
X40825000Y-91365000D01*
X41675000Y-91365000D01*
X41675000Y-92301350D01*
X41912374Y-92405272D01*
X42422689Y-92040255D01*
X42484324Y-91948000D01*
X50946654Y-91948000D01*
X51068447Y-92560293D01*
X51415283Y-93079371D01*
X51622756Y-93218000D01*
X51415283Y-93356629D01*
X51068447Y-93875707D01*
X50946654Y-94488000D01*
X51068447Y-95100293D01*
X51415283Y-95619371D01*
X51934361Y-95966207D01*
X52546654Y-96088000D01*
X52609346Y-96088000D01*
X53221639Y-95966207D01*
X53740717Y-95619371D01*
X54087553Y-95100293D01*
X54209346Y-94488000D01*
X54197400Y-94427942D01*
X56039818Y-94427942D01*
X56199334Y-94814000D01*
X56494446Y-95109628D01*
X56797191Y-95235339D01*
X56955926Y-95394074D01*
X57256017Y-95594589D01*
X57610000Y-95665000D01*
X57629861Y-95665000D01*
X57654446Y-95689628D01*
X58040226Y-95849818D01*
X58457942Y-95850182D01*
X58844000Y-95690666D01*
X59139628Y-95395554D01*
X59299818Y-95009774D01*
X59300182Y-94592058D01*
X59140666Y-94206000D01*
X58845554Y-93910372D01*
X58459774Y-93750182D01*
X58042058Y-93749818D01*
X58033319Y-93753429D01*
X57980666Y-93626000D01*
X57685554Y-93330372D01*
X57299774Y-93170182D01*
X56882058Y-93169818D01*
X56496000Y-93329334D01*
X56200372Y-93624446D01*
X56040182Y-94010226D01*
X56039818Y-94427942D01*
X54197400Y-94427942D01*
X54087553Y-93875707D01*
X53740717Y-93356629D01*
X53533244Y-93218000D01*
X53740717Y-93079371D01*
X54087553Y-92560293D01*
X54095977Y-92517942D01*
X58459818Y-92517942D01*
X58619334Y-92904000D01*
X58914446Y-93199628D01*
X59300226Y-93359818D01*
X59717942Y-93360182D01*
X59948300Y-93265000D01*
X60149631Y-93265000D01*
X60450226Y-93389818D01*
X60867942Y-93390182D01*
X61254000Y-93230666D01*
X61549628Y-92935554D01*
X61709818Y-92549774D01*
X61709834Y-92531063D01*
X66514820Y-92531063D01*
X66669684Y-92796632D01*
X67462604Y-92893644D01*
X67950316Y-92796632D01*
X68105180Y-92531063D01*
X67310000Y-91735883D01*
X66514820Y-92531063D01*
X61709834Y-92531063D01*
X61710182Y-92132058D01*
X61669121Y-92032682D01*
X61674000Y-92030666D01*
X61969628Y-91735554D01*
X62129818Y-91349774D01*
X62130118Y-91004604D01*
X65268356Y-91004604D01*
X65365368Y-91492316D01*
X65630937Y-91647180D01*
X66426117Y-90852000D01*
X68193883Y-90852000D01*
X68989063Y-91647180D01*
X69254632Y-91492316D01*
X69351644Y-90699396D01*
X69254632Y-90211684D01*
X68989063Y-90056820D01*
X68193883Y-90852000D01*
X66426117Y-90852000D01*
X65630937Y-90056820D01*
X65365368Y-90211684D01*
X65268356Y-91004604D01*
X62130118Y-91004604D01*
X62130182Y-90932058D01*
X61970666Y-90546000D01*
X61675554Y-90250372D01*
X61289774Y-90090182D01*
X60872058Y-90089818D01*
X60486000Y-90249334D01*
X60190372Y-90544446D01*
X60030182Y-90930226D01*
X60029818Y-91347942D01*
X60050258Y-91397411D01*
X59719774Y-91260182D01*
X59302058Y-91259818D01*
X58916000Y-91419334D01*
X58620372Y-91714446D01*
X58460182Y-92100226D01*
X58459818Y-92517942D01*
X54095977Y-92517942D01*
X54209346Y-91948000D01*
X54087553Y-91335707D01*
X53802109Y-90908509D01*
X53961198Y-90806138D01*
X54132446Y-90555508D01*
X54192693Y-90258000D01*
X54192693Y-90031063D01*
X71554820Y-90031063D01*
X71709684Y-90296632D01*
X72502604Y-90393644D01*
X72990316Y-90296632D01*
X73145180Y-90031063D01*
X72350000Y-89235883D01*
X71554820Y-90031063D01*
X54192693Y-90031063D01*
X54192693Y-89172937D01*
X66514820Y-89172937D01*
X67310000Y-89968117D01*
X68105180Y-89172937D01*
X67950316Y-88907368D01*
X67157396Y-88810356D01*
X66669684Y-88907368D01*
X66514820Y-89172937D01*
X54192693Y-89172937D01*
X54192693Y-88558000D01*
X54182646Y-88504604D01*
X70308356Y-88504604D01*
X70405368Y-88992316D01*
X70670937Y-89147180D01*
X71466117Y-88352000D01*
X73233883Y-88352000D01*
X74029063Y-89147180D01*
X74294632Y-88992316D01*
X74391644Y-88199396D01*
X74294632Y-87711684D01*
X74029063Y-87556820D01*
X73233883Y-88352000D01*
X71466117Y-88352000D01*
X70670937Y-87556820D01*
X70405368Y-87711684D01*
X70308356Y-88504604D01*
X54182646Y-88504604D01*
X54140396Y-88280067D01*
X53976138Y-88024802D01*
X53725508Y-87853554D01*
X53428000Y-87793307D01*
X51728000Y-87793307D01*
X51450067Y-87845604D01*
X51194802Y-88009862D01*
X51023554Y-88260492D01*
X50963307Y-88558000D01*
X50963307Y-90258000D01*
X51015604Y-90535933D01*
X51179862Y-90791198D01*
X51353158Y-90909606D01*
X51068447Y-91335707D01*
X50946654Y-91948000D01*
X42484324Y-91948000D01*
X42715241Y-91602369D01*
X42603336Y-91365000D01*
X41675000Y-91365000D01*
X40825000Y-91365000D01*
X39896664Y-91365000D01*
X39784759Y-91602369D01*
X38825000Y-91602369D01*
X38825000Y-87550000D01*
X39635307Y-87550000D01*
X39635307Y-89250000D01*
X39687604Y-89527933D01*
X39851862Y-89783198D01*
X39999998Y-89884415D01*
X39999998Y-89955466D01*
X39784759Y-90277631D01*
X39896664Y-90515000D01*
X40825000Y-90515000D01*
X40825000Y-90090000D01*
X41675000Y-90090000D01*
X41675000Y-90515000D01*
X42603336Y-90515000D01*
X42715241Y-90277631D01*
X42500002Y-89955466D01*
X42500002Y-89883846D01*
X42633198Y-89798138D01*
X42804446Y-89547508D01*
X42864693Y-89250000D01*
X42864693Y-87550000D01*
X42812396Y-87272067D01*
X42648138Y-87016802D01*
X42397508Y-86845554D01*
X42100000Y-86785307D01*
X40400000Y-86785307D01*
X40122067Y-86837604D01*
X39866802Y-87001862D01*
X39695554Y-87252492D01*
X39635307Y-87550000D01*
X38825000Y-87550000D01*
X38825000Y-86248079D01*
X65309654Y-86248079D01*
X65613494Y-86983429D01*
X66175612Y-87546529D01*
X66910430Y-87851652D01*
X67706079Y-87852346D01*
X68441429Y-87548506D01*
X69004529Y-86986388D01*
X69134685Y-86672937D01*
X71554820Y-86672937D01*
X72350000Y-87468117D01*
X73145180Y-86672937D01*
X72990316Y-86407368D01*
X72197396Y-86310356D01*
X71709684Y-86407368D01*
X71554820Y-86672937D01*
X69134685Y-86672937D01*
X69309652Y-86251570D01*
X69310346Y-85455921D01*
X69006506Y-84720571D01*
X68444388Y-84157471D01*
X67709570Y-83852348D01*
X66913921Y-83851654D01*
X66178571Y-84155494D01*
X65615471Y-84717612D01*
X65310348Y-85452430D01*
X65309654Y-86248079D01*
X38825000Y-86248079D01*
X38825000Y-82825000D01*
X66480548Y-82825000D01*
X113639340Y-82951404D01*
X113639340Y-82951404D01*
G37*
X113639340Y-82951404D02*
X113399151Y-83310873D01*
X113304000Y-83789227D01*
X113304000Y-87406773D01*
X113399151Y-87885127D01*
X113670117Y-88290656D01*
X114011858Y-88519000D01*
X113670117Y-88747344D01*
X113399151Y-89152873D01*
X113304000Y-89631227D01*
X113304000Y-93248773D01*
X113399151Y-93727127D01*
X113670117Y-94132656D01*
X113821789Y-94234000D01*
X113670117Y-94335344D01*
X113399151Y-94740873D01*
X113304000Y-95219227D01*
X113304000Y-98836773D01*
X113399151Y-99315127D01*
X113670117Y-99720656D01*
X114075646Y-99991622D01*
X114554000Y-100086773D01*
X115032354Y-99991622D01*
X115205718Y-99875784D01*
X115141227Y-100200000D01*
X115236378Y-100678354D01*
X115507344Y-101083883D01*
X115912873Y-101354849D01*
X116391227Y-101450000D01*
X120008773Y-101450000D01*
X120487127Y-101354849D01*
X120892656Y-101083883D01*
X121000000Y-100923231D01*
X121107344Y-101083883D01*
X121512873Y-101354849D01*
X121991227Y-101450000D01*
X125608773Y-101450000D01*
X126087127Y-101354849D01*
X126492656Y-101083883D01*
X126500000Y-101072892D01*
X126507344Y-101083883D01*
X126912873Y-101354849D01*
X127391227Y-101450000D01*
X131008773Y-101450000D01*
X131487127Y-101354849D01*
X131892656Y-101083883D01*
X131960643Y-100982133D01*
X132332873Y-101230849D01*
X132811227Y-101326000D01*
X133012000Y-101326000D01*
X133012000Y-106446000D01*
X132811227Y-106446000D01*
X132332873Y-106541151D01*
X131927344Y-106812117D01*
X131922558Y-106819279D01*
X131587127Y-106595151D01*
X131108773Y-106500000D01*
X127491227Y-106500000D01*
X127012873Y-106595151D01*
X126643305Y-106842089D01*
X126642656Y-106841117D01*
X126237127Y-106570151D01*
X125758773Y-106475000D01*
X122141227Y-106475000D01*
X121662873Y-106570151D01*
X121257344Y-106841117D01*
X121083352Y-107101514D01*
X120892656Y-106816117D01*
X120487127Y-106545151D01*
X120008773Y-106450000D01*
X116391227Y-106450000D01*
X115912873Y-106545151D01*
X115507344Y-106816117D01*
X115236378Y-107221646D01*
X115141227Y-107700000D01*
X115236378Y-108178354D01*
X115507344Y-108583883D01*
X115912873Y-108854849D01*
X116391227Y-108950000D01*
X120008773Y-108950000D01*
X120487127Y-108854849D01*
X120892656Y-108583883D01*
X121066648Y-108323486D01*
X121257344Y-108608883D01*
X121662873Y-108879849D01*
X122141227Y-108975000D01*
X125758773Y-108975000D01*
X126237127Y-108879849D01*
X126606695Y-108632911D01*
X126607344Y-108633883D01*
X127012873Y-108904849D01*
X127491227Y-109000000D01*
X131108773Y-109000000D01*
X131587127Y-108904849D01*
X131992656Y-108633883D01*
X131997442Y-108626721D01*
X132332873Y-108850849D01*
X132811227Y-108946000D01*
X133012000Y-108946000D01*
X133012000Y-126175000D01*
X115581980Y-126175000D01*
X115708849Y-125985127D01*
X115804000Y-125506773D01*
X115804000Y-121889227D01*
X115708849Y-121410873D01*
X115437883Y-121005344D01*
X115286211Y-120904000D01*
X115437883Y-120802656D01*
X115708849Y-120397127D01*
X115804000Y-119918773D01*
X115804000Y-116301227D01*
X115708849Y-115822873D01*
X115437883Y-115417344D01*
X115096142Y-115189000D01*
X115437883Y-114960656D01*
X115708849Y-114555127D01*
X115804000Y-114076773D01*
X115804000Y-110459227D01*
X115708849Y-109980873D01*
X115437883Y-109575344D01*
X115032354Y-109304378D01*
X114554000Y-109209227D01*
X114075646Y-109304378D01*
X113670117Y-109575344D01*
X113399151Y-109980873D01*
X113304000Y-110459227D01*
X113304000Y-114076773D01*
X113399151Y-114555127D01*
X113670117Y-114960656D01*
X114011858Y-115189000D01*
X113670117Y-115417344D01*
X113399151Y-115822873D01*
X113304000Y-116301227D01*
X113304000Y-119918773D01*
X113399151Y-120397127D01*
X113670117Y-120802656D01*
X113821789Y-120904000D01*
X113670117Y-121005344D01*
X113399151Y-121410873D01*
X113304000Y-121889227D01*
X113304000Y-125506773D01*
X113399151Y-125985127D01*
X113526020Y-126175000D01*
X52107968Y-126175000D01*
X52431345Y-125852187D01*
X52774608Y-125025516D01*
X52774856Y-124741410D01*
X79962803Y-124741410D01*
X80234190Y-125034058D01*
X81328825Y-125109045D01*
X81705810Y-125034058D01*
X81977197Y-124741410D01*
X80970000Y-123734214D01*
X79962803Y-124741410D01*
X52774856Y-124741410D01*
X52775390Y-124130411D01*
X52433569Y-123303142D01*
X51810342Y-122678825D01*
X78180955Y-122678825D01*
X78255942Y-123055810D01*
X78548590Y-123327197D01*
X79555786Y-122320000D01*
X82384214Y-122320000D01*
X83391410Y-123327197D01*
X83684058Y-123055810D01*
X83759045Y-121961175D01*
X83684058Y-121584190D01*
X83391410Y-121312803D01*
X82384214Y-122320000D01*
X79555786Y-122320000D01*
X78548590Y-121312803D01*
X78255942Y-121584190D01*
X78180955Y-122678825D01*
X51810342Y-122678825D01*
X51801187Y-122669655D01*
X50974516Y-122326392D01*
X50079411Y-122325610D01*
X49252142Y-122667431D01*
X48619452Y-123299018D01*
X47991187Y-122669655D01*
X47164516Y-122326392D01*
X46269411Y-122325610D01*
X45442142Y-122667431D01*
X44809452Y-123299018D01*
X44181187Y-122669655D01*
X43354516Y-122326392D01*
X42459411Y-122325610D01*
X41632142Y-122667431D01*
X40998655Y-123299813D01*
X40655392Y-124126484D01*
X40654610Y-125021589D01*
X40996431Y-125848858D01*
X41322004Y-126175000D01*
X38825000Y-126175000D01*
X38825000Y-120195589D01*
X40654610Y-120195589D01*
X40996431Y-121022858D01*
X41628813Y-121656345D01*
X42455484Y-121999608D01*
X43350589Y-122000390D01*
X44177858Y-121658569D01*
X44810548Y-121026982D01*
X45438813Y-121656345D01*
X46265484Y-121999608D01*
X47160589Y-122000390D01*
X47987858Y-121658569D01*
X48620548Y-121026982D01*
X49248813Y-121656345D01*
X50075484Y-121999608D01*
X50970589Y-122000390D01*
X51797858Y-121658569D01*
X52431345Y-121026187D01*
X52774608Y-120199516D01*
X52774870Y-119898590D01*
X79962803Y-119898590D01*
X80970000Y-120905786D01*
X81977197Y-119898590D01*
X81705810Y-119605942D01*
X80611175Y-119530955D01*
X80234190Y-119605942D01*
X79962803Y-119898590D01*
X52774870Y-119898590D01*
X52775390Y-119304411D01*
X52433569Y-118477142D01*
X51801187Y-117843655D01*
X50974516Y-117500392D01*
X50079411Y-117499610D01*
X49252142Y-117841431D01*
X48619452Y-118473018D01*
X47991187Y-117843655D01*
X47164516Y-117500392D01*
X46269411Y-117499610D01*
X45442142Y-117841431D01*
X44809452Y-118473018D01*
X44181187Y-117843655D01*
X43354516Y-117500392D01*
X42459411Y-117499610D01*
X41632142Y-117841431D01*
X40998655Y-118473813D01*
X40655392Y-119300484D01*
X40654610Y-120195589D01*
X38825000Y-120195589D01*
X38825000Y-111600000D01*
X48805307Y-111600000D01*
X48805307Y-114600000D01*
X48857604Y-114877933D01*
X49021862Y-115133198D01*
X49272492Y-115304446D01*
X49570000Y-115364693D01*
X52570000Y-115364693D01*
X52847933Y-115312396D01*
X53103198Y-115148138D01*
X53274446Y-114897508D01*
X53334693Y-114600000D01*
X53334693Y-113545589D01*
X69309610Y-113545589D01*
X69651431Y-114372858D01*
X70283813Y-115006345D01*
X71110484Y-115349608D01*
X72005589Y-115350390D01*
X72832858Y-115008569D01*
X73466345Y-114376187D01*
X73809608Y-113549516D01*
X73810390Y-112654411D01*
X73468569Y-111827142D01*
X73166955Y-111525000D01*
X78985307Y-111525000D01*
X78985307Y-114525000D01*
X79037604Y-114802933D01*
X79201862Y-115058198D01*
X79452492Y-115229446D01*
X79750000Y-115289693D01*
X82750000Y-115289693D01*
X83027933Y-115237396D01*
X83283198Y-115073138D01*
X83365994Y-114951961D01*
X100873699Y-114951961D01*
X101067361Y-115226784D01*
X101961149Y-115316592D01*
X102412639Y-115226784D01*
X102606301Y-114951961D01*
X101740000Y-114085660D01*
X100873699Y-114951961D01*
X83365994Y-114951961D01*
X83454446Y-114822508D01*
X83514693Y-114525000D01*
X83514693Y-113246149D01*
X99448408Y-113246149D01*
X99538216Y-113697639D01*
X99813039Y-113891301D01*
X100679340Y-113025000D01*
X102800660Y-113025000D01*
X103666961Y-113891301D01*
X103941784Y-113697639D01*
X104031592Y-112803851D01*
X103941784Y-112352361D01*
X103666961Y-112158699D01*
X102800660Y-113025000D01*
X100679340Y-113025000D01*
X99813039Y-112158699D01*
X99538216Y-112352361D01*
X99448408Y-113246149D01*
X83514693Y-113246149D01*
X83514693Y-111525000D01*
X83462396Y-111247067D01*
X83366500Y-111098039D01*
X100873699Y-111098039D01*
X101740000Y-111964340D01*
X102606301Y-111098039D01*
X102412639Y-110823216D01*
X101518851Y-110733408D01*
X101067361Y-110823216D01*
X100873699Y-111098039D01*
X83366500Y-111098039D01*
X83298138Y-110991802D01*
X83047508Y-110820554D01*
X82750000Y-110760307D01*
X79750000Y-110760307D01*
X79472067Y-110812604D01*
X79216802Y-110976862D01*
X79045554Y-111227492D01*
X78985307Y-111525000D01*
X73166955Y-111525000D01*
X72836187Y-111193655D01*
X72009516Y-110850392D01*
X71114411Y-110849610D01*
X70287142Y-111191431D01*
X69653655Y-111823813D01*
X69310392Y-112650484D01*
X69309610Y-113545589D01*
X53334693Y-113545589D01*
X53334693Y-111600000D01*
X53282396Y-111322067D01*
X53118138Y-111066802D01*
X52867508Y-110895554D01*
X52570000Y-110835307D01*
X49570000Y-110835307D01*
X49292067Y-110887604D01*
X49036802Y-111051862D01*
X48865554Y-111302492D01*
X48805307Y-111600000D01*
X38825000Y-111600000D01*
X38825000Y-110356961D01*
X41723699Y-110356961D01*
X41917361Y-110631784D01*
X42811149Y-110721592D01*
X43262639Y-110631784D01*
X43456301Y-110356961D01*
X42590000Y-109490660D01*
X41723699Y-110356961D01*
X38825000Y-110356961D01*
X38825000Y-108651149D01*
X40298408Y-108651149D01*
X40388216Y-109102639D01*
X40663039Y-109296301D01*
X41529340Y-108430000D01*
X43650660Y-108430000D01*
X44516961Y-109296301D01*
X44791784Y-109102639D01*
X44881592Y-108208851D01*
X44791784Y-107757361D01*
X44516961Y-107563699D01*
X43650660Y-108430000D01*
X41529340Y-108430000D01*
X40663039Y-107563699D01*
X40388216Y-107757361D01*
X40298408Y-108651149D01*
X38825000Y-108651149D01*
X38825000Y-106503039D01*
X41723699Y-106503039D01*
X42590000Y-107369340D01*
X43456301Y-106503039D01*
X43262639Y-106228216D01*
X42368851Y-106138408D01*
X41917361Y-106228216D01*
X41723699Y-106503039D01*
X38825000Y-106503039D01*
X38825000Y-101850000D01*
X40325307Y-101850000D01*
X40325307Y-104850000D01*
X40377604Y-105127933D01*
X40541862Y-105383198D01*
X40792492Y-105554446D01*
X41090000Y-105614693D01*
X44090000Y-105614693D01*
X44367933Y-105562396D01*
X44623198Y-105398138D01*
X44794446Y-105147508D01*
X44854693Y-104850000D01*
X44854693Y-101850000D01*
X44802396Y-101572067D01*
X44638138Y-101316802D01*
X44387508Y-101145554D01*
X44090000Y-101085307D01*
X41090000Y-101085307D01*
X40812067Y-101137604D01*
X40556802Y-101301862D01*
X40385554Y-101552492D01*
X40325307Y-101850000D01*
X38825000Y-101850000D01*
X38825000Y-91602369D01*
X39784759Y-91602369D01*
X40077311Y-92040255D01*
X40587626Y-92405272D01*
X40825000Y-92301350D01*
X40825000Y-91365000D01*
X41675000Y-91365000D01*
X41675000Y-92301350D01*
X41912374Y-92405272D01*
X42422689Y-92040255D01*
X42484324Y-91948000D01*
X50946654Y-91948000D01*
X51068447Y-92560293D01*
X51415283Y-93079371D01*
X51622756Y-93218000D01*
X51415283Y-93356629D01*
X51068447Y-93875707D01*
X50946654Y-94488000D01*
X51068447Y-95100293D01*
X51415283Y-95619371D01*
X51934361Y-95966207D01*
X52546654Y-96088000D01*
X52609346Y-96088000D01*
X53221639Y-95966207D01*
X53740717Y-95619371D01*
X54087553Y-95100293D01*
X54209346Y-94488000D01*
X54197400Y-94427942D01*
X56039818Y-94427942D01*
X56199334Y-94814000D01*
X56494446Y-95109628D01*
X56797191Y-95235339D01*
X56955926Y-95394074D01*
X57256017Y-95594589D01*
X57610000Y-95665000D01*
X57629861Y-95665000D01*
X57654446Y-95689628D01*
X58040226Y-95849818D01*
X58457942Y-95850182D01*
X58844000Y-95690666D01*
X59139628Y-95395554D01*
X59299818Y-95009774D01*
X59300182Y-94592058D01*
X59140666Y-94206000D01*
X58845554Y-93910372D01*
X58459774Y-93750182D01*
X58042058Y-93749818D01*
X58033319Y-93753429D01*
X57980666Y-93626000D01*
X57685554Y-93330372D01*
X57299774Y-93170182D01*
X56882058Y-93169818D01*
X56496000Y-93329334D01*
X56200372Y-93624446D01*
X56040182Y-94010226D01*
X56039818Y-94427942D01*
X54197400Y-94427942D01*
X54087553Y-93875707D01*
X53740717Y-93356629D01*
X53533244Y-93218000D01*
X53740717Y-93079371D01*
X54087553Y-92560293D01*
X54095977Y-92517942D01*
X58459818Y-92517942D01*
X58619334Y-92904000D01*
X58914446Y-93199628D01*
X59300226Y-93359818D01*
X59717942Y-93360182D01*
X59948300Y-93265000D01*
X60149631Y-93265000D01*
X60450226Y-93389818D01*
X60867942Y-93390182D01*
X61254000Y-93230666D01*
X61549628Y-92935554D01*
X61709818Y-92549774D01*
X61709834Y-92531063D01*
X66514820Y-92531063D01*
X66669684Y-92796632D01*
X67462604Y-92893644D01*
X67950316Y-92796632D01*
X68105180Y-92531063D01*
X67310000Y-91735883D01*
X66514820Y-92531063D01*
X61709834Y-92531063D01*
X61710182Y-92132058D01*
X61669121Y-92032682D01*
X61674000Y-92030666D01*
X61969628Y-91735554D01*
X62129818Y-91349774D01*
X62130118Y-91004604D01*
X65268356Y-91004604D01*
X65365368Y-91492316D01*
X65630937Y-91647180D01*
X66426117Y-90852000D01*
X68193883Y-90852000D01*
X68989063Y-91647180D01*
X69254632Y-91492316D01*
X69351644Y-90699396D01*
X69254632Y-90211684D01*
X68989063Y-90056820D01*
X68193883Y-90852000D01*
X66426117Y-90852000D01*
X65630937Y-90056820D01*
X65365368Y-90211684D01*
X65268356Y-91004604D01*
X62130118Y-91004604D01*
X62130182Y-90932058D01*
X61970666Y-90546000D01*
X61675554Y-90250372D01*
X61289774Y-90090182D01*
X60872058Y-90089818D01*
X60486000Y-90249334D01*
X60190372Y-90544446D01*
X60030182Y-90930226D01*
X60029818Y-91347942D01*
X60050258Y-91397411D01*
X59719774Y-91260182D01*
X59302058Y-91259818D01*
X58916000Y-91419334D01*
X58620372Y-91714446D01*
X58460182Y-92100226D01*
X58459818Y-92517942D01*
X54095977Y-92517942D01*
X54209346Y-91948000D01*
X54087553Y-91335707D01*
X53802109Y-90908509D01*
X53961198Y-90806138D01*
X54132446Y-90555508D01*
X54192693Y-90258000D01*
X54192693Y-90031063D01*
X71554820Y-90031063D01*
X71709684Y-90296632D01*
X72502604Y-90393644D01*
X72990316Y-90296632D01*
X73145180Y-90031063D01*
X72350000Y-89235883D01*
X71554820Y-90031063D01*
X54192693Y-90031063D01*
X54192693Y-89172937D01*
X66514820Y-89172937D01*
X67310000Y-89968117D01*
X68105180Y-89172937D01*
X67950316Y-88907368D01*
X67157396Y-88810356D01*
X66669684Y-88907368D01*
X66514820Y-89172937D01*
X54192693Y-89172937D01*
X54192693Y-88558000D01*
X54182646Y-88504604D01*
X70308356Y-88504604D01*
X70405368Y-88992316D01*
X70670937Y-89147180D01*
X71466117Y-88352000D01*
X73233883Y-88352000D01*
X74029063Y-89147180D01*
X74294632Y-88992316D01*
X74391644Y-88199396D01*
X74294632Y-87711684D01*
X74029063Y-87556820D01*
X73233883Y-88352000D01*
X71466117Y-88352000D01*
X70670937Y-87556820D01*
X70405368Y-87711684D01*
X70308356Y-88504604D01*
X54182646Y-88504604D01*
X54140396Y-88280067D01*
X53976138Y-88024802D01*
X53725508Y-87853554D01*
X53428000Y-87793307D01*
X51728000Y-87793307D01*
X51450067Y-87845604D01*
X51194802Y-88009862D01*
X51023554Y-88260492D01*
X50963307Y-88558000D01*
X50963307Y-90258000D01*
X51015604Y-90535933D01*
X51179862Y-90791198D01*
X51353158Y-90909606D01*
X51068447Y-91335707D01*
X50946654Y-91948000D01*
X42484324Y-91948000D01*
X42715241Y-91602369D01*
X42603336Y-91365000D01*
X41675000Y-91365000D01*
X40825000Y-91365000D01*
X39896664Y-91365000D01*
X39784759Y-91602369D01*
X38825000Y-91602369D01*
X38825000Y-87550000D01*
X39635307Y-87550000D01*
X39635307Y-89250000D01*
X39687604Y-89527933D01*
X39851862Y-89783198D01*
X39999998Y-89884415D01*
X39999998Y-89955466D01*
X39784759Y-90277631D01*
X39896664Y-90515000D01*
X40825000Y-90515000D01*
X40825000Y-90090000D01*
X41675000Y-90090000D01*
X41675000Y-90515000D01*
X42603336Y-90515000D01*
X42715241Y-90277631D01*
X42500002Y-89955466D01*
X42500002Y-89883846D01*
X42633198Y-89798138D01*
X42804446Y-89547508D01*
X42864693Y-89250000D01*
X42864693Y-87550000D01*
X42812396Y-87272067D01*
X42648138Y-87016802D01*
X42397508Y-86845554D01*
X42100000Y-86785307D01*
X40400000Y-86785307D01*
X40122067Y-86837604D01*
X39866802Y-87001862D01*
X39695554Y-87252492D01*
X39635307Y-87550000D01*
X38825000Y-87550000D01*
X38825000Y-86248079D01*
X65309654Y-86248079D01*
X65613494Y-86983429D01*
X66175612Y-87546529D01*
X66910430Y-87851652D01*
X67706079Y-87852346D01*
X68441429Y-87548506D01*
X69004529Y-86986388D01*
X69134685Y-86672937D01*
X71554820Y-86672937D01*
X72350000Y-87468117D01*
X73145180Y-86672937D01*
X72990316Y-86407368D01*
X72197396Y-86310356D01*
X71709684Y-86407368D01*
X71554820Y-86672937D01*
X69134685Y-86672937D01*
X69309652Y-86251570D01*
X69310346Y-85455921D01*
X69006506Y-84720571D01*
X68444388Y-84157471D01*
X67709570Y-83852348D01*
X66913921Y-83851654D01*
X66178571Y-84155494D01*
X65615471Y-84717612D01*
X65310348Y-85452430D01*
X65309654Y-86248079D01*
X38825000Y-86248079D01*
X38825000Y-82825000D01*
X66480548Y-82825000D01*
X113639340Y-82951404D01*
M02*
